<?xml version="1.0" encoding="iso-8859-1"?>
<!-- Generator: Adobe Illustrator 21.0.0, SVG Export Plug-In . SVG Version: 6.00 Build 0)  -->
<svg xmlns="http://www.w3.org/2000/svg" xmlns:xlink="http://www.w3.org/1999/xlink" version="1.1" id="Layer_1" x="0px" y="0px" viewBox="0 0 64 64" style="enable-background:new 0 0 64 64;" xml:space="preserve" width="64px" height="64px">
<linearGradient id="SVGID_1__52139" gradientUnits="userSpaceOnUse" x1="31.9997" y1="26.3333" x2="31.9997" y2="43.3341" spreadMethod="reflect">
	<stop offset="0" style="stop-color:#6DC7FF"/>
	<stop offset="1" style="stop-color:#E6ABFF"/>
</linearGradient>
<path style="fill:url(#SVGID_1__52139);" d="M38.124,36.998H36c-0.552,0-1,0.434-1,0.987v3.014c0,0.551-0.446,0.999-0.997,0.999h-4.006  c-0.551,0-0.997-0.448-0.997-0.999v-3.014c0-0.553-0.448-0.987-1-0.987h-2.124c-0.721,0-1.132-0.89-0.7-1.508l5.424-7.76  c0.68-0.973,2.119-0.974,2.799-0.002l5.424,7.763C39.256,36.109,38.844,36.998,38.124,36.998z"/>
<linearGradient id="SVGID_2__52139" gradientUnits="userSpaceOnUse" x1="23" y1="12.8333" x2="23" y2="53.9429" spreadMethod="reflect">
	<stop offset="0" style="stop-color:#1A6DFF"/>
	<stop offset="1" style="stop-color:#C822FF"/>
</linearGradient>
<path style="fill:url(#SVGID_2__52139);" d="M19,25h2c0-3,2.691-5.999,6-5.999v-2C22.589,17.001,19,21,19,25z"/>
<linearGradient id="SVGID_3__52139" gradientUnits="userSpaceOnUse" x1="48.5" y1="12.8333" x2="48.5" y2="53.9429" spreadMethod="reflect">
	<stop offset="0" style="stop-color:#1A6DFF"/>
	<stop offset="1" style="stop-color:#C822FF"/>
</linearGradient>
<path style="fill:url(#SVGID_3__52139);" d="M52,30c0-4-3.141-6.999-7-6.999v2c2.757,0,5,1.999,5,4.999H52z"/>
<linearGradient id="SVGID_4__52139" gradientUnits="userSpaceOnUse" x1="32" y1="12" x2="32" y2="55.3337" spreadMethod="reflect">
	<stop offset="0" style="stop-color:#1A6DFF"/>
	<stop offset="1" style="stop-color:#C822FF"/>
</linearGradient>
<path style="fill:url(#SVGID_4__52139);" d="M55.106,34.334C55.699,32.964,56,31.509,56,30.001c0-6.065-4.935-11-11-11  c-2.424,0-4.721,0.777-6.618,2.218c-1.601-4.85-6.147-8.218-11.382-8.218c-6.617,0-12,5.383-12,12C15,26.544,15.062,28,15.53,29H15  c-4.963,0-9,4.037-9,9c0,4.303,3.037,7.906,7.08,8.789C13.461,49.17,15.513,51,18,51h21h6h2c2.437,0,4.466-1.754,4.906-4.065  C55.338,46.488,58,43.553,58,40.001C58,37.734,56.912,35.64,55.106,34.334z M47,49h-2h-6H18c-1.302,0-2.402-1-2.816-2h34.632  C49.402,48,48.302,49,47,49z M51,45H15c-3.859,0-7-3.141-7-7s3.141-7,7-7h3.54l-0.627-1.407C17.083,27.727,17,26.807,17,25.001  c0-5.514,4.486-10,10-10c4.844,0,8.979,3.46,9.833,8.228l0.345,1.924l1.358-1.404c1.714-1.772,4.01-2.748,6.464-2.748  c4.963,0,9,4.037,9,9c0,1.368-0.303,2.683-0.884,3.877l-0.656,1.238l0.882,0.469C54.981,36.456,56,38.148,56,40.001  C56,42.758,53.757,45,51,45z"/>
</svg>
