<?xml version="1.0" encoding="UTF-8" standalone="no"?>
<!DOCTYPE svg PUBLIC "-//W3C//DTD SVG 1.1//EN" "http://www.w3.org/Graphics/SVG/1.1/DTD/svg11.dtd">
<svg width="100%" height="100%" viewBox="0 0 465 446" version="1.1" xmlns="http://www.w3.org/2000/svg" xmlns:xlink="http://www.w3.org/1999/xlink" xml:space="preserve" xmlns:serif="http://www.serif.com/" style="fill-rule:evenodd;clip-rule:evenodd;stroke-linejoin:round;stroke-miterlimit:2;">
    <g transform="matrix(1,0,0,1,-79,-66)">
        <path d="M435.7,123.7C470,138.1 487.7,185.7 485.3,228C482.9,270.4 460.4,307.6 445.8,345.7C431.1,383.8 424.3,422.8 401.4,442.2C378.4,461.5 339.2,461.3 307.4,451C275.7,440.8 251.4,420.5 216.7,405C182,389.4 136.9,378.6 129,355.3C121.2,332.1 150.7,296.6 161.4,252.3C172.1,208 164.1,154.9 184,135.9C204,116.9 252,131.9 301.4,130C350.7,128.2 401.5,109.3 435.7,123.7Z" style="fill:white;fill-opacity:0.09;fill-rule:nonzero;"/>
    </g>
</svg>
