<svg width="600" height="600" viewBox="0 0 600 600" fill="none" xmlns="http://www.w3.org/2000/svg">
<path d="M382.119 132.437C434.954 146.007 510.873 144.102 552.522 175.409C594.171 206.715 601.548 271.351 580.843 323.37C560.257 375.507 511.587 415.027 470.653 460.022C429.718 505.018 396.518 555.37 357.725 549.537C319.051 543.704 274.904 481.568 243.608 442.167C212.312 402.647 193.748 385.744 165.903 368.603C138.058 351.462 100.812 334.083 72.8481 300.515C44.884 266.947 26.3205 217.19 33.5793 170.052C40.8381 122.795 73.8001 78.2756 117.472 60.5393C161.143 42.8031 215.406 51.8498 257.411 70.8954C299.417 89.9411 329.285 118.867 382.119 132.437V132.437Z" fill="#B8B8B8" fill-opacity="0.08"/>
</svg>
