<svg width="1000" height="1000" viewBox="0 0 1000 1000" fill="none" xmlns="http://www.w3.org/2000/svg">
<path d="M623.042 203.77C715.735 227.57 848.929 224.229 921.998 279.135C995.067 334.041 1008.01 447.403 971.685 538.634C935.568 630.075 850.182 699.386 778.366 778.3C706.549 857.215 648.303 945.524 580.245 935.294C512.395 925.064 434.942 816.087 380.036 746.985C325.13 677.674 292.562 648.029 243.71 617.966C194.858 587.904 129.514 557.423 80.4534 498.551C31.3928 439.678 -1.17502 352.413 11.5598 269.741C24.2947 186.86 82.1235 108.78 158.741 77.674C235.359 46.5675 330.558 62.4339 404.253 95.8369C477.948 129.24 530.349 179.97 623.042 203.77Z" fill="white" fill-opacity="0.06"/>
</svg>
