<?xml version="1.0" encoding="UTF-8" standalone="no"?>
<!DOCTYPE svg PUBLIC "-//W3C//DTD SVG 1.1//EN" "http://www.w3.org/Graphics/SVG/1.1/DTD/svg11.dtd">
<svg width="100%" height="100%" viewBox="0 0 479 432" version="1.1" xmlns="http://www.w3.org/2000/svg" xmlns:xlink="http://www.w3.org/1999/xlink" xml:space="preserve" xmlns:serif="http://www.serif.com/" style="fill-rule:evenodd;clip-rule:evenodd;stroke-linejoin:round;stroke-miterlimit:2;">
    <g transform="matrix(1,0,0,1,-96,-96)">
        <path d="M394.5,170.1C438.9,181.5 502.7,179.9 537.7,206.2C572.7,232.5 578.9,286.8 561.5,330.5C544.2,374.3 503.3,407.5 468.9,445.3C434.5,483.1 406.6,525.4 374,520.5C341.5,515.6 304.4,463.4 278.1,430.3C251.8,397.1 236.2,382.9 212.8,368.5C189.4,354.1 158.1,339.5 134.6,311.3C111.1,283.1 95.5,241.3 101.6,201.7C107.7,162 135.4,124.6 172.1,109.7C208.8,94.8 254.4,102.4 289.7,118.4C325,134.4 350.1,158.7 394.5,170.1Z" style="fill:white;fill-opacity:0.11;fill-rule:nonzero;"/>
    </g>
</svg>
