<svg width="1105" height="817" viewBox="0 0 1105 817" fill="none" xmlns="http://www.w3.org/2000/svg">
<mask id="mask0" mask-type="alpha" maskUnits="userSpaceOnUse" x="0" y="0" width="1105" height="817">
<rect width="1105" height="817" fill="#C4C4C4"/>
</mask>
<g mask="url(#mask0)">
<path d="M1466 207.146C1443.67 223.551 1417.9 235.409 1390.34 241.954C1385.96 243.024 1381.37 243.996 1376.78 244.774L1365.82 247.01C1339.48 251.863 1315.05 263.318 1295.17 280.141C1275.3 296.965 1260.72 318.52 1253.01 342.487C1247.37 358.155 1243.25 374.262 1240.7 390.615C1237.88 406.561 1236.11 422.992 1234.75 439.812C1228.28 515.942 1229.85 597.807 1191.13 653.713C1105.66 776.707 1019.57 843.308 560.516 808.5C546.602 807.463 533.141 806.199 520.131 804.708C501.347 802.569 482.981 799.944 465.241 797.027C445.1 793.527 425.794 789.638 407.011 785.263C330.334 767.98 246.5 738.5 196.5 690.5C81.0346 558.945 25.7622 428.202 99.2621 331.702C156 264.5 188.461 239.428 205.262 180.702C212.045 157.27 218.025 121 218.755 70.7021C218.755 17.7021 216.251 22.3165 218.025 -19.6859C218.025 -22.8944 218.025 -26.0057 218.755 -29.4086C235.765 -184.973 518.148 -296.007 667.479 -80.5504C739.38 22.6082 848.117 -40.1037 965.62 -109.719C1021.14 -142.776 1078.64 -177.195 1134.99 -196.543C1179.96 -212.1 1222.75 -211.225 1266.37 -205.488C1558.15 -166.305 1592.9 113.419 1466 207.146Z" fill="#FFF0F1"/>
</g>
</svg>
