<svg width="1721" height="830" viewBox="0 0 1721 830" fill="none" xmlns="http://www.w3.org/2000/svg">
<mask id="mask0" mask-type="alpha" maskUnits="userSpaceOnUse" x="0" y="-1" width="1721" height="831">
<rect y="-1" width="1721" height="831" fill="#C4C4C4"/>
</mask>
<g mask="url(#mask0)">
<path d="M2059.24 207.444C2036.91 223.849 2011.14 235.707 1983.58 242.252C1979.2 243.321 1974.61 244.294 1970.01 245.071L1959.06 247.308C1932.71 252.161 1908.29 263.616 1888.41 280.439C1868.53 297.263 1853.96 318.818 1846.25 342.785C1840.61 358.452 1836.49 374.56 1833.94 390.913C1831.12 406.858 1829.35 423.29 1827.99 440.11C1821.52 516.24 1823.08 598.105 1784.37 654.011C1698.9 777.004 1612.81 843.605 1153.75 808.798C1139.84 807.761 1126.38 806.497 1113.37 805.006C1094.59 802.867 1076.22 800.242 1058.48 797.325C1038.34 793.825 1019.03 789.936 1000.25 785.56C923.572 768.278 850.719 738.666 784.965 698.055C611.319 588.285 569.891 424.457 683.95 325.965C751.78 267.628 840.909 74 811.263 -19.388C818.046 -42.8199 934.714 168.262 872.623 110.119C827.438 67.728 821 19.5 811.263 -19.388C811.263 -22.5965 811.263 -25.7078 811.993 -29.1108C829.003 -184.675 1111.39 -295.709 1260.72 -80.2526C1332.62 22.906 1441.36 -39.8059 1558.86 -109.421C1614.37 -142.478 1671.87 -176.897 1728.23 -196.245C1773.2 -211.802 1815.99 -210.927 1859.61 -205.19C2151.38 -166.007 2186.13 113.717 2059.24 207.444Z" fill="#FFF0F1"/>
<circle cx="148" cy="220" r="43" fill="#FFF0F1"/>
<circle cx="73.5" cy="607.5" r="129.5" fill="#FFF0F1"/>
</g>
</svg>
