<svg width="1105" height="817" viewBox="0 0 1105 817" fill="none" xmlns="http://www.w3.org/2000/svg">
<mask id="mask0" mask-type="alpha" maskUnits="userSpaceOnUse" x="0" y="0" width="1105" height="817">
<rect width="1105" height="817" fill="#C4C4C4"/>
</mask>
<g mask="url(#mask0)">
<path d="M1443.24 208.444C1420.91 224.849 1395.14 236.707 1367.58 243.252C1363.2 244.321 1358.61 245.294 1354.01 246.071L1343.06 248.308C1316.71 253.161 1292.29 264.616 1272.41 281.439C1252.53 298.263 1237.96 319.818 1230.25 343.785C1224.61 359.452 1220.49 375.56 1217.94 391.913C1215.12 407.858 1213.35 424.29 1211.99 441.11C1205.52 517.24 1207.08 599.105 1168.37 655.011C1082.9 778.004 996.809 844.605 537.754 809.798C523.84 808.761 510.378 807.497 497.369 806.006C478.585 803.867 460.219 801.242 442.478 798.325C422.338 794.825 403.032 790.936 384.249 786.56C307.572 769.278 234.719 739.666 168.965 699.055C-4.68054 589.285 -46.1094 425.457 67.9501 326.965C135.78 268.628 314.018 287.296 330.819 228.57C337.602 205.139 318.714 169.262 256.623 111.119C211.438 68.728 193.489 23.6144 195.263 -18.388C195.263 -21.5965 195.263 -24.7078 195.993 -28.1108C213.003 -183.675 495.386 -294.709 644.717 -79.2526C716.618 23.906 825.355 -38.8059 942.858 -108.421C998.375 -141.478 1055.87 -175.897 1112.23 -195.245C1157.2 -210.802 1199.99 -209.927 1243.61 -204.19C1535.38 -165.007 1570.13 114.717 1443.24 208.444Z" fill="#EBEEFF"/>
</g>
</svg>
