<svg width="744" height="533" viewBox="0 0 744 533" fill="none" xmlns="http://www.w3.org/2000/svg">
<path d="M723.259 0.0933838H7.25928C3.39328 0.0933838 0.259277 3.22739 0.259277 7.09338V486.093C0.259277 489.959 3.39327 493.093 7.25926 493.093H723.259C727.125 493.093 730.259 489.959 730.259 486.093V7.09338C730.259 3.22739 727.125 0.0933838 723.259 0.0933838Z" fill="#E0E8EF"/>
<path d="M0.259277 36.1524H730.259" stroke="#D2DDE4" stroke-width="2" stroke-miterlimit="10"/>
<path d="M22.7593 27.0934C27.7298 27.0934 31.7593 23.0639 31.7593 18.0934C31.7593 13.1228 27.7298 9.09338 22.7593 9.09338C17.7887 9.09338 13.7593 13.1228 13.7593 18.0934C13.7593 23.0639 17.7887 27.0934 22.7593 27.0934Z" fill="#53A3E7"/>
<path d="M49.7593 27.5934C54.7298 27.5934 58.7593 23.5639 58.7593 18.5934C58.7593 13.6228 54.7298 9.59338 49.7593 9.59338C44.7887 9.59338 40.7593 13.6228 40.7593 18.5934C40.7593 23.5639 44.7887 27.5934 49.7593 27.5934Z" fill="#53A3E7"/>
<path d="M76.7593 28.0934C81.7298 28.0934 85.7593 24.0639 85.7593 19.0934C85.7593 14.1228 81.7298 10.0934 76.7593 10.0934C71.7887 10.0934 67.7593 14.1228 67.7593 19.0934C67.7593 24.0639 71.7887 28.0934 76.7593 28.0934Z" fill="#53A3E7"/>
<path opacity="0.3" d="M661.759 69.5934H45.7593V189.593H661.759V69.5934Z" fill="#008AFF"/>
<path opacity="0.3" d="M45.7593 189.593L661.759 69.5934" stroke="#008AFF" stroke-width="2" stroke-miterlimit="10"/>
<path opacity="0.3" d="M661.759 189.593L45.7593 69.5934" stroke="#008AFF" stroke-width="2" stroke-miterlimit="10"/>
<path opacity="0.3" d="M192.759 265.593H45.7593V458.593H192.759V265.593Z" fill="#008AFF"/>
<path opacity="0.3" d="M661.759 265.593H514.759V458.593H661.759V265.593Z" fill="#008AFF"/>
<path opacity="0.3" d="M427.259 265.593H280.259V458.593H427.259V265.593Z" fill="#008AFF"/>
<path opacity="0.3" d="M45.7593 265.593L192.759 458.593" stroke="#008AFF" stroke-width="2" stroke-miterlimit="10"/>
<path opacity="0.3" d="M192.759 265.593L45.7593 458.593" stroke="#008AFF" stroke-width="2" stroke-miterlimit="10"/>
<path opacity="0.3" d="M280.759 265.593L427.759 458.593" stroke="#008AFF" stroke-width="2" stroke-miterlimit="10"/>
<path opacity="0.3" d="M427.759 265.593L280.759 458.593" stroke="#008AFF" stroke-width="2" stroke-miterlimit="10"/>
<path opacity="0.3" d="M514.759 265.593L661.759 458.593" stroke="#008AFF" stroke-width="2" stroke-miterlimit="10"/>
<path opacity="0.3" d="M661.759 265.593L514.759 458.593" stroke="#008AFF" stroke-width="2" stroke-miterlimit="10"/>
<path d="M743.759 69.5934H127.759V189.593H743.759V69.5934Z" fill="#53A3E7"/>
<path d="M689.759 311.593H542.759V504.593H689.759V311.593Z" fill="#53A3E7"/>
<path d="M668.259 337.093H564.259V349.093H668.259V337.093Z" fill="#3F3D56"/>
<path d="M668.259 363.093H564.259V375.093H668.259V363.093Z" fill="#3F3D56"/>
<path d="M668.259 389.093H564.259V401.093H668.259V389.093Z" fill="#3F3D56"/>
<path d="M668.259 415.093H564.259V427.093H668.259V415.093Z" fill="#3F3D56"/>
<path d="M668.259 441.093H564.259V453.093H668.259V441.093Z" fill="#3F3D56"/>
<path d="M668.259 467.093H564.259V479.093H668.259V467.093Z" fill="#3F3D56"/>
<path d="M228.759 291.593H81.7593V484.593H228.759V291.593Z" fill="#53A3E7"/>
<path d="M207.259 356.093H103.259V368.093H207.259V356.093Z" fill="#3F3D56"/>
<path d="M207.259 382.093H103.259V394.093H207.259V382.093Z" fill="#3F3D56"/>
<path d="M207.259 408.093H103.259V420.093H207.259V408.093Z" fill="#3F3D56"/>
<path d="M465.593 139.962C465.593 162.431 452.237 170.276 435.759 170.276C435.378 170.276 434.996 170.272 434.616 170.263C433.853 170.247 433.096 170.211 432.349 170.16C417.479 169.107 405.925 160.859 405.925 139.962C405.925 118.337 433.56 91.05 435.636 89.0305L435.639 89.0269C435.719 88.9488 435.759 88.9106 435.759 88.9106C435.759 88.9106 465.593 117.494 465.593 139.962Z" fill="#3F3D56"/>
<path d="M434.672 166.839L445.584 151.592L434.645 168.513L434.616 170.263C433.853 170.247 433.096 170.211 432.349 170.16L433.525 147.68L433.516 147.506L433.536 147.473L433.647 145.35L422.681 128.387L433.682 143.758L433.707 144.209L434.596 127.224L425.208 109.696L434.71 124.243L435.636 89.0305L435.639 88.9105V89.0269L435.485 116.794L444.831 105.786L435.447 119.186L435.199 134.393L443.926 119.799L435.163 136.631L435.025 145.085L447.694 124.772L434.978 148.035L434.672 166.839Z" fill="#53A3E7"/>
<path d="M394.759 339.593H247.759V532.593H394.759V339.593Z" fill="#53A3E7"/>
<path d="M354.259 370.093H288.259V436.093H354.259V370.093Z" fill="#3F3D56"/>
<path d="M379.259 450.093H263.259V458.093H379.259V450.093Z" fill="#3F3D56"/>
<path d="M379.259 472.093H263.259V480.093H379.259V472.093Z" fill="#3F3D56"/>
<path d="M379.259 494.093H263.259V502.093H379.259V494.093Z" fill="#3F3D56"/>
</svg>
