<svg width="708" height="548" viewBox="0 0 708 548" fill="none" xmlns="http://www.w3.org/2000/svg">
<mask id="mask0" mask-type="alpha" maskUnits="userSpaceOnUse" x="0" y="0" width="708" height="548">
<rect width="708" height="548" fill="#C4C4C4"/>
</mask>
<g mask="url(#mask0)">
<path d="M418.676 426.576C471.274 397.554 507.716 384.38 517.129 346.512C526.542 308.643 529.086 266.192 556.688 251.045C584.291 235.898 596.057 218.777 535.891 220.941C475.726 223.105 425.164 252.063 404.684 316.408C398.395 334.611 396.385 354.021 398.812 373.129C401.239 392.236 408.036 410.526 418.676 426.576Z" fill="#EFEFEF"/>
<path d="M531.248 240.353C504.167 255.618 480.729 276.597 462.56 301.833V301.833C462.26 302.044 462.055 302.364 461.988 302.724C457.345 309.089 452.893 315.453 448.696 322.581C449.586 312.335 451.049 286.431 445.452 274.657C445.377 274.498 445.271 274.356 445.141 274.237C445.011 274.119 444.859 274.028 444.694 273.969C444.528 273.91 444.353 273.884 444.177 273.893C444.002 273.902 443.83 273.945 443.671 274.021C443.506 274.088 443.357 274.19 443.234 274.319C443.111 274.448 443.017 274.602 442.957 274.77C442.897 274.938 442.873 275.117 442.886 275.295C442.9 275.473 442.95 275.646 443.035 275.803C449.395 289.613 445.706 326.082 445.643 326.718C445.541 327.028 445.541 327.363 445.643 327.673C436.973 342.697 430.12 358.699 425.227 375.343V375.343C425.137 375.531 425.09 375.738 425.09 375.947C425.09 376.156 425.137 376.363 425.227 376.552C417.331 403.538 415.785 431.987 420.712 459.671C420.774 460.003 420.959 460.299 421.231 460.5C421.502 460.701 421.839 460.791 422.174 460.753C422.524 460.677 422.83 460.469 423.031 460.173C423.232 459.877 423.313 459.515 423.256 459.162C418.328 431.598 419.918 403.263 427.898 376.424C450.158 350.648 499.194 341.165 499.703 341.102C499.878 341.068 500.045 341.001 500.194 340.903C500.344 340.805 500.472 340.678 500.573 340.53C500.673 340.383 500.743 340.217 500.78 340.042C500.816 339.867 500.817 339.686 500.784 339.511C500.751 339.335 500.683 339.168 500.585 339.019C500.487 338.869 500.361 338.741 500.213 338.64C500.065 338.54 499.899 338.469 499.725 338.433C499.55 338.397 499.369 338.395 499.194 338.429C497.222 338.811 453.593 347.275 429.552 370.76C437.444 346.646 449.264 324.002 464.532 303.743C495.187 285.413 509.052 285.668 509.052 285.604C509.229 285.622 509.409 285.602 509.578 285.546C509.747 285.49 509.903 285.399 510.035 285.279C510.167 285.159 510.272 285.013 510.344 284.849C510.415 284.686 510.452 284.509 510.451 284.331C510.439 283.985 510.305 283.654 510.072 283.398C509.839 283.141 509.523 282.976 509.179 282.931C508.607 282.931 496.459 282.931 468.666 298.269C485.926 275.488 507.71 256.528 532.648 242.58C532.806 242.505 532.949 242.4 533.067 242.269C533.185 242.139 533.276 241.987 533.335 241.821C533.394 241.656 533.42 241.48 533.411 241.305C533.402 241.129 533.359 240.957 533.284 240.798C533.18 240.634 533.045 240.492 532.886 240.381C532.728 240.27 532.548 240.191 532.359 240.149C532.17 240.108 531.974 240.105 531.783 240.139C531.593 240.174 531.411 240.247 531.248 240.353Z" fill="white"/>
<path d="M699.852 312.653C687.132 310.616 661.692 318.635 637.46 336.901L607.95 342.502L623.023 348.866C614.057 357.426 606.272 367.143 599.873 377.761L567.373 379.607C567.373 379.607 577.867 385.971 590.205 393.418C573.161 414.102 542.442 416.393 510.896 419.194L488.827 404.746L495.187 420.594C471.464 423.203 448.505 427.722 431.587 442.233C431.587 442.233 430.633 446.179 430.57 411.238C430.57 392.972 440.428 365.159 462.815 338.238L472.864 350.967L471.146 328.946C484.029 315.532 498.738 304.005 514.84 294.705L516.557 313.035C516.557 313.035 523.871 299.924 531.694 285.731C539.664 281.93 547.839 278.573 556.18 275.675C566.893 271.998 577.987 269.543 589.252 268.356L578.376 286.94C578.376 286.94 599.364 277.139 617.363 268.547C676.129 274.848 715.434 315.389 699.852 312.653Z" fill="#DAE0EA"/>
<path d="M651.834 300.751C612.647 294.168 572.384 299.905 536.591 317.171C551.664 302.088 552.046 289.677 552.046 289.104C552.046 288.733 551.898 288.377 551.636 288.114C551.374 287.852 551.018 287.704 550.647 287.704C550.46 287.695 550.274 287.725 550.1 287.792C549.927 287.859 549.769 287.962 549.637 288.094C549.505 288.226 549.402 288.384 549.335 288.558C549.268 288.732 549.238 288.918 549.247 289.104C549.247 289.104 549.247 303.042 530.74 319.017C530.59 319.167 530.473 319.346 530.397 319.543C530.32 319.74 530.285 319.951 530.294 320.163C518.03 326.483 506.438 334.031 495.696 342.693C492.007 345.684 488.636 349.057 485.138 352.176C493.915 336.265 491.498 325.954 491.18 325.445C491.052 325.113 490.806 324.839 490.49 324.675C490.174 324.511 489.809 324.468 489.463 324.554C489.286 324.59 489.119 324.663 488.972 324.768C488.826 324.874 488.703 325.009 488.613 325.166C488.522 325.322 488.467 325.496 488.449 325.676C488.431 325.856 488.452 326.038 488.509 326.209C488.509 326.209 492.135 340.02 476.616 360.322C476.616 360.322 476.616 360.322 476.616 360.704C467.879 369.774 460.06 379.688 453.275 390.299C456.229 381.427 456.993 371.972 455.501 362.741C455.457 362.569 455.378 362.407 455.271 362.265C455.163 362.123 455.029 362.005 454.875 361.916C454.721 361.827 454.55 361.769 454.374 361.747C454.198 361.725 454.019 361.738 453.847 361.786C453.669 361.823 453.501 361.896 453.352 362.001C453.203 362.105 453.077 362.239 452.982 362.394C452.887 362.549 452.824 362.722 452.798 362.902C452.772 363.082 452.783 363.265 452.83 363.441C452.83 363.441 456.646 379.225 445.579 403.282C433.254 426.11 426.273 451.442 425.164 477.364C425.162 477.732 425.299 478.086 425.546 478.357C425.794 478.628 426.134 478.796 426.499 478.828V478.828C426.844 478.799 427.167 478.649 427.411 478.405C427.656 478.16 427.806 477.837 427.835 477.492C429.194 448.424 437.95 420.185 453.275 395.454C453.275 395.454 453.275 395.454 453.656 395.454C453.843 395.509 454.042 395.509 454.229 395.454C477.505 384.241 503.887 381.235 529.086 386.926C529.44 387.024 529.819 386.979 530.14 386.801C530.462 386.622 530.7 386.324 530.803 385.971C530.886 385.617 530.834 385.245 530.657 384.928C530.481 384.61 530.193 384.37 529.849 384.253C504.748 378.491 478.451 381.129 454.992 391.763C463.795 378.029 474.286 365.457 486.22 354.34C524.38 336.965 570.172 348.803 570.617 348.93C570.792 348.988 570.978 349.009 571.161 348.992C571.345 348.974 571.523 348.919 571.685 348.829C571.846 348.74 571.987 348.617 572.099 348.47C572.211 348.323 572.291 348.155 572.334 347.975C572.382 347.796 572.393 347.608 572.368 347.424C572.342 347.24 572.28 347.063 572.185 346.903C572.091 346.743 571.965 346.603 571.816 346.492C571.667 346.381 571.497 346.302 571.317 346.257C570.871 346.257 529.786 335.501 492.389 348.866C493.979 347.466 495.442 346.002 497.159 344.602C518.423 327.085 543.19 314.329 569.794 307.193C596.398 300.057 624.22 298.707 651.389 303.233C651.751 303.289 652.12 303.2 652.418 302.985C652.715 302.771 652.916 302.449 652.979 302.088C652.97 301.768 652.851 301.46 652.643 301.217C652.434 300.974 652.149 300.809 651.834 300.751V300.751Z" fill="white"/>
<path d="M619.271 447.515C620.289 470.045 604.261 484.302 598.474 468.773C589.888 445.67 578.185 441.787 550.583 453.243C522.981 464.699 502.565 489.012 507.462 465.972C512.359 442.933 453.339 450.761 420.648 475.137C419.965 475.589 419.307 476.077 418.677 476.601C418.609 475.605 418.609 474.605 418.677 473.61C417.791 450.308 425.82 427.546 441.127 409.965L448.187 424.54L452.13 399.082C453.847 397.491 455.692 396.027 457.6 394.499C468.758 385.988 481.556 379.877 495.187 376.552L491.817 390.681L509.943 374.324C530.468 372.758 551.022 376.969 569.281 386.48L561.459 393.226L578.058 391.381C586.765 396.708 594.759 403.124 601.845 410.474C609.52 417.921 615.074 427.279 617.935 437.587H603.753C603.753 437.587 610.24 441.724 619.271 447.515Z" fill="#C4D6F2"/>
<path d="M417.15 483.284C416.817 483.207 416.527 483.006 416.338 482.722C416.148 482.438 416.075 482.093 416.132 481.756C424.782 442.742 462.497 420.339 494.933 412.384C534.047 402.773 571.253 410.856 589.951 433.004C590.189 433.253 590.321 433.583 590.321 433.927C590.321 434.271 590.189 434.601 589.951 434.85C589.714 435.083 589.394 435.214 589.061 435.214C588.728 435.214 588.408 435.083 588.17 434.85C570.172 413.466 533.856 405.701 495.696 415.057C463.896 422.821 427.199 444.588 418.804 482.52C418.755 482.685 418.672 482.839 418.559 482.97C418.446 483.1 418.307 483.205 418.15 483.278C417.994 483.35 417.823 483.388 417.651 483.389C417.478 483.39 417.307 483.354 417.15 483.284V483.284Z" fill="white"/>
<path d="M447.551 38.0905V471.764C447.551 491.239 423.447 515.424 403.985 515.424L287.978 511.032L184.247 507.023C176.323 507.037 168.627 504.374 162.405 499.465C156.183 494.555 151.8 487.688 149.966 479.974C149.352 477.28 149.032 474.527 149.012 471.764L143.161 256.709L139.409 122.547L136.737 41.7183C136.737 22.2431 164.276 3.02244 183.738 3.02244H412.062C416.697 2.98047 421.294 3.85563 425.59 5.5976C429.885 7.33957 433.794 9.91402 437.092 13.1729C440.39 16.4318 443.012 20.3109 444.807 24.5871C446.602 28.8634 447.534 33.4524 447.551 38.0905V38.0905Z" fill="#0032C2"/>
<path d="M434.831 46.7462V480.419C434.821 489.092 431.618 497.456 425.833 503.914C420.049 510.371 412.089 514.469 403.476 515.424V515.424C402.29 515.487 401.101 515.487 399.914 515.424H171.527C162.199 515.424 153.253 511.716 146.657 505.115C140.061 498.515 136.356 489.563 136.356 480.228V46.7462C136.354 45.0418 136.482 43.3397 136.738 41.6546V41.6546C137.959 33.2933 142.146 25.6509 148.534 20.1237C154.921 14.5966 163.083 11.5536 171.527 11.5508H399.914C409.193 11.6346 418.064 15.3776 424.601 21.9672C431.139 28.5567 434.814 37.4608 434.831 46.7462V46.7462Z" fill="#001E74"/>
<path d="M428.852 62.721V464.445C428.852 470.032 426.634 475.39 422.686 479.341C418.738 483.292 413.384 485.511 407.801 485.511H163.64C158.057 485.511 152.703 483.292 148.755 479.341C144.807 475.39 142.589 470.032 142.589 464.445V62.721C142.622 57.1501 144.853 51.8178 148.795 47.8845C152.738 43.9511 158.073 41.735 163.64 41.7183H407.801C413.368 41.735 418.703 43.9511 422.646 47.8845C426.588 51.8178 428.819 57.1501 428.852 62.721V62.721Z" fill="#F2F2F2"/>
<path d="M322.132 31.9171C324.872 31.9171 327.093 29.6945 327.093 26.9528C327.093 24.2111 324.872 21.9885 322.132 21.9885C319.392 21.9885 317.171 24.2111 317.171 26.9528C317.171 29.6945 319.392 31.9171 322.132 31.9171Z" fill="#F2F2F2"/>
<path d="M308.14 24.1524H236.971C235.39 24.1524 234.109 25.4347 234.109 27.0165C234.109 28.5982 235.39 29.8805 236.971 29.8805H308.14C309.72 29.8805 311.002 28.5982 311.002 27.0165C311.002 25.4347 309.72 24.1524 308.14 24.1524Z" fill="#F2F2F2"/>
<path d="M428.852 62.721V85.5693H142.652V62.721C142.686 57.161 144.908 51.8383 148.837 47.9067C152.765 43.9752 158.084 41.7517 163.64 41.7183H407.801C413.368 41.735 418.703 43.9511 422.646 47.8845C426.588 51.8178 428.819 57.1501 428.852 62.721V62.721Z" fill="#92ADFF"/>
<path d="M215.538 142.658C215.561 145.947 214.926 149.207 213.669 152.245C212.413 155.284 210.562 158.04 208.224 160.352V160.352C203.458 165.093 197.01 167.754 190.289 167.754C183.568 167.754 177.12 165.093 172.354 160.352C170.039 158.027 168.207 155.266 166.962 152.23C165.718 149.193 165.086 145.94 165.103 142.658C165.917 136.543 168.923 130.931 173.561 126.866C178.199 122.802 184.155 120.561 190.321 120.561C196.486 120.561 202.442 122.802 207.08 126.866C211.719 130.931 214.724 136.543 215.538 142.658V142.658Z" fill="white"/>
<path d="M198.239 149.914C200.397 148.252 201.981 145.957 202.769 143.348C203.557 140.74 203.509 137.951 202.632 135.371C201.756 132.792 200.094 130.552 197.88 128.965C195.666 127.379 193.012 126.526 190.289 126.526C187.566 126.526 184.912 127.379 182.698 128.965C180.484 130.552 178.822 132.792 177.946 135.371C177.069 137.951 177.021 140.74 177.809 143.348C178.597 145.957 180.181 148.252 182.339 149.914C178.87 151.745 176.132 154.71 174.58 158.315C176.637 160.389 179.084 162.036 181.781 163.159C184.477 164.283 187.368 164.861 190.289 164.861C193.21 164.861 196.101 164.283 198.797 163.159C201.494 162.036 203.941 160.389 205.998 158.315V158.315C204.464 154.698 201.721 151.728 198.239 149.914V149.914Z" fill="#92ADFF"/>
<path d="M420.902 93.7158H235.953C231.563 93.7158 228.003 97.2776 228.003 101.671V187.528C228.003 191.922 231.563 195.483 235.953 195.483H420.902C425.293 195.483 428.852 191.922 428.852 187.528V101.671C428.852 97.2776 425.293 93.7158 420.902 93.7158Z" fill="white"/>
<path d="M283.781 101.799H245.939C241.373 101.799 237.671 105.503 237.671 110.072V164.998C237.671 169.567 241.373 173.271 245.939 173.271H283.781C288.347 173.271 292.049 169.567 292.049 164.998V110.072C292.049 105.503 288.347 101.799 283.781 101.799Z" fill="#B4C6FD"/>
<path d="M347.317 101.799H309.475C304.909 101.799 301.207 105.503 301.207 110.072V164.998C301.207 169.567 304.909 173.271 309.475 173.271H347.317C351.884 173.271 355.585 169.567 355.585 164.998V110.072C355.585 105.503 351.884 101.799 347.317 101.799Z" fill="#B4C6FD"/>
<path d="M410.917 101.799H373.075C368.509 101.799 364.807 105.503 364.807 110.072V164.998C364.807 169.567 368.509 173.271 373.075 173.271H410.917C415.484 173.271 419.185 169.567 419.185 164.998V110.072C419.185 105.503 415.484 101.799 410.917 101.799Z" fill="#B4C6FD"/>
<path d="M316.535 181.8H241.487C239.379 181.8 237.671 183.509 237.671 185.618C237.671 187.727 239.379 189.437 241.487 189.437H316.535C318.642 189.437 320.351 187.727 320.351 185.618C320.351 183.509 318.642 181.8 316.535 181.8Z" fill="#B4C6FD"/>
<path d="M217.192 55.3383H170.255C165.688 55.3383 161.987 59.0283 161.987 63.5802C161.987 68.1321 165.688 71.8222 170.255 71.8222H217.192C221.758 71.8222 225.46 68.1321 225.46 63.5802C225.46 59.0283 221.758 55.3383 217.192 55.3383Z" fill="white"/>
<path d="M417.214 284.395C417.222 287.681 416.581 290.937 415.325 293.973C414.07 297.01 412.226 299.768 409.9 302.088C405.14 306.845 398.692 309.523 391.965 309.534C388.639 309.555 385.343 308.907 382.273 307.628C379.203 306.349 376.421 304.465 374.093 302.088V302.088C371.767 299.768 369.923 297.01 368.667 293.973C367.412 290.937 366.77 287.681 366.779 284.395C366.301 280.799 366.595 277.143 367.644 273.671C368.692 270.199 370.469 266.992 372.857 264.263C375.245 261.534 378.188 259.348 381.489 257.85C384.789 256.352 388.372 255.577 391.996 255.577C395.621 255.577 399.203 256.352 402.504 257.85C405.805 259.348 408.748 261.534 411.136 264.263C413.523 266.992 415.301 270.199 416.349 273.671C417.397 277.143 417.692 280.799 417.214 284.395V284.395Z" fill="white"/>
<path d="M399.914 291.905C402.073 290.243 403.657 287.947 404.445 285.339C405.233 282.731 405.185 279.942 404.308 277.362C403.431 274.783 401.769 272.542 399.555 270.956C397.342 269.37 394.687 268.517 391.964 268.517C389.242 268.517 386.587 269.37 384.373 270.956C382.16 272.542 380.498 274.783 379.621 277.362C378.744 279.942 378.696 282.731 379.484 285.339C380.272 287.947 381.856 290.243 384.014 291.905C380.545 293.736 377.807 296.701 376.255 300.306V300.306C378.312 302.38 380.76 304.026 383.456 305.15C386.152 306.274 389.044 306.852 391.964 306.852C394.885 306.852 397.777 306.274 400.473 305.15C403.169 304.026 405.616 302.38 407.674 300.306C406.14 296.689 403.397 293.719 399.914 291.905Z" fill="#ED576C"/>
<path d="M307.567 259.128H177.696C174.008 259.128 171.018 262.12 171.018 265.81V300.242C171.018 303.933 174.008 306.925 177.696 306.925H307.567C311.255 306.925 314.245 303.933 314.245 300.242V265.81C314.245 262.12 311.255 259.128 307.567 259.128Z" fill="white"/>
<path d="M233.219 271.22H183.611C181.152 271.22 179.159 273.215 179.159 275.675V275.739C179.159 278.199 181.152 280.194 183.611 280.194H233.219C235.678 280.194 237.671 278.199 237.671 275.739V275.675C237.671 273.215 235.678 271.22 233.219 271.22Z" fill="#B4C6FD"/>
<path d="M293.702 286.686H183.611C181.152 286.686 179.159 288.68 179.159 291.141V291.205C179.159 293.665 181.152 295.66 183.611 295.66H293.702C296.161 295.66 298.154 293.665 298.154 291.205V291.141C298.154 288.68 296.161 286.686 293.702 286.686Z" fill="#B4C6FD"/>
<path d="M215.538 384.507C215.547 387.794 214.905 391.049 213.65 394.086C212.394 397.123 210.55 399.881 208.224 402.2C203.457 406.942 197.01 409.603 190.289 409.603C183.568 409.603 177.12 406.942 172.354 402.2C169.33 399.253 167.087 395.6 165.826 391.569C164.565 387.538 164.326 383.257 165.13 379.11C165.935 374.964 167.758 371.083 170.435 367.818C173.112 364.552 176.559 362.004 180.465 360.404C184.371 358.803 188.613 358.201 192.81 358.65C197.007 359.099 201.026 360.587 204.506 362.978C207.985 365.369 210.815 368.589 212.741 372.347C214.667 376.106 215.628 380.284 215.538 384.507V384.507Z" fill="white"/>
<path d="M198.239 391.763C199.827 390.571 201.115 389.023 201.998 387.244C202.882 385.464 203.337 383.503 203.327 381.516C203.332 379.298 202.772 377.114 201.699 375.173C200.627 373.231 199.077 371.595 197.197 370.42C195.317 369.245 193.168 368.568 190.954 368.455C188.74 368.342 186.534 368.796 184.544 369.773C182.553 370.751 180.845 372.22 179.581 374.043C178.316 375.865 177.537 377.979 177.316 380.187C177.095 382.394 177.441 384.622 178.32 386.658C179.199 388.695 180.582 390.474 182.339 391.826C178.87 393.658 176.132 396.623 174.58 400.228V400.228C176.637 402.302 179.084 403.948 181.781 405.072C184.477 406.195 187.368 406.774 190.289 406.774C193.21 406.774 196.101 406.195 198.797 405.072C201.494 403.948 203.941 402.302 205.998 400.228V400.228C204.468 396.593 201.726 393.602 198.239 391.763V391.763Z" fill="#92ADFF"/>
<path d="M402.268 359.24H244.158C238.362 359.24 233.664 363.942 233.664 369.742V434.786C233.664 440.586 238.362 445.288 244.158 445.288H402.268C408.063 445.288 412.761 440.586 412.761 434.786V369.742C412.761 363.942 408.063 359.24 402.268 359.24Z" fill="white"/>
<path d="M301.843 372.288H252.235C249.776 372.288 247.783 374.282 247.783 376.743V376.806C247.783 379.267 249.776 381.261 252.235 381.261H301.843C304.302 381.261 306.295 379.267 306.295 376.806V376.743C306.295 374.282 304.302 372.288 301.843 372.288Z" fill="#B4C6FD"/>
<path d="M390.629 403.219H252.235C249.776 403.219 247.783 405.213 247.783 407.674V407.737C247.783 410.198 249.776 412.193 252.235 412.193H390.629C393.087 412.193 395.081 410.198 395.081 407.737V407.674C395.081 405.213 393.087 403.219 390.629 403.219Z" fill="#B4C6FD"/>
<path d="M365.316 418.684H252.235C249.776 418.684 247.783 420.679 247.783 423.139V423.203C247.783 425.664 249.776 427.658 252.235 427.658H365.316C367.775 427.658 369.768 425.664 369.768 423.203V423.139C369.768 420.679 367.775 418.684 365.316 418.684Z" fill="#B4C6FD"/>
<path d="M390.629 387.753H252.235C249.776 387.753 247.783 389.748 247.783 392.208V392.272C247.783 394.732 249.776 396.727 252.235 396.727H390.629C393.087 396.727 395.081 394.732 395.081 392.272V392.208C395.081 389.748 393.087 387.753 390.629 387.753Z" fill="#B4C6FD"/>
<g opacity="0.1">
<path opacity="0.1" fill-rule="evenodd" clip-rule="evenodd" d="M597.456 144.122L480.241 98.6165C477.151 97.4272 473.76 97.2709 470.574 98.171C468.45 98.8409 466.503 99.9771 464.874 101.497C463.246 103.016 461.977 104.881 461.161 106.954L441.636 157.297C440.919 159.101 440.568 161.029 440.602 162.97C440.637 164.911 441.058 166.825 441.839 168.602C442.62 170.379 443.747 171.983 445.153 173.32C446.56 174.657 448.218 175.7 450.031 176.39L473.754 185.618C474.006 187.4 474.728 189.083 475.846 190.492C476.964 191.902 478.437 192.988 480.114 193.638C495.759 236.916 508.479 262.734 518.274 271.093H518.719C519.546 260.083 520.627 249.327 522.344 238.889C514.267 227.497 502.565 211.395 487.237 190.837L530.231 207.194C534.898 191.47 543.769 177.32 555.886 166.272C568.002 155.224 582.904 147.697 598.982 144.504L597.456 144.122ZM608.586 140.367C598.346 139.794 597.456 144.122 597.456 144.122L598.982 144.695L605.66 143.231C608.459 142.722 611.257 142.086 613.928 141.386C612.202 140.803 610.405 140.461 608.586 140.367V140.367Z" fill="black"/>
<path opacity="0.1" fill-rule="evenodd" clip-rule="evenodd" d="M175.724 173.017C172.862 175.117 169.937 177.281 166.947 179.381C169.237 180.718 170.127 183.518 169.746 187.655C168.393 189.922 166.547 191.855 164.345 193.309C162.142 194.764 159.641 195.703 157.026 196.056C150.284 210.694 143.924 223.232 137.946 233.797C132.261 244.037 125.41 253.584 117.53 262.246C110.773 267.97 102.818 272.102 94.2527 274.339C94.6343 277.139 94.8887 279.876 95.2067 282.549L99.3407 281.022C102.282 279.973 105.494 279.973 108.435 281.022C110.049 281.606 111.517 282.535 112.736 283.744C113.955 284.953 114.896 286.413 115.495 288.022L131.967 334.037C132.481 335.591 132.681 337.232 132.555 338.864C132.43 340.496 131.981 342.087 131.235 343.544C130.489 345.001 129.462 346.295 128.212 347.351C126.962 348.406 125.514 349.203 123.954 349.694L106.273 356.058C107.291 360.386 104.365 362.423 100.867 364.396C102.394 367.96 104.111 371.588 106.273 375.534C104.81 376.616 103.284 377.507 101.758 378.525C113.714 397.266 120.191 418.981 120.456 441.215C118.294 454.58 105.998 477.513 83.5679 510.014C72.1199 508.614 60.9263 506.896 50.1143 504.986L55.5839 493.212C49.2239 445.224 39.2387 417.284 38.3483 379.861C36.5039 379.034 34.6595 378.334 32.6879 377.379C32.6879 376.234 32.688 375.152 32.3064 374.07C31.3992 373.052 30.7069 371.861 30.2711 370.569L21.4307 346.066L13.7351 324.554C13.1731 322.936 12.973 321.213 13.1488 319.509C13.3247 317.804 13.8722 316.159 14.7527 314.689C16.3766 312.024 18.8702 310 21.8123 308.961L29.4443 306.225C30.2066 291.194 33.1636 276.356 38.2211 262.183C39.5845 258.412 41.9002 255.058 44.9428 252.449C47.9854 249.839 51.6514 248.062 55.5839 247.29C55.5839 247.29 55.5839 247.29 55.5839 247.29H53.7395C47.7611 245.89 37.6487 242.708 41.7827 231.124C43.8815 223.742 40.8923 226.415 37.9031 217.823C34.9139 209.231 45.6623 201.084 49.1603 203.63C52.6583 193.701 59.3999 192.81 64.6151 198.029C66.5151 196.2 68.6547 194.637 70.9751 193.383C77.3351 189.883 85.2215 189.628 87.2567 198.666C87.8982 200.73 88.2618 202.87 88.3379 205.03C88.3379 210.758 84.3311 210.822 81.9779 216.55C81.0611 218.614 79.7422 220.475 78.0983 222.023C79.8077 229.561 79.0035 237.452 75.8087 244.49C75.2476 245.335 74.5168 246.055 73.6627 246.603C72.8087 247.151 71.8501 247.515 70.8479 247.672C72.8115 248.21 74.7262 248.912 76.5719 249.772L103.284 243.408L120.074 224.314L149.839 191.028C151.325 185.237 154.877 180.189 159.824 176.836C163.968 173.975 168.637 171.964 173.562 170.917C175.979 170.089 176.551 170.789 175.724 173.017Z" fill="black"/>
<path opacity="0.1" fill-rule="evenodd" clip-rule="evenodd" d="M14.5619 446.306V497.222C-32.1696 485.909 -76.5707 466.525 -116.645 439.942C-112.873 435.585 -107.656 432.737 -101.953 431.922H0.506321C2.38168 431.913 4.23974 432.281 5.9701 433.005C7.70047 433.728 9.26783 434.793 10.579 436.135C11.8902 437.476 12.9184 439.068 13.6026 440.816C14.2868 442.563 14.613 444.43 14.5619 446.306V446.306Z" fill="black"/>
</g>
<path d="M705.067 169.007L685.542 219.286C684.854 221.101 683.81 222.759 682.473 224.164C681.136 225.57 679.531 226.694 677.754 227.47C675.977 228.247 674.063 228.66 672.124 228.687C670.184 228.713 668.26 228.352 666.462 227.624L437.502 138.522C435.689 137.833 434.032 136.789 432.627 135.45C431.223 134.112 430.1 132.507 429.324 130.728C428.548 128.95 428.134 127.034 428.108 125.094C428.082 123.153 428.443 121.227 429.17 119.428L448.696 69.0855C449.571 67.0836 450.882 65.3022 452.532 63.871C454.183 62.4397 456.131 61.3946 458.236 60.8117C461.418 59.8784 464.82 60.0352 467.903 61.2573L655.078 134.066L696.736 150.232C700.299 151.654 703.165 154.414 704.722 157.922C706.279 161.43 706.403 165.409 705.067 169.007V169.007Z" fill="#DEE4EE"/>
<path d="M501.038 116.246C499.775 119.525 497.877 122.523 495.454 125.068C493.032 127.612 490.131 129.654 486.919 131.075C480.348 133.963 472.901 134.124 466.212 131.522C459.523 128.921 454.138 123.77 451.239 117.201C449.811 113.985 449.036 110.517 448.96 106.999C448.883 103.48 449.507 99.982 450.794 96.7071C453.383 90.0481 458.51 84.6911 465.046 81.8146C471.582 78.9381 478.993 78.7778 485.647 81.3688C492.302 83.9598 497.655 89.0899 500.529 95.6307C503.404 102.171 503.564 109.587 500.975 116.246H501.038Z" fill="white"/>
<path d="M481.004 117.01C483.791 116.203 486.257 114.546 488.057 112.269C489.857 109.992 490.902 107.209 491.046 104.31C491.189 101.41 490.424 98.5378 488.858 96.0941C487.291 93.6505 485.001 91.7574 482.307 90.6792C479.614 89.6009 476.65 89.3913 473.832 90.0797C471.013 90.768 468.48 92.32 466.585 94.5188C464.691 96.7176 463.53 99.4536 463.264 102.345C462.999 105.236 463.642 108.138 465.104 110.645C460.95 111.107 457.083 112.996 454.165 115.991V115.991C455.382 118.912 457.173 121.558 459.43 123.775C461.687 125.991 464.365 127.732 467.305 128.895C470.246 130.058 473.39 130.619 476.552 130.545C479.713 130.472 482.827 129.764 485.711 128.466V128.466C485.487 124.223 483.827 120.183 481.004 117.01V117.01Z" fill="#ED576C"/>
<path d="M634.082 138.95L537.153 101.269C533.257 99.7543 528.872 101.687 527.358 105.586L513.356 141.656C511.842 145.555 513.773 149.943 517.67 151.458L614.599 189.139C618.495 190.654 622.88 188.721 624.394 184.822L638.397 148.752C639.91 144.853 637.979 140.465 634.082 138.95Z" fill="white"/>
<path d="M575.764 125.792L535.985 110.328C534.446 109.73 532.714 110.493 532.116 112.033L531.586 113.398C530.988 114.938 531.751 116.671 533.29 117.269L573.07 132.734C574.608 133.332 576.341 132.568 576.938 131.028L577.468 129.664C578.066 128.124 577.303 126.391 575.764 125.792Z" fill="#B4C6FD"/>
<path d="M618.046 156.091L531.314 122.373C529.776 121.775 528.043 122.539 527.446 124.079L526.916 125.443C526.318 126.983 527.081 128.716 528.62 129.315L615.352 163.032C616.891 163.63 618.623 162.866 619.221 161.326L619.75 159.962C620.348 158.422 619.585 156.689 618.046 156.091Z" fill="#B4C6FD"/>
<path d="M612.866 169.241L526.134 135.524C524.595 134.926 522.863 135.689 522.265 137.229L521.735 138.593C521.137 140.133 521.9 141.867 523.439 142.465L610.171 176.182C611.71 176.78 613.442 176.017 614.04 174.477L614.57 173.112C615.167 171.572 614.405 169.839 612.866 169.241Z" fill="#B4C6FD"/>
<path d="M654.363 182.412L643.099 178.033C641.724 177.498 640.176 178.181 639.642 179.557L634.184 193.617C633.649 194.993 634.331 196.542 635.706 197.076L646.97 201.455C648.345 201.99 649.893 201.308 650.427 199.931L655.886 185.871C656.42 184.495 655.738 182.946 654.363 182.412Z" fill="white"/>
<path d="M647.806 197.312L644.901 196.183C644.508 196.03 644.065 196.225 643.913 196.618L643.89 196.678C643.737 197.071 643.932 197.513 644.325 197.666L647.23 198.795C647.623 198.948 648.065 198.753 648.218 198.36L648.241 198.301C648.393 197.908 648.199 197.465 647.806 197.312Z" fill="#F4DBB3"/>
<path d="M652.215 188.101C652.121 189.076 651.803 190.017 651.285 190.85C650.768 191.682 650.065 192.384 649.232 192.9C648.399 193.416 647.458 193.732 646.482 193.824C645.507 193.916 644.523 193.782 643.609 193.431C642.694 193.08 641.872 192.522 641.208 191.801C640.544 191.08 640.056 190.216 639.781 189.274C639.506 188.333 639.452 187.342 639.623 186.376C639.794 185.411 640.186 184.498 640.768 183.709C644.918 184.078 648.882 185.599 652.215 188.101Z" fill="#F4DBB3"/>
<path d="M678.666 191.845L667.402 187.466C666.027 186.932 664.479 187.614 663.945 188.99L658.487 203.05C657.952 204.426 658.634 205.975 660.009 206.509L671.273 210.888C672.648 211.423 674.196 210.741 674.73 209.365L680.189 195.305C680.723 193.928 680.041 192.379 678.666 191.845Z" fill="white"/>
<path d="M672.108 206.745L669.203 205.616C668.81 205.463 668.368 205.658 668.215 206.052L668.192 206.111C668.04 206.504 668.234 206.947 668.627 207.099L671.532 208.229C671.925 208.381 672.367 208.186 672.52 207.793L672.543 207.734C672.696 207.341 672.501 206.898 672.108 206.745Z" fill="#F4DBB3"/>
<path d="M672.504 193.065V196.693L675.875 198.029V198.602L672.377 199.557V203.184H671.805L669.833 200.129C669.833 200.129 669.833 200.129 669.515 200.129L666.017 201.084V200.575L668.306 197.775C668.34 197.716 668.358 197.651 668.358 197.584C668.358 197.517 668.34 197.451 668.306 197.393L666.398 194.338V193.892L669.769 195.229C669.829 195.257 669.894 195.272 669.96 195.272C670.026 195.272 670.091 195.257 670.151 195.229L672.44 192.365L672.504 193.065Z" fill="#F4DBB3"/>
<path fill-rule="evenodd" clip-rule="evenodd" d="M576.595 306.288C567.656 338.687 565.086 372.513 569.027 405.892C572.588 426.046 585.308 464.975 607.187 522.68L616.917 519.879C614.046 481.131 608.799 442.596 601.208 404.492C618.168 359.474 624.528 322.836 620.288 294.578L576.595 306.288Z" fill="#ED576C"/>
<path fill-rule="evenodd" clip-rule="evenodd" d="M604.834 515.551C597.583 525.225 575.896 526.625 582.001 532.226C587.407 534.263 617.744 528.216 620.797 525.416C621.611 523.11 621.62 520.597 620.823 518.285C620.026 515.974 618.47 514.001 616.409 512.687C612.726 514.25 608.819 515.217 604.834 515.551Z" fill="#002283"/>
<path fill-rule="evenodd" clip-rule="evenodd" d="M474.326 152.141C492.813 177.048 506.126 195.356 514.267 207.067C526.097 209.167 537.545 211.585 548.42 214.386L550.71 255.436C535.195 249.601 520.285 242.268 506.19 233.543C496.184 225.057 483.336 199.111 467.648 155.706L474.326 152.141Z" fill="#0032C2"/>
<path fill-rule="evenodd" clip-rule="evenodd" d="M598.474 210.694L622.769 177.217L597.71 111.727L605.406 109.372C636.57 148.323 651.24 173.462 649.417 184.791C647.763 200.617 639.538 220.198 624.74 243.535L598.474 210.694Z" fill="#0032C2"/>
<path fill-rule="evenodd" clip-rule="evenodd" d="M551.6 309.025C537.714 339.602 529.895 372.586 528.577 406.146C528.959 426.682 535.319 467.139 547.657 527.516L557.706 526.243C560.95 487.446 561.821 448.487 560.314 409.583C584.142 367.79 596.269 332.616 596.693 304.061L551.6 309.025Z" fill="#ED576C"/>
<path fill-rule="evenodd" clip-rule="evenodd" d="M546.958 520.07C538.244 528.535 516.62 526.434 521.517 532.799C526.542 535.727 557.452 534.517 560.886 532.226C562.105 530.055 562.542 527.53 562.126 525.075C561.709 522.619 560.463 520.381 558.596 518.733C554.81 519.784 550.883 520.235 546.958 520.07V520.07Z" fill="#002283"/>
<path fill-rule="evenodd" clip-rule="evenodd" d="M545.558 213.558C541.234 248.945 559.296 269.375 543.65 321.754C583.803 337.113 611.172 337.453 625.758 322.772C627.539 260.019 625.419 223.423 619.398 212.986C607.792 207.69 595.17 204.998 582.415 205.097C569.66 205.196 557.081 208.084 545.558 213.558V213.558Z" fill="#0032C2"/>
<path fill-rule="evenodd" clip-rule="evenodd" d="M568.391 206.43C572.14 207.985 576.183 208.7 580.238 208.524C584.292 208.348 588.259 207.286 591.859 205.412C589.373 203.274 587.584 200.44 586.723 197.275C585.861 194.11 585.967 190.759 587.025 187.655C581.616 186.794 576.079 187.23 570.871 188.928C571.898 191.829 572.209 194.936 571.777 197.984C571.345 201.031 570.183 203.929 568.391 206.43V206.43Z" fill="#FFD3A4"/>
<path fill-rule="evenodd" clip-rule="evenodd" d="M563.112 195.801C569.472 201.275 578.694 198.538 590.333 187.464L584.863 160.479L557.07 161.943C556.243 177.981 558.278 189.31 563.112 195.801Z" fill="#FFD3A4"/>
<path fill-rule="evenodd" clip-rule="evenodd" d="M553.953 173.526C556.89 176.374 560.804 177.99 564.893 178.045C564.263 180.119 564.263 182.335 564.893 184.409C564.93 185.104 565.175 185.772 565.594 186.328C566.013 186.883 566.588 187.301 567.246 187.528C566.821 186.561 566.703 185.488 566.908 184.452C567.112 183.416 567.63 182.468 568.391 181.736C569.345 180.909 570.299 181.736 571.38 183.391C571.169 185.105 570.462 186.72 569.344 188.037C568.929 189.859 569.085 191.766 569.791 193.497C570.496 195.227 571.717 196.699 573.288 197.711C575.67 198.843 578.346 199.207 580.944 198.751C583.542 198.295 585.933 197.042 587.788 195.165C588.871 189.444 591.589 184.161 595.611 179.954C597.652 176.277 598.274 171.979 597.36 167.873C596.446 163.768 594.058 160.141 590.651 157.679C590.264 156.404 589.622 155.222 588.764 154.204C587.905 153.186 586.849 152.354 585.659 151.759C584.468 151.163 583.169 150.816 581.84 150.74C580.512 150.664 579.181 150.859 577.931 151.314C574.228 149.828 570.189 149.386 566.253 150.037C562.317 150.688 558.635 152.406 555.607 155.006C551.091 159.333 550.582 165.507 553.953 173.526Z" fill="black"/>
<path fill-rule="evenodd" clip-rule="evenodd" d="M605.406 109.054C605.406 109.054 606.424 103.39 596.248 102.69C586.071 101.99 585.117 106.445 585.117 106.445L597.838 111.218L605.406 109.054Z" fill="#FFD3A4"/>
<path fill-rule="evenodd" clip-rule="evenodd" d="M474.327 152.141C475.09 148.259 475.026 144.25 472.991 144.122C470.956 143.995 471.337 147.305 470.447 146.795C469.696 145.935 469.151 144.915 468.853 143.812C468.556 142.709 468.513 141.553 468.73 140.431C469.302 138.394 460.08 140.431 461.225 147.241C461.464 149.143 462.218 150.943 463.407 152.446C464.595 153.95 466.172 155.099 467.966 155.769L474.327 152.141Z" fill="#FFD3A4"/>
<path fill-rule="evenodd" clip-rule="evenodd" d="M27.0276 313.289C20.0316 387.817 47.2524 414.102 49.224 538.527H63.3432C72.7869 463.359 77.2487 387.647 76.6993 311.889L27.0276 313.289Z" fill="#002283"/>
<path fill-rule="evenodd" clip-rule="evenodd" d="M8.71075 535.599C34.1508 472.337 54.1 429.907 68.5584 408.31C40.6592 372.669 27.1971 341.441 28.1723 314.626L59.9723 301.133C92.5779 338.089 108.584 372.224 107.99 403.537C104.429 424.752 75.1092 470.576 20.0315 541.009L8.71075 535.599Z" fill="#0032C2"/>
<path fill-rule="evenodd" clip-rule="evenodd" d="M49.4146 531.271C48.2983 532.916 47.6091 534.813 47.4092 536.791C47.2094 538.769 47.5052 540.765 48.2698 542.6C60.9237 544.19 73.6844 544.765 86.4298 544.318C87.5746 536.108 69.0034 536.681 64.615 528.217C59.9892 530.793 54.6756 531.861 49.4146 531.271V531.271Z" fill="#ED576C"/>
<path fill-rule="evenodd" clip-rule="evenodd" d="M12.4632 526.944C10.6275 528.13 9.0618 529.689 7.86749 531.52C6.67318 533.351 5.87703 535.413 5.53082 537.572C10.0891 542.471 15.8002 546.149 22.1435 548.273C28.4867 550.396 35.2603 550.896 41.8463 549.728C42.2279 539.927 23.9112 545.846 25.4376 534.135C22.9047 533.864 20.4518 533.088 18.2235 531.853C15.9952 530.618 14.0365 528.948 12.4632 526.944V526.944Z" fill="#ED576C"/>
<path fill-rule="evenodd" clip-rule="evenodd" d="M33.006 219.032L91.2 205.603L137.692 153.414L145.26 157.742C130.759 189.607 117.382 211.967 105.128 224.823C94.0196 234.625 77.7592 239.844 56.3472 240.48C47.287 234.865 39.3679 227.588 33.006 219.032V219.032Z" fill="#ED576C"/>
<path fill-rule="evenodd" clip-rule="evenodd" d="M20.2863 339.893C49.4151 354.361 73.9434 353.746 93.8714 338.047C71.675 298.778 88.6562 278.73 81.533 234.497C75.173 201.466 32.8154 202.675 25.8195 224.696C15.3891 252.148 13.5447 290.547 20.2863 339.893Z" fill="#ED576C"/>
<path fill-rule="evenodd" clip-rule="evenodd" d="M39.6839 213.877C42.9275 220.687 49.8599 221.769 60.4811 217.186C58.4057 215.074 56.9744 212.414 56.3549 209.517C55.7355 206.62 55.9533 203.607 56.9831 200.829L43.2455 199.938C44.5057 202.285 44.8391 205.021 44.1795 207.602C43.5198 210.184 41.9154 212.423 39.6839 213.877V213.877Z" fill="#FFE4C4"/>
<path fill-rule="evenodd" clip-rule="evenodd" d="M31.4797 174.99L37.5217 204.966C51.4289 211.331 60.1632 211.84 63.7248 206.494C67.9648 198.644 67.4137 185.449 62.0713 166.907L31.4797 174.99Z" fill="#FFE4C4"/>
<path fill-rule="evenodd" clip-rule="evenodd" d="M55.5203 182.945C65.5055 187.973 66.8411 183.709 69.8939 178.618C73.0739 171.171 78.7343 173.208 75.3635 160.606C71.9927 148.005 59.5271 153.223 52.3403 159.97C47.1251 154.751 40.3834 155.706 36.8854 165.507C33.451 163.025 22.7027 171.108 25.6283 179.763C28.5539 188.419 31.9883 185.746 29.5079 193.065C25.3739 204.648 35.4862 207.894 41.4647 209.167C43.547 209.909 45.768 210.18 47.9675 209.96C50.1671 209.74 52.2905 209.034 54.1847 207.894C56.0291 200.575 50.8139 198.793 47.8247 196.438C44.8355 194.083 45.5351 187.21 49.0967 189.246C53.3579 193.892 55.4567 198.22 58.5095 194.083C57.1383 192.613 56.1487 190.829 55.6275 188.887C55.1064 186.945 55.0695 184.905 55.5203 182.945V182.945Z" fill="black"/>
<path fill-rule="evenodd" clip-rule="evenodd" d="M137.819 153.86C139.266 147.931 142.872 142.757 147.931 139.349C152.056 136.508 156.704 134.518 161.605 133.494C163.64 132.666 164.213 133.494 163.386 135.53C160.524 137.694 157.598 139.794 154.609 141.895C156.899 143.231 157.853 146.032 157.408 150.168C155.959 152.556 153.986 154.581 151.639 156.092C149.292 157.603 146.632 158.559 143.861 158.888L137.819 153.86Z" fill="#FFE4C4"/>
<path d="M111.552 312.207L34.1508 340.084C31.0756 341.226 27.6781 341.136 24.6678 339.831C21.6576 338.527 19.2674 336.109 17.9964 333.083L9.15603 308.516L1.46039 287.068C0.875154 285.459 0.651529 283.741 0.805429 282.036C0.959328 280.331 1.48696 278.681 2.35079 277.203C3.95834 274.523 6.45773 272.495 9.41039 271.475L67.6043 250.536L87.0023 243.535C89.9214 242.485 93.1144 242.485 96.0335 243.535C97.6537 244.108 99.1271 245.033 100.348 246.243C101.568 247.454 102.506 248.92 103.093 250.536L119.565 296.551C120.079 298.105 120.279 299.746 120.153 301.378C120.028 303.01 119.579 304.6 118.833 306.057C118.087 307.514 117.06 308.808 115.81 309.864C114.56 310.92 113.112 311.716 111.552 312.207Z" fill="#B4C6FD"/>
<path d="M96.0336 243.535L80.1973 266.192L61.1173 293.559L2.35077 277.203C3.95832 274.523 6.45772 272.495 9.41038 271.475L67.6044 250.536L87.0024 243.535C89.9215 242.485 93.1146 242.485 96.0336 243.535V243.535Z" fill="#92ADFF"/>
<path fill-rule="evenodd" clip-rule="evenodd" d="M70.5937 252.636L57.2377 274.339L80.9605 322.008L73.5829 328.373C45.938 300.963 32.7728 281.976 34.0872 271.411C36.8978 255.749 42.9647 240.853 51.8952 227.687C60.672 214.131 86.7481 224.378 70.5937 252.636Z" fill="#ED576C"/>
<path fill-rule="evenodd" clip-rule="evenodd" d="M73.2647 327.291C73.8444 328.418 74.7892 329.315 75.9444 329.835C77.0997 330.356 78.3972 330.468 79.6247 330.155C82.4451 330.22 85.2111 329.371 87.5111 327.736C91.5179 325.127 95.3339 323.409 93.8711 318.572H82.5503L78.798 317.999L73.2647 327.291Z" fill="#FFE4C4"/>
</g>
</svg>
