<svg width="973" height="705" viewBox="0 0 973 705" fill="none" xmlns="http://www.w3.org/2000/svg">
<path d="M927.038 272.601C913.43 283.339 897.722 291.102 880.928 295.386C878.257 296.086 875.459 296.722 872.66 297.231L865.982 298.695C849.927 301.872 835.041 309.37 822.926 320.383C810.812 331.395 801.928 345.505 797.231 361.194C793.792 371.449 791.281 381.993 789.726 392.698C788.009 403.136 786.927 413.891 786.101 424.902C782.157 474.736 783.112 528.324 759.516 564.92C707.427 645.43 654.957 689.026 375.181 666.242C366.701 665.563 358.497 664.735 350.568 663.76C339.12 662.359 327.926 660.641 317.114 658.732C304.839 656.44 293.073 653.895 281.625 651.031C234.894 639.718 190.493 620.334 150.419 593.751C44.5882 521.896 19.3389 414.655 88.8538 350.183C130.194 311.997 238.823 324.216 249.062 285.775C253.196 270.437 241.685 246.952 203.843 208.893C176.304 181.144 165.365 151.613 166.446 124.118C166.446 122.018 166.446 119.981 166.891 117.754C177.258 15.9228 349.359 -56.7591 440.371 84.2769C484.191 151.804 550.463 110.753 622.076 65.1836C655.911 43.5445 690.955 21.0144 725.299 8.34914C752.711 -1.83397 778.787 -1.26118 805.371 2.49384C983.197 28.1425 1004.38 211.248 927.038 272.601Z" fill="#DEE4FE"/>
<path d="M48.9131 473.208C51.3203 476.78 52.9006 480.845 53.5387 485.106C54.1769 489.367 53.8568 493.717 52.6019 497.838C47.6411 519.478 80.9676 498.857 91.9704 522.978C102.973 547.099 98.3303 558.555 111.496 566.574C124.661 574.594 148.002 563.838 188.833 634.865C195.829 639.129 183.745 659.368 176.558 655.104C123.834 656.058 85.7376 650.649 85.7376 625.191C86.1183 619.254 84.6295 613.347 81.4808 608.301C78.332 603.255 73.6817 599.324 68.1839 597.06C61.1879 593.241 52.4111 590.314 42.7439 586.368C19.0211 576.503 30.4055 553.591 31.8047 535.452C33.2039 517.314 -5.91012 518.65 0.767882 497.902C7.44589 477.154 9.4811 464.043 27.1619 463.661C31.29 463.362 35.4288 464.075 39.2192 465.739C43.0096 467.402 46.3371 469.966 48.9131 473.208Z" fill="#DAE0EA"/>
<path d="M190.487 649.694C190.118 650.286 189.55 650.727 188.885 650.937C188.221 651.147 187.503 651.112 186.861 650.84C181.392 648.612 52.5383 594.26 28.3703 499.112C28.2742 498.744 28.2515 498.361 28.3034 497.984C28.3553 497.608 28.4809 497.245 28.6728 496.917C28.8647 496.589 29.1193 496.302 29.4221 496.073C29.7248 495.843 30.0698 495.675 30.4373 495.579C30.8048 495.483 31.1876 495.46 31.5639 495.512C31.9402 495.564 32.3025 495.69 32.6303 495.882C32.9581 496.074 33.2448 496.329 33.4741 496.632C33.7035 496.935 33.8711 497.28 33.9671 497.648C57.4355 589.996 187.752 644.984 189.087 645.494C189.793 645.803 190.352 646.372 190.648 647.084C190.945 647.795 190.955 648.593 190.677 649.312L190.487 649.694Z" fill="white"/>
<path d="M193.031 408.354C196.137 417.328 198.27 426.61 199.391 436.04C203.97 470.281 179.802 456.979 194.748 465.062C209.694 473.145 168.481 494.911 174.968 507.003C175.803 508.373 176.983 509.5 178.389 510.271C179.795 511.041 181.379 511.429 182.982 511.395C191.314 512.477 203.843 509.867 214.21 513.877C215.146 514.196 216.043 514.623 216.881 515.15C221.196 517.35 224.694 520.874 226.866 525.206C232.145 535.071 226.866 544.808 217.453 556.073C212.683 561.929 206.832 568.357 201.044 575.167C200.458 575.839 199.906 576.54 199.391 577.267C197.258 579.744 195.262 582.336 193.412 585.031C190.233 589.065 187.342 593.318 184.763 597.76C183.745 599.67 182.728 601.579 181.773 603.616C181.436 604.111 181.158 604.646 180.947 605.207C179.426 608.321 178.109 611.532 177.003 614.817C176.24 616.981 175.541 619.399 174.905 621.691C174.389 623.921 173.553 626.064 172.424 628.055C171.922 629.215 171.21 630.272 170.325 631.174C169.422 632.16 168.211 632.81 166.891 633.019C165.868 633.278 164.797 633.278 163.775 633.019C162.098 632.52 160.526 631.722 159.132 630.665C159.093 630.562 159.093 630.449 159.132 630.346C143.761 615.61 132.756 596.911 127.332 576.312C127.014 574.594 126.441 573.003 126.06 571.348C121.29 557.983 110.478 550.663 99.6023 543.854C97.1219 542.135 94.5142 540.544 92.0338 538.826C87.2536 535.702 82.8564 532.028 78.9322 527.879C76.3383 525.063 74.1931 521.865 72.5722 518.396C71.5977 516.342 70.7894 514.214 70.1554 512.031C70.1554 511.204 69.7738 510.377 69.583 509.676C68.1202 502.867 70.6642 500.13 75.2434 499.557C88.8538 497.52 120.145 513.877 123.071 501.594C125.996 489.31 104.563 486.828 89.7442 479.382C86.7085 478.208 83.9828 476.353 81.7773 473.958C79.5719 471.564 77.9456 468.694 77.0242 465.571C72.5722 444.504 97.9487 454.369 110.732 421.72C123.516 389.07 102.591 365.267 115.82 348.974C129.049 332.681 131.784 399.317 137.126 383.66C142.469 368.004 152.454 380.987 154.553 397.28C156.651 413.573 150.864 431.521 167.909 406.636C179.23 389.961 187.434 393.462 193.031 408.354Z" fill="#B4C6FD"/>
<path d="M98.9027 525.333C100.047 524.251 102.21 523.36 106.026 525.333C110.618 527.689 114.892 530.618 118.746 534.052L122.117 537.171C124.473 539.585 127.097 541.72 129.94 543.535C135.737 546.783 142.448 548.014 149.02 547.036C150.219 543.807 151.239 540.513 152.072 537.171C154.526 523.529 152.565 509.46 146.476 497.011C144.203 491.921 141.633 486.97 138.78 482.182C135.277 482.911 131.662 482.911 128.159 482.182C123.501 480.427 119.396 477.461 116.265 473.59L113.912 471.108C110.444 467.748 106.501 464.918 102.21 462.707C100.493 461.816 98.2667 461.179 97.3127 462.134C97.146 462.313 96.9443 462.456 96.7199 462.554C96.4956 462.652 96.2536 462.702 96.0089 462.702C95.7642 462.702 95.5222 462.652 95.2979 462.554C95.0736 462.456 94.8717 462.313 94.7051 462.134C94.5242 461.962 94.3802 461.754 94.2819 461.524C94.1835 461.295 94.1327 461.047 94.1327 460.797C94.1327 460.547 94.1835 460.3 94.2819 460.07C94.3802 459.841 94.5242 459.633 94.7051 459.461C96.6767 457.17 100.111 457.042 104.182 459.461C108.858 461.833 113.146 464.901 116.902 468.562C117.728 469.326 118.555 470.217 119.382 471.108C122.068 474.492 125.601 477.105 129.622 478.682C132.054 479.193 134.567 479.193 136.999 478.682C134.9 475.181 132.738 471.744 130.639 468.371C128.54 464.998 127.332 463.216 125.742 460.606C123.089 456.724 121.111 452.42 119.891 447.878C117.728 438.395 121.672 428.784 126.251 419.683C126.47 419.228 126.862 418.878 127.339 418.711C127.816 418.544 128.339 418.573 128.795 418.792C129.018 418.895 129.218 419.041 129.384 419.221C129.55 419.402 129.678 419.615 129.761 419.846C129.844 420.077 129.88 420.322 129.867 420.568C129.854 420.813 129.792 421.053 129.685 421.274C125.424 430.121 121.735 438.776 123.325 446.732C124.477 450.755 126.282 454.56 128.668 457.997C130.321 460.606 131.911 463.216 133.565 465.762C137.317 471.681 141.133 477.727 144.568 483.964C146.189 482.943 147.588 481.605 148.681 480.03C149.774 478.455 150.538 476.676 150.928 474.799C151.376 471.809 151.504 468.779 151.309 465.762V463.598C151.011 459.412 151.663 455.212 153.217 451.314C155.03 447.634 157.825 444.528 161.294 442.341C162.518 441.593 163.793 440.934 165.11 440.368C166.943 439.743 168.615 438.721 170.008 437.376C170.152 437.178 170.335 437.01 170.545 436.883C170.755 436.756 170.988 436.672 171.231 436.637C171.474 436.601 171.722 436.615 171.959 436.676C172.197 436.737 172.42 436.846 172.615 436.994C172.826 437.128 173.006 437.304 173.144 437.512C173.283 437.72 173.376 437.954 173.418 438.2C173.46 438.446 173.45 438.698 173.388 438.94C173.327 439.182 173.215 439.408 173.06 439.604C171.341 441.533 169.149 442.98 166.7 443.804C165.607 444.289 164.545 444.841 163.52 445.459C160.594 447.247 158.234 449.829 156.715 452.906C155.421 456.269 154.878 459.875 155.125 463.471V465.634C155.346 468.927 155.219 472.234 154.744 475.499C154.247 477.917 153.27 480.21 151.872 482.244C150.473 484.277 148.682 486.009 146.603 487.337C147.875 489.883 149.147 492.365 150.228 494.975C156.659 508.182 158.709 523.099 156.079 537.553C155.115 541.305 153.947 545.002 152.581 548.627C152.618 548.837 152.618 549.053 152.581 549.263C150.424 554.462 149.052 559.953 148.511 565.556C148.459 567.386 148.566 569.218 148.829 571.03C151.666 569.159 154.72 567.642 157.924 566.511L159.895 565.747C170.752 561.798 180.065 554.485 186.48 544.872C187.37 543.344 188.197 541.817 188.96 540.226C190.829 536.01 193.509 532.204 196.847 529.024C197.035 528.865 197.252 528.745 197.486 528.671C197.721 528.596 197.967 528.568 198.213 528.589C198.458 528.609 198.696 528.678 198.915 528.791C199.133 528.904 199.327 529.059 199.486 529.247C199.645 529.435 199.765 529.653 199.84 529.887C199.914 530.122 199.942 530.369 199.922 530.614C199.901 530.859 199.832 531.098 199.719 531.317C199.606 531.535 199.451 531.73 199.264 531.888C196.325 534.761 193.971 538.176 192.331 541.944C191.504 543.599 190.678 545.254 189.724 546.781C184.627 554.919 177.416 561.518 168.863 565.874C166.192 567.275 163.648 568.42 161.294 569.375L159.259 570.202C155.791 571.308 152.541 573.009 149.656 575.23C150.037 577.33 150.546 579.431 150.991 581.595L154.871 603.043C155.854 607.825 157.259 612.51 159.068 617.045C161.467 622.455 165.013 627.278 169.461 631.18C173.909 635.081 179.152 637.968 184.826 639.638C185.061 639.704 185.28 639.816 185.471 639.967C185.662 640.118 185.821 640.306 185.939 640.519C186.058 640.732 186.133 640.966 186.16 641.208C186.187 641.45 186.166 641.696 186.098 641.93C185.938 642.402 185.61 642.799 185.176 643.046C184.742 643.292 184.233 643.371 183.745 643.266C177.538 641.445 171.802 638.293 166.937 634.028C162.071 629.764 158.192 624.489 155.57 618.572C153.693 613.827 152.225 608.93 151.182 603.934L146.221 583.122C144.665 577.592 143.874 571.874 143.868 566.129C144.258 561.053 145.371 556.06 147.175 551.3C140.528 551.872 133.867 550.383 128.095 547.036C124.994 545.015 122.134 542.644 119.573 539.971L116.329 536.98C112.689 533.728 108.624 530.987 104.245 528.833C102.591 528.006 101.701 528.006 101.447 528.261C101.079 528.614 100.589 528.812 100.079 528.812C99.5693 528.812 99.0793 528.614 98.7119 528.261C98.5091 528.068 98.3511 527.833 98.2492 527.572C98.1473 527.311 98.1039 527.031 98.1221 526.752C98.1403 526.473 98.2197 526.201 98.3546 525.955C98.4895 525.71 98.6766 525.498 98.9027 525.333Z" fill="#FEFEFE"/>
<path d="M213.001 500.002C214.716 501.772 215.985 503.924 216.704 506.281C217.422 508.638 217.57 511.133 217.135 513.559C216.973 514.12 216.782 514.672 216.563 515.213C214.797 519.479 211.478 522.915 207.277 524.824C195.575 531.188 217.962 538.062 211.284 552.573C211.085 552.941 210.914 553.324 210.775 553.718C205.178 565.174 199.454 568.611 198.945 574.912C198.788 575.796 198.788 576.701 198.945 577.585C198.884 577.879 198.884 578.182 198.945 578.476C199.709 582.549 202.634 586.05 204.542 592.605C206.391 600.367 206.391 608.455 204.542 616.217C203.137 624.471 201.009 632.585 198.182 640.466C198.564 642.502 196.274 644.03 193.412 644.857C192.315 645.182 191.184 645.374 190.041 645.43C190.041 645.43 189.596 645.43 189.405 645.43H188.579C187.783 645.5 186.983 645.361 186.258 645.026C185.532 644.691 184.907 644.172 184.445 643.521C184.445 643.521 184.445 643.521 184.445 643.139L179.929 637.984C177.194 634.801 174.65 631.619 172.361 628.628C160.976 613.99 155.189 601.706 159.641 593.623C159.952 593.055 160.291 592.503 160.658 591.969C161.239 591.28 161.854 590.621 162.503 589.996C165.374 587.842 167.496 584.84 168.569 581.414C169.642 577.987 169.611 574.31 168.481 570.902C168.209 569.571 167.869 568.254 167.463 566.956L166.255 563.329C165.365 560.846 164.411 558.11 163.457 555.246C158.877 540.989 172.869 537.043 181.646 530.934L182.346 530.424C187.752 526.478 183.809 518.523 182.855 511.713C182.282 507.512 182.855 503.757 187.434 501.784C199.391 496.247 205.751 492.11 213.001 500.002Z" fill="#EFEFEF"/>
<path d="M192.14 646.958C191.723 647.011 191.3 646.92 190.942 646.701C190.583 646.481 190.31 646.145 190.169 645.748C189.088 642.375 163.457 562.438 197.292 514.259C197.553 513.879 197.955 513.619 198.408 513.535C198.861 513.452 199.329 513.552 199.709 513.813C200.088 514.075 200.348 514.477 200.432 514.93C200.515 515.384 200.415 515.852 200.154 516.232C167.273 563.01 193.222 643.903 193.476 644.666C193.619 645.105 193.587 645.583 193.385 645.999C193.183 646.414 192.828 646.735 192.395 646.894L192.14 646.958Z" fill="white"/>
<path d="M685.676 580.576C738.274 551.554 774.716 538.38 784.129 500.512C793.542 462.643 796.086 420.192 823.688 405.045C851.291 389.898 863.057 372.777 802.891 374.941C742.726 377.105 692.164 406.063 671.684 470.408C665.395 488.611 663.385 508.021 665.812 527.129C668.239 546.236 675.036 564.526 685.676 580.576Z" fill="#EFEFEF"/>
<path d="M798.248 394.353C771.167 409.618 747.729 430.597 729.56 455.833C729.26 456.044 729.055 456.364 728.988 456.724C724.345 463.089 719.893 469.453 715.695 476.581C716.586 466.335 718.049 440.431 712.452 428.657C712.377 428.498 712.271 428.356 712.141 428.237C712.011 428.119 711.859 428.028 711.693 427.969C711.528 427.91 711.353 427.884 711.177 427.893C711.002 427.902 710.83 427.945 710.671 428.021C710.506 428.088 710.357 428.19 710.234 428.319C710.111 428.448 710.017 428.602 709.957 428.77C709.897 428.938 709.873 429.117 709.886 429.295C709.9 429.473 709.95 429.646 710.035 429.803C716.395 443.613 712.706 480.082 712.643 480.718C712.541 481.028 712.541 481.363 712.643 481.673C703.973 496.697 697.12 512.699 692.227 529.343C692.137 529.531 692.09 529.738 692.09 529.947C692.09 530.156 692.137 530.363 692.227 530.552C684.331 557.538 682.785 585.987 687.712 613.671C687.774 614.003 687.959 614.299 688.23 614.5C688.502 614.701 688.839 614.791 689.174 614.753C689.524 614.677 689.83 614.469 690.031 614.173C690.232 613.877 690.313 613.515 690.255 613.162C685.328 585.598 686.918 557.263 694.898 530.424C717.158 504.648 766.194 495.165 766.703 495.102C766.878 495.068 767.045 495.001 767.194 494.903C767.344 494.805 767.472 494.678 767.573 494.53C767.673 494.383 767.743 494.217 767.78 494.042C767.816 493.867 767.817 493.686 767.784 493.511C767.75 493.335 767.683 493.168 767.585 493.019C767.487 492.869 767.36 492.741 767.213 492.64C767.065 492.54 766.899 492.469 766.724 492.433C766.55 492.397 766.369 492.395 766.194 492.429C764.222 492.811 720.593 501.275 696.552 524.76C704.444 500.646 716.263 478.002 731.532 457.743C762.187 439.413 776.052 439.668 776.052 439.604C776.229 439.622 776.408 439.602 776.578 439.546C776.747 439.49 776.903 439.399 777.035 439.279C777.167 439.159 777.272 439.013 777.344 438.849C777.415 438.686 777.452 438.509 777.451 438.331C777.439 437.985 777.304 437.654 777.072 437.398C776.839 437.141 776.522 436.976 776.179 436.931C775.607 436.931 763.459 436.931 735.666 452.269C752.926 429.488 774.71 410.528 799.647 396.58C799.806 396.505 799.949 396.4 800.067 396.269C800.185 396.139 800.276 395.987 800.335 395.821C800.394 395.656 800.42 395.48 800.411 395.305C800.402 395.129 800.359 394.957 800.283 394.798C800.18 394.634 800.045 394.492 799.886 394.381C799.728 394.27 799.548 394.191 799.359 394.149C799.17 394.108 798.974 394.105 798.783 394.139C798.592 394.174 798.411 394.247 798.248 394.353Z" fill="white"/>
<path d="M966.852 466.653C954.132 464.616 928.692 472.635 904.46 490.901L874.95 496.502L890.023 502.866C881.057 511.426 873.272 521.143 866.873 531.761L834.373 533.607C834.373 533.607 844.867 539.971 857.205 547.418C840.161 568.102 809.442 570.393 777.896 573.194L755.827 558.746L762.187 574.594C738.464 577.203 715.505 581.722 698.587 596.233C698.587 596.233 697.633 600.179 697.569 565.238C697.569 546.972 707.427 519.159 729.815 492.238L739.863 504.967L738.146 482.946C751.029 469.532 765.738 458.005 781.839 448.705L783.557 467.035C783.557 467.035 790.871 453.924 798.693 439.731C806.664 435.93 814.839 432.573 823.179 429.675C833.893 425.998 844.987 423.543 856.251 422.356L845.376 440.94C845.376 440.94 866.364 431.139 884.363 422.547C943.129 428.848 982.434 469.389 966.852 466.653Z" fill="#DAE0EA"/>
<path d="M918.834 454.751C879.647 448.168 839.384 453.905 803.591 471.171C818.664 456.088 819.046 443.677 819.046 443.104C819.046 442.733 818.898 442.377 818.636 442.114C818.373 441.852 818.018 441.704 817.646 441.704C817.46 441.695 817.274 441.725 817.1 441.792C816.926 441.859 816.769 441.962 816.637 442.094C816.505 442.226 816.402 442.384 816.335 442.558C816.268 442.732 816.238 442.918 816.247 443.104C816.247 443.104 816.247 457.042 797.74 473.017C797.59 473.167 797.473 473.346 797.397 473.543C797.32 473.74 797.285 473.951 797.294 474.163C785.03 480.483 773.438 488.031 762.696 496.693C759.007 499.684 755.636 503.057 752.138 506.176C760.915 490.265 758.498 479.954 758.18 479.445C758.052 479.113 757.806 478.839 757.49 478.675C757.174 478.511 756.809 478.468 756.463 478.554C756.286 478.59 756.119 478.663 755.972 478.768C755.825 478.874 755.703 479.009 755.613 479.166C755.522 479.323 755.466 479.496 755.449 479.676C755.431 479.856 755.451 480.038 755.509 480.209C755.509 480.209 759.134 494.02 743.616 514.322C743.616 514.322 743.616 514.322 743.616 514.704C734.879 523.774 727.06 533.688 720.275 544.299C723.229 535.427 723.993 525.972 722.501 516.741C722.456 516.569 722.378 516.407 722.271 516.265C722.163 516.123 722.028 516.005 721.874 515.916C721.72 515.827 721.55 515.769 721.374 515.747C721.197 515.725 721.018 515.738 720.847 515.786C720.669 515.823 720.501 515.896 720.352 516.001C720.203 516.105 720.077 516.239 719.982 516.394C719.887 516.549 719.824 516.722 719.798 516.902C719.772 517.082 719.782 517.265 719.83 517.441C719.83 517.441 723.646 533.225 712.579 557.282C700.254 580.11 693.273 605.442 692.163 631.364C692.162 631.732 692.299 632.086 692.546 632.357C692.793 632.628 693.134 632.796 693.499 632.828C693.844 632.799 694.167 632.649 694.411 632.405C694.656 632.16 694.806 631.837 694.835 631.492C696.193 602.424 704.95 574.185 720.275 549.454C720.275 549.454 720.275 549.454 720.656 549.454C720.843 549.509 721.042 549.509 721.229 549.454C744.505 538.241 770.887 535.235 796.086 540.926C796.44 541.024 796.819 540.979 797.14 540.801C797.461 540.622 797.7 540.324 797.803 539.971C797.886 539.617 797.834 539.245 797.657 538.928C797.481 538.61 797.193 538.37 796.849 538.253C771.748 532.491 745.451 535.129 721.992 545.763C730.795 532.03 741.286 519.457 753.22 508.34C791.38 490.965 837.172 502.803 837.617 502.93C837.792 502.988 837.977 503.009 838.161 502.992C838.345 502.974 838.523 502.919 838.685 502.829C838.846 502.74 838.987 502.617 839.099 502.47C839.21 502.323 839.291 502.155 839.334 501.975C839.382 501.796 839.393 501.608 839.367 501.424C839.342 501.24 839.28 501.063 839.185 500.903C839.091 500.743 838.965 500.603 838.816 500.492C838.667 500.381 838.497 500.302 838.316 500.257C837.871 500.257 796.786 489.501 759.389 502.866C760.979 501.466 762.442 500.002 764.159 498.602C785.423 481.085 810.19 468.329 836.794 461.193C863.398 454.057 891.22 452.707 918.389 457.233C918.751 457.289 919.12 457.2 919.418 456.986C919.715 456.771 919.916 456.449 919.979 456.088C919.97 455.768 919.851 455.46 919.643 455.217C919.434 454.974 919.149 454.809 918.834 454.751Z" fill="white"/>
<path d="M886.271 601.515C887.289 624.045 871.261 638.302 865.474 622.773C856.888 599.67 845.185 595.787 817.583 607.243C789.981 618.699 769.565 643.012 774.462 619.972C779.359 596.933 720.339 604.761 687.648 629.137C686.965 629.589 686.307 630.077 685.677 630.601C685.609 629.605 685.609 628.605 685.677 627.61C684.791 604.308 692.82 581.546 708.127 563.965L715.187 578.54L719.13 553.082C720.847 551.491 722.692 550.027 724.6 548.499C735.758 539.988 748.556 533.877 762.187 530.552L758.817 544.681L776.943 528.324C797.468 526.758 818.022 530.969 836.281 540.48L828.459 547.226L845.058 545.381C853.765 550.708 861.759 557.124 868.845 564.474C876.52 571.921 882.074 581.279 884.935 591.587H870.753C870.753 591.587 877.24 595.724 886.271 601.515Z" fill="#C4D6F2"/>
<path d="M684.15 637.284C683.817 637.207 683.527 637.006 683.337 636.722C683.148 636.438 683.075 636.093 683.132 635.756C691.782 596.742 729.497 574.339 761.933 566.384C801.047 556.773 838.253 564.856 856.951 587.004C857.188 587.253 857.321 587.583 857.321 587.927C857.321 588.271 857.188 588.601 856.951 588.85C856.714 589.083 856.394 589.214 856.061 589.214C855.728 589.214 855.408 589.083 855.17 588.85C837.172 567.466 800.856 559.701 762.696 569.057C730.896 576.821 694.199 598.588 685.803 636.52C685.755 636.685 685.672 636.839 685.559 636.97C685.446 637.1 685.307 637.205 685.15 637.278C684.993 637.35 684.823 637.388 684.651 637.389C684.478 637.39 684.307 637.354 684.15 637.284Z" fill="white"/>
<path d="M266.489 402.308C263.945 399.953 261.464 397.535 259.047 395.116L261.464 392.698C263.881 395.116 266.298 397.471 268.842 399.826L266.489 402.308Z" fill="#C4CCF2"/>
<path d="M245.119 379.842C240.604 374.588 236.358 369.107 232.399 363.422L235.198 361.449C239.014 366.986 243.211 372.395 247.6 377.678L245.119 379.842ZM221.587 345.792C218.233 339.749 215.218 333.523 212.556 327.144L215.672 325.808C218.34 332.07 221.333 338.188 224.64 344.137L221.587 345.792ZM205.496 307.605C203.49 300.977 201.855 294.241 200.599 287.43L203.97 286.794C205.214 293.47 206.806 300.077 208.74 306.587L205.496 307.605ZM198.055 266.809C198.055 262.672 197.61 258.408 197.61 254.08C197.61 251.344 197.61 248.671 197.61 245.934H200.981C200.981 248.543 200.981 251.216 200.981 253.889C200.981 258.132 201.108 262.375 201.362 266.618L198.055 266.809ZM203.207 225.949L199.836 225.44C200.929 218.603 202.372 211.827 204.161 205.138L207.468 206.092C205.699 212.653 204.277 219.303 203.207 226.013V225.949ZM731.405 206.411C727.716 206.411 723.836 206.411 720.02 206.029V202.592C726.777 203.005 733.552 203.005 740.309 202.592V206.029C737.701 206.347 734.585 206.474 731.405 206.474V206.411ZM699.605 203.674C693.245 202.656 686.249 201.255 679.38 199.537L680.143 196.228C687.012 197.882 693.69 199.282 700.177 200.301L699.605 203.674ZM761.488 203.674L760.852 200.301C767.514 199.04 774.08 197.318 780.504 195.146L781.585 198.391C774.981 200.642 768.221 202.407 761.36 203.674H761.488ZM659.728 194.064C653.368 192.154 647.008 189.927 640.139 187.699L641.347 184.517C647.707 186.935 654.576 189.163 660.427 190.881L659.728 194.064ZM800.983 190.118L799.33 187.126C805.276 183.937 810.918 180.209 816.184 175.989L818.346 178.662C812.794 183.016 806.854 186.851 800.602 190.118H800.983ZM214.337 186.808L211.093 185.535C213.701 179.171 216.626 172.806 219.806 166.442L222.859 168.033C219.533 174.115 216.56 180.384 213.955 186.808H214.337ZM620.932 180.062C614.572 177.516 608.212 174.907 601.852 172.106L603.251 168.988C609.611 171.724 615.971 174.397 622.331 176.88L620.932 180.062ZM833.483 164.405L830.939 162.114C835.549 157.096 839.8 151.757 843.659 146.139L846.521 148.049C842.449 153.819 837.964 159.285 833.101 164.405H833.483ZM582.708 163.896L564.01 155.368L565.472 152.249L584.107 160.778L582.708 163.896ZM232.908 151.167L230.046 149.194C233.981 143.491 238.227 138.009 242.766 132.774L245.373 135.065C240.944 140.182 236.824 145.559 233.035 151.167H232.908ZM545.248 146.839L526.549 138.184L528.012 135.065L546.71 143.721L545.248 146.839ZM856.379 130.483L853.389 128.892C856.442 122.973 859.241 116.736 861.785 110.307L864.965 111.58C862.459 117.934 859.636 124.158 856.506 130.228L856.379 130.483ZM507.851 129.719L488.771 121.573L490.106 118.39L509.186 126.6L507.851 129.719ZM259.811 120.554L257.521 118.008C262.68 113.406 268.141 109.154 273.866 105.28L275.774 108.08C270.212 111.828 264.881 115.908 259.811 120.3V120.554ZM470.136 113.744C463.776 111.135 457.416 108.716 451.056 106.489L452.201 103.243C458.561 105.47 464.921 107.953 471.281 110.562L470.136 113.744ZM431.594 99.8061C425.234 97.7059 418.429 95.7329 412.005 93.9508L412.896 90.6413C419.256 92.4233 425.997 94.3963 432.675 96.5602L431.594 99.8061ZM293.264 97.7695L291.738 94.6509C297.907 91.5989 304.283 88.983 310.818 86.8226L311.835 90.0685C305.466 92.0778 299.258 94.567 293.264 97.5149V97.7695ZM392.162 88.9866C386.311 87.65 380.46 86.5044 374.863 85.5498L372.128 85.1043L372.637 81.7311L375.435 82.1766C381.096 83.1313 387.011 84.3405 392.925 85.6134L392.162 88.9866ZM331.742 85.2952L331.17 81.922C338.022 80.7788 344.957 80.204 351.904 80.2036V83.6404C345.156 83.5642 338.414 84.0325 331.742 85.0406V85.2952Z" fill="#C4CCF2"/>
<path d="M871.706 91.4687L868.399 90.5777C870.053 84.2133 870.752 80.7765 870.752 80.7128L874.123 81.3493C874.123 81.3493 873.551 85.2316 871.706 91.4687Z" fill="#C4CCF2"/>
<path fill-rule="evenodd" clip-rule="evenodd" d="M891.931 8.79456L842.959 48.1268L869.989 57.1007L891.931 8.79456Z" fill="#C4CCF2"/>
<path fill-rule="evenodd" clip-rule="evenodd" d="M872.978 73.9028L862.23 54.5549L891.931 8.79456L880.674 58.2463L872.978 73.9028Z" fill="#8793CC"/>
<path fill-rule="evenodd" clip-rule="evenodd" d="M891.931 8.79456L901.853 67.7293L880.674 58.2463L891.931 8.79456Z" fill="#C4CCF2"/>
<path d="M714.551 192.091V625.764C714.551 645.239 690.446 669.424 670.985 669.424L554.978 665.032L451.247 661.023C443.323 661.037 435.627 658.374 429.405 653.465C423.183 648.555 418.8 641.688 416.966 633.974C416.352 631.28 416.032 628.527 416.012 625.764L410.161 410.709L406.409 276.547L403.737 195.718C403.737 176.243 431.276 157.022 450.738 157.022H679.062C683.697 156.98 688.294 157.856 692.59 159.598C696.885 161.34 700.794 163.914 704.092 167.173C707.39 170.432 710.012 174.311 711.807 178.587C713.602 182.863 714.534 187.452 714.551 192.091Z" fill="#0032C2"/>
<path d="M701.831 200.746V634.419C701.821 643.092 698.618 651.456 692.833 657.913C687.049 664.371 679.089 668.469 670.476 669.424C669.29 669.487 668.101 669.487 666.914 669.424H438.527C429.199 669.424 420.253 665.716 413.657 659.115C407.061 652.515 403.356 643.563 403.356 634.228V200.746C403.354 199.042 403.482 197.34 403.738 195.655C404.959 187.293 409.146 179.651 415.534 174.124C421.921 168.597 430.082 165.554 438.527 165.551H666.914C676.193 165.635 685.064 169.378 691.601 175.967C698.139 182.557 701.814 191.461 701.831 200.746Z" fill="#001E74"/>
<path d="M695.852 216.721V618.445C695.852 624.032 693.634 629.39 689.686 633.341C685.738 637.292 680.384 639.511 674.801 639.511H430.64C425.057 639.511 419.702 637.292 415.755 633.341C411.807 629.39 409.589 624.032 409.589 618.445V216.721C409.622 211.15 411.853 205.818 415.795 201.884C419.738 197.951 425.073 195.735 430.64 195.718H674.801C680.368 195.735 685.703 197.951 689.646 201.884C693.588 205.818 695.819 211.15 695.852 216.721V216.721Z" fill="#F2F2F2"/>
<path d="M589.132 185.917C591.871 185.917 594.092 183.694 594.092 180.953C594.092 178.211 591.871 175.989 589.132 175.989C586.392 175.989 584.171 178.211 584.171 180.953C584.171 183.694 586.392 185.917 589.132 185.917Z" fill="#F2F2F2"/>
<path d="M575.14 178.152H503.971C502.39 178.152 501.109 179.435 501.109 181.016C501.109 182.598 502.39 183.88 503.971 183.88H575.14C576.72 183.88 578.002 182.598 578.002 181.016C578.002 179.435 576.72 178.152 575.14 178.152Z" fill="#F2F2F2"/>
<path d="M695.852 216.721V239.569H409.652V216.721C409.686 211.161 411.908 205.838 415.836 201.907C419.765 197.975 425.084 195.752 430.64 195.718H674.801C680.368 195.735 685.703 197.951 689.646 201.884C693.588 205.818 695.819 211.15 695.852 216.721Z" fill="#92ADFF"/>
<path d="M482.538 296.658C482.561 299.947 481.926 303.207 480.669 306.245C479.413 309.284 477.562 312.04 475.224 314.352C470.458 319.093 464.01 321.754 457.289 321.754C450.568 321.754 444.12 319.093 439.354 314.352C437.039 312.027 435.207 309.266 433.962 306.23C432.718 303.193 432.086 299.94 432.103 296.658C432.917 290.543 435.923 284.931 440.561 280.866C445.199 276.802 451.155 274.561 457.321 274.561C463.486 274.561 469.442 276.802 474.08 280.866C478.719 284.931 481.724 290.543 482.538 296.658Z" fill="white"/>
<path d="M465.239 303.914C467.397 302.252 468.981 299.957 469.769 297.349C470.557 294.74 470.509 291.951 469.632 289.371C468.755 286.792 467.094 284.552 464.88 282.965C462.666 281.379 460.012 280.526 457.289 280.526C454.566 280.526 451.912 281.379 449.698 282.965C447.484 284.552 445.822 286.792 444.945 289.371C444.069 291.951 444.021 294.74 444.809 297.349C445.597 299.957 447.181 302.252 449.339 303.914C445.87 305.745 443.131 308.71 441.58 312.315C443.637 314.389 446.084 316.036 448.78 317.159C451.477 318.283 454.368 318.861 457.289 318.861C460.209 318.861 463.101 318.283 465.797 317.159C468.493 316.036 470.941 314.389 472.998 312.315C471.464 308.698 468.721 305.728 465.239 303.914Z" fill="#92ADFF"/>
<path d="M687.902 247.716H502.953C498.563 247.716 495.003 251.278 495.003 255.671V341.528C495.003 345.922 498.563 349.483 502.953 349.483H687.902C692.293 349.483 695.852 345.922 695.852 341.528V255.671C695.852 251.278 692.293 247.716 687.902 247.716Z" fill="white"/>
<path d="M550.781 255.799H512.939C508.372 255.799 504.671 259.503 504.671 264.072V318.998C504.671 323.567 508.372 327.271 512.939 327.271H550.781C555.347 327.271 559.049 323.567 559.049 318.998V264.072C559.049 259.503 555.347 255.799 550.781 255.799Z" fill="#B4C6FD"/>
<path d="M614.317 255.799H576.475C571.909 255.799 568.207 259.503 568.207 264.072V318.998C568.207 323.567 571.909 327.271 576.475 327.271H614.317C618.883 327.271 622.585 323.567 622.585 318.998V264.072C622.585 259.503 618.883 255.799 614.317 255.799Z" fill="#B4C6FD"/>
<path d="M677.917 255.799H640.075C635.509 255.799 631.807 259.503 631.807 264.072V318.998C631.807 323.567 635.509 327.271 640.075 327.271H677.917C682.483 327.271 686.185 323.567 686.185 318.998V264.072C686.185 259.503 682.483 255.799 677.917 255.799Z" fill="#B4C6FD"/>
<path d="M583.535 335.8H508.487C506.379 335.8 504.671 337.509 504.671 339.618C504.671 341.727 506.379 343.437 508.487 343.437H583.535C585.642 343.437 587.351 341.727 587.351 339.618C587.351 337.509 585.642 335.8 583.535 335.8Z" fill="#B4C6FD"/>
<path d="M484.192 209.338H437.255C432.688 209.338 428.987 213.028 428.987 217.58C428.987 222.132 432.688 225.822 437.255 225.822H484.192C488.758 225.822 492.46 222.132 492.46 217.58C492.46 213.028 488.758 209.338 484.192 209.338Z" fill="white"/>
<path d="M684.214 438.395C684.222 441.681 683.58 444.937 682.325 447.973C681.07 451.01 679.226 453.768 676.9 456.088C672.14 460.845 665.691 463.523 658.964 463.534C655.639 463.555 652.343 462.907 649.273 461.628C646.203 460.349 643.421 458.465 641.093 456.088C638.767 453.768 636.923 451.01 635.667 447.973C634.412 444.937 633.77 441.681 633.779 438.395C633.3 434.799 633.595 431.143 634.643 427.671C635.692 424.199 637.469 420.992 639.857 418.263C642.245 415.534 645.188 413.348 648.488 411.85C651.789 410.352 655.372 409.577 658.996 409.577C662.621 409.577 666.203 410.352 669.504 411.85C672.805 413.348 675.748 415.534 678.135 418.263C680.523 420.992 682.301 424.199 683.349 427.671C684.397 431.143 684.692 434.799 684.214 438.395Z" fill="white"/>
<path d="M666.914 445.905C669.072 444.243 670.657 441.947 671.445 439.339C672.233 436.731 672.185 433.942 671.308 431.362C670.431 428.783 668.769 426.542 666.555 424.956C664.342 423.37 661.687 422.517 658.964 422.517C656.241 422.517 653.587 423.37 651.373 424.956C649.159 426.542 647.498 428.783 646.621 431.362C645.744 433.942 645.696 436.731 646.484 439.339C647.272 441.947 648.856 444.243 651.014 445.905C647.545 447.736 644.807 450.701 643.255 454.306C645.312 456.38 647.76 458.026 650.456 459.15C653.152 460.274 656.044 460.852 658.964 460.852C661.885 460.852 664.777 460.274 667.473 459.15C670.169 458.026 672.616 456.38 674.674 454.306C673.14 450.689 670.397 447.719 666.914 445.905Z" fill="#ED576C"/>
<path d="M574.567 413.128H444.696C441.008 413.128 438.018 416.12 438.018 419.81V454.242C438.018 457.933 441.008 460.925 444.696 460.925H574.567C578.255 460.925 581.245 457.933 581.245 454.242V419.81C581.245 416.12 578.255 413.128 574.567 413.128Z" fill="white"/>
<path d="M500.219 425.22H450.611C448.152 425.22 446.159 427.215 446.159 429.675V429.739C446.159 432.199 448.152 434.194 450.611 434.194H500.219C502.678 434.194 504.671 432.199 504.671 429.739V429.675C504.671 427.215 502.678 425.22 500.219 425.22Z" fill="#B4C6FD"/>
<path d="M560.702 440.686H450.611C448.152 440.686 446.159 442.68 446.159 445.141V445.205C446.159 447.665 448.152 449.66 450.611 449.66H560.702C563.161 449.66 565.154 447.665 565.154 445.205V445.141C565.154 442.68 563.161 440.686 560.702 440.686Z" fill="#B4C6FD"/>
<path d="M482.538 538.507C482.547 541.794 481.905 545.049 480.649 548.086C479.394 551.123 477.55 553.881 475.224 556.2C470.457 560.942 464.01 563.603 457.289 563.603C450.568 563.603 444.12 560.942 439.353 556.2C436.33 553.253 434.086 549.6 432.825 545.569C431.565 541.538 431.326 537.257 432.13 533.11C432.935 528.964 434.758 525.083 437.435 521.818C440.112 518.552 443.558 516.004 447.465 514.404C451.371 512.803 455.613 512.201 459.81 512.65C464.007 513.099 468.026 514.587 471.506 516.978C474.985 519.369 477.815 522.589 479.741 526.347C481.667 530.106 482.628 534.285 482.538 538.507Z" fill="white"/>
<path d="M465.239 545.763C466.827 544.571 468.115 543.023 468.998 541.244C469.882 539.464 470.337 537.503 470.327 535.516C470.332 533.298 469.772 531.114 468.699 529.173C467.627 527.231 466.077 525.595 464.197 524.42C462.317 523.245 460.168 522.568 457.954 522.455C455.74 522.342 453.533 522.796 451.543 523.773C449.553 524.751 447.845 526.22 446.581 528.043C445.316 529.865 444.536 531.979 444.316 534.187C444.095 536.394 444.441 538.622 445.319 540.658C446.198 542.695 447.582 544.474 449.339 545.826C445.87 547.658 443.131 550.623 441.58 554.228C443.637 556.302 446.084 557.948 448.78 559.072C451.477 560.195 454.368 560.774 457.289 560.774C460.209 560.774 463.101 560.195 465.797 559.072C468.493 557.948 470.941 556.302 472.998 554.228C471.467 550.593 468.725 547.602 465.239 545.763Z" fill="#92ADFF"/>
<path d="M669.268 513.24H511.158C505.362 513.24 500.664 517.942 500.664 523.742V588.786C500.664 594.586 505.362 599.288 511.158 599.288H669.268C675.063 599.288 679.761 594.586 679.761 588.786V523.742C679.761 517.942 675.063 513.24 669.268 513.24Z" fill="white"/>
<path d="M568.843 526.288H519.235C516.776 526.288 514.783 528.282 514.783 530.743V530.806C514.783 533.267 516.776 535.261 519.235 535.261H568.843C571.302 535.261 573.295 533.267 573.295 530.806V530.743C573.295 528.282 571.302 526.288 568.843 526.288Z" fill="#B4C6FD"/>
<path d="M657.629 557.219H519.235C516.776 557.219 514.783 559.213 514.783 561.674V561.737C514.783 564.198 516.776 566.193 519.235 566.193H657.629C660.087 566.193 662.081 564.198 662.081 561.737V561.674C662.081 559.213 660.087 557.219 657.629 557.219Z" fill="#B4C6FD"/>
<path d="M632.316 572.684H519.235C516.776 572.684 514.783 574.679 514.783 577.139V577.203C514.783 579.664 516.776 581.658 519.235 581.658H632.316C634.775 581.658 636.768 579.664 636.768 577.203V577.139C636.768 574.679 634.775 572.684 632.316 572.684Z" fill="#B4C6FD"/>
<path d="M657.629 541.753H519.235C516.776 541.753 514.783 543.748 514.783 546.208V546.272C514.783 548.732 516.776 550.727 519.235 550.727H657.629C660.087 550.727 662.081 548.732 662.081 546.272V546.208C662.081 543.748 660.087 541.753 657.629 541.753Z" fill="#B4C6FD"/>
<g opacity="0.1">
<path opacity="0.1" fill-rule="evenodd" clip-rule="evenodd" d="M864.456 298.122L747.241 252.616C744.151 251.427 740.76 251.271 737.574 252.171C735.45 252.841 733.503 253.977 731.874 255.497C730.246 257.016 728.977 258.881 728.161 260.954L708.636 311.297C707.919 313.1 707.568 315.029 707.602 316.97C707.637 318.911 708.058 320.825 708.839 322.602C709.62 324.379 710.747 325.983 712.153 327.32C713.56 328.657 715.218 329.7 717.031 330.39L740.754 339.618C741.006 341.4 741.728 343.083 742.846 344.492C743.964 345.902 745.437 346.988 747.114 347.638C762.759 390.916 775.479 416.734 785.274 425.093H785.719C786.546 414.083 787.627 403.327 789.344 392.889C781.267 381.497 769.565 365.394 754.237 344.837L797.231 361.194C801.898 345.47 810.769 331.32 822.886 320.272C835.002 309.224 849.904 301.697 865.982 298.504L864.456 298.122ZM875.586 294.367C865.346 293.794 864.456 298.122 864.456 298.122L865.982 298.695L872.66 297.231C875.459 296.722 878.257 296.086 880.928 295.386C879.202 294.803 877.405 294.461 875.586 294.367Z" fill="black"/>
<path opacity="0.1" fill-rule="evenodd" clip-rule="evenodd" d="M442.724 327.017C439.862 329.117 436.937 331.281 433.947 333.381C436.237 334.718 437.127 337.518 436.746 341.655C435.393 343.922 433.547 345.855 431.344 347.309C429.142 348.764 426.641 349.703 424.026 350.056C417.284 364.694 410.924 377.232 404.946 387.797C399.261 398.037 392.41 407.584 384.53 416.246C377.773 421.97 369.818 426.102 361.253 428.339C361.634 431.139 361.889 433.876 362.207 436.549L366.341 435.022C369.282 433.973 372.494 433.973 375.435 435.022C377.049 435.606 378.517 436.535 379.736 437.744C380.955 438.953 381.896 440.413 382.495 442.022L398.967 488.037C399.481 489.591 399.681 491.232 399.555 492.864C399.43 494.496 398.981 496.087 398.235 497.544C397.489 499.001 396.462 500.295 395.212 501.351C393.962 502.406 392.514 503.203 390.954 503.694L373.273 510.058C374.291 514.386 371.365 516.423 367.867 518.396C369.393 521.96 371.111 525.588 373.273 529.534C371.81 530.615 370.284 531.507 368.757 532.525C380.714 551.266 387.191 572.981 387.456 595.215C385.293 608.58 372.997 631.513 350.568 664.014C339.12 662.614 327.926 660.896 317.114 658.986L322.584 647.212C316.224 599.224 306.239 571.284 305.348 533.861C303.504 533.034 301.659 532.334 299.688 531.379C299.688 530.234 299.688 529.152 299.306 528.07C298.399 527.052 297.707 525.861 297.271 524.569L288.431 500.066L280.735 478.554C280.173 476.936 279.973 475.213 280.149 473.509C280.325 471.804 280.872 470.159 281.753 468.689C283.377 466.024 285.87 464 288.812 462.961L296.444 460.225C297.207 445.194 300.164 430.356 305.221 416.183C306.584 412.412 308.9 409.058 311.943 406.448C314.985 403.839 318.651 402.062 322.584 401.29H320.739C314.761 399.89 304.649 396.708 308.783 385.124C310.881 377.742 307.892 380.415 304.903 371.823C301.914 363.231 312.662 355.084 316.16 357.63C319.658 347.701 326.4 346.81 331.615 352.029C333.515 350.2 335.655 348.637 337.975 347.383C344.335 343.883 352.221 343.628 354.257 352.666C354.898 354.73 355.262 356.87 355.338 359.03C355.338 364.758 351.331 364.822 348.978 370.55C348.061 372.614 346.742 374.475 345.098 376.023C346.808 383.561 346.003 391.452 342.809 398.49C342.248 399.335 341.517 400.055 340.663 400.603C339.809 401.151 338.85 401.515 337.848 401.672C339.811 402.21 341.726 402.912 343.572 403.772L370.284 397.408L387.074 378.314L416.839 345.028C418.325 339.237 421.877 334.189 426.824 330.836C430.968 327.975 435.637 325.964 440.562 324.917C442.979 324.089 443.551 324.789 442.724 327.017Z" fill="black"/>
<path opacity="0.1" fill-rule="evenodd" clip-rule="evenodd" d="M281.562 600.306V651.222C234.83 639.909 190.429 620.525 150.355 593.942C154.127 589.585 159.344 586.737 165.047 585.922H267.506C269.382 585.913 271.24 586.281 272.97 587.005C274.7 587.728 276.268 588.793 277.579 590.135C278.89 591.476 279.918 593.068 280.603 594.816C281.287 596.563 281.613 598.43 281.562 600.306Z" fill="black"/>
</g>
<path d="M972.067 323.007L952.542 373.286C951.854 375.101 950.81 376.759 949.473 378.164C948.136 379.57 946.531 380.694 944.754 381.47C942.977 382.247 941.063 382.66 939.124 382.687C937.184 382.713 935.26 382.352 933.462 381.624L704.502 292.522C702.689 291.833 701.032 290.789 699.627 289.45C698.223 288.112 697.1 286.507 696.324 284.728C695.548 282.95 695.134 281.034 695.108 279.094C695.082 277.153 695.443 275.227 696.17 273.428L715.696 223.086C716.571 221.084 717.882 219.302 719.532 217.871C721.183 216.44 723.131 215.395 725.236 214.812C728.418 213.878 731.82 214.035 734.903 215.257L922.078 288.066L963.736 304.232C967.299 305.654 970.165 308.414 971.722 311.922C973.279 315.43 973.403 319.409 972.067 323.007V323.007Z" fill="#DEE4EE"/>
<path d="M768.038 270.246C766.775 273.525 764.877 276.523 762.454 279.068C760.032 281.612 757.131 283.654 753.919 285.075C747.348 287.963 739.901 288.124 733.212 285.522C726.522 282.921 721.138 277.77 718.239 271.201C716.811 267.985 716.036 264.517 715.96 260.999C715.883 257.48 716.507 253.982 717.794 250.707C720.383 244.048 725.51 238.691 732.046 235.815C738.582 232.938 745.993 232.778 752.647 235.369C759.301 237.96 764.655 243.09 767.529 249.631C770.404 256.171 770.564 263.587 767.975 270.246H768.038Z" fill="white"/>
<path d="M748.004 271.01C750.791 270.203 753.257 268.546 755.057 266.269C756.857 263.992 757.902 261.209 758.046 258.31C758.189 255.41 757.424 252.538 755.858 250.094C754.291 247.65 752.001 245.757 749.307 244.679C746.614 243.601 743.65 243.391 740.832 244.08C738.013 244.768 735.48 246.32 733.585 248.519C731.691 250.718 730.53 253.454 730.264 256.345C729.999 259.236 730.642 262.138 732.104 264.645C727.95 265.107 724.083 266.996 721.165 269.991C722.382 272.912 724.173 275.558 726.43 277.775C728.687 279.991 731.365 281.732 734.305 282.895C737.246 284.058 740.39 284.619 743.552 284.545C746.713 284.471 749.827 283.764 752.711 282.466C752.487 278.223 750.827 274.183 748.004 271.01Z" fill="#ED576C"/>
<path d="M901.082 292.95L804.153 255.269C800.257 253.754 795.872 255.687 794.358 259.586L780.356 295.656C778.842 299.555 780.773 303.943 784.67 305.458L881.599 343.139C885.495 344.654 889.88 342.721 891.394 338.822L905.397 302.752C906.91 298.853 904.979 294.465 901.082 292.95Z" fill="white"/>
<path d="M842.764 279.792L802.985 264.328C801.446 263.73 799.714 264.493 799.116 266.033L798.586 267.398C797.988 268.938 798.751 270.671 800.29 271.269L840.07 286.734C841.608 287.332 843.341 286.568 843.938 285.028L844.468 283.664C845.066 282.124 844.303 280.391 842.764 279.792Z" fill="#B4C6FD"/>
<path d="M885.046 310.091L798.314 276.374C796.775 275.775 795.043 276.539 794.446 278.079L793.916 279.443C793.318 280.983 794.081 282.716 795.62 283.315L882.352 317.032C883.891 317.63 885.623 316.866 886.22 315.326L886.75 313.962C887.348 312.422 886.585 310.689 885.046 310.091Z" fill="#B4C6FD"/>
<path d="M879.866 323.241L793.134 289.524C791.595 288.926 789.863 289.689 789.265 291.229L788.735 292.593C788.137 294.133 788.9 295.867 790.439 296.465L877.171 330.182C878.71 330.78 880.442 330.017 881.04 328.477L881.57 327.112C882.167 325.572 881.405 323.839 879.866 323.241Z" fill="#B4C6FD"/>
<path d="M921.363 336.412L910.099 332.033C908.724 331.498 907.176 332.181 906.642 333.557L901.184 347.617C900.649 348.993 901.331 350.542 902.706 351.076L913.97 355.455C915.345 355.99 916.893 355.308 917.427 353.931L922.886 339.871C923.42 338.495 922.738 336.946 921.363 336.412Z" fill="white"/>
<path d="M914.806 351.312L911.9 350.183C911.508 350.03 911.065 350.225 910.913 350.618L910.89 350.678C910.737 351.071 910.932 351.513 911.325 351.666L914.23 352.795C914.623 352.948 915.065 352.753 915.218 352.36L915.241 352.301C915.393 351.908 915.199 351.465 914.806 351.312Z" fill="#F4DBB3"/>
<path d="M919.215 342.101C919.121 343.076 918.803 344.017 918.285 344.85C917.768 345.682 917.065 346.384 916.232 346.9C915.399 347.416 914.458 347.732 913.482 347.824C912.507 347.916 911.523 347.782 910.609 347.431C909.694 347.08 908.872 346.522 908.208 345.801C907.544 345.08 907.056 344.215 906.781 343.274C906.506 342.333 906.452 341.341 906.623 340.376C906.794 339.411 907.186 338.498 907.768 337.709C911.918 338.078 915.882 339.599 919.215 342.101Z" fill="#F4DBB3"/>
<path d="M945.666 345.845L934.402 341.466C933.027 340.932 931.479 341.614 930.945 342.99L925.486 357.05C924.952 358.426 925.634 359.975 927.009 360.509L938.273 364.888C939.648 365.423 941.196 364.741 941.73 363.365L947.188 349.305C947.723 347.928 947.041 346.379 945.666 345.845Z" fill="white"/>
<path d="M939.108 360.745L936.203 359.616C935.81 359.463 935.368 359.658 935.215 360.052L935.192 360.111C935.04 360.504 935.234 360.947 935.627 361.099L938.532 362.229C938.925 362.381 939.367 362.186 939.52 361.793L939.543 361.734C939.696 361.341 939.501 360.898 939.108 360.745Z" fill="#F4DBB3"/>
<path d="M939.504 347.065V350.693L942.875 352.029V352.602L939.377 353.557V357.184H938.804L936.833 354.129C936.833 354.129 936.833 354.129 936.515 354.129L933.017 355.084V354.575L935.306 351.775C935.34 351.716 935.358 351.651 935.358 351.584C935.358 351.517 935.34 351.451 935.306 351.393L933.398 348.338V347.892L936.769 349.229C936.829 349.257 936.894 349.272 936.96 349.272C937.026 349.272 937.091 349.257 937.151 349.229L939.44 346.365L939.504 347.065Z" fill="#F4DBB3"/>
<path fill-rule="evenodd" clip-rule="evenodd" d="M843.595 460.288C834.656 492.687 832.086 526.513 836.027 559.892C839.588 580.046 852.308 618.975 874.187 676.68L883.917 673.879C881.046 635.131 875.799 596.596 868.208 558.492C885.168 513.474 891.528 476.836 887.288 448.578L843.595 460.288Z" fill="#ED576C"/>
<path fill-rule="evenodd" clip-rule="evenodd" d="M871.833 669.551C864.583 679.225 842.896 680.625 849.001 686.226C854.407 688.263 884.744 682.216 887.797 679.416C888.61 677.11 888.619 674.597 887.823 672.285C887.026 669.974 885.47 668.001 883.408 666.687C879.726 668.25 875.819 669.217 871.833 669.551Z" fill="#002283"/>
<path fill-rule="evenodd" clip-rule="evenodd" d="M741.326 306.141C759.813 331.048 773.126 349.356 781.267 361.067C793.097 363.167 804.545 365.585 815.42 368.386L817.71 409.436C802.195 403.601 787.285 396.268 773.19 387.543C763.184 379.057 750.336 353.111 734.648 309.706L741.326 306.141Z" fill="#0032C2"/>
<path fill-rule="evenodd" clip-rule="evenodd" d="M865.474 364.694L889.769 331.217L864.71 265.727L872.406 263.372C903.57 302.323 918.24 327.462 916.417 338.791C914.763 354.617 906.538 374.199 891.74 397.535L865.474 364.694Z" fill="#0032C2"/>
<path fill-rule="evenodd" clip-rule="evenodd" d="M818.6 463.025C804.714 493.602 796.895 526.586 795.577 560.146C795.959 580.682 802.319 621.139 814.657 681.516L824.706 680.243C827.95 641.446 828.821 602.487 827.314 563.583C851.142 521.79 863.269 486.616 863.693 458.061L818.6 463.025Z" fill="#ED576C"/>
<path fill-rule="evenodd" clip-rule="evenodd" d="M813.958 674.07C805.244 682.535 783.62 680.434 788.517 686.799C793.542 689.727 824.452 688.517 827.886 686.226C829.105 684.055 829.542 681.53 829.126 679.075C828.709 676.619 827.463 674.381 825.596 672.733C821.81 673.784 817.883 674.235 813.958 674.07Z" fill="#002283"/>
<path fill-rule="evenodd" clip-rule="evenodd" d="M812.558 367.558C808.234 402.945 826.296 423.375 810.65 475.754C850.803 491.113 878.172 491.453 892.758 476.772C894.539 414.019 892.419 377.423 886.398 366.986C874.792 361.69 862.17 358.998 849.415 359.097C836.66 359.196 824.081 362.084 812.558 367.558Z" fill="#0032C2"/>
<path fill-rule="evenodd" clip-rule="evenodd" d="M835.391 360.43C839.14 361.985 843.183 362.7 847.238 362.524C851.292 362.348 855.259 361.286 858.859 359.412C856.373 357.274 854.584 354.44 853.723 351.275C852.861 348.11 852.966 344.759 854.025 341.655C848.616 340.794 843.079 341.23 837.871 342.928C838.898 345.829 839.209 348.936 838.777 351.984C838.345 355.031 837.183 357.929 835.391 360.43Z" fill="#FFD3A4"/>
<path fill-rule="evenodd" clip-rule="evenodd" d="M830.112 349.802C836.472 355.275 845.694 352.538 857.333 341.464L851.863 314.479L824.07 315.943C823.243 331.981 825.278 343.31 830.112 349.802Z" fill="#FFD3A4"/>
<path fill-rule="evenodd" clip-rule="evenodd" d="M820.953 327.526C823.89 330.374 827.804 331.99 831.893 332.045C831.263 334.119 831.263 336.335 831.893 338.409C831.93 339.104 832.175 339.772 832.594 340.328C833.013 340.883 833.588 341.301 834.246 341.528C833.821 340.561 833.703 339.488 833.908 338.452C834.112 337.416 834.63 336.468 835.391 335.736C836.345 334.909 837.299 335.736 838.38 337.391C838.169 339.105 837.462 340.72 836.344 342.037C835.929 343.859 836.085 345.766 836.791 347.496C837.496 349.227 838.717 350.699 840.288 351.711C842.67 352.843 845.346 353.207 847.944 352.751C850.542 352.295 852.933 351.042 854.788 349.165C855.871 343.444 858.589 338.161 862.611 333.954C864.652 330.277 865.274 325.979 864.36 321.873C863.446 317.768 861.058 314.141 857.651 311.679C857.264 310.404 856.622 309.222 855.764 308.204C854.905 307.186 853.849 306.354 852.659 305.759C851.468 305.163 850.169 304.816 848.84 304.74C847.512 304.664 846.181 304.859 844.931 305.314C841.228 303.828 837.189 303.386 833.253 304.037C829.317 304.688 825.635 306.406 822.607 309.005C818.091 313.333 817.582 319.507 820.953 327.526Z" fill="black"/>
<path fill-rule="evenodd" clip-rule="evenodd" d="M872.406 263.054C872.406 263.054 873.424 257.39 863.248 256.69C853.071 255.99 852.117 260.445 852.117 260.445L864.838 265.218L872.406 263.054Z" fill="#FFD3A4"/>
<path fill-rule="evenodd" clip-rule="evenodd" d="M741.326 306.141C742.09 302.259 742.026 298.25 739.991 298.122C737.956 297.995 738.337 301.305 737.447 300.795C736.696 299.935 736.151 298.915 735.853 297.812C735.555 296.709 735.513 295.553 735.73 294.431C736.302 292.394 727.08 294.431 728.225 301.241C728.464 303.143 729.218 304.943 730.407 306.446C731.595 307.95 733.172 309.099 734.966 309.769L741.326 306.141Z" fill="#FFD3A4"/>
<path fill-rule="evenodd" clip-rule="evenodd" d="M294.028 467.289C287.032 541.817 314.252 568.102 316.224 692.527H330.343C339.787 617.359 344.249 541.647 343.699 465.889L294.028 467.289Z" fill="#002283"/>
<path fill-rule="evenodd" clip-rule="evenodd" d="M275.711 689.599C301.151 626.337 321.1 583.907 335.558 562.31C307.659 526.669 294.197 495.441 295.172 468.626L326.972 455.133C359.578 492.089 375.584 526.224 374.99 557.537C371.429 578.752 342.109 624.576 287.031 695.009L275.711 689.599Z" fill="#0032C2"/>
<path fill-rule="evenodd" clip-rule="evenodd" d="M316.415 685.271C315.298 686.916 314.609 688.813 314.409 690.791C314.209 692.769 314.505 694.765 315.27 696.6C327.924 698.19 340.684 698.765 353.43 698.318C354.575 690.108 336.003 690.681 331.615 682.217C326.989 684.793 321.676 685.861 316.415 685.271Z" fill="#ED576C"/>
<path fill-rule="evenodd" clip-rule="evenodd" d="M279.463 680.944C277.627 682.13 276.062 683.689 274.867 685.52C273.673 687.351 272.877 689.413 272.531 691.572C277.089 696.471 282.8 700.149 289.143 702.273C295.487 704.396 302.26 704.896 308.846 703.728C309.228 693.927 290.911 699.846 292.438 688.135C289.905 687.864 287.452 687.088 285.223 685.853C282.995 684.618 281.036 682.948 279.463 680.944Z" fill="#ED576C"/>
<path fill-rule="evenodd" clip-rule="evenodd" d="M300.006 373.032L358.2 359.603L404.691 307.414L412.26 311.742C397.759 343.607 384.382 365.967 372.128 378.823C361.02 388.625 344.759 393.844 323.347 394.48C314.287 388.865 306.368 381.588 300.006 373.032Z" fill="#ED576C"/>
<path fill-rule="evenodd" clip-rule="evenodd" d="M287.286 493.893C316.415 508.361 340.943 507.746 360.871 492.047C338.675 452.778 355.656 432.73 348.533 388.497C342.173 355.466 299.815 356.675 292.819 378.696C282.389 406.148 280.545 444.547 287.286 493.893Z" fill="#ED576C"/>
<path fill-rule="evenodd" clip-rule="evenodd" d="M306.684 367.877C309.927 374.687 316.86 375.769 327.481 371.186C325.406 369.074 323.974 366.414 323.355 363.517C322.735 360.62 322.953 357.607 323.983 354.829L310.245 353.938C311.506 356.285 311.839 359.021 311.179 361.602C310.52 364.184 308.915 366.423 306.684 367.877Z" fill="#FFE4C4"/>
<path fill-rule="evenodd" clip-rule="evenodd" d="M298.48 328.99L304.522 358.966C318.429 365.331 327.163 365.84 330.725 360.494C334.965 352.644 334.414 339.449 329.071 320.907L298.48 328.99Z" fill="#FFE4C4"/>
<path fill-rule="evenodd" clip-rule="evenodd" d="M322.52 336.945C332.505 341.973 333.841 337.709 336.894 332.618C340.074 325.171 345.734 327.208 342.363 314.606C338.993 302.005 326.527 307.223 319.34 313.97C314.125 308.751 307.383 309.706 303.885 319.507C300.451 317.025 289.703 325.108 292.628 333.763C295.554 342.419 298.988 339.746 296.508 347.065C292.374 358.648 302.486 361.894 308.465 363.167C310.547 363.909 312.768 364.18 314.967 363.96C317.167 363.74 319.29 363.034 321.185 361.894C323.029 354.575 317.814 352.793 314.825 350.438C311.835 348.083 312.535 341.21 316.097 343.246C320.358 347.892 322.457 352.22 325.509 348.083C324.138 346.613 323.149 344.829 322.627 342.887C322.106 340.945 322.069 338.905 322.52 336.945Z" fill="black"/>
<path fill-rule="evenodd" clip-rule="evenodd" d="M404.819 307.86C406.266 301.931 409.872 296.757 414.931 293.349C419.055 290.508 423.704 288.518 428.605 287.494C430.64 286.666 431.213 287.494 430.386 289.53C427.524 291.694 424.598 293.794 421.609 295.895C423.899 297.231 424.853 300.032 424.407 304.168C422.959 306.556 420.986 308.581 418.639 310.092C416.292 311.603 413.632 312.559 410.861 312.888L404.819 307.86Z" fill="#FFE4C4"/>
<path d="M378.552 466.207L301.151 494.084C298.075 495.226 294.678 495.136 291.668 493.831C288.658 492.527 286.267 490.109 284.996 487.083L276.156 462.516L268.46 441.068C267.875 439.459 267.651 437.741 267.805 436.036C267.959 434.331 268.487 432.681 269.351 431.203C270.958 428.523 273.458 426.495 276.41 425.475L334.604 404.536L354.002 397.535C356.921 396.485 360.114 396.485 363.033 397.535C364.654 398.108 366.127 399.033 367.348 400.243C368.568 401.454 369.506 402.92 370.093 404.536L386.565 450.551C387.079 452.105 387.279 453.746 387.153 455.378C387.028 457.01 386.579 458.6 385.833 460.057C385.087 461.514 384.06 462.808 382.81 463.864C381.56 464.92 380.112 465.716 378.552 466.207Z" fill="#B4C6FD"/>
<path d="M363.034 397.535L347.197 420.192L328.117 447.559L269.351 431.203C270.958 428.523 273.458 426.495 276.41 425.475L334.604 404.536L354.002 397.535C356.921 396.485 360.114 396.485 363.034 397.535Z" fill="#92ADFF"/>
<path fill-rule="evenodd" clip-rule="evenodd" d="M337.594 406.636L324.238 428.339L347.96 476.008L340.583 482.373C312.938 454.963 299.773 435.976 301.087 425.411C303.898 409.749 309.965 394.853 318.895 381.687C327.672 368.131 353.748 378.378 337.594 406.636Z" fill="#ED576C"/>
<path fill-rule="evenodd" clip-rule="evenodd" d="M340.265 481.291C340.844 482.418 341.789 483.315 342.944 483.835C344.1 484.356 345.397 484.468 346.625 484.155C349.445 484.22 352.211 483.371 354.511 481.736C358.518 479.127 362.334 477.409 360.871 472.572H349.55L345.798 471.999L340.265 481.291Z" fill="#FFE4C4"/>
<path opacity="0.1" d="M215.99 677.698C244.372 677.698 267.379 673.139 267.379 667.515C267.379 661.891 244.372 657.332 215.99 657.332C187.609 657.332 164.601 661.891 164.601 667.515C164.601 673.139 187.609 677.698 215.99 677.698Z" fill="black"/>
<path fill-rule="evenodd" clip-rule="evenodd" d="M258.73 571.73V626.146C258.73 633.91 248.999 647.276 241.24 647.276L179.611 640.147V660.323C178.566 664.378 175.99 667.868 172.424 670.06C171.025 670.951 169.626 671.142 168.736 670.06L148.956 639.957H142.151C140.308 639.965 138.482 639.609 136.777 638.909C135.072 638.209 133.522 637.179 132.216 635.878C130.91 634.577 129.874 633.031 129.166 631.328C128.459 629.625 128.095 627.799 128.095 625.955L123.58 590.059L121.862 576.121C121.862 568.357 134.582 557.473 142.151 557.473H244.674C246.536 557.473 248.379 557.843 250.097 558.562C251.815 559.281 253.373 560.334 254.681 561.66C255.988 562.987 257.02 564.56 257.715 566.288C258.41 568.017 258.755 569.867 258.73 571.73Z" fill="#809FFF"/>
<path fill-rule="evenodd" clip-rule="evenodd" d="M252.115 579.176V633.656C252.108 636.822 251.029 639.893 249.054 642.366C247.079 644.84 244.324 646.571 241.239 647.276C240.214 647.486 239.17 647.593 238.123 647.594H172.997V667.706C173.021 668.516 172.799 669.315 172.361 669.997C172.029 670.572 171.569 671.062 171.017 671.431C170.465 671.799 169.836 672.036 169.178 672.122C168.52 672.208 167.851 672.142 167.223 671.928C166.595 671.714 166.024 671.358 165.555 670.888L142.151 647.594H135.791C133.951 647.611 132.126 647.263 130.421 646.57C128.717 645.877 127.166 644.853 125.86 643.557C124.553 642.261 123.515 640.719 122.807 639.019C122.1 637.32 121.735 635.497 121.735 633.656V579.176C121.641 578.224 121.641 577.265 121.735 576.312C122.396 573.146 124.132 570.307 126.648 568.277C129.164 566.246 132.304 565.15 135.536 565.174H237.932C239.786 565.149 241.626 565.493 243.345 566.185C245.065 566.877 246.63 567.905 247.95 569.207C249.269 570.51 250.317 572.062 251.032 573.773C251.747 575.485 252.115 577.321 252.115 579.176Z" fill="#92ADFF"/>
<path d="M170.008 581.34H143.741C141.317 581.34 139.352 583.292 139.352 585.7C139.352 588.107 141.317 590.059 143.741 590.059H170.008C172.431 590.059 174.396 588.107 174.396 585.7C174.396 583.292 172.431 581.34 170.008 581.34Z" fill="white"/>
<path d="M232.399 600.115H143.741C141.317 600.115 139.352 602.067 139.352 604.475C139.352 606.883 141.317 608.834 143.741 608.834H232.399C234.823 608.834 236.788 606.883 236.788 604.475C236.788 602.067 234.823 600.115 232.399 600.115Z" fill="white"/>
<path d="M232.399 618.954H143.741C141.317 618.954 139.352 620.906 139.352 623.314C139.352 625.721 141.317 627.673 143.741 627.673H232.399C234.823 627.673 236.788 625.721 236.788 623.314C236.788 620.906 234.823 618.954 232.399 618.954Z" fill="white"/>
</svg>
