<svg width="1105" height="817" viewBox="0 0 1105 817" fill="none" xmlns="http://www.w3.org/2000/svg">
<mask id="mask0" mask-type="alpha" maskUnits="userSpaceOnUse" x="0" y="0" width="1105" height="817">
<rect width="1105" height="817" fill="#C4C4C4"/>
</mask>
<g mask="url(#mask0)">
<path d="M1443.24 208.444C1420.91 224.849 1395.14 236.707 1367.58 243.252C1363.2 244.321 1358.61 245.294 1354.01 246.071L1343.06 248.308C1316.71 253.161 1292.29 264.615 1272.41 281.439C1252.53 298.263 1237.96 319.818 1230.25 343.785C1224.61 359.452 1220.49 375.56 1217.94 391.913C1215.12 407.858 1213.34 424.29 1211.99 441.11C1205.52 517.24 1207.08 599.105 1168.37 655.011C1082.9 778.004 996.809 844.605 537.754 809.798C523.84 808.761 510.378 807.497 497.369 806.006C478.585 803.867 460.219 801.242 442.478 798.325C422.338 794.825 403.032 790.936 384.249 786.56C307.572 769.278 234.719 739.666 168.965 699.055C-4.68055 589.285 -46.1094 425.457 67.9501 326.965C135.781 268.628 314.018 287.296 330.819 228.57C337.602 205.139 318.714 169.262 256.623 111.119C211.438 68.728 193.489 23.6144 195.263 -18.388C195.263 -21.5965 195.263 -24.7078 195.993 -28.1108C213.003 -183.675 495.386 -294.709 644.717 -79.2526C716.618 23.906 825.355 -38.8059 942.858 -108.421C998.375 -141.478 1055.87 -175.897 1112.23 -195.245C1157.2 -210.802 1199.99 -209.927 1243.61 -204.19C1535.38 -165.007 1570.13 114.717 1443.24 208.444Z" fill="#DEE4FE"/>
<path d="M166.487 764.694C166.118 765.286 165.55 765.727 164.885 765.937C164.221 766.147 163.503 766.112 162.862 765.84C157.392 763.612 28.5384 709.26 4.37036 614.112C4.27431 613.744 4.2516 613.361 4.30349 612.984C4.35539 612.608 4.48091 612.245 4.67285 611.917C4.86479 611.589 5.11938 611.302 5.42214 611.073C5.7249 610.843 6.06985 610.675 6.43734 610.579C6.80483 610.483 7.18767 610.46 7.56394 610.512C7.94022 610.564 8.30261 610.69 8.63038 610.882C8.95815 611.074 9.24483 611.329 9.4742 611.632C9.70357 611.935 9.87114 612.28 9.96719 612.648C33.4356 704.996 163.752 759.984 165.088 760.494C165.793 760.803 166.352 761.372 166.649 762.084C166.945 762.795 166.955 763.593 166.678 764.312L166.487 764.694Z" fill="white"/>
<path d="M169.031 523.354C172.137 532.328 174.27 541.61 175.391 551.04C179.97 585.281 155.802 571.979 170.748 580.062C185.694 588.145 144.481 609.911 150.968 622.003C151.803 623.373 152.983 624.5 154.389 625.271C155.795 626.041 157.379 626.429 158.982 626.395C167.314 627.477 179.843 624.867 190.21 628.877C191.146 629.196 192.043 629.623 192.881 630.15C197.196 632.35 200.695 635.874 202.866 640.206C208.145 650.071 202.866 659.808 193.453 671.073C188.683 676.929 182.832 683.357 177.044 690.167C176.458 690.839 175.907 691.54 175.391 692.267C173.258 694.744 171.262 697.336 169.412 700.031C166.233 704.065 163.342 708.318 160.763 712.76C159.745 714.67 158.728 716.579 157.774 718.616C157.436 719.111 157.158 719.646 156.947 720.207C155.426 723.321 154.109 726.532 153.004 729.817C152.24 731.981 151.541 734.399 150.905 736.691C150.389 738.921 149.553 741.064 148.424 743.055C147.922 744.215 147.21 745.272 146.326 746.174C145.422 747.16 144.211 747.81 142.891 748.019C141.868 748.278 140.797 748.278 139.775 748.019C138.098 747.52 136.526 746.722 135.132 745.665C135.093 745.562 135.093 745.449 135.132 745.346V745.346C119.761 730.61 108.756 711.911 103.332 691.312C103.014 689.594 102.442 688.003 102.06 686.348C97.29 672.983 86.4779 665.663 75.6023 658.854C73.1219 657.135 70.5143 655.544 68.0339 653.826C63.2537 650.702 58.8564 647.028 54.9323 642.879C52.3384 640.063 50.1932 636.865 48.5723 633.396C47.5977 631.342 46.7895 629.214 46.1555 627.031C46.1555 626.204 45.7739 625.377 45.5831 624.676C44.1203 617.867 46.6643 615.13 51.2435 614.557C64.8539 612.52 96.1451 628.877 99.0707 616.594C101.996 604.31 80.5631 601.828 65.7443 594.382C62.7086 593.208 59.9829 591.353 57.7774 588.958C55.5719 586.564 53.9457 583.694 53.0243 580.571C48.5723 559.504 73.9487 569.369 86.7323 536.72C99.5159 504.07 78.5915 480.267 91.8203 463.974C105.049 447.681 107.784 514.317 113.126 498.66C118.469 483.004 128.454 495.987 130.553 512.28C132.652 528.573 126.864 546.521 143.909 521.636C155.23 504.961 163.434 508.462 169.031 523.354Z" fill="#B4C6FD"/>
<path d="M74.9028 640.333C76.0476 639.251 78.21 638.36 82.026 640.333C86.6179 642.689 90.8921 645.618 94.746 649.052L98.1168 652.171C100.473 654.585 103.097 656.72 105.94 658.535C111.737 661.783 118.448 663.014 125.02 662.036C126.22 658.807 127.239 655.513 128.072 652.171C130.526 638.529 128.565 624.46 122.476 612.011C120.203 606.921 117.633 601.97 114.78 597.182C111.277 597.911 107.662 597.911 104.159 597.182C99.5015 595.427 95.396 592.461 92.2655 588.59L89.9124 586.108C86.4442 582.748 82.5013 579.918 78.21 577.707C76.4928 576.816 74.2668 576.179 73.3128 577.134C73.1461 577.313 72.9443 577.456 72.72 577.554C72.4957 577.652 72.2536 577.702 72.0089 577.702C71.7643 577.702 71.5223 577.652 71.298 577.554C71.0737 577.456 70.8718 577.313 70.7051 577.134C70.5243 576.962 70.3803 576.754 70.2819 576.524C70.1835 576.295 70.1328 576.047 70.1328 575.797C70.1328 575.547 70.1835 575.3 70.2819 575.07C70.3803 574.841 70.5243 574.633 70.7051 574.461C72.6767 572.17 76.1112 572.042 80.1816 574.461C84.8576 576.833 89.1465 579.901 92.9016 583.562C93.7284 584.326 94.5552 585.217 95.382 586.108C98.068 589.492 101.601 592.105 105.622 593.682C108.054 594.193 110.567 594.193 112.999 593.682C110.9 590.181 108.738 586.744 106.639 583.371C104.54 579.998 103.332 578.216 101.742 575.606C99.089 571.724 97.1107 567.42 95.8908 562.878C93.7284 553.395 97.6716 543.784 102.251 534.683C102.471 534.228 102.862 533.878 103.339 533.711C103.816 533.544 104.339 533.573 104.795 533.792C105.018 533.895 105.218 534.041 105.384 534.221C105.55 534.402 105.678 534.615 105.761 534.846C105.844 535.077 105.88 535.322 105.867 535.568C105.854 535.813 105.792 536.053 105.685 536.274C101.424 545.121 97.7351 553.776 99.3252 561.732C100.477 565.755 102.282 569.56 104.668 572.997C106.321 575.606 107.911 578.216 109.565 580.762C113.317 586.681 117.133 592.727 120.568 598.964C122.189 597.943 123.588 596.605 124.681 595.03C125.774 593.455 126.538 591.676 126.928 589.799C127.376 586.809 127.504 583.779 127.309 580.762V578.598C127.011 574.412 127.663 570.212 129.217 566.314C131.03 562.634 133.825 559.528 137.294 557.341C138.518 556.593 139.793 555.934 141.11 555.368C142.943 554.743 144.615 553.721 146.008 552.376C146.152 552.178 146.335 552.01 146.545 551.883C146.755 551.756 146.988 551.672 147.231 551.637C147.474 551.601 147.722 551.615 147.959 551.676C148.197 551.737 148.42 551.846 148.615 551.994C148.826 552.128 149.006 552.304 149.144 552.512C149.283 552.72 149.376 552.954 149.418 553.2C149.46 553.446 149.45 553.698 149.388 553.94C149.327 554.182 149.215 554.408 149.06 554.604C147.341 556.533 145.149 557.98 142.7 558.804C141.607 559.289 140.545 559.841 139.52 560.459C136.594 562.247 134.234 564.829 132.715 567.906C131.421 571.269 130.878 574.875 131.125 578.471V580.634C131.347 583.927 131.219 587.234 130.744 590.499C130.247 592.917 129.27 595.21 127.872 597.244C126.474 599.277 124.682 601.009 122.603 602.337C123.875 604.883 125.147 607.365 126.228 609.975C132.659 623.182 134.709 638.099 132.079 652.553C131.115 656.305 129.947 660.002 128.581 663.627C128.618 663.837 128.618 664.053 128.581 664.263C126.424 669.462 125.052 674.953 124.511 680.556C124.459 682.386 124.566 684.218 124.829 686.03C127.666 684.159 130.72 682.642 133.924 681.511L135.895 680.747C146.752 676.798 156.065 669.485 162.48 659.872C163.37 658.344 164.197 656.817 164.96 655.226C166.829 651.01 169.509 647.204 172.847 644.024C173.035 643.865 173.252 643.745 173.486 643.671C173.721 643.596 173.968 643.568 174.213 643.589C174.458 643.609 174.696 643.678 174.915 643.791C175.133 643.904 175.328 644.059 175.486 644.247C175.645 644.435 175.765 644.653 175.84 644.887C175.914 645.122 175.942 645.369 175.922 645.614C175.901 645.859 175.832 646.098 175.719 646.317C175.606 646.535 175.452 646.73 175.264 646.888C172.326 649.761 169.971 653.176 168.331 656.944C167.504 658.599 166.678 660.254 165.724 661.781C160.627 669.919 153.416 676.518 144.863 680.874C142.192 682.275 139.648 683.42 137.294 684.375L135.259 685.202C131.791 686.308 128.541 688.009 125.656 690.23V690.23C126.037 692.33 126.546 694.431 126.991 696.595L130.871 718.043C131.854 722.825 133.259 727.51 135.068 732.045C137.467 737.455 141.013 742.278 145.461 746.18C149.909 750.081 155.152 752.968 160.826 754.638C161.061 754.704 161.28 754.816 161.471 754.967C161.662 755.118 161.821 755.306 161.939 755.519C162.058 755.732 162.133 755.966 162.16 756.208C162.187 756.45 162.166 756.696 162.098 756.93C161.938 757.402 161.61 757.799 161.176 758.046C160.742 758.292 160.233 758.371 159.745 758.266C153.538 756.445 147.802 753.293 142.937 749.028C138.071 744.764 134.192 739.489 131.57 733.572C129.693 728.827 128.225 723.93 127.182 718.934L122.221 698.122C120.665 692.592 119.874 686.874 119.868 681.129C120.258 676.053 121.371 671.06 123.175 666.3C116.529 666.872 109.867 665.383 104.095 662.036C100.994 660.015 98.1343 657.644 95.5728 654.971L92.3292 651.98C88.6894 648.728 84.624 645.987 80.2451 643.833C78.5915 643.006 77.7012 643.006 77.4468 643.261C77.0795 643.614 76.5893 643.812 76.0793 643.812C75.5694 643.812 75.0793 643.614 74.712 643.261C74.5091 643.068 74.3512 642.833 74.2492 642.572C74.1473 642.311 74.1039 642.031 74.1221 641.752C74.1403 641.473 74.2197 641.201 74.3546 640.955C74.4895 640.71 74.6766 640.498 74.9028 640.333V640.333Z" fill="#FEFEFE"/>
<path d="M189.001 615.002C190.716 616.772 191.985 618.924 192.704 621.281C193.423 623.638 193.57 626.133 193.135 628.559C192.973 629.12 192.782 629.672 192.563 630.213C190.798 634.479 187.478 637.915 183.277 639.824C171.575 646.188 193.962 653.062 187.284 667.573C187.085 667.941 186.914 668.324 186.775 668.718C181.178 680.174 175.454 683.611 174.945 689.912C174.788 690.796 174.788 691.701 174.945 692.585C174.884 692.879 174.884 693.182 174.945 693.476C175.709 697.549 178.634 701.05 180.542 707.605C182.391 715.367 182.391 723.455 180.542 731.217C179.137 739.471 177.009 747.585 174.182 755.466C174.564 757.502 172.274 759.03 169.412 759.857C168.315 760.182 167.184 760.374 166.041 760.43C166.041 760.43 165.596 760.43 165.405 760.43H164.579C163.783 760.5 162.983 760.361 162.258 760.026C161.533 759.691 160.907 759.172 160.445 758.521C160.445 758.521 160.445 758.521 160.445 758.139L155.929 752.984C153.194 749.801 150.65 746.619 148.361 743.628C136.976 728.99 131.189 716.706 135.641 708.623C135.952 708.055 136.291 707.503 136.658 706.969C137.239 706.28 137.854 705.621 138.503 704.996C141.374 702.842 143.496 699.84 144.569 696.414C145.642 692.987 145.611 689.31 144.481 685.902C144.209 684.571 143.869 683.254 143.463 681.956L142.255 678.329C141.365 675.846 140.411 673.11 139.457 670.246C134.878 655.989 148.87 652.043 157.646 645.934L158.346 645.424C163.752 641.478 159.809 633.523 158.855 626.713C158.282 622.512 158.855 618.757 163.434 616.784C175.391 611.247 181.751 607.11 189.001 615.002Z" fill="#EFEFEF"/>
<path d="M168.14 761.958C167.723 762.011 167.3 761.92 166.942 761.701C166.583 761.481 166.31 761.145 166.169 760.748C165.088 757.375 139.457 677.438 173.292 629.259C173.553 628.879 173.955 628.619 174.408 628.535C174.861 628.452 175.329 628.552 175.709 628.813C176.088 629.075 176.348 629.477 176.432 629.93C176.515 630.384 176.415 630.852 176.154 631.232C143.273 678.01 169.222 758.903 169.476 759.666C169.619 760.105 169.587 760.583 169.385 760.999C169.183 761.414 168.828 761.735 168.395 761.894L168.14 761.958Z" fill="white"/>
<path d="M661.676 695.576C714.274 666.554 750.716 653.38 760.129 615.512C769.542 577.643 772.086 535.192 799.688 520.045C827.291 504.898 839.057 487.777 778.891 489.941C718.726 492.105 668.164 521.063 647.684 585.408C641.395 603.611 639.385 623.021 641.812 642.129C644.239 661.236 651.036 679.526 661.676 695.576Z" fill="#EFEFEF"/>
<path d="M774.248 509.353C747.167 524.618 723.729 545.597 705.56 570.833V570.833C705.26 571.044 705.055 571.364 704.988 571.724C700.345 578.089 695.893 584.453 691.696 591.581C692.586 581.335 694.049 555.431 688.452 543.657C688.377 543.498 688.271 543.356 688.141 543.237C688.011 543.119 687.859 543.028 687.694 542.969C687.528 542.91 687.353 542.884 687.177 542.893C687.002 542.902 686.83 542.945 686.671 543.021C686.506 543.088 686.357 543.19 686.234 543.319C686.111 543.448 686.017 543.602 685.957 543.77C685.897 543.938 685.873 544.117 685.886 544.295C685.9 544.473 685.95 544.646 686.035 544.803C692.395 558.613 688.706 595.082 688.643 595.718C688.541 596.028 688.541 596.363 688.643 596.673C679.973 611.697 673.12 627.699 668.227 644.343V644.343C668.137 644.531 668.09 644.738 668.09 644.947C668.09 645.156 668.137 645.363 668.227 645.552C660.331 672.538 658.785 700.987 663.712 728.671C663.774 729.003 663.959 729.299 664.231 729.5C664.502 729.701 664.839 729.791 665.174 729.753C665.524 729.677 665.83 729.469 666.031 729.173C666.232 728.877 666.313 728.515 666.256 728.162C661.328 700.598 662.918 672.263 670.898 645.424C693.158 619.648 742.194 610.165 742.703 610.102C742.878 610.068 743.045 610.001 743.194 609.903C743.344 609.805 743.472 609.678 743.573 609.53C743.673 609.383 743.743 609.217 743.78 609.042C743.816 608.867 743.817 608.686 743.784 608.511C743.751 608.335 743.683 608.168 743.585 608.019C743.487 607.869 743.361 607.741 743.213 607.64C743.065 607.54 742.899 607.469 742.725 607.433C742.55 607.397 742.369 607.395 742.194 607.429C740.222 607.811 696.593 616.275 672.552 639.76C680.444 615.646 692.264 593.002 707.532 572.743C738.187 554.413 752.052 554.668 752.052 554.604C752.229 554.622 752.409 554.602 752.578 554.546C752.747 554.49 752.903 554.399 753.035 554.279C753.167 554.159 753.272 554.013 753.344 553.849C753.415 553.686 753.452 553.509 753.451 553.331C753.439 552.985 753.305 552.654 753.072 552.398C752.839 552.141 752.523 551.976 752.179 551.931C751.607 551.931 739.459 551.931 711.666 567.269C728.926 544.488 750.71 525.528 775.648 511.58C775.806 511.505 775.949 511.4 776.067 511.269C776.185 511.139 776.276 510.987 776.335 510.821C776.394 510.656 776.42 510.48 776.411 510.305C776.402 510.129 776.359 509.957 776.284 509.798C776.18 509.634 776.045 509.492 775.886 509.381C775.728 509.27 775.548 509.191 775.359 509.149C775.17 509.108 774.974 509.105 774.783 509.139C774.593 509.174 774.411 509.247 774.248 509.353Z" fill="white"/>
<path d="M942.852 581.653C930.132 579.616 904.692 587.635 880.46 605.901L850.95 611.502L866.023 617.866C857.057 626.426 849.272 636.143 842.873 646.761L810.373 648.607C810.373 648.607 820.867 654.971 833.205 662.418C816.161 683.102 785.442 685.393 753.896 688.194L731.827 673.746L738.187 689.594C714.464 692.203 691.505 696.722 674.587 711.233C674.587 711.233 673.633 715.179 673.57 680.238C673.57 661.972 683.428 634.159 705.815 607.238L715.864 619.967L714.146 597.946C727.029 584.532 741.738 573.005 757.84 563.705L759.557 582.035C759.557 582.035 766.871 568.924 774.694 554.731C782.664 550.93 790.839 547.573 799.18 544.675C809.893 540.998 820.987 538.543 832.252 537.356L821.376 555.94C821.376 555.94 842.364 546.139 860.363 537.547C919.129 543.848 958.434 584.389 942.852 581.653Z" fill="#DAE0EA"/>
<path d="M894.834 569.751C855.647 563.168 815.384 568.905 779.591 586.171C794.664 571.088 795.046 558.677 795.046 558.104C795.046 557.733 794.898 557.377 794.636 557.114C794.374 556.852 794.018 556.704 793.647 556.704C793.46 556.695 793.274 556.725 793.1 556.792C792.927 556.859 792.769 556.962 792.637 557.094C792.505 557.226 792.402 557.384 792.335 557.558C792.268 557.732 792.238 557.918 792.247 558.104C792.247 558.104 792.247 572.042 773.74 588.017C773.59 588.167 773.473 588.346 773.397 588.543C773.32 588.74 773.285 588.951 773.294 589.163C761.03 595.483 749.438 603.031 738.696 611.693C735.007 614.684 731.636 618.057 728.138 621.176C736.915 605.265 734.498 594.954 734.18 594.445C734.052 594.113 733.806 593.839 733.49 593.675C733.174 593.511 732.809 593.468 732.463 593.554C732.286 593.59 732.119 593.663 731.972 593.768C731.826 593.874 731.703 594.009 731.613 594.166C731.522 594.322 731.467 594.496 731.449 594.676C731.431 594.856 731.452 595.038 731.509 595.209C731.509 595.209 735.135 609.02 719.616 629.322C719.616 629.322 719.616 629.322 719.616 629.704C710.879 638.774 703.06 648.688 696.275 659.299C699.229 650.427 699.993 640.972 698.501 631.741C698.457 631.569 698.378 631.407 698.271 631.265C698.163 631.123 698.029 631.005 697.875 630.916C697.721 630.827 697.55 630.769 697.374 630.747C697.198 630.725 697.019 630.738 696.847 630.786C696.669 630.823 696.501 630.896 696.352 631.001C696.203 631.105 696.077 631.239 695.982 631.394C695.887 631.549 695.824 631.722 695.798 631.902C695.772 632.082 695.783 632.265 695.83 632.441C695.83 632.441 699.646 648.225 688.579 672.282C676.254 695.11 669.273 720.442 668.164 746.364C668.162 746.732 668.299 747.086 668.546 747.357C668.794 747.628 669.134 747.796 669.499 747.828V747.828C669.844 747.799 670.167 747.649 670.411 747.405C670.656 747.16 670.806 746.837 670.835 746.492C672.194 717.424 680.95 689.185 696.275 664.454C696.275 664.454 696.275 664.454 696.656 664.454C696.843 664.509 697.042 664.509 697.229 664.454C720.505 653.241 746.887 650.235 772.086 655.926C772.44 656.024 772.819 655.979 773.14 655.801C773.462 655.622 773.7 655.324 773.803 654.971C773.886 654.617 773.834 654.245 773.657 653.928C773.481 653.61 773.193 653.37 772.849 653.253C747.748 647.491 721.451 650.129 697.992 660.763C706.795 647.029 717.286 634.457 729.22 623.34C767.38 605.965 813.172 617.803 813.617 617.93C813.792 617.988 813.978 618.009 814.161 617.992C814.345 617.974 814.523 617.919 814.685 617.829C814.846 617.74 814.987 617.617 815.099 617.47C815.211 617.323 815.291 617.155 815.334 616.975C815.382 616.796 815.393 616.608 815.368 616.424C815.342 616.24 815.28 616.063 815.185 615.903C815.091 615.743 814.965 615.603 814.816 615.492C814.667 615.381 814.497 615.302 814.317 615.257C813.871 615.257 772.786 604.501 735.389 617.866C736.979 616.466 738.442 615.002 740.159 613.602C761.423 596.085 786.19 583.329 812.794 576.193C839.398 569.057 867.22 567.707 894.389 572.233C894.751 572.289 895.12 572.2 895.418 571.985C895.715 571.771 895.916 571.449 895.979 571.088C895.97 570.768 895.851 570.46 895.643 570.217C895.434 569.974 895.149 569.809 894.834 569.751V569.751Z" fill="white"/>
<path d="M862.271 716.515C863.289 739.045 847.261 753.302 841.474 737.773C832.888 714.67 821.185 710.787 793.583 722.243C765.981 733.699 745.565 758.012 750.462 734.972C755.359 711.933 696.339 719.761 663.648 744.137C662.965 744.589 662.307 745.077 661.677 745.601C661.609 744.605 661.609 743.605 661.677 742.61C660.791 719.308 668.82 696.546 684.127 678.965L691.187 693.54L695.13 668.082C696.847 666.491 698.692 665.027 700.6 663.499C711.758 654.988 724.556 648.877 738.187 645.552L734.817 659.681L752.943 643.324C773.468 641.758 794.022 645.969 812.281 655.48L804.459 662.226L821.058 660.381C829.765 665.708 837.759 672.124 844.845 679.474C852.52 686.921 858.074 696.279 860.935 706.587H846.753C846.753 706.587 853.24 710.724 862.271 716.515Z" fill="#C4D6F2"/>
<path d="M660.15 752.284C659.817 752.207 659.527 752.006 659.338 751.722C659.148 751.438 659.075 751.093 659.132 750.756C667.782 711.742 705.497 689.339 737.933 681.384C777.047 671.773 814.253 679.856 832.951 702.004C833.189 702.253 833.321 702.583 833.321 702.927C833.321 703.271 833.189 703.601 832.951 703.85C832.714 704.083 832.394 704.214 832.061 704.214C831.728 704.214 831.408 704.083 831.17 703.85C813.172 682.466 776.856 674.701 738.696 684.057C706.896 691.821 670.199 713.588 661.804 751.52C661.755 751.685 661.672 751.839 661.559 751.97C661.446 752.1 661.307 752.205 661.15 752.278C660.994 752.35 660.823 752.388 660.651 752.389C660.478 752.39 660.307 752.354 660.15 752.284V752.284Z" fill="white"/>
<path d="M242.489 517.308C239.945 514.953 237.464 512.535 235.048 510.116L237.464 507.698C239.881 510.116 242.298 512.471 244.842 514.826L242.489 517.308Z" fill="#C4CCF2"/>
<path d="M221.119 494.842C216.604 489.588 212.359 484.107 208.399 478.422L211.198 476.449C215.014 481.986 219.211 487.395 223.6 492.678L221.119 494.842ZM197.587 460.792C194.233 454.749 191.218 448.523 188.556 442.144L191.672 440.808C194.34 447.07 197.333 453.188 200.64 459.137L197.587 460.792ZM181.496 422.605C179.49 415.977 177.855 409.241 176.599 402.43L179.97 401.794C181.214 408.47 182.806 415.077 184.74 421.587L181.496 422.605ZM174.055 381.809C174.055 377.672 173.61 373.408 173.61 369.08C173.61 366.344 173.61 363.671 173.61 360.934H176.981C176.981 363.543 176.981 366.216 176.981 368.889C176.981 373.132 177.108 377.375 177.362 381.618L174.055 381.809ZM179.207 340.949L175.836 340.44C176.929 333.603 178.373 326.827 180.161 320.138L183.468 321.092C181.699 327.653 180.277 334.303 179.207 341.013V340.949ZM707.405 321.411C703.716 321.411 699.836 321.411 696.02 321.029V317.592C702.777 318.005 709.552 318.005 716.309 317.592V321.029C713.701 321.347 710.585 321.474 707.405 321.474V321.411ZM675.605 318.674C669.245 317.656 662.249 316.255 655.38 314.537L656.143 311.228C663.012 312.882 669.69 314.282 676.177 315.301L675.605 318.674ZM737.488 318.674L736.852 315.301C743.514 314.04 750.081 312.318 756.504 310.146L757.585 313.391C750.981 315.642 744.221 317.407 737.36 318.674H737.488ZM635.728 309.064C629.368 307.154 623.008 304.927 616.139 302.699L617.347 299.517C623.707 301.935 630.576 304.163 636.427 305.881L635.728 309.064ZM776.983 305.118L775.33 302.126C781.276 298.937 786.918 295.209 792.184 290.989L794.346 293.662C788.794 298.016 782.854 301.851 776.602 305.118H776.983ZM190.337 301.808L187.093 300.535C189.701 294.171 192.626 287.806 195.806 281.442L198.859 283.033C195.533 289.115 192.56 295.384 189.955 301.808H190.337ZM596.932 295.062C590.572 292.516 584.212 289.907 577.852 287.106L579.251 283.988C585.611 286.724 591.971 289.397 598.331 291.88L596.932 295.062ZM809.483 279.405L806.939 277.114C811.55 272.096 815.8 266.757 819.659 261.139L822.521 263.049C818.449 268.819 813.964 274.285 809.101 279.405H809.483ZM558.708 278.896L540.01 270.368L541.472 267.249L560.107 275.778L558.708 278.896ZM208.908 266.167L206.046 264.194C209.981 258.491 214.227 253.009 218.766 247.774L221.374 250.065C216.944 255.182 212.824 260.559 209.035 266.167H208.908ZM521.248 261.839L502.549 253.184L504.012 250.065L522.71 258.721L521.248 261.839ZM832.379 245.483L829.39 243.892C832.442 237.973 835.241 231.736 837.785 225.307L840.965 226.58C838.459 232.934 835.636 239.158 832.506 245.228L832.379 245.483ZM483.851 244.719L464.771 236.573L466.106 233.39L485.186 241.6L483.851 244.719ZM235.811 235.554L233.521 233.008C238.68 228.406 244.141 224.154 249.866 220.28L251.774 223.08C246.212 226.828 240.881 230.908 235.811 235.3V235.554ZM446.136 228.744C439.776 226.135 433.416 223.716 427.056 221.489L428.201 218.243C434.561 220.47 440.921 222.953 447.281 225.562L446.136 228.744ZM407.594 214.806C401.234 212.706 394.429 210.733 388.006 208.951L388.896 205.641C395.256 207.423 401.998 209.396 408.676 211.56L407.594 214.806ZM269.264 212.77L267.738 209.651C273.908 206.599 280.283 203.983 286.818 201.823L287.836 205.069C281.466 207.078 275.258 209.567 269.264 212.515V212.77ZM368.162 203.987C362.311 202.65 356.46 201.504 350.863 200.55L348.128 200.104L348.637 196.731L351.436 197.177C357.096 198.131 363.011 199.34 368.926 200.613L368.162 203.987ZM307.742 200.295L307.17 196.922C314.022 195.779 320.957 195.204 327.904 195.204V198.64C321.156 198.564 314.414 199.032 307.742 200.041V200.295Z" fill="#C4CCF2"/>
<path d="M847.706 206.469L844.399 205.578C846.053 199.213 846.753 195.776 846.753 195.713L850.123 196.349C850.123 196.349 849.551 200.232 847.706 206.469Z" fill="#C4CCF2"/>
<path fill-rule="evenodd" clip-rule="evenodd" d="M867.931 123.795L818.959 163.127L845.989 172.101L867.931 123.795Z" fill="#C4CCF2"/>
<path fill-rule="evenodd" clip-rule="evenodd" d="M848.978 188.903L838.23 169.555L867.931 123.795L856.674 173.246L848.978 188.903Z" fill="#8793CC"/>
<path fill-rule="evenodd" clip-rule="evenodd" d="M867.931 123.795L877.853 182.729L856.674 173.246L867.931 123.795Z" fill="#C4CCF2"/>
<path d="M690.551 307.091V740.764C690.551 760.239 666.447 784.424 646.985 784.424L530.978 780.032L427.247 776.023C419.323 776.037 411.627 773.374 405.405 768.465C399.183 763.555 394.8 756.688 392.966 748.974C392.352 746.28 392.032 743.527 392.012 740.764L386.161 525.709L382.409 391.547L379.737 310.718C379.737 291.243 407.276 272.022 426.738 272.022H655.062C659.697 271.98 664.294 272.856 668.59 274.598C672.885 276.34 676.794 278.914 680.092 282.173C683.39 285.432 686.012 289.311 687.807 293.587C689.602 297.863 690.534 302.452 690.551 307.091V307.091Z" fill="#0032C2"/>
<path d="M677.831 315.746V749.419C677.821 758.092 674.618 766.456 668.833 772.914C663.049 779.371 655.089 783.469 646.476 784.424V784.424C645.29 784.487 644.101 784.487 642.914 784.424H414.527C405.199 784.424 396.253 780.716 389.657 774.115C383.061 767.515 379.356 758.563 379.356 749.228V315.746C379.354 314.042 379.482 312.34 379.738 310.655V310.655C380.959 302.293 385.146 294.651 391.534 289.124C397.921 283.597 406.083 280.554 414.527 280.551H642.914C652.193 280.635 661.064 284.378 667.601 290.967C674.139 297.557 677.814 306.461 677.831 315.746V315.746Z" fill="#001E74"/>
<path d="M671.852 331.721V733.445C671.852 739.032 669.634 744.39 665.686 748.341C661.738 752.292 656.384 754.511 650.801 754.511H406.64C401.057 754.511 395.703 752.292 391.755 748.341C387.807 744.39 385.589 739.032 385.589 733.445V331.721C385.622 326.15 387.853 320.818 391.795 316.884C395.738 312.951 401.073 310.735 406.64 310.718H650.801C656.368 310.735 661.703 312.951 665.646 316.884C669.588 320.818 671.819 326.15 671.852 331.721V331.721Z" fill="#F2F2F2"/>
<path d="M565.132 300.917C567.872 300.917 570.093 298.694 570.093 295.953C570.093 293.211 567.872 290.989 565.132 290.989C562.392 290.989 560.171 293.211 560.171 295.953C560.171 298.694 562.392 300.917 565.132 300.917Z" fill="#F2F2F2"/>
<path d="M551.14 293.152H479.971C478.39 293.152 477.109 294.435 477.109 296.016C477.109 297.598 478.39 298.88 479.971 298.88H551.14C552.72 298.88 554.002 297.598 554.002 296.016C554.002 294.435 552.72 293.152 551.14 293.152Z" fill="#F2F2F2"/>
<path d="M671.852 331.721V354.569H385.652V331.721C385.686 326.161 387.908 320.838 391.837 316.907C395.765 312.975 401.084 310.752 406.64 310.718H650.801C656.368 310.735 661.703 312.951 665.646 316.884C669.588 320.818 671.819 326.15 671.852 331.721V331.721Z" fill="#92ADFF"/>
<path d="M458.538 411.658C458.561 414.947 457.926 418.207 456.67 421.245C455.413 424.284 453.562 427.04 451.224 429.352V429.352C446.458 434.093 440.01 436.754 433.289 436.754C426.568 436.754 420.12 434.093 415.354 429.352C413.039 427.027 411.207 424.266 409.962 421.23C408.718 418.193 408.086 414.94 408.103 411.658C408.917 405.543 411.923 399.931 416.561 395.866C421.2 391.802 427.155 389.561 433.321 389.561C439.486 389.561 445.442 391.802 450.08 395.866C454.719 399.931 457.724 405.543 458.538 411.658V411.658Z" fill="white"/>
<path d="M441.239 418.914C443.397 417.252 444.981 414.957 445.769 412.348C446.557 409.74 446.509 406.951 445.632 404.371C444.756 401.792 443.094 399.552 440.88 397.965C438.666 396.379 436.012 395.526 433.289 395.526C430.566 395.526 427.912 396.379 425.698 397.965C423.484 399.552 421.822 401.792 420.946 404.371C420.069 406.951 420.021 409.74 420.809 412.348C421.597 414.957 423.181 417.252 425.339 418.914C421.87 420.745 419.131 423.71 417.58 427.315C419.637 429.389 422.084 431.036 424.781 432.159C427.477 433.283 430.368 433.861 433.289 433.861C436.21 433.861 439.101 433.283 441.797 432.159C444.493 431.036 446.941 429.389 448.998 427.315V427.315C447.464 423.698 444.721 420.728 441.239 418.914V418.914Z" fill="#92ADFF"/>
<path d="M663.902 362.716H478.953C474.563 362.716 471.003 366.278 471.003 370.671V456.528C471.003 460.922 474.563 464.483 478.953 464.483H663.902C668.293 464.483 671.852 460.922 671.852 456.528V370.671C671.852 366.278 668.293 362.716 663.902 362.716Z" fill="white"/>
<path d="M526.781 370.799H488.939C484.373 370.799 480.671 374.503 480.671 379.072V433.998C480.671 438.567 484.373 442.271 488.939 442.271H526.781C531.347 442.271 535.049 438.567 535.049 433.998V379.072C535.049 374.503 531.347 370.799 526.781 370.799Z" fill="#B4C6FD"/>
<path d="M590.317 370.799H552.475C547.909 370.799 544.207 374.503 544.207 379.072V433.998C544.207 438.567 547.909 442.271 552.475 442.271H590.317C594.884 442.271 598.585 438.567 598.585 433.998V379.072C598.585 374.503 594.884 370.799 590.317 370.799Z" fill="#B4C6FD"/>
<path d="M653.917 370.799H616.075C611.509 370.799 607.807 374.503 607.807 379.072V433.998C607.807 438.567 611.509 442.271 616.075 442.271H653.917C658.484 442.271 662.185 438.567 662.185 433.998V379.072C662.185 374.503 658.484 370.799 653.917 370.799Z" fill="#B4C6FD"/>
<path d="M559.535 450.8H484.487C482.379 450.8 480.671 452.509 480.671 454.618C480.671 456.727 482.379 458.437 484.487 458.437H559.535C561.642 458.437 563.351 456.727 563.351 454.618C563.351 452.509 561.642 450.8 559.535 450.8Z" fill="#B4C6FD"/>
<path d="M460.192 324.338H413.255C408.688 324.338 404.987 328.028 404.987 332.58C404.987 337.132 408.688 340.822 413.255 340.822H460.192C464.758 340.822 468.46 337.132 468.46 332.58C468.46 328.028 464.758 324.338 460.192 324.338Z" fill="white"/>
<path d="M660.214 553.395C660.222 556.681 659.581 559.937 658.325 562.973C657.07 566.01 655.226 568.768 652.9 571.088C648.14 575.845 641.692 578.523 634.965 578.534C631.639 578.555 628.343 577.907 625.273 576.628C622.203 575.349 619.421 573.465 617.093 571.088V571.088C614.767 568.768 612.923 566.01 611.667 562.973C610.412 559.937 609.77 556.681 609.779 553.395C609.301 549.799 609.595 546.143 610.644 542.671C611.692 539.199 613.469 535.992 615.857 533.263C618.245 530.534 621.188 528.348 624.489 526.85C627.789 525.352 631.372 524.577 634.996 524.577C638.621 524.577 642.203 525.352 645.504 526.85C648.805 528.348 651.748 530.534 654.136 533.263C656.523 535.992 658.301 539.199 659.349 542.671C660.397 546.143 660.692 549.799 660.214 553.395V553.395Z" fill="white"/>
<path d="M642.914 560.905C645.073 559.243 646.657 556.947 647.445 554.339C648.233 551.731 648.185 548.942 647.308 546.362C646.431 543.783 644.769 541.542 642.555 539.956C640.342 538.37 637.687 537.517 634.964 537.517C632.242 537.517 629.587 538.37 627.373 539.956C625.16 541.542 623.498 543.783 622.621 546.362C621.744 548.942 621.696 551.731 622.484 554.339C623.272 556.947 624.856 559.243 627.014 560.905C623.545 562.736 620.807 565.701 619.255 569.306V569.306C621.312 571.38 623.76 573.026 626.456 574.15C629.152 575.274 632.044 575.852 634.964 575.852C637.885 575.852 640.777 575.274 643.473 574.15C646.169 573.026 648.616 571.38 650.674 569.306C649.14 565.689 646.397 562.719 642.914 560.905Z" fill="#ED576C"/>
<path d="M550.567 528.128H420.696C417.008 528.128 414.018 531.12 414.018 534.81V569.242C414.018 572.933 417.008 575.925 420.696 575.925H550.567C554.255 575.925 557.245 572.933 557.245 569.242V534.81C557.245 531.12 554.255 528.128 550.567 528.128Z" fill="white"/>
<path d="M476.219 540.22H426.611C424.152 540.22 422.159 542.215 422.159 544.675V544.739C422.159 547.199 424.152 549.194 426.611 549.194H476.219C478.678 549.194 480.671 547.199 480.671 544.739V544.675C480.671 542.215 478.678 540.22 476.219 540.22Z" fill="#B4C6FD"/>
<path d="M536.702 555.686H426.611C424.152 555.686 422.159 557.68 422.159 560.141V560.205C422.159 562.665 424.152 564.66 426.611 564.66H536.702C539.161 564.66 541.154 562.665 541.154 560.205V560.141C541.154 557.68 539.161 555.686 536.702 555.686Z" fill="#B4C6FD"/>
<path d="M458.538 653.507C458.547 656.794 457.905 660.049 456.65 663.086C455.394 666.123 453.55 668.881 451.224 671.2C446.457 675.942 440.01 678.603 433.289 678.603C426.568 678.603 420.12 675.942 415.354 671.2C412.33 668.253 410.087 664.6 408.826 660.569C407.565 656.538 407.326 652.257 408.13 648.11C408.935 643.964 410.758 640.083 413.435 636.818C416.112 633.552 419.559 631.004 423.465 629.404C427.371 627.803 431.613 627.201 435.81 627.65C440.007 628.099 444.026 629.587 447.506 631.978C450.985 634.369 453.815 637.589 455.741 641.347C457.667 645.106 458.628 649.284 458.538 653.507V653.507Z" fill="white"/>
<path d="M441.239 660.763C442.827 659.571 444.115 658.023 444.998 656.244C445.882 654.464 446.337 652.503 446.327 650.516C446.332 648.298 445.772 646.114 444.699 644.173C443.627 642.231 442.077 640.595 440.197 639.42C438.317 638.245 436.168 637.568 433.954 637.455C431.74 637.342 429.534 637.796 427.543 638.773C425.553 639.751 423.845 641.22 422.581 643.043C421.316 644.865 420.536 646.979 420.316 649.187C420.095 651.394 420.441 653.622 421.32 655.658C422.198 657.695 423.582 659.474 425.339 660.826C421.87 662.658 419.131 665.623 417.58 669.228V669.228C419.637 671.302 422.084 672.948 424.781 674.072C427.477 675.195 430.368 675.774 433.289 675.774C436.21 675.774 439.101 675.195 441.797 674.072C444.493 672.948 446.941 671.302 448.998 669.228V669.228C447.467 665.593 444.725 662.602 441.239 660.763V660.763Z" fill="#92ADFF"/>
<path d="M645.268 628.24H487.158C481.362 628.24 476.664 632.942 476.664 638.742V703.786C476.664 709.586 481.362 714.288 487.158 714.288H645.268C651.063 714.288 655.762 709.586 655.762 703.786V638.742C655.762 632.942 651.063 628.24 645.268 628.24Z" fill="white"/>
<path d="M544.843 641.288H495.235C492.776 641.288 490.783 643.282 490.783 645.743V645.806C490.783 648.267 492.776 650.261 495.235 650.261H544.843C547.302 650.261 549.295 648.267 549.295 645.806V645.743C549.295 643.282 547.302 641.288 544.843 641.288Z" fill="#B4C6FD"/>
<path d="M633.629 672.219H495.235C492.776 672.219 490.783 674.213 490.783 676.674V676.737C490.783 679.198 492.776 681.193 495.235 681.193H633.629C636.088 681.193 638.081 679.198 638.081 676.737V676.674C638.081 674.213 636.088 672.219 633.629 672.219Z" fill="#B4C6FD"/>
<path d="M608.316 687.684H495.235C492.776 687.684 490.783 689.679 490.783 692.139V692.203C490.783 694.664 492.776 696.658 495.235 696.658H608.316C610.775 696.658 612.768 694.664 612.768 692.203V692.139C612.768 689.679 610.775 687.684 608.316 687.684Z" fill="#B4C6FD"/>
<path d="M633.629 656.753H495.235C492.776 656.753 490.783 658.748 490.783 661.208V661.272C490.783 663.732 492.776 665.727 495.235 665.727H633.629C636.088 665.727 638.081 663.732 638.081 661.272V661.208C638.081 658.748 636.088 656.753 633.629 656.753Z" fill="#B4C6FD"/>
<g opacity="0.1">
<path opacity="0.1" fill-rule="evenodd" clip-rule="evenodd" d="M840.456 413.122L723.241 367.617C720.151 366.427 716.76 366.271 713.574 367.171C711.45 367.841 709.503 368.977 707.874 370.497C706.246 372.016 704.977 373.881 704.161 375.954L684.636 426.297C683.919 428.101 683.568 430.029 683.602 431.97C683.637 433.911 684.058 435.825 684.839 437.602C685.62 439.379 686.747 440.983 688.153 442.32C689.56 443.657 691.218 444.7 693.031 445.39L716.754 454.618C717.006 456.4 717.728 458.083 718.846 459.492C719.964 460.902 721.437 461.988 723.114 462.638C738.759 505.916 751.479 531.734 761.274 540.093H761.719C762.546 529.083 763.627 518.327 765.344 507.889C757.267 496.497 745.565 480.395 730.237 459.837L773.231 476.194C777.898 460.47 786.769 446.32 798.886 435.272C811.002 424.224 825.904 416.697 841.982 413.504L840.456 413.122ZM851.586 409.367C841.346 408.794 840.456 413.122 840.456 413.122L841.982 413.695L848.66 412.231C851.459 411.722 854.257 411.086 856.928 410.386C855.202 409.803 853.405 409.461 851.586 409.367V409.367Z" fill="black"/>
<path opacity="0.1" fill-rule="evenodd" clip-rule="evenodd" d="M418.724 442.017C415.862 444.117 412.937 446.281 409.947 448.381C412.237 449.718 413.127 452.518 412.746 456.655C411.393 458.922 409.547 460.855 407.345 462.309C405.142 463.764 402.641 464.703 400.026 465.056C393.284 479.694 386.924 492.232 380.946 502.797C375.261 513.037 368.41 522.584 360.53 531.246C353.773 536.97 345.818 541.102 337.253 543.339C337.634 546.139 337.889 548.876 338.207 551.549L342.341 550.022C345.282 548.973 348.494 548.973 351.435 550.022C353.049 550.606 354.517 551.535 355.736 552.744C356.955 553.953 357.896 555.413 358.495 557.022L374.967 603.037C375.481 604.591 375.681 606.232 375.555 607.864C375.43 609.496 374.981 611.087 374.235 612.544C373.489 614.001 372.462 615.295 371.212 616.351C369.962 617.406 368.514 618.203 366.954 618.694L349.273 625.058C350.291 629.386 347.365 631.423 343.867 633.396C345.394 636.96 347.111 640.588 349.273 644.534C347.81 645.616 346.284 646.507 344.758 647.525C356.714 666.266 363.191 687.981 363.456 710.215C361.294 723.58 348.998 746.513 326.568 779.014C315.12 777.614 303.926 775.896 293.114 773.986L298.584 762.212C292.224 714.224 282.239 686.284 281.348 648.861C279.504 648.034 277.66 647.334 275.688 646.379C275.688 645.234 275.688 644.152 275.306 643.07C274.399 642.052 273.707 640.861 273.271 639.569L264.431 615.066L256.735 593.554C256.173 591.936 255.973 590.213 256.149 588.509C256.325 586.804 256.872 585.159 257.753 583.689C259.377 581.024 261.87 579 264.812 577.961L272.444 575.225C273.207 560.194 276.164 545.356 281.221 531.183C282.585 527.412 284.9 524.058 287.943 521.449C290.985 518.839 294.651 517.062 298.584 516.29C298.584 516.29 298.584 516.29 298.584 516.29H296.74C290.761 514.89 280.649 511.708 284.783 500.124C286.881 492.742 283.892 495.415 280.903 486.823C277.914 478.231 288.662 470.084 292.16 472.63C295.658 462.701 302.4 461.81 307.615 467.029C309.515 465.2 311.655 463.637 313.975 462.383C320.335 458.883 328.222 458.628 330.257 467.666C330.898 469.73 331.262 471.87 331.338 474.03C331.338 479.758 327.331 479.822 324.978 485.55C324.061 487.614 322.742 489.475 321.098 491.023C322.808 498.561 322.003 506.452 318.809 513.49C318.248 514.335 317.517 515.055 316.663 515.603C315.809 516.151 314.85 516.515 313.848 516.672C315.811 517.21 317.726 517.912 319.572 518.772L346.284 512.408L363.074 493.314L392.839 460.028C394.325 454.237 397.877 449.189 402.824 445.836C406.968 442.975 411.637 440.964 416.562 439.917C418.979 439.089 419.551 439.789 418.724 442.017Z" fill="black"/>
<path opacity="0.1" fill-rule="evenodd" clip-rule="evenodd" d="M257.562 715.306V766.222C210.83 754.909 166.429 735.525 126.355 708.942C130.127 704.585 135.344 701.737 141.047 700.922H243.506C245.382 700.913 247.24 701.281 248.97 702.005C250.7 702.728 252.268 703.793 253.579 705.135C254.89 706.476 255.918 708.068 256.603 709.816C257.287 711.563 257.613 713.43 257.562 715.306V715.306Z" fill="black"/>
</g>
<path d="M948.067 438.007L928.542 488.286C927.854 490.101 926.81 491.759 925.473 493.164C924.136 494.57 922.531 495.694 920.754 496.47C918.977 497.247 917.063 497.66 915.124 497.687C913.184 497.713 911.26 497.352 909.462 496.624L680.502 407.522C678.689 406.833 677.032 405.789 675.627 404.45C674.223 403.112 673.1 401.507 672.324 399.728C671.548 397.95 671.134 396.034 671.108 394.094C671.082 392.153 671.443 390.227 672.17 388.428L691.696 338.086C692.571 336.084 693.882 334.302 695.532 332.871C697.183 331.44 699.131 330.395 701.236 329.812C704.418 328.878 707.82 329.035 710.903 330.257L898.078 403.066L939.736 419.232C943.299 420.654 946.165 423.414 947.722 426.922C949.279 430.43 949.403 434.409 948.067 438.007V438.007Z" fill="#DEE4EE"/>
<path d="M744.038 385.246C742.775 388.525 740.877 391.523 738.454 394.068C736.032 396.612 733.131 398.654 729.919 400.075C723.348 402.963 715.901 403.124 709.212 400.522C702.523 397.921 697.138 392.77 694.239 386.201C692.811 382.985 692.036 379.517 691.96 375.999C691.883 372.48 692.507 368.982 693.794 365.707C696.383 359.048 701.51 353.691 708.046 350.815C714.582 347.938 721.993 347.778 728.647 350.369C735.302 352.96 740.655 358.09 743.529 364.631C746.404 371.171 746.564 378.587 743.975 385.246H744.038Z" fill="white"/>
<path d="M724.004 386.01C726.791 385.203 729.257 383.546 731.057 381.269C732.857 378.992 733.902 376.209 734.046 373.31C734.189 370.41 733.424 367.538 731.858 365.094C730.291 362.65 728.001 360.757 725.307 359.679C722.614 358.601 719.65 358.391 716.832 359.08C714.013 359.768 711.48 361.32 709.585 363.519C707.691 365.718 706.53 368.454 706.264 371.345C705.999 374.236 706.642 377.138 708.104 379.645C703.95 380.107 700.083 381.996 697.165 384.991V384.991C698.382 387.912 700.173 390.558 702.43 392.775C704.687 394.991 707.365 396.732 710.305 397.895C713.246 399.058 716.39 399.619 719.552 399.545C722.713 399.472 725.827 398.764 728.711 397.466V397.466C728.487 393.223 726.827 389.183 724.004 386.01V386.01Z" fill="#ED576C"/>
<path d="M877.082 407.95L780.153 370.269C776.257 368.754 771.872 370.687 770.358 374.586L756.356 410.656C754.842 414.555 756.773 418.943 760.67 420.458L857.599 458.139C861.495 459.654 865.88 457.721 867.394 453.822L881.397 417.752C882.91 413.853 880.979 409.465 877.082 407.95Z" fill="white"/>
<path d="M818.764 394.792L778.985 379.328C777.446 378.73 775.714 379.493 775.116 381.033L774.586 382.398C773.988 383.938 774.751 385.671 776.29 386.269L816.07 401.734C817.608 402.332 819.341 401.568 819.938 400.028L820.468 398.664C821.066 397.124 820.303 395.391 818.764 394.792Z" fill="#B4C6FD"/>
<path d="M861.046 425.091L774.314 391.373C772.776 390.775 771.043 391.539 770.446 393.079L769.916 394.443C769.318 395.983 770.081 397.716 771.62 398.315L858.352 432.032C859.891 432.63 861.623 431.866 862.221 430.326L862.75 428.962C863.348 427.422 862.585 425.689 861.046 425.091Z" fill="#B4C6FD"/>
<path d="M855.866 438.241L769.134 404.524C767.595 403.926 765.863 404.689 765.265 406.229L764.735 407.593C764.137 409.133 764.9 410.867 766.439 411.465L853.171 445.182C854.71 445.78 856.442 445.017 857.04 443.477L857.57 442.112C858.167 440.572 857.405 438.839 855.866 438.241Z" fill="#B4C6FD"/>
<path d="M897.363 451.412L886.099 447.033C884.724 446.498 883.176 447.181 882.642 448.557L877.184 462.617C876.649 463.993 877.331 465.542 878.706 466.076L889.97 470.455C891.345 470.99 892.893 470.308 893.427 468.931L898.886 454.871C899.42 453.495 898.738 451.946 897.363 451.412Z" fill="white"/>
<path d="M890.806 466.312L887.901 465.183C887.508 465.03 887.065 465.225 886.913 465.618L886.89 465.678C886.737 466.071 886.932 466.513 887.325 466.666L890.23 467.795C890.623 467.948 891.065 467.753 891.218 467.36L891.241 467.301C891.393 466.908 891.199 466.465 890.806 466.312Z" fill="#F4DBB3"/>
<path d="M895.215 457.101C895.121 458.076 894.803 459.017 894.285 459.85C893.768 460.682 893.065 461.384 892.232 461.9C891.399 462.416 890.458 462.732 889.482 462.824C888.507 462.916 887.523 462.782 886.609 462.431C885.694 462.08 884.872 461.522 884.208 460.801C883.544 460.08 883.056 459.216 882.781 458.274C882.506 457.333 882.452 456.342 882.623 455.376C882.794 454.411 883.186 453.498 883.768 452.709C887.918 453.078 891.882 454.599 895.215 457.101Z" fill="#F4DBB3"/>
<path d="M921.666 460.845L910.402 456.466C909.027 455.932 907.479 456.614 906.945 457.99L901.487 472.05C900.952 473.426 901.634 474.975 903.009 475.509L914.273 479.888C915.648 480.423 917.196 479.741 917.73 478.365L923.189 464.305C923.723 462.928 923.041 461.379 921.666 460.845Z" fill="white"/>
<path d="M915.108 475.745L912.203 474.616C911.81 474.463 911.368 474.658 911.215 475.052L911.192 475.111C911.04 475.504 911.234 475.947 911.627 476.099L914.532 477.229C914.925 477.381 915.367 477.186 915.52 476.793L915.543 476.734C915.696 476.341 915.501 475.898 915.108 475.745Z" fill="#F4DBB3"/>
<path d="M915.504 462.065V465.693L918.875 467.029V467.602L915.377 468.557V472.184H914.805L912.833 469.129C912.833 469.129 912.833 469.129 912.515 469.129L909.017 470.084V469.575L911.306 466.775C911.34 466.716 911.358 466.651 911.358 466.584C911.358 466.517 911.34 466.451 911.306 466.393L909.398 463.338V462.892L912.769 464.229C912.829 464.257 912.894 464.272 912.96 464.272C913.026 464.272 913.091 464.257 913.151 464.229L915.44 461.365L915.504 462.065Z" fill="#F4DBB3"/>
<path fill-rule="evenodd" clip-rule="evenodd" d="M819.595 575.288C810.656 607.687 808.086 641.513 812.027 674.892C815.588 695.046 828.308 733.975 850.187 791.68L859.917 788.879C857.046 750.131 851.799 711.596 844.208 673.492C861.168 628.474 867.528 591.836 863.288 563.578L819.595 575.288Z" fill="#ED576C"/>
<path fill-rule="evenodd" clip-rule="evenodd" d="M847.834 784.551C840.583 794.225 818.896 795.625 825.001 801.226C830.407 803.263 860.744 797.216 863.797 794.416C864.611 792.11 864.62 789.597 863.823 787.285C863.026 784.974 861.47 783.001 859.409 781.687C855.726 783.25 851.819 784.217 847.834 784.551Z" fill="#002283"/>
<path fill-rule="evenodd" clip-rule="evenodd" d="M717.326 421.141C735.813 446.048 749.126 464.356 757.267 476.067C769.097 478.167 780.545 480.585 791.42 483.386L793.71 524.436C778.195 518.601 763.285 511.268 749.19 502.543C739.184 494.057 726.336 468.111 710.648 424.706L717.326 421.141Z" fill="#0032C2"/>
<path fill-rule="evenodd" clip-rule="evenodd" d="M841.474 479.694L865.769 446.217L840.71 380.727L848.406 378.372C879.57 417.323 894.24 442.462 892.417 453.791C890.763 469.617 882.538 489.198 867.74 512.535L841.474 479.694Z" fill="#0032C2"/>
<path fill-rule="evenodd" clip-rule="evenodd" d="M794.6 578.025C780.714 608.602 772.895 641.586 771.577 675.146C771.959 695.682 778.319 736.139 790.657 796.516L800.706 795.243C803.95 756.446 804.821 717.487 803.314 678.583C827.142 636.79 839.269 601.616 839.693 573.061L794.6 578.025Z" fill="#ED576C"/>
<path fill-rule="evenodd" clip-rule="evenodd" d="M789.958 789.07C781.244 797.535 759.62 795.434 764.517 801.799C769.542 804.727 800.452 803.517 803.886 801.226C805.105 799.055 805.542 796.53 805.126 794.075C804.709 791.619 803.463 789.381 801.596 787.733C797.81 788.784 793.883 789.235 789.958 789.07V789.07Z" fill="#002283"/>
<path fill-rule="evenodd" clip-rule="evenodd" d="M788.558 482.558C784.234 517.945 802.296 538.375 786.65 590.754C826.803 606.113 854.172 606.453 868.758 591.772C870.539 529.019 868.419 492.423 862.398 481.986C850.792 476.69 838.17 473.998 825.415 474.097C812.66 474.196 800.081 477.084 788.558 482.558V482.558Z" fill="#0032C2"/>
<path fill-rule="evenodd" clip-rule="evenodd" d="M811.391 475.43C815.14 476.985 819.183 477.7 823.238 477.524C827.292 477.348 831.259 476.286 834.859 474.412C832.373 472.274 830.584 469.44 829.723 466.275C828.861 463.11 828.967 459.759 830.025 456.655C824.616 455.794 819.079 456.23 813.871 457.928C814.898 460.829 815.209 463.936 814.777 466.984C814.345 470.031 813.183 472.929 811.391 475.43V475.43Z" fill="#FFD3A4"/>
<path fill-rule="evenodd" clip-rule="evenodd" d="M806.112 464.801C812.472 470.275 821.694 467.538 833.333 456.464L827.863 429.479L800.07 430.943C799.243 446.981 801.278 458.31 806.112 464.801Z" fill="#FFD3A4"/>
<path fill-rule="evenodd" clip-rule="evenodd" d="M796.953 442.526C799.89 445.374 803.804 446.99 807.893 447.045C807.263 449.119 807.263 451.335 807.893 453.409C807.93 454.104 808.175 454.772 808.594 455.328C809.013 455.883 809.588 456.301 810.246 456.528C809.821 455.561 809.703 454.488 809.908 453.452C810.112 452.416 810.63 451.468 811.391 450.736C812.345 449.909 813.299 450.736 814.38 452.391C814.169 454.105 813.462 455.72 812.344 457.037C811.929 458.859 812.085 460.766 812.791 462.497C813.496 464.227 814.717 465.699 816.288 466.711C818.67 467.843 821.346 468.207 823.944 467.751C826.542 467.295 828.933 466.042 830.788 464.165C831.871 458.444 834.589 453.161 838.611 448.954C840.652 445.277 841.274 440.979 840.36 436.873C839.446 432.768 837.058 429.141 833.651 426.679C833.264 425.404 832.622 424.222 831.764 423.204C830.905 422.186 829.849 421.354 828.659 420.759C827.468 420.163 826.169 419.816 824.84 419.74C823.512 419.664 822.181 419.859 820.931 420.314C817.228 418.828 813.189 418.386 809.253 419.037C805.317 419.688 801.635 421.406 798.607 424.006C794.091 428.333 793.582 434.507 796.953 442.526Z" fill="black"/>
<path fill-rule="evenodd" clip-rule="evenodd" d="M848.406 378.054C848.406 378.054 849.424 372.39 839.248 371.69C829.071 370.99 828.117 375.445 828.117 375.445L840.838 380.218L848.406 378.054Z" fill="#FFD3A4"/>
<path fill-rule="evenodd" clip-rule="evenodd" d="M717.327 421.141C718.09 417.259 718.026 413.25 715.991 413.122C713.956 412.995 714.337 416.305 713.447 415.795C712.696 414.935 712.151 413.915 711.853 412.812C711.556 411.709 711.513 410.553 711.73 409.431C712.302 407.394 703.08 409.431 704.225 416.241C704.464 418.143 705.218 419.943 706.407 421.446C707.595 422.95 709.172 424.099 710.966 424.769L717.327 421.141Z" fill="#FFD3A4"/>
<path fill-rule="evenodd" clip-rule="evenodd" d="M270.028 582.289C263.032 656.817 290.252 683.102 292.224 807.527H306.343C315.787 732.359 320.249 656.647 319.699 580.889L270.028 582.289Z" fill="#002283"/>
<path fill-rule="evenodd" clip-rule="evenodd" d="M251.711 804.599C277.151 741.337 297.1 698.907 311.558 677.31C283.659 641.669 270.197 610.441 271.172 583.626L302.972 570.133C335.578 607.089 351.584 641.224 350.99 672.537C347.429 693.752 318.109 739.576 263.032 810.009L251.711 804.599Z" fill="#0032C2"/>
<path fill-rule="evenodd" clip-rule="evenodd" d="M292.415 800.271C291.298 801.916 290.609 803.813 290.409 805.791C290.209 807.769 290.505 809.765 291.27 811.6C303.924 813.19 316.684 813.765 329.43 813.318C330.575 805.108 312.003 805.681 307.615 797.217C302.989 799.793 297.676 800.861 292.415 800.271V800.271Z" fill="#ED576C"/>
<path fill-rule="evenodd" clip-rule="evenodd" d="M255.463 795.944C253.628 797.13 252.062 798.689 250.867 800.52C249.673 802.351 248.877 804.413 248.531 806.572C253.089 811.471 258.8 815.149 265.143 817.273C271.487 819.396 278.26 819.896 284.846 818.728C285.228 808.927 266.911 814.846 268.438 803.135C265.905 802.864 263.452 802.088 261.224 800.853C258.995 799.618 257.037 797.948 255.463 795.944V795.944Z" fill="#ED576C"/>
<path fill-rule="evenodd" clip-rule="evenodd" d="M276.006 488.032L334.2 474.603L380.692 422.414L388.26 426.742C373.759 458.607 360.382 480.967 348.128 493.823C337.02 503.625 320.759 508.844 299.347 509.48C290.287 503.865 282.368 496.588 276.006 488.032V488.032Z" fill="#ED576C"/>
<path fill-rule="evenodd" clip-rule="evenodd" d="M263.286 608.893C292.415 623.361 316.943 622.746 336.871 607.047C314.675 567.778 331.656 547.73 324.533 503.497C318.173 470.466 275.815 471.675 268.819 493.696C258.389 521.148 256.545 559.547 263.286 608.893Z" fill="#ED576C"/>
<path fill-rule="evenodd" clip-rule="evenodd" d="M282.684 482.877C285.928 489.687 292.86 490.769 303.481 486.186C301.406 484.074 299.974 481.414 299.355 478.517C298.735 475.62 298.953 472.607 299.983 469.829L286.245 468.938C287.506 471.285 287.839 474.021 287.179 476.602C286.52 479.184 284.915 481.423 282.684 482.877V482.877Z" fill="#FFE4C4"/>
<path fill-rule="evenodd" clip-rule="evenodd" d="M274.48 443.99L280.522 473.966C294.429 480.331 303.163 480.84 306.725 475.494C310.965 467.644 310.414 454.449 305.071 435.907L274.48 443.99Z" fill="#FFE4C4"/>
<path fill-rule="evenodd" clip-rule="evenodd" d="M298.52 451.945C308.506 456.973 309.841 452.709 312.894 447.618C316.074 440.171 321.734 442.208 318.364 429.606C314.993 417.005 302.527 422.223 295.34 428.97C290.125 423.751 283.383 424.706 279.885 434.507C276.451 432.025 265.703 440.108 268.628 448.763C271.554 457.419 274.988 454.746 272.508 462.065C268.374 473.648 278.486 476.894 284.465 478.167C286.547 478.909 288.768 479.18 290.968 478.96C293.167 478.74 295.29 478.034 297.185 476.894C299.029 469.575 293.814 467.793 290.825 465.438C287.835 463.083 288.535 456.21 292.097 458.246C296.358 462.892 298.457 467.22 301.51 463.083C300.138 461.613 299.149 459.829 298.628 457.887C298.106 455.945 298.07 453.905 298.52 451.945V451.945Z" fill="black"/>
<path fill-rule="evenodd" clip-rule="evenodd" d="M380.819 422.86C382.266 416.931 385.872 411.757 390.931 408.349C395.056 405.508 399.704 403.518 404.605 402.494C406.64 401.666 407.213 402.494 406.386 404.53C403.524 406.694 400.598 408.794 397.609 410.895C399.899 412.231 400.853 415.032 400.408 419.168C398.959 421.556 396.986 423.581 394.639 425.092C392.292 426.603 389.632 427.559 386.861 427.888L380.819 422.86Z" fill="#FFE4C4"/>
<path d="M354.552 581.207L277.151 609.084C274.076 610.226 270.678 610.136 267.668 608.831C264.658 607.527 262.267 605.109 260.996 602.083L252.156 577.516L244.46 556.068C243.875 554.459 243.652 552.741 243.805 551.036C243.959 549.331 244.487 547.681 245.351 546.203C246.958 543.523 249.458 541.495 252.41 540.475L310.604 519.536L330.002 512.535C332.921 511.485 336.114 511.485 339.034 512.535C340.654 513.108 342.127 514.033 343.348 515.243C344.568 516.454 345.506 517.92 346.093 519.536L362.565 565.551C363.079 567.105 363.279 568.746 363.153 570.378C363.028 572.01 362.579 573.6 361.833 575.057C361.087 576.514 360.06 577.808 358.81 578.864C357.56 579.92 356.112 580.716 354.552 581.207Z" fill="#B4C6FD"/>
<path d="M339.034 512.535L323.197 535.192L304.117 562.559L245.351 546.203C246.958 543.523 249.458 541.495 252.41 540.475L310.604 519.536L330.002 512.535C332.922 511.485 336.115 511.485 339.034 512.535V512.535Z" fill="#92ADFF"/>
<path fill-rule="evenodd" clip-rule="evenodd" d="M313.594 521.636L300.238 543.339L323.961 591.008L316.583 597.373C288.938 569.963 275.773 550.976 277.087 540.411C279.898 524.749 285.965 509.853 294.895 496.687C303.672 483.131 329.748 493.378 313.594 521.636Z" fill="#ED576C"/>
<path fill-rule="evenodd" clip-rule="evenodd" d="M316.265 596.291C316.844 597.418 317.789 598.315 318.944 598.835C320.1 599.356 321.397 599.468 322.625 599.155C325.445 599.22 328.211 598.371 330.511 596.736C334.518 594.127 338.334 592.409 336.871 587.572H325.55L321.798 586.999L316.265 596.291Z" fill="#FFE4C4"/>
<path fill-rule="evenodd" clip-rule="evenodd" d="M234.73 686.73V741.146C234.73 748.91 224.999 762.276 217.24 762.276L155.611 755.147V775.323C154.566 779.378 151.99 782.868 148.424 785.06C147.025 785.951 145.626 786.142 144.736 785.06L124.956 754.957H118.151C116.308 754.965 114.482 754.609 112.777 753.909C111.072 753.209 109.522 752.179 108.216 750.878C106.91 749.577 105.874 748.031 105.166 746.328C104.459 744.625 104.095 742.799 104.095 740.955L99.5797 705.059L97.8625 691.121C97.8625 683.357 110.582 672.473 118.151 672.473H220.674C222.536 672.473 224.379 672.843 226.097 673.562C227.815 674.281 229.373 675.334 230.681 676.66C231.989 677.987 233.02 679.56 233.715 681.288C234.41 683.017 234.755 684.867 234.73 686.73V686.73Z" fill="#809FFF"/>
<path fill-rule="evenodd" clip-rule="evenodd" d="M228.115 694.176V748.656C228.108 751.822 227.029 754.893 225.054 757.366C223.079 759.84 220.324 761.571 217.24 762.276C216.214 762.486 215.17 762.593 214.123 762.594H148.997V782.706C149.021 783.516 148.799 784.315 148.361 784.997C148.029 785.572 147.569 786.062 147.017 786.431C146.465 786.799 145.836 787.036 145.178 787.122C144.52 787.208 143.851 787.142 143.223 786.928C142.595 786.714 142.024 786.358 141.556 785.888L118.151 762.594H111.791C109.951 762.611 108.126 762.263 106.422 761.57C104.717 760.877 103.166 759.853 101.86 758.557C100.553 757.261 99.5154 755.719 98.8075 754.019C98.0996 752.32 97.7351 750.497 97.7351 748.656V694.176C97.6408 693.224 97.6408 692.265 97.7351 691.312C98.3962 688.146 100.132 685.307 102.648 683.277C105.164 681.246 108.304 680.15 111.536 680.174H213.932C215.786 680.149 217.626 680.493 219.345 681.185C221.065 681.877 222.63 682.905 223.95 684.207C225.269 685.51 226.317 687.062 227.032 688.773C227.747 690.485 228.115 692.321 228.115 694.176V694.176Z" fill="#92ADFF"/>
<path d="M146.008 696.34H119.741C117.317 696.34 115.352 698.292 115.352 700.7C115.352 703.107 117.317 705.059 119.741 705.059H146.008C148.431 705.059 150.396 703.107 150.396 700.7C150.396 698.292 148.431 696.34 146.008 696.34Z" fill="white"/>
<path d="M208.399 715.115H119.741C117.317 715.115 115.352 717.067 115.352 719.475C115.352 721.883 117.317 723.834 119.741 723.834H208.399C210.823 723.834 212.788 721.883 212.788 719.475C212.788 717.067 210.823 715.115 208.399 715.115Z" fill="white"/>
<path d="M208.399 733.954H119.741C117.317 733.954 115.352 735.906 115.352 738.314C115.352 740.721 117.317 742.673 119.741 742.673H208.399C210.823 742.673 212.788 740.721 212.788 738.314C212.788 735.906 210.823 733.954 208.399 733.954Z" fill="white"/>
</g>
</svg>
