<svg width="818" height="551" viewBox="0 0 818 551" fill="none" xmlns="http://www.w3.org/2000/svg">
<mask id="mask0" mask-type="alpha" maskUnits="userSpaceOnUse" x="0" y="0" width="818" height="551">
<rect width="818" height="551" fill="#C4C4C4"/>
</mask>
<g mask="url(#mask0)">
<path d="M100.023 284.831C105.352 292.691 109.819 301.101 113.349 309.918C126.655 341.797 99.8638 335.222 116.395 339.15C132.927 343.078 98.7728 374.793 108.175 384.788C109.337 385.894 110.768 386.676 112.326 387.055C113.885 387.435 115.515 387.398 117.054 386.949C125.381 385.833 136.804 380.062 147.856 381.244C148.844 381.309 149.82 381.489 150.766 381.78C155.504 382.786 159.797 385.281 163.019 388.901C170.676 397.058 168.105 407.832 161.937 421.154C158.85 428.046 154.867 435.772 151.044 443.851C150.653 444.652 150.302 445.472 149.992 446.308C148.575 449.254 147.321 452.275 146.233 455.358C144.209 460.078 142.521 464.936 141.183 469.895C140.695 472.003 140.208 474.111 139.815 476.325C139.618 476.892 139.488 477.48 139.429 478.077C138.769 481.479 138.33 484.921 138.115 488.381C137.939 490.669 137.891 493.186 137.871 495.564C137.952 497.851 137.701 500.138 137.127 502.354C136.943 503.604 136.53 504.809 135.909 505.91C135.293 507.097 134.292 508.039 133.072 508.584C132.151 509.099 131.117 509.377 130.062 509.392C128.313 509.345 126.588 508.982 124.967 508.323C124.903 508.234 124.873 508.124 124.885 508.015C106.216 497.772 90.7369 482.568 80.1536 464.083C79.4006 462.506 78.435 461.118 77.6371 459.619C69.5626 447.949 57.2218 443.685 44.9517 439.931C42.1104 438.915 39.1793 438.055 36.338 437.039C30.9111 435.263 25.7111 432.855 20.8447 429.866C17.6091 427.82 14.7075 425.288 12.242 422.358C10.768 420.628 9.43526 418.782 8.25659 416.839C8.04192 416.04 7.45874 415.34 7.09283 414.713C3.91317 408.516 5.65997 405.213 9.93372 403.471C22.5496 397.973 57.0131 405.651 56.6514 393.029C56.2897 380.407 34.9465 383.571 18.7031 380.225C15.4669 379.879 12.3531 378.794 9.60188 377.054C6.85064 375.314 4.53552 372.964 2.83527 370.187C-6.93024 350.997 20.1367 353.94 24.0111 319.092C27.8854 284.243 1.50157 266.685 10.0499 247.517C18.5981 228.35 38.529 291.994 39.6261 275.487C40.7232 258.981 53.7351 268.929 59.9895 284.119C66.2439 299.31 65.3114 318.145 75.3157 289.689C81.9222 270.648 90.7539 271.9 100.023 284.831Z" fill="#C4CCF2"/>
<path d="M39.4707 422.226C40.2956 420.884 42.1528 419.462 46.35 420.377C51.3958 421.461 56.2839 423.182 60.8968 425.498L64.9613 427.635C67.8627 429.355 70.9516 430.736 74.1675 431.752C80.6092 433.384 87.4093 432.832 93.5023 430.182C93.8233 426.752 93.953 423.307 93.8909 419.862C92.7211 406.052 87.1771 392.973 78.0657 382.53C74.5503 378.205 70.784 374.089 66.7861 370.206C63.5923 371.819 60.1008 372.757 56.5286 372.962C51.5755 372.475 46.841 370.676 42.8133 367.75L39.8967 365.963C35.6758 363.619 31.1334 361.908 26.4153 360.886C24.5257 360.471 22.2108 360.434 21.5372 361.604C21.4228 361.82 21.265 362.011 21.0737 362.163C20.8824 362.316 20.6618 362.427 20.4255 362.491C20.1892 362.554 19.9424 362.568 19.7004 362.532C19.4584 362.496 19.2263 362.41 19.0189 362.28C18.7995 362.161 18.6067 361.998 18.452 361.802C18.2974 361.605 18.1842 361.379 18.1193 361.138C18.0545 360.897 18.0393 360.645 18.0747 360.397C18.1101 360.15 18.1954 359.912 18.3253 359.699C19.6349 356.975 22.9187 355.96 27.4772 357.24C32.6085 358.317 37.5467 360.168 42.123 362.729C43.1197 363.252 44.1493 363.898 45.179 364.544C48.6511 367.115 52.7408 368.722 57.0331 369.202C59.5151 369.065 61.9415 368.413 64.158 367.287C61.2229 364.451 58.2428 361.693 55.3406 358.98C52.4385 356.267 50.8091 354.86 48.5965 352.752C45.0269 349.691 41.9998 346.048 39.643 341.977C35.0941 333.38 36.4087 323.076 38.4696 313.098C38.5637 312.602 38.8508 312.162 39.2681 311.877C39.6853 311.592 40.1986 311.485 40.6953 311.578C40.9373 311.619 41.1688 311.708 41.376 311.839C41.5832 311.971 41.762 312.143 41.9021 312.345C42.0422 312.546 42.1406 312.774 42.1916 313.014C42.2427 313.255 42.2452 313.503 42.1992 313.744C40.3793 323.393 39.0627 332.709 42.6625 339.98C44.8187 343.566 47.5493 346.773 50.7449 349.473C53.0189 351.564 55.2314 353.672 57.4889 355.701C62.6486 360.444 67.9027 365.293 72.8379 370.425C74.1388 369.018 75.1427 367.363 75.7895 365.559C76.4363 363.754 76.7127 361.838 76.6021 359.924C76.2594 356.92 75.5968 353.961 74.6257 351.097L74.0642 349.007C72.6901 345.042 72.2305 340.817 72.7198 336.649C73.5152 332.625 75.4093 328.9 78.1919 325.887C79.18 324.848 80.2405 323.881 81.3653 322.992C82.9728 321.913 84.3227 320.493 85.3187 318.832C85.4068 318.603 85.5396 318.394 85.7096 318.217C85.8796 318.039 86.0832 317.898 86.3085 317.801C86.5338 317.703 86.7763 317.652 87.0218 317.649C87.2672 317.647 87.5106 317.694 87.7379 317.787C87.976 317.861 88.1959 317.984 88.3833 318.149C88.5707 318.314 88.7215 318.516 88.8258 318.743C88.9302 318.969 88.9859 319.216 88.9891 319.465C88.9924 319.715 88.9433 319.962 88.8449 320.191C87.6845 322.5 85.9433 324.467 83.7926 325.898C82.8622 326.65 81.9798 327.459 81.1509 328.321C78.7885 330.807 77.1795 333.913 76.5108 337.278C76.1337 340.862 76.5452 344.486 77.7165 347.894L78.2779 349.984C79.346 353.106 80.0805 356.333 80.469 359.61C80.6163 362.074 80.2683 364.542 79.4455 366.868C78.6227 369.195 77.3417 371.333 75.6785 373.155C77.5675 375.283 79.44 377.35 81.1613 379.59C90.7989 390.676 96.649 404.55 97.8596 419.192C97.9019 423.066 97.7334 426.939 97.3548 430.794C97.4449 430.988 97.5008 431.196 97.5199 431.409C96.7853 436.989 96.8852 442.648 97.8164 448.2C98.2415 449.981 98.8194 451.722 99.5437 453.403C101.798 450.861 104.354 448.603 107.154 446.68L108.86 445.43C118.321 438.8 125.418 429.321 129.118 418.372C129.582 416.666 129.984 414.976 130.308 413.242C131.019 408.686 132.62 404.314 135.018 400.378C135.159 400.175 135.337 400.003 135.544 399.87C135.751 399.737 135.982 399.646 136.224 399.602C136.466 399.559 136.715 399.563 136.955 399.616C137.195 399.668 137.423 399.767 137.625 399.908C137.827 400.048 138 400.227 138.133 400.434C138.266 400.641 138.356 400.873 138.4 401.115C138.444 401.357 138.439 401.606 138.387 401.846C138.335 402.086 138.236 402.314 138.095 402.516C136.003 406.053 134.616 409.962 134.01 414.027C133.64 415.839 133.271 417.652 132.746 419.375C129.935 428.556 124.684 436.8 117.554 443.227C115.338 445.272 113.178 447.038 111.153 448.571L109.402 449.898C106.339 451.865 103.642 454.352 101.432 457.246C102.345 459.175 103.382 461.071 104.373 463.045L113.685 482.752C115.876 487.116 118.448 491.276 121.372 495.186C125.092 499.788 129.768 503.526 135.076 506.14C140.384 508.754 146.197 510.181 152.11 510.322C152.354 510.325 152.594 510.376 152.818 510.473C153.041 510.569 153.244 510.709 153.413 510.884C153.583 511.059 153.716 511.266 153.805 511.492C153.894 511.719 153.938 511.961 153.933 512.205C153.901 512.703 153.687 513.172 153.332 513.522C152.977 513.873 152.505 514.081 152.007 514.106C145.54 513.958 139.183 512.402 133.377 509.546C127.572 506.69 122.457 502.603 118.39 497.568C115.346 493.473 112.657 489.124 110.354 484.57L100.163 465.758C97.2255 460.821 94.9775 455.505 93.4812 449.958C92.5404 444.955 92.3202 439.843 92.8274 434.778C86.5568 437.055 79.7372 437.346 73.2944 435.611C69.7749 434.464 66.3983 432.916 63.2309 430.999L59.3223 428.952C54.9634 426.756 50.3262 425.164 45.5384 424.22C43.7267 423.85 42.8669 424.081 42.6873 424.393C42.4243 424.83 42.0022 425.148 41.5097 425.281C41.0173 425.413 40.4927 425.349 40.0461 425.103C39.8002 424.969 39.5866 424.783 39.4205 424.558C39.2545 424.332 39.1399 424.073 39.085 423.799C39.0301 423.524 39.0362 423.241 39.1029 422.969C39.1695 422.697 39.2951 422.444 39.4707 422.226Z" fill="#FEFEFE"/>
<path d="M810.852 311.653C798.132 309.616 772.692 317.635 748.46 335.901L718.95 341.502L734.023 347.866C725.057 356.426 717.272 366.143 710.873 376.761L678.373 378.607C678.373 378.607 688.867 384.971 701.205 392.418C684.161 413.102 653.442 415.393 621.896 418.194L599.827 403.746L606.187 419.594C582.464 422.203 559.505 426.722 542.587 441.233C542.587 441.233 541.633 445.179 541.569 410.238C541.569 391.972 551.427 364.159 573.815 337.238L583.863 349.967L582.146 327.946C595.029 314.532 609.738 303.005 625.839 293.705L627.557 312.035C627.557 312.035 634.871 298.924 642.693 284.731C650.664 280.93 658.839 277.573 667.179 274.675C677.893 270.998 688.987 268.543 700.251 267.356L689.376 285.94C689.376 285.94 710.364 276.139 728.363 267.547C787.129 273.848 826.434 314.389 810.852 311.653Z" fill="#DAE0EA"/>
<path d="M762.834 299.751C723.647 293.168 683.384 298.905 647.591 316.171C662.664 301.088 663.046 288.677 663.046 288.104C663.046 287.733 662.898 287.377 662.636 287.114C662.373 286.852 662.018 286.704 661.646 286.704C661.46 286.695 661.274 286.725 661.1 286.792C660.926 286.859 660.769 286.962 660.637 287.094C660.505 287.226 660.402 287.384 660.335 287.558C660.268 287.732 660.238 287.918 660.247 288.104C660.247 288.104 660.247 302.042 641.74 318.017C641.59 318.167 641.473 318.346 641.397 318.543C641.32 318.74 641.285 318.951 641.294 319.163C629.03 325.483 617.438 333.031 606.696 341.693C603.007 344.684 599.636 348.057 596.138 351.176C604.915 335.265 602.498 324.954 602.18 324.445C602.052 324.113 601.806 323.839 601.49 323.675C601.174 323.511 600.809 323.468 600.463 323.554C600.286 323.59 600.119 323.663 599.972 323.768C599.825 323.874 599.703 324.009 599.613 324.166C599.522 324.322 599.466 324.496 599.449 324.676C599.431 324.856 599.451 325.038 599.509 325.209C599.509 325.209 603.134 339.02 587.616 359.322C587.616 359.322 587.616 359.322 587.616 359.704C578.879 368.774 571.06 378.688 564.275 389.299C567.229 380.427 567.993 370.972 566.501 361.741C566.456 361.569 566.378 361.407 566.271 361.265C566.163 361.123 566.028 361.005 565.874 360.916C565.72 360.827 565.55 360.769 565.374 360.747C565.197 360.725 565.018 360.738 564.847 360.786C564.669 360.823 564.501 360.896 564.352 361.001C564.203 361.105 564.077 361.239 563.982 361.394C563.887 361.549 563.824 361.722 563.798 361.902C563.772 362.082 563.782 362.265 563.83 362.441C563.83 362.441 567.646 378.225 556.579 402.282C544.254 425.11 537.273 450.442 536.163 476.364C536.162 476.732 536.299 477.086 536.546 477.357C536.793 477.628 537.134 477.796 537.499 477.828C537.844 477.799 538.167 477.649 538.411 477.405C538.656 477.16 538.806 476.837 538.835 476.492C540.193 447.424 548.95 419.185 564.275 394.454C564.275 394.454 564.275 394.454 564.656 394.454C564.843 394.509 565.042 394.509 565.229 394.454C588.505 383.241 614.887 380.235 640.086 385.926C640.44 386.024 640.819 385.979 641.14 385.801C641.461 385.622 641.7 385.324 641.803 384.971C641.886 384.617 641.834 384.245 641.657 383.928C641.481 383.61 641.193 383.37 640.849 383.253C615.748 377.491 589.451 380.129 565.992 390.763C574.795 377.029 585.286 364.457 597.22 353.34C635.38 335.965 681.172 347.803 681.617 347.93C681.792 347.988 681.977 348.009 682.161 347.992C682.345 347.974 682.523 347.919 682.685 347.829C682.846 347.74 682.987 347.617 683.099 347.47C683.21 347.323 683.291 347.155 683.334 346.975C683.382 346.796 683.393 346.608 683.367 346.424C683.342 346.24 683.28 346.063 683.185 345.903C683.091 345.743 682.965 345.603 682.816 345.492C682.667 345.381 682.497 345.302 682.316 345.257C681.871 345.257 640.786 334.501 603.389 347.866C604.979 346.466 606.442 345.002 608.159 343.602C629.423 326.085 654.19 313.329 680.794 306.193C707.398 299.057 735.22 297.707 762.389 302.233C762.751 302.289 763.12 302.2 763.418 301.985C763.715 301.771 763.916 301.449 763.979 301.088C763.97 300.768 763.851 300.46 763.643 300.217C763.434 299.974 763.149 299.809 762.834 299.751Z" fill="white"/>
<path d="M730.271 446.515C731.289 469.045 715.261 483.302 709.474 467.773C700.888 444.67 689.185 440.787 661.583 452.243C633.981 463.699 613.565 488.011 618.462 464.972C623.359 441.933 564.339 449.761 531.648 474.137C530.965 474.589 530.307 475.077 529.677 475.601C529.609 474.605 529.609 473.605 529.677 472.609C528.791 449.308 536.82 426.546 552.127 408.965L559.187 423.54L563.13 398.082C564.847 396.491 566.692 395.027 568.6 393.499C579.758 384.988 592.556 378.877 606.187 375.552L602.817 389.681L620.943 373.324C641.468 371.758 662.022 375.969 680.281 385.48L672.459 392.226L689.058 390.381C697.765 395.708 705.759 402.124 712.845 409.474C720.52 416.921 726.074 426.279 728.935 436.587H714.753C714.753 436.587 721.24 440.724 730.271 446.515Z" fill="#C4CCF2"/>
<path d="M528.15 482.284C527.817 482.207 527.527 482.006 527.337 481.722C527.148 481.438 527.075 481.093 527.132 480.756C535.782 441.742 573.497 419.339 605.933 411.384C645.047 401.773 682.253 409.856 700.951 432.004C701.188 432.253 701.321 432.583 701.321 432.927C701.321 433.271 701.188 433.601 700.951 433.85C700.714 434.083 700.394 434.214 700.061 434.214C699.728 434.214 699.408 434.083 699.17 433.85C681.172 412.466 644.856 404.701 606.696 414.057C574.896 421.821 538.199 443.588 529.803 481.52C529.755 481.685 529.672 481.839 529.559 481.97C529.446 482.1 529.307 482.205 529.15 482.278C528.993 482.35 528.823 482.388 528.651 482.389C528.478 482.39 528.307 482.354 528.15 482.284Z" fill="white"/>
<path d="M110.489 321.308C107.945 318.953 105.464 316.535 103.047 314.116L105.464 311.698C107.881 314.116 110.298 316.471 112.842 318.826L110.489 321.308Z" fill="#C4CCF2"/>
<path d="M81.1404 313.605C76.8738 308.147 72.8871 302.475 69.1958 296.612L72.0827 294.771C75.6378 300.479 79.5799 306.078 83.7186 311.558L81.1404 313.605ZM59.2132 278.5C56.1426 272.308 53.4196 265.949 51.0567 259.453L54.2317 258.263C56.6057 264.642 59.312 270.893 62.3395 276.989L59.2132 278.5ZM44.911 239.608C43.2146 232.893 41.8938 226.089 40.9549 219.227L44.3516 218.748C45.2844 225.475 46.5684 232.148 48.1983 238.741L44.911 239.608ZM39.3701 198.511C39.562 194.378 39.3151 190.098 39.5159 185.775C39.6428 183.041 39.7668 180.371 39.8937 177.637L43.2609 177.793C43.1399 180.4 43.0159 183.07 42.8919 185.74C42.6951 189.979 42.6253 194.223 42.6826 198.473L39.3701 198.511ZM46.4115 157.934L43.068 157.269C44.477 150.49 46.2332 143.787 48.3298 137.189L51.5892 138.296C49.5178 144.767 47.7885 151.344 46.4086 157.997L46.4115 157.934ZM574.947 162.917C571.262 162.746 567.387 162.566 563.593 162.007L563.752 158.574C570.482 159.3 577.25 159.615 584.019 159.515L583.859 162.948C581.24 163.145 578.121 163.128 574.944 162.98L574.947 162.917ZM543.308 158.708C537.003 157.396 530.079 155.672 523.297 153.637L524.213 150.367C530.998 152.338 537.604 154.047 544.037 155.365L543.308 158.708ZM605.125 161.578L604.646 158.179C611.359 157.229 617.999 155.813 624.516 153.941L625.446 157.234C618.744 159.175 611.91 160.625 604.998 161.572L605.125 161.578ZM503.92 147.258C497.655 145.056 491.406 142.536 484.647 139.992L486.002 136.869C492.243 139.58 499.001 142.124 504.766 144.112L503.92 147.258ZM645.207 149.869L643.694 146.804C649.782 143.894 655.59 140.432 661.046 136.46L663.082 139.23C657.334 143.322 651.223 146.878 644.825 149.851L645.207 149.869ZM59.3451 119.351L56.164 117.929C59.064 111.692 62.2818 105.47 65.7536 99.2602L68.7292 100.991C65.1246 106.912 61.864 113.036 58.9639 119.333L59.3451 119.351ZM465.815 131.472C459.58 128.634 453.348 125.732 447.125 122.64L448.667 119.59C454.893 122.618 461.123 125.583 467.361 128.358L465.815 131.472ZM678.864 125.691L676.429 123.285C681.267 118.485 685.761 113.35 689.876 107.917L692.647 109.957C688.312 115.532 683.578 120.785 678.483 125.674L678.864 125.691ZM428.383 113.551L410.1 104.164L411.706 101.117L429.925 110.5L428.383 113.551ZM79.5496 84.6097L76.7822 82.5061C80.9773 76.9913 85.4735 71.7124 90.2501 66.6935L92.7486 69.1032C88.0863 74.0088 83.7211 79.1888 79.6766 84.6156L79.5496 84.6097ZM391.754 94.7746L373.477 85.2609L375.083 82.2135L393.36 91.7272L391.754 94.7746ZM703.309 92.8675L700.396 91.1394C703.721 85.3685 706.805 79.2678 709.645 72.9647L712.762 74.3837C709.965 80.6146 706.856 86.7007 703.448 92.6191L703.309 92.8675ZM355.191 75.9379L336.51 66.9152L337.992 63.7983L356.67 72.8847L355.191 75.9379ZM107.843 55.2776L105.674 52.6283C111.041 48.2703 116.693 44.2757 122.592 40.6713L124.368 43.5572C118.638 47.043 113.124 50.872 107.855 55.0233L107.843 55.2776ZM318.258 58.231C312.026 55.3294 305.785 52.6185 299.535 50.0983L300.829 46.909C307.079 49.4292 313.317 52.2037 319.549 55.1053L318.258 58.231ZM280.404 42.5201C274.149 40.1271 267.442 37.8405 261.108 35.7625L262.151 32.4978C268.422 34.5729 275.065 36.8565 281.635 39.3278L280.404 42.5201ZM142.318 34.0691L140.938 30.8831C147.242 28.1205 153.732 25.8032 160.36 23.9483L161.226 27.2379C154.77 28.9495 148.454 31.1481 142.33 33.8148L142.318 34.0691ZM241.517 29.8831C235.734 28.2766 229.942 26.8608 224.396 25.6476L221.684 25.0757L222.349 21.7297L225.124 22.3046C230.734 23.5208 236.586 25.0031 242.436 26.5489L241.517 29.8831ZM181.333 23.3931L180.918 19.997C187.816 19.1729 194.769 18.9204 201.709 19.2422L201.549 22.6753C194.813 22.2862 188.056 22.4412 181.345 23.1388L181.333 23.3931Z" fill="#C4CCF2"/>
<path fill-rule="evenodd" clip-rule="evenodd" d="M739.986 4.78578L689.243 41.8041L715.827 52.0221L739.986 4.78578Z" fill="#C4CCF2"/>
<path fill-rule="evenodd" clip-rule="evenodd" d="M718.034 68.9448L708.194 49.1192L739.986 4.78582L726.447 53.6621L718.034 68.9448Z" fill="#8793CC"/>
<path fill-rule="evenodd" clip-rule="evenodd" d="M739.987 4.78581L747.164 64.1173L726.448 53.6622L739.987 4.78581Z" fill="#C4CCF2"/>
<path d="M558.551 37.0905V470.764C558.551 490.239 534.446 514.424 514.985 514.424L398.978 510.032L295.247 506.023C287.323 506.037 279.627 503.374 273.405 498.465C267.183 493.555 262.8 486.688 260.966 478.974C260.352 476.28 260.032 473.527 260.012 470.764L254.161 255.709L250.409 121.547L247.737 40.7183C247.737 21.2431 275.276 2.02244 294.738 2.02244H523.062C527.697 1.98047 532.294 2.85563 536.59 4.5976C540.885 6.33957 544.794 8.91402 548.092 12.1729C551.39 15.4318 554.012 19.3109 555.807 23.5871C557.602 27.8634 558.534 32.4524 558.551 37.0905Z" fill="#463ABF"/>
<path d="M545.831 45.7462V479.419C545.821 488.091 542.618 496.456 536.833 502.913C531.049 509.371 523.089 513.469 514.476 514.424C513.29 514.487 512.101 514.487 510.914 514.424H282.527C273.199 514.424 264.253 510.716 257.657 504.115C251.061 497.515 247.356 488.563 247.356 479.228V45.7462C247.354 44.0418 247.482 42.3397 247.738 40.6546C248.959 32.2933 253.146 24.6509 259.534 19.1237C265.921 13.5965 274.082 10.5536 282.527 10.5508H510.914C520.193 10.6346 529.064 14.3776 535.601 20.9671C542.139 27.5567 545.814 36.4608 545.831 45.7462Z" fill="#2E1C67"/>
<path d="M539.852 61.721V463.445C539.852 469.032 537.634 474.39 533.686 478.341C529.738 482.292 524.384 484.511 518.801 484.511H274.64C269.057 484.511 263.702 482.292 259.755 478.341C255.807 474.39 253.589 469.032 253.589 463.445V61.721C253.622 56.1501 255.853 50.8178 259.795 46.8844C263.738 42.9511 269.073 40.735 274.64 40.7183H518.801C524.368 40.735 529.703 42.9511 533.646 46.8844C537.588 50.8178 539.819 56.1501 539.852 61.721Z" fill="#F2F2F2"/>
<path d="M433.132 30.917C435.871 30.917 438.092 28.6945 438.092 25.9528C438.092 23.2111 435.871 20.9885 433.132 20.9885C430.392 20.9885 428.171 23.2111 428.171 25.9528C428.171 28.6945 430.392 30.917 433.132 30.917Z" fill="#F2F2F2"/>
<path d="M419.14 23.1524H347.971C346.39 23.1524 345.109 24.4347 345.109 26.0164C345.109 27.5982 346.39 28.8805 347.971 28.8805H419.14C420.72 28.8805 422.002 27.5982 422.002 26.0164C422.002 24.4347 420.72 23.1524 419.14 23.1524Z" fill="#F2F2F2"/>
<path d="M539.852 61.7209V84.5692H253.652V61.7209C253.686 56.161 255.908 50.8383 259.836 46.9067C263.765 42.9752 269.084 40.7517 274.64 40.7183H518.801C524.368 40.735 529.703 42.9511 533.646 46.8844C537.588 50.8178 539.819 56.15 539.852 61.7209Z" fill="#9FABF4"/>
<path d="M326.538 141.658C326.561 144.947 325.926 148.207 324.669 151.245C323.413 154.284 321.562 157.04 319.224 159.352C314.458 164.093 308.01 166.754 301.289 166.754C294.568 166.754 288.12 164.093 283.354 159.352C281.039 157.027 279.207 154.266 277.962 151.23C276.718 148.193 276.086 144.94 276.103 141.658C276.917 135.543 279.923 129.931 284.561 125.866C289.199 121.802 295.155 119.561 301.321 119.561C307.486 119.561 313.442 121.802 318.08 125.866C322.719 129.931 325.724 135.543 326.538 141.658Z" fill="white"/>
<path d="M309.239 148.914C311.397 147.252 312.981 144.957 313.769 142.348C314.557 139.74 314.509 136.951 313.632 134.371C312.755 131.792 311.094 129.552 308.88 127.965C306.666 126.379 304.012 125.526 301.289 125.526C298.566 125.526 295.912 126.379 293.698 127.965C291.484 129.552 289.822 131.792 288.945 134.371C288.069 136.951 288.021 139.74 288.809 142.348C289.597 144.957 291.181 147.252 293.339 148.914C289.87 150.745 287.131 153.71 285.58 157.315C287.637 159.389 290.084 161.036 292.78 162.159C295.477 163.283 298.368 163.861 301.289 163.861C304.209 163.861 307.101 163.283 309.797 162.159C312.493 161.036 314.941 159.389 316.998 157.315C315.464 153.698 312.721 150.728 309.239 148.914Z" fill="#9FABF4"/>
<path d="M531.902 92.7158H346.953C342.563 92.7158 339.003 96.2776 339.003 100.671V186.528C339.003 190.922 342.563 194.483 346.953 194.483H531.902C536.293 194.483 539.852 190.922 539.852 186.528V100.671C539.852 96.2776 536.293 92.7158 531.902 92.7158Z" fill="white"/>
<path d="M394.781 100.799H356.939C352.372 100.799 348.671 104.503 348.671 109.072V163.998C348.671 168.567 352.372 172.271 356.939 172.271H394.781C399.347 172.271 403.049 168.567 403.049 163.998V109.072C403.049 104.503 399.347 100.799 394.781 100.799Z" fill="#C4CCF2"/>
<path d="M458.317 100.799H420.475C415.909 100.799 412.207 104.503 412.207 109.072V163.998C412.207 168.567 415.909 172.271 420.475 172.271H458.317C462.883 172.271 466.585 168.567 466.585 163.998V109.072C466.585 104.503 462.883 100.799 458.317 100.799Z" fill="#C4CCF2"/>
<path d="M521.917 100.799H484.075C479.509 100.799 475.807 104.503 475.807 109.072V163.998C475.807 168.567 479.509 172.271 484.075 172.271H521.917C526.483 172.271 530.185 168.567 530.185 163.998V109.072C530.185 104.503 526.483 100.799 521.917 100.799Z" fill="#C4CCF2"/>
<path d="M427.535 180.8H352.487C350.379 180.8 348.671 182.509 348.671 184.618C348.671 186.727 350.379 188.437 352.487 188.437H427.535C429.642 188.437 431.351 186.727 431.351 184.618C431.351 182.509 429.642 180.8 427.535 180.8Z" fill="#C4CCF2"/>
<path d="M328.192 54.3383H281.255C276.688 54.3383 272.987 58.0283 272.987 62.5802C272.987 67.1321 276.688 70.8222 281.255 70.8222H328.192C332.758 70.8222 336.46 67.1321 336.46 62.5802C336.46 58.0283 332.758 54.3383 328.192 54.3383Z" fill="white"/>
<path d="M528.214 283.395C528.222 286.681 527.581 289.937 526.325 292.973C525.07 296.01 523.226 298.768 520.9 301.088C516.14 305.845 509.692 308.523 502.964 308.534C499.639 308.555 496.343 307.907 493.273 306.628C490.203 305.349 487.421 303.465 485.093 301.088C482.767 298.768 480.923 296.01 479.667 292.973C478.412 289.937 477.77 286.681 477.779 283.395C477.3 279.799 477.595 276.143 478.643 272.671C479.692 269.199 481.469 265.992 483.857 263.263C486.245 260.534 489.188 258.348 492.488 256.85C495.789 255.352 499.372 254.576 502.996 254.576C506.621 254.576 510.203 255.352 513.504 256.85C516.805 258.348 519.748 260.534 522.136 263.263C524.523 265.992 526.301 269.199 527.349 272.671C528.397 276.143 528.692 279.799 528.214 283.395Z" fill="white"/>
<path d="M510.914 290.905C513.072 289.243 514.657 286.947 515.445 284.339C516.233 281.731 516.185 278.942 515.308 276.362C514.431 273.783 512.769 271.542 510.555 269.956C508.342 268.37 505.687 267.517 502.964 267.517C500.241 267.517 497.587 268.37 495.373 269.956C493.159 271.542 491.498 273.783 490.621 276.362C489.744 278.942 489.696 281.731 490.484 284.339C491.272 286.947 492.856 289.243 495.014 290.905C491.545 292.736 488.807 295.701 487.255 299.306C489.312 301.38 491.76 303.026 494.456 304.15C497.152 305.274 500.044 305.852 502.964 305.852C505.885 305.852 508.777 305.274 511.473 304.15C514.169 303.026 516.616 301.38 518.674 299.306C517.14 295.689 514.397 292.719 510.914 290.905Z" fill="#ED576C"/>
<path d="M418.567 258.128H288.696C285.008 258.128 282.018 261.12 282.018 264.81V299.242C282.018 302.933 285.008 305.925 288.696 305.925H418.567C422.255 305.925 425.245 302.933 425.245 299.242V264.81C425.245 261.12 422.255 258.128 418.567 258.128Z" fill="white"/>
<path d="M344.219 270.22H294.611C292.152 270.22 290.159 272.215 290.159 274.675V274.739C290.159 277.199 292.152 279.194 294.611 279.194H344.219C346.678 279.194 348.671 277.199 348.671 274.739V274.675C348.671 272.215 346.678 270.22 344.219 270.22Z" fill="#FC9DAB"/>
<path d="M404.702 285.686H294.611C292.152 285.686 290.159 287.68 290.159 290.141V290.205C290.159 292.665 292.152 294.66 294.611 294.66H404.702C407.161 294.66 409.154 292.665 409.154 290.205V290.141C409.154 287.68 407.161 285.686 404.702 285.686Z" fill="#FC9DAB"/>
<path d="M326.538 383.507C326.547 386.794 325.905 390.049 324.649 393.086C323.394 396.123 321.55 398.881 319.224 401.2C314.457 405.942 308.01 408.603 301.289 408.603C294.568 408.603 288.12 405.942 283.353 401.2C280.33 398.253 278.086 394.6 276.825 390.569C275.565 386.538 275.326 382.257 276.13 378.11C276.935 373.964 278.758 370.083 281.435 366.818C284.112 363.552 287.558 361.004 291.465 359.404C295.371 357.803 299.613 357.201 303.81 357.65C308.007 358.099 312.026 359.587 315.506 361.978C318.985 364.369 321.815 367.589 323.741 371.347C325.667 375.106 326.628 379.284 326.538 383.507Z" fill="white"/>
<path d="M309.239 390.763C310.827 389.571 312.115 388.023 312.998 386.244C313.882 384.464 314.337 382.503 314.327 380.516C314.332 378.297 313.772 376.114 312.699 374.173C311.627 372.231 310.077 370.595 308.197 369.42C306.317 368.245 304.168 367.568 301.954 367.455C299.74 367.342 297.533 367.796 295.543 368.773C293.553 369.751 291.845 371.22 290.581 373.042C289.316 374.865 288.536 376.979 288.316 379.187C288.095 381.394 288.441 383.621 289.319 385.658C290.198 387.695 291.582 389.474 293.339 390.826C289.87 392.658 287.131 395.623 285.58 399.227C287.637 401.302 290.084 402.948 292.78 404.072C295.477 405.195 298.368 405.774 301.289 405.774C304.209 405.774 307.101 405.195 309.797 404.072C312.493 402.948 314.941 401.302 316.998 399.227C315.467 395.593 312.725 392.602 309.239 390.763Z" fill="#9FABF4"/>
<path d="M513.268 358.24H355.158C349.362 358.24 344.664 362.942 344.664 368.742V433.786C344.664 439.586 349.362 444.288 355.158 444.288H513.268C519.063 444.288 523.761 439.586 523.761 433.786V368.742C523.761 362.942 519.063 358.24 513.268 358.24Z" fill="white"/>
<path d="M412.843 371.288H363.235C360.776 371.288 358.783 373.282 358.783 375.743V375.806C358.783 378.267 360.776 380.261 363.235 380.261H412.843C415.302 380.261 417.295 378.267 417.295 375.806V375.743C417.295 373.282 415.302 371.288 412.843 371.288Z" fill="#C4CCF2"/>
<path d="M501.629 402.219H363.235C360.776 402.219 358.783 404.213 358.783 406.674V406.737C358.783 409.198 360.776 411.193 363.235 411.193H501.629C504.087 411.193 506.081 409.198 506.081 406.737V406.674C506.081 404.213 504.087 402.219 501.629 402.219Z" fill="#C4CCF2"/>
<path d="M476.316 417.684H363.235C360.776 417.684 358.783 419.679 358.783 422.139V422.203C358.783 424.664 360.776 426.658 363.235 426.658H476.316C478.775 426.658 480.768 424.664 480.768 422.203V422.139C480.768 419.679 478.775 417.684 476.316 417.684Z" fill="#C4CCF2"/>
<path d="M501.629 386.753H363.235C360.776 386.753 358.783 388.748 358.783 391.208V391.272C358.783 393.732 360.776 395.727 363.235 395.727H501.629C504.087 395.727 506.081 393.732 506.081 391.272V391.208C506.081 388.748 504.087 386.753 501.629 386.753Z" fill="#C4CCF2"/>
<g opacity="0.1">
<path opacity="0.1" fill-rule="evenodd" clip-rule="evenodd" d="M708.456 143.122L591.241 97.6164C588.151 96.4271 584.76 96.2709 581.574 97.1709C579.45 97.8408 577.503 98.977 575.874 100.497C574.246 102.016 572.977 103.881 572.161 105.954L552.636 156.297C551.919 158.1 551.568 160.029 551.602 161.97C551.637 163.911 552.058 165.825 552.839 167.602C553.62 169.379 554.747 170.983 556.153 172.32C557.56 173.657 559.218 174.7 561.031 175.39L584.754 184.618C585.006 186.4 585.728 188.083 586.846 189.492C587.964 190.902 589.437 191.988 591.114 192.638C606.759 235.916 619.479 261.734 629.274 270.093H629.719C630.546 259.082 631.627 248.327 633.344 237.889C625.267 226.497 613.565 210.394 598.237 189.837L641.231 206.194C645.899 190.47 654.769 176.32 666.886 165.272C679.002 154.224 693.904 146.697 709.982 143.504L708.456 143.122ZM719.586 139.367C709.346 138.794 708.456 143.122 708.456 143.122L709.982 143.695L716.66 142.231C719.459 141.722 722.257 141.086 724.928 140.386C723.203 139.803 721.405 139.46 719.586 139.367Z" fill="black"/>
<path opacity="0.1" fill-rule="evenodd" clip-rule="evenodd" d="M286.724 172.017C283.862 174.117 280.937 176.281 277.947 178.381C280.237 179.718 281.127 182.518 280.746 186.655C279.393 188.922 277.547 190.855 275.344 192.309C273.142 193.764 270.641 194.703 268.026 195.056C261.284 209.694 254.924 222.232 248.946 232.797C243.261 243.037 236.41 252.584 228.53 261.246C221.773 266.97 213.818 271.102 205.253 273.339C205.634 276.139 205.889 278.876 206.207 281.549L210.341 280.021C213.282 278.973 216.494 278.973 219.435 280.021C221.049 280.606 222.517 281.535 223.736 282.744C224.955 283.953 225.896 285.413 226.495 287.022L242.967 333.037C243.481 334.591 243.681 336.232 243.555 337.864C243.43 339.496 242.981 341.087 242.235 342.544C241.489 344.001 240.462 345.295 239.212 346.351C237.962 347.406 236.514 348.203 234.954 348.694L217.273 355.058C218.291 359.386 215.365 361.423 211.867 363.396C213.393 366.96 215.111 370.588 217.273 374.533C215.81 375.615 214.284 376.506 212.757 377.525C224.714 396.266 231.191 417.981 231.456 440.215C229.293 453.58 216.997 476.513 194.568 509.014C183.12 507.614 171.926 505.896 161.114 503.986L166.584 492.212C160.224 444.224 150.239 416.284 149.348 378.861C147.504 378.034 145.659 377.334 143.688 376.379C143.688 375.234 143.688 374.152 143.306 373.07C142.399 372.052 141.707 370.861 141.271 369.569L132.431 345.066L124.735 323.554C124.173 321.936 123.973 320.213 124.149 318.509C124.325 316.804 124.872 315.159 125.753 313.689C127.377 311.024 129.87 309 132.812 307.961L140.444 305.225C141.207 290.194 144.164 275.356 149.221 261.183C150.584 257.412 152.9 254.058 155.943 251.448C158.985 248.839 162.651 247.062 166.584 246.29H164.739C158.761 244.89 148.649 241.708 152.783 230.124C154.881 222.742 151.892 225.415 148.903 216.823C145.914 208.231 156.662 200.084 160.16 202.63C163.658 192.701 170.4 191.81 175.615 197.029C177.515 195.2 179.655 193.637 181.975 192.383C188.335 188.883 196.221 188.628 198.257 197.666C198.898 199.73 199.262 201.87 199.338 204.03C199.338 209.758 195.331 209.822 192.978 215.55C192.061 217.614 190.742 219.475 189.098 221.023C190.808 228.561 190.003 236.452 186.809 243.49C186.248 244.335 185.517 245.055 184.663 245.603C183.809 246.151 182.85 246.515 181.848 246.672C183.811 247.21 185.726 247.912 187.572 248.772L214.284 242.408L231.074 223.314L260.839 190.028C262.325 184.237 265.877 179.189 270.824 175.836C274.968 172.975 279.637 170.963 284.562 169.917C286.979 169.089 287.551 169.789 286.724 172.017Z" fill="black"/>
<path opacity="0.1" fill-rule="evenodd" clip-rule="evenodd" d="M125.562 445.306V496.222C78.8304 484.909 34.4292 465.525 -5.64505 438.942C-1.87286 434.585 3.3441 431.737 9.04664 430.922H111.506C113.382 430.913 115.24 431.281 116.97 432.005C118.7 432.728 120.268 433.793 121.579 435.134C122.89 436.476 123.918 438.068 124.603 439.815C125.287 441.563 125.613 443.43 125.562 445.306Z" fill="black"/>
</g>
<path d="M816.067 168.007L796.542 218.286C795.854 220.101 794.81 221.759 793.473 223.164C792.136 224.57 790.531 225.694 788.754 226.47C786.977 227.247 785.063 227.66 783.124 227.687C781.184 227.713 779.26 227.352 777.462 226.624L548.502 137.521C546.689 136.833 545.032 135.789 543.627 134.45C542.223 133.112 541.1 131.507 540.324 129.728C539.548 127.95 539.134 126.034 539.108 124.094C539.082 122.153 539.443 120.227 540.17 118.428L559.696 68.0855C560.571 66.0835 561.882 64.3022 563.532 62.8709C565.183 61.4397 567.131 60.3946 569.236 59.8117C572.418 58.8783 575.82 59.0351 578.903 60.2572L766.078 133.066L807.736 149.232C811.299 150.654 814.165 153.414 815.722 156.922C817.279 160.43 817.403 164.409 816.067 168.007Z" fill="#DFDEEE"/>
<path d="M612.038 115.246C610.775 118.525 608.877 121.523 606.454 124.067C604.032 126.612 601.131 128.654 597.919 130.075C591.348 132.963 583.901 133.123 577.212 130.522C570.522 127.921 565.138 122.77 562.239 116.201C560.811 112.985 560.036 109.517 559.96 105.999C559.883 102.48 560.507 98.9819 561.794 95.707C564.383 89.048 569.51 83.6911 576.046 80.8146C582.582 77.9381 589.993 77.7777 596.647 80.3687C603.301 82.9597 608.655 88.0899 611.529 94.6306C614.404 101.171 614.564 108.587 611.975 115.246H612.038Z" fill="white"/>
<path d="M592.004 116.01C594.791 115.203 597.257 113.546 599.057 111.269C600.857 108.992 601.902 106.209 602.046 103.31C602.189 100.41 601.424 97.5377 599.858 95.0941C598.291 92.6504 596.001 90.7574 593.307 89.6791C590.614 88.6009 587.65 88.3913 584.832 89.0796C582.013 89.768 579.48 91.3199 577.585 93.5187C575.691 95.7176 574.53 98.4535 574.264 101.345C573.999 104.236 574.642 107.138 576.104 109.645C571.95 110.107 568.083 111.996 565.165 114.991C566.382 117.912 568.173 120.558 570.43 122.775C572.687 124.991 575.365 126.732 578.305 127.895C581.246 129.058 584.39 129.619 587.552 129.545C590.713 129.471 593.827 128.764 596.711 127.466C596.487 123.223 594.827 119.183 592.004 116.01Z" fill="#ED576C"/>
<path d="M745.082 137.95L648.153 100.269C644.257 98.7542 639.872 100.687 638.358 104.586L624.356 140.656C622.842 144.555 624.773 148.943 628.67 150.458L725.599 188.139C729.495 189.654 733.88 187.721 735.394 183.822L749.397 147.752C750.91 143.853 748.979 139.465 745.082 137.95Z" fill="white"/>
<path d="M686.764 124.792L646.985 109.328C645.446 108.73 643.714 109.493 643.116 111.033L642.586 112.398C641.988 113.938 642.751 115.671 644.29 116.269L684.07 131.734C685.608 132.332 687.341 131.568 687.938 130.028L688.468 128.664C689.066 127.124 688.303 125.391 686.764 124.792Z" fill="#FC9DAB"/>
<path d="M729.046 155.091L642.314 121.373C640.775 120.775 639.043 121.539 638.446 123.079L637.916 124.443C637.318 125.983 638.081 127.716 639.62 128.315L726.352 162.032C727.891 162.63 729.623 161.866 730.22 160.326L730.75 158.962C731.348 157.422 730.585 155.689 729.046 155.091Z" fill="#FC9DAB"/>
<path d="M723.866 168.241L637.134 134.524C635.595 133.926 633.863 134.689 633.265 136.229L632.735 137.593C632.137 139.133 632.9 140.867 634.439 141.465L721.171 175.182C722.71 175.78 724.442 175.017 725.04 173.477L725.57 172.112C726.167 170.572 725.405 168.839 723.866 168.241Z" fill="#FC9DAB"/>
<path d="M765.363 181.412L754.099 177.033C752.724 176.498 751.176 177.181 750.642 178.557L745.184 192.617C744.649 193.993 745.331 195.542 746.706 196.076L757.97 200.455C759.345 200.99 760.893 200.308 761.427 198.931L766.886 184.871C767.42 183.495 766.738 181.946 765.363 181.412Z" fill="white"/>
<path d="M758.806 196.312L755.9 195.183C755.508 195.03 755.065 195.225 754.913 195.618L754.89 195.678C754.737 196.071 754.932 196.513 755.325 196.666L758.23 197.795C758.623 197.948 759.065 197.753 759.218 197.36L759.241 197.301C759.393 196.908 759.199 196.465 758.806 196.312Z" fill="#FFB8C2"/>
<path d="M763.215 187.101C763.121 188.076 762.803 189.017 762.285 189.85C761.768 190.682 761.065 191.384 760.232 191.9C759.399 192.416 758.458 192.732 757.482 192.824C756.507 192.916 755.523 192.782 754.609 192.431C753.694 192.08 752.872 191.522 752.208 190.801C751.544 190.08 751.056 189.215 750.781 188.274C750.506 187.333 750.452 186.341 750.623 185.376C750.794 184.411 751.186 183.498 751.768 182.709C755.918 183.078 759.882 184.599 763.215 187.101Z" fill="#FFB8C2"/>
<path d="M789.666 190.845L778.402 186.466C777.027 185.932 775.479 186.614 774.945 187.99L769.487 202.05C768.952 203.426 769.634 204.975 771.009 205.509L782.273 209.888C783.648 210.423 785.196 209.741 785.73 208.365L791.189 194.305C791.723 192.928 791.041 191.379 789.666 190.845Z" fill="white"/>
<path d="M783.108 205.745L780.203 204.616C779.81 204.463 779.368 204.658 779.215 205.052L779.192 205.111C779.04 205.504 779.234 205.947 779.627 206.099L782.532 207.229C782.925 207.381 783.367 207.186 783.52 206.793L783.543 206.734C783.696 206.341 783.501 205.898 783.108 205.745Z" fill="#FFB8C2"/>
<path d="M783.504 192.065V195.693L786.875 197.029V197.602L783.377 198.557V202.184H782.804L780.833 199.129C780.833 199.129 780.833 199.129 780.515 199.129L777.017 200.084V199.575L779.306 196.775C779.34 196.716 779.358 196.651 779.358 196.584C779.358 196.517 779.34 196.451 779.306 196.393L777.398 193.338V192.892L780.769 194.229C780.829 194.257 780.894 194.272 780.96 194.272C781.026 194.272 781.091 194.257 781.151 194.229L783.44 191.365L783.504 192.065Z" fill="#FFB8C2"/>
<path fill-rule="evenodd" clip-rule="evenodd" d="M687.595 305.288C678.656 337.687 676.086 371.513 680.027 404.892C683.588 425.046 696.308 463.975 718.187 521.68L727.917 518.879C725.046 480.131 719.799 441.596 712.208 403.492C729.168 358.474 735.528 321.836 731.288 293.578L687.595 305.288Z" fill="#ED576C"/>
<path fill-rule="evenodd" clip-rule="evenodd" d="M715.833 514.551C708.583 524.225 686.896 525.625 693.001 531.226C698.407 533.263 728.744 527.216 731.797 524.416C732.61 522.11 732.619 519.597 731.823 517.285C731.026 514.974 729.47 513.001 727.408 511.687C723.726 513.25 719.819 514.217 715.833 514.551Z" fill="#2E1C67"/>
<path fill-rule="evenodd" clip-rule="evenodd" d="M585.326 151.141C603.813 176.048 617.126 194.356 625.267 206.067C637.097 208.167 648.545 210.585 659.42 213.386L661.71 254.436C646.195 248.601 631.285 241.268 617.19 232.543C607.184 224.057 594.336 198.111 578.648 154.706L585.326 151.141Z" fill="#402B99"/>
<path fill-rule="evenodd" clip-rule="evenodd" d="M709.474 209.694L733.769 176.217L708.71 110.727L716.406 108.372C747.57 147.323 762.24 172.462 760.417 183.791C758.763 199.617 750.538 219.199 735.74 242.535L709.474 209.694Z" fill="#402B99"/>
<path fill-rule="evenodd" clip-rule="evenodd" d="M662.6 308.025C648.714 338.602 640.895 371.586 639.577 405.146C639.959 425.682 646.319 466.139 658.657 526.516L668.706 525.243C671.95 486.446 672.821 447.487 671.314 408.583C695.142 366.79 707.269 331.616 707.693 303.061L662.6 308.025Z" fill="#ED576C"/>
<path fill-rule="evenodd" clip-rule="evenodd" d="M657.958 519.07C649.244 527.535 627.62 525.434 632.517 531.799C637.542 534.727 668.452 533.517 671.886 531.226C673.105 529.055 673.542 526.53 673.126 524.075C672.709 521.619 671.463 519.381 669.596 517.733C665.81 518.784 661.883 519.235 657.958 519.07Z" fill="#2E1C67"/>
<path fill-rule="evenodd" clip-rule="evenodd" d="M656.558 212.558C652.234 247.945 670.296 268.375 654.65 320.754C694.803 336.113 722.172 336.453 736.758 321.772C738.539 259.019 736.419 222.423 730.398 211.986C718.792 206.69 706.17 203.998 693.415 204.097C680.66 204.196 668.081 207.084 656.558 212.558Z" fill="#402B99"/>
<path fill-rule="evenodd" clip-rule="evenodd" d="M679.391 205.43C683.14 206.985 687.183 207.7 691.238 207.524C695.292 207.348 699.259 206.286 702.859 204.412C700.373 202.274 698.584 199.44 697.723 196.275C696.861 193.11 696.966 189.759 698.025 186.655C692.616 185.794 687.079 186.23 681.871 187.928C682.898 190.829 683.209 193.936 682.777 196.984C682.345 200.031 681.183 202.929 679.391 205.43Z" fill="#FFD3A4"/>
<path fill-rule="evenodd" clip-rule="evenodd" d="M674.112 194.801C680.472 200.275 689.694 197.538 701.333 186.464L695.863 159.479L668.07 160.943C667.243 176.981 669.278 188.31 674.112 194.801Z" fill="#FFD3A4"/>
<path fill-rule="evenodd" clip-rule="evenodd" d="M664.953 172.526C667.89 175.374 671.804 176.99 675.893 177.045C675.263 179.119 675.263 181.334 675.893 183.409C675.93 184.104 676.175 184.772 676.594 185.328C677.013 185.883 677.588 186.301 678.246 186.528C677.821 185.561 677.703 184.487 677.908 183.452C678.112 182.416 678.63 181.468 679.391 180.736C680.345 179.909 681.299 180.736 682.38 182.391C682.169 184.105 681.462 185.72 680.344 187.037C679.929 188.859 680.085 190.766 680.791 192.496C681.496 194.227 682.717 195.699 684.288 196.711C686.67 197.843 689.346 198.207 691.944 197.751C694.542 197.295 696.933 196.042 698.788 194.165C699.871 188.444 702.589 183.161 706.611 178.954C708.652 175.277 709.274 170.979 708.36 166.873C707.446 162.768 705.058 159.141 701.651 156.679C701.264 155.404 700.622 154.222 699.764 153.204C698.905 152.186 697.849 151.354 696.659 150.759C695.468 150.163 694.169 149.816 692.84 149.74C691.512 149.663 690.181 149.859 688.931 150.314C685.228 148.828 681.189 148.386 677.253 149.037C673.317 149.688 669.635 151.406 666.607 154.005C662.091 158.333 661.582 164.507 664.953 172.526Z" fill="black"/>
<path fill-rule="evenodd" clip-rule="evenodd" d="M716.406 108.054C716.406 108.054 717.424 102.39 707.248 101.69C697.071 100.99 696.117 105.445 696.117 105.445L708.838 110.218L716.406 108.054Z" fill="#FFD3A4"/>
<path fill-rule="evenodd" clip-rule="evenodd" d="M585.326 151.141C586.09 147.259 586.026 143.25 583.991 143.122C581.956 142.995 582.337 146.305 581.447 145.795C580.696 144.935 580.151 143.915 579.853 142.812C579.555 141.709 579.513 140.553 579.73 139.431C580.302 137.394 571.08 139.431 572.225 146.241C572.464 148.143 573.218 149.943 574.407 151.446C575.595 152.95 577.172 154.099 578.966 154.769L585.326 151.141Z" fill="#FFD3A4"/>
<path fill-rule="evenodd" clip-rule="evenodd" d="M138.028 312.289C131.032 386.817 158.252 413.102 160.224 537.527H174.343C183.787 462.359 188.249 386.647 187.699 310.889L138.028 312.289Z" fill="#27187F"/>
<path fill-rule="evenodd" clip-rule="evenodd" d="M119.711 534.599C145.151 471.337 165.1 428.907 179.558 407.31C151.659 371.669 138.197 340.441 139.172 313.626L170.972 300.133C203.578 337.089 219.584 371.224 218.99 402.537C215.429 423.752 186.109 469.576 131.031 540.009L119.711 534.599Z" fill="#402B99"/>
<path fill-rule="evenodd" clip-rule="evenodd" d="M160.415 530.271C159.298 531.916 158.609 533.813 158.409 535.791C158.209 537.769 158.505 539.765 159.27 541.6C171.924 543.19 184.684 543.765 197.43 543.318C198.575 535.108 180.003 535.681 175.615 527.217C170.989 529.793 165.676 530.861 160.415 530.271Z" fill="#ED576C"/>
<path fill-rule="evenodd" clip-rule="evenodd" d="M123.463 525.944C121.627 527.13 120.062 528.689 118.867 530.52C117.673 532.351 116.877 534.413 116.531 536.572C121.089 541.471 126.8 545.149 133.143 547.273C139.487 549.396 146.26 549.896 152.846 548.728C153.228 538.927 134.911 544.846 136.438 533.135C133.905 532.864 131.452 532.088 129.223 530.853C126.995 529.618 125.036 527.948 123.463 525.944Z" fill="#ED576C"/>
<path fill-rule="evenodd" clip-rule="evenodd" d="M144.006 218.032L202.2 204.603L248.691 152.414L256.26 156.742C241.759 188.607 228.382 210.967 216.128 223.823C205.02 233.625 188.759 238.844 167.347 239.48C158.287 233.865 150.368 226.588 144.006 218.032Z" fill="#ED576C"/>
<path fill-rule="evenodd" clip-rule="evenodd" d="M131.286 338.893C160.415 353.361 184.943 352.746 204.871 337.047C182.675 297.778 199.656 277.73 192.533 233.497C186.173 200.466 143.815 201.675 136.819 223.696C126.389 251.148 124.545 289.547 131.286 338.893Z" fill="#ED576C"/>
<path fill-rule="evenodd" clip-rule="evenodd" d="M150.684 212.877C153.927 219.687 160.86 220.769 171.481 216.186C169.406 214.074 167.974 211.414 167.355 208.517C166.735 205.62 166.953 202.607 167.983 199.829L154.245 198.938C155.506 201.285 155.839 204.021 155.179 206.602C154.52 209.184 152.915 211.423 150.684 212.877Z" fill="#FFE4C4"/>
<path fill-rule="evenodd" clip-rule="evenodd" d="M142.48 173.99L148.522 203.966C162.429 210.331 171.163 210.84 174.725 205.494C178.965 197.644 178.414 184.449 173.071 165.907L142.48 173.99Z" fill="#FFE4C4"/>
<path fill-rule="evenodd" clip-rule="evenodd" d="M166.52 181.945C176.505 186.973 177.841 182.709 180.894 177.618C184.074 170.171 189.734 172.208 186.363 159.606C182.993 147.005 170.527 152.223 163.34 158.97C158.125 153.751 151.383 154.706 147.885 164.507C144.451 162.025 133.703 170.108 136.628 178.763C139.554 187.419 142.988 184.746 140.508 192.065C136.374 203.648 146.486 206.894 152.465 208.167C154.547 208.909 156.768 209.18 158.967 208.96C161.167 208.74 163.29 208.034 165.185 206.894C167.029 199.575 161.814 197.793 158.825 195.438C155.835 193.083 156.535 186.21 160.097 188.246C164.358 192.892 166.457 197.22 169.509 193.083C168.138 191.613 167.149 189.829 166.627 187.887C166.106 185.945 166.069 183.905 166.52 181.945Z" fill="black"/>
<path fill-rule="evenodd" clip-rule="evenodd" d="M248.819 152.86C250.266 146.931 253.872 141.757 258.931 138.349C263.055 135.508 267.704 133.518 272.605 132.494C274.64 131.666 275.213 132.494 274.386 134.53C271.524 136.694 268.598 138.794 265.609 140.895C267.899 142.231 268.853 145.032 268.407 149.168C266.959 151.556 264.986 153.581 262.639 155.092C260.292 156.603 257.632 157.559 254.861 157.888L248.819 152.86Z" fill="#FFE4C4"/>
<path d="M222.552 311.207L145.151 339.084C142.075 340.226 138.678 340.136 135.668 338.831C132.658 337.527 130.267 335.109 128.996 332.083L120.156 307.516L112.46 286.068C111.875 284.459 111.651 282.741 111.805 281.036C111.959 279.331 112.487 277.681 113.351 276.203C114.958 273.523 117.458 271.495 120.41 270.475L178.604 249.536L198.002 242.535C200.921 241.485 204.114 241.485 207.033 242.535C208.654 243.108 210.127 244.033 211.348 245.243C212.568 246.454 213.506 247.92 214.093 249.536L230.565 295.551C231.079 297.105 231.279 298.746 231.153 300.378C231.028 302.01 230.579 303.6 229.833 305.057C229.087 306.514 228.06 307.808 226.81 308.864C225.56 309.92 224.112 310.716 222.552 311.207Z" fill="#C2CAF2"/>
<path d="M207.034 242.535L191.197 265.192L172.117 292.559L113.351 276.203C114.958 273.523 117.458 271.495 120.41 270.475L178.604 249.536L198.002 242.535C200.921 241.485 204.114 241.485 207.034 242.535Z" fill="#8698F2"/>
<path fill-rule="evenodd" clip-rule="evenodd" d="M181.594 251.636L168.238 273.339L191.96 321.008L184.583 327.373C156.938 299.963 143.773 280.976 145.087 270.411C147.898 254.749 153.965 239.853 162.895 226.687C171.672 213.131 197.748 223.378 181.594 251.636Z" fill="#ED576C"/>
<path fill-rule="evenodd" clip-rule="evenodd" d="M184.265 326.291C184.844 327.418 185.789 328.315 186.944 328.835C188.1 329.356 189.397 329.468 190.625 329.155C193.445 329.219 196.211 328.371 198.511 326.736C202.518 324.127 206.334 322.409 204.871 317.572H193.55L189.798 316.999L184.265 326.291Z" fill="#FFE4C4"/>
</g>
</svg>
