<svg width="908" height="704" viewBox="0 0 908 704" fill="none" xmlns="http://www.w3.org/2000/svg">
<path d="M691.122 535.255C543.695 422.476 571.013 601.23 433.547 663.008C430.456 664.387 427.324 665.702 424.149 666.956C422.457 667.582 420.703 668.271 418.949 668.773C401.929 674.483 384.082 677.341 366.131 677.231C358.8 677.231 351.407 676.855 343.825 676.103C330.648 674.808 317.595 672.462 304.791 669.086C296.709 667.018 288.564 664.637 280.481 661.88C229.29 643.715 182.206 615.584 141.951 579.113C106.989 547.786 79.2957 511.007 64.3212 473.978C43.3944 421.598 48.7201 368.028 97.2151 325.799C183.616 250.613 53.9204 190.088 152.79 128.435C233.302 78.3111 265.131 174.612 374.088 132.508C399.839 122.546 429.913 104.877 466.003 75.6796C498.333 40.9061 531.665 19.2901 564.121 8.76403C622.39 -10.659 678.278 3.87694 722.387 35.8937C748.29 54.9216 769.966 79.1146 786.045 106.945C791.334 116.018 795.962 125.462 799.892 135.202C800.205 136.016 800.581 136.831 800.831 137.708C817.247 179.562 819.628 224.485 802.899 262.454C1027.83 410.446 841.495 650.665 691.122 535.255Z" fill="#EFEFEF"/>
<path style="mix-blend-mode:overlay" d="M588.931 389.08C566.689 402.677 539.747 406.06 513.745 407.376C484.04 409.611 454.168 406.922 425.339 399.418C405.264 392.673 385.671 384.571 366.694 375.171C335.907 360.345 302.919 350.612 269.015 346.35C234.882 342.144 200.31 349.23 170.584 366.525C127.602 393.216 104.545 443.528 64.07 473.978C43.1432 421.598 48.4688 368.028 96.9639 325.799C183.365 250.613 53.6692 190.088 152.539 128.435C233.051 78.3112 264.879 174.612 373.837 132.508C378.727 155.398 389.702 176.545 405.603 193.722C423.367 211.906 445.318 225.458 469.534 233.192C493.751 240.925 519.493 242.604 544.509 238.082C557.04 235.826 570.01 232.192 582.478 234.824C594.662 238.098 605.347 245.465 612.74 255.688C644.444 295.787 632.477 362.515 588.931 389.08Z" fill="url(#paint0_linear)"/>
<path d="M61.2509 441.585C64.2803 446.085 66.2733 451.201 67.0859 456.564C67.8985 461.927 67.5105 467.404 65.95 472.599C59.6845 499.854 101.601 473.915 115.51 504.303C129.42 534.691 123.279 549.039 140.071 559.126C156.863 569.214 186.06 555.68 237.5 645.151C246.334 650.477 231.234 675.978 222.086 670.589C155.609 671.78 107.678 664.95 107.616 632.996C108.098 625.523 106.223 618.087 102.255 611.736C98.2869 605.385 92.4261 600.44 85.4983 597.596C76.7266 592.835 65.6994 589.138 53.7949 584.188C23.9084 571.657 38.3191 542.898 40.0734 520.28C41.8278 497.662 -7.48171 499.04 0.97672 472.975C9.43515 446.911 11.9413 430.307 34.1838 429.869C39.3019 429.53 44.4272 430.416 49.1344 432.453C53.8416 434.491 57.9953 437.621 61.2509 441.585V441.585Z" fill="#CBD5F7"/>
<path d="M239.567 663.76C239.121 664.511 238.42 665.076 237.591 665.352C236.763 665.628 235.863 665.597 235.056 665.264C228.163 662.382 65.8868 593.962 35.3737 474.166C35.1442 473.228 35.291 472.237 35.7828 471.405C36.2746 470.574 37.0723 469.968 38.0052 469.717C38.9521 469.49 39.9505 469.645 40.7834 470.15C41.6163 470.654 42.2166 471.467 42.4538 472.412C71.9643 588.637 236.183 657.808 237.875 658.497C238.315 658.682 238.715 658.952 239.051 659.291C239.387 659.631 239.653 660.033 239.833 660.475C240.014 660.918 240.105 661.391 240.102 661.869C240.1 662.346 240.003 662.819 239.817 663.259C239.759 663.437 239.675 663.606 239.567 663.76V663.76Z" fill="white"/>
<path d="M242.574 359.946C246.377 371.25 248.96 382.929 250.281 394.782C256.045 437.951 225.595 421.222 244.391 431.373C263.188 441.523 211.372 468.966 219.329 484.191C220.405 485.904 221.904 487.311 223.682 488.277C225.46 489.243 227.456 489.734 229.479 489.704V489.704C240.005 491.02 255.794 487.762 268.827 492.775C269.997 493.177 271.113 493.724 272.147 494.404C277.544 497.15 281.932 501.537 284.678 506.935C291.32 519.466 284.365 531.621 272.837 545.843C266.571 553.174 259.428 561.256 252.16 570.153C251.409 571.031 250.657 571.908 250.03 572.785C247.461 575.855 244.83 579.051 242.512 582.622C238.478 587.752 234.834 593.176 231.61 598.849C230.356 601.23 229.103 603.611 227.85 606.18C227.434 606.836 227.077 607.528 226.785 608.248C224.868 612.142 223.214 616.161 221.835 620.278C220.833 623.034 220.018 626.042 219.204 628.987C218.484 631.636 217.431 634.183 216.071 636.568C215.463 638.026 214.568 639.347 213.44 640.452C212.298 641.699 210.78 642.535 209.116 642.833C207.795 643.063 206.437 642.955 205.169 642.52C203.06 641.91 201.084 640.912 199.342 639.575V639.262C195.458 635.628 167.2 607.934 159.431 571.219C158.992 569.088 158.303 567.021 157.802 564.953C151.536 548.162 138.191 538.889 124.469 530.305L114.946 524.039C108.89 520.137 103.335 515.508 98.4048 510.255C95.2879 506.683 92.7125 502.672 90.7609 498.351C89.5548 495.794 88.529 493.156 87.6909 490.456C87.4929 489.483 87.2419 488.52 86.939 487.574C85.1221 478.928 88.3175 475.482 94.0817 475.043C111.249 472.474 150.471 493.088 154.356 477.612C158.24 462.136 131.048 458.815 112.377 449.605C108.548 448.148 105.105 445.831 102.313 442.833C99.5214 439.835 97.4554 436.235 96.2746 432.312C90.6983 405.747 122.652 418.215 138.755 377.051C154.857 335.886 128.479 306 145.02 285.511C161.561 265.023 165.133 348.856 171.899 329.37C178.666 309.884 191.134 325.987 193.829 346.538C196.523 367.088 189.192 389.582 210.683 358.317C225.407 336.826 235.745 341.275 242.574 359.946Z" fill="#C4CCF2"/>
<path d="M124.219 507.185C125.723 505.807 128.417 504.741 133.179 507.185C139.053 510.074 144.511 513.741 149.406 518.087L153.667 522.034C156.611 525.149 159.913 527.904 163.504 530.242C170.678 534.27 178.976 535.833 187.125 534.691C188.641 530.591 189.917 526.407 190.947 522.16C194.064 504.968 191.605 487.23 183.929 471.534C181.059 465.086 177.817 458.81 174.218 452.738C169.819 453.677 165.271 453.677 160.872 452.738C155.003 450.495 149.835 446.732 145.898 441.836L142.89 438.766C138.534 434.509 133.573 430.92 128.166 428.114C126.036 427.049 123.154 426.235 121.901 427.488C121.446 427.924 120.84 428.168 120.209 428.168C119.579 428.168 118.973 427.924 118.518 427.488C118.085 427.043 117.843 426.448 117.843 425.827C117.843 425.207 118.085 424.612 118.518 424.167C121.024 421.222 125.347 421.097 130.422 423.729C136.24 426.725 141.582 430.568 146.274 435.132L149.406 438.327C152.755 442.612 157.19 445.922 162.251 447.913C165.331 448.541 168.506 448.541 171.586 447.913C168.871 443.528 166.177 439.204 163.504 434.944C161.374 431.686 159.285 428.428 157.238 425.17C153.932 420.397 151.454 415.102 149.908 409.506C147.213 397.601 152.163 385.948 157.928 374.043C158.062 373.758 158.251 373.502 158.485 373.291C158.719 373.079 158.992 372.916 159.29 372.811C159.587 372.706 159.902 372.662 160.217 372.679C160.531 372.697 160.839 372.777 161.123 372.915C161.677 373.21 162.096 373.705 162.294 374.3C162.492 374.895 162.454 375.543 162.188 376.111C156.8 387.201 152.163 398.04 154.544 408.441C155.982 413.518 158.247 418.323 161.248 422.663L167.514 432.438C172.213 439.831 176.975 447.412 181.361 455.307C183.377 454.006 185.113 452.317 186.469 450.338C187.824 448.358 188.772 446.128 189.255 443.778C189.834 440.006 190.002 436.183 189.756 432.375V429.618C189.39 424.367 190.204 419.101 192.137 414.205C194.437 409.596 197.945 405.698 202.287 402.927C203.827 401.967 205.44 401.129 207.112 400.421C209.454 399.649 211.594 398.364 213.377 396.662C213.557 396.404 213.788 396.186 214.055 396.021C214.322 395.855 214.62 395.746 214.93 395.699C215.241 395.652 215.558 395.669 215.861 395.748C216.165 395.827 216.45 395.968 216.698 396.16C216.953 396.341 217.17 396.571 217.337 396.836C217.503 397.1 217.616 397.395 217.668 397.704C217.72 398.012 217.711 398.328 217.642 398.633C217.572 398.938 217.443 399.226 217.262 399.481C215.025 401.869 212.256 403.694 209.179 404.807C207.766 405.38 206.404 406.072 205.107 406.874C201.459 409.139 198.509 412.371 196.586 416.21C194.934 420.453 194.27 425.017 194.643 429.555V432.25C194.93 436.435 194.741 440.638 194.08 444.781C193.462 447.823 192.241 450.711 190.486 453.273C188.732 455.834 186.481 458.018 183.867 459.693C185.496 462.825 187.062 465.958 188.441 469.279C196.565 485.887 199.135 504.668 195.771 522.849C194.612 527.596 193.147 532.263 191.385 536.821C191.421 537.091 191.421 537.365 191.385 537.635C188.663 544.167 186.952 551.076 186.31 558.124C186.215 560.428 186.341 562.736 186.686 565.016C190.236 562.666 194.067 560.771 198.089 559.377L200.596 558.374C214.288 553.399 226.032 544.179 234.116 532.059C235.244 530.179 236.246 528.237 237.249 526.232C239.584 520.925 242.949 516.133 247.148 512.135C247.385 511.917 247.663 511.749 247.965 511.641C248.268 511.534 248.59 511.489 248.911 511.508C249.231 511.528 249.545 511.613 249.832 511.757C250.119 511.902 250.374 512.103 250.582 512.348C250.789 512.594 250.945 512.879 251.039 513.186C251.133 513.493 251.164 513.816 251.13 514.136C251.096 514.456 250.998 514.765 250.841 515.046C250.685 515.326 250.473 515.572 250.218 515.769C246.529 519.341 243.571 523.597 241.509 528.3C240.444 530.367 239.379 532.435 238.189 534.565C231.719 544.718 222.656 552.959 211.936 558.437C208.823 560.091 205.623 561.576 202.35 562.885L199.844 563.888C195.476 565.249 191.382 567.37 187.751 570.153C187.751 570.153 187.751 570.153 187.751 570.153C188.253 572.785 188.816 575.416 189.443 577.985L195.709 604.175C196.978 610.185 198.76 616.075 201.034 621.781C204.04 628.593 208.495 634.667 214.09 639.58C219.685 644.493 226.284 648.126 233.427 650.227C234.033 650.401 234.545 650.81 234.851 651.362C235.156 651.914 235.23 652.565 235.056 653.171C234.977 653.476 234.837 653.762 234.644 654.011C234.451 654.26 234.209 654.467 233.934 654.619C233.658 654.772 233.354 654.866 233.041 654.897C232.728 654.929 232.411 654.896 232.111 654.8C224.27 652.487 217.032 648.482 210.905 643.07C204.778 637.658 199.912 630.968 196.648 623.473C194.231 617.495 192.364 611.308 191.072 604.99L184.807 578.862C182.826 571.913 181.814 564.723 181.799 557.497C182.284 551.062 183.698 544.731 185.997 538.701C177.557 539.38 169.108 537.502 161.749 533.312C157.868 530.741 154.276 527.758 151.036 524.415L146.023 521.909C141.448 517.842 136.348 514.408 130.861 511.696C128.73 510.631 127.602 510.631 127.227 511.007C126.761 511.439 126.143 511.669 125.509 511.645C124.874 511.622 124.275 511.347 123.843 510.882C123.411 510.416 123.182 509.799 123.205 509.164C123.229 508.53 123.503 507.93 123.968 507.498L124.219 507.185Z" fill="#FEFEFE"/>
<path d="M267.949 475.356C270.117 477.573 271.721 480.278 272.626 483.244C273.531 486.209 273.711 489.349 273.149 492.398C272.965 493.11 272.713 493.802 272.398 494.466C270.182 499.826 266.018 504.146 260.744 506.559C246.02 514.39 274.277 523.287 265.819 541.52C265.562 541.987 265.332 542.468 265.13 542.961C258.112 557.372 250.907 561.758 250.28 569.652C250.031 570.745 250.031 571.88 250.28 572.973C250.219 573.346 250.219 573.727 250.28 574.101C251.283 579.238 254.979 583.624 257.36 591.957C259.671 601.701 259.671 611.85 257.36 621.593C255.516 631.99 252.748 642.201 249.09 652.106C249.591 654.675 246.709 656.68 242.824 657.62C241.452 658.092 240.015 658.346 238.564 658.372C238.188 658.372 238 658.372 237.749 658.372H236.747C235.738 658.467 234.722 658.297 233.799 657.879C232.877 657.462 232.078 656.811 231.484 655.991C231.484 655.991 231.484 655.991 231.484 655.552C231.421 655.391 231.421 655.212 231.484 655.051C229.541 652.858 227.599 650.728 225.782 648.786C222.336 644.776 219.141 640.891 216.259 637.006C201.973 618.586 194.643 603.11 200.344 593.148C200.674 592.422 201.073 591.73 201.535 591.08C202.287 590.203 203.101 589.389 203.916 588.574C207.505 585.879 210.16 582.127 211.508 577.846C212.857 573.564 212.831 568.968 211.434 564.702C211.121 563.136 210.682 561.507 210.181 559.753L208.677 555.179C207.55 551.983 206.296 548.6 205.106 545.029C199.342 527.047 216.948 522.097 228.038 514.328L228.915 513.764C235.744 508.814 230.732 498.727 229.541 490.206C228.852 484.88 229.541 480.118 235.306 477.675C250.468 470.595 259.115 465.52 267.949 475.356Z" fill="#EFEFEF"/>
<path d="M241.698 660.314C241.177 660.413 240.637 660.314 240.185 660.035C239.733 659.757 239.402 659.321 239.255 658.811C237.814 654.55 205.546 553.926 248.214 493.276C248.372 493.038 248.575 492.834 248.813 492.676C249.051 492.518 249.318 492.41 249.599 492.357C249.879 492.304 250.167 492.309 250.446 492.37C250.725 492.431 250.989 492.547 251.222 492.712C251.462 492.875 251.667 493.085 251.826 493.328C251.984 493.571 252.093 493.843 252.145 494.129C252.198 494.415 252.193 494.708 252.131 494.992C252.07 495.275 251.952 495.544 251.786 495.782C210.371 554.678 243.077 656.43 243.39 657.432C243.569 657.981 243.525 658.577 243.267 659.094C243.009 659.61 242.558 660.003 242.012 660.189L241.698 660.314Z" fill="white"/>
<g opacity="0.1">
<path opacity="0.1" fill-rule="evenodd" clip-rule="evenodd" d="M496.893 235.325C497.857 235.325 498.781 234.942 499.463 234.26C500.144 233.579 500.527 232.655 500.527 231.691V198.609L580.851 143.41H613.62C614.584 143.41 615.508 143.027 616.189 142.345C616.871 141.664 617.254 140.74 617.254 139.776C617.254 138.812 616.871 137.888 616.189 137.206C615.508 136.525 614.584 136.142 613.62 136.142H579.723C578.99 136.158 578.275 136.374 577.656 136.768L494.826 193.722C494.34 194.058 493.943 194.508 493.67 195.032C493.397 195.556 493.256 196.138 493.259 196.729V231.691C493.259 232.655 493.642 233.579 494.324 234.26C495.005 234.942 495.93 235.325 496.893 235.325V235.325Z" fill="black"/>
<path opacity="0.1" fill-rule="evenodd" clip-rule="evenodd" d="M377.221 235.763C377.221 236.727 377.604 237.651 378.285 238.333C378.967 239.014 379.891 239.397 380.855 239.397C381.819 239.397 382.743 239.014 383.424 238.333C384.106 237.651 384.489 236.727 384.489 235.763V215.839C384.488 214.875 384.105 213.951 383.424 213.27L355.667 185.514C354.986 184.832 354.062 184.449 353.099 184.449H272.712C271.748 184.449 270.824 184.832 270.142 185.513C269.461 186.195 269.078 187.119 269.078 188.083C269.078 189.047 269.461 189.971 270.142 190.652C270.824 191.334 271.748 191.717 272.712 191.717H351.595L377.221 217.405V235.763Z" fill="black"/>
<path opacity="0.1" fill-rule="evenodd" clip-rule="evenodd" d="M659.233 361.825H616.502L585.174 330.498C584.844 330.152 584.444 329.878 584.002 329.695C583.56 329.511 583.084 329.422 582.605 329.433H546.767C545.803 329.433 544.879 329.816 544.197 330.497C543.516 331.179 543.133 332.103 543.133 333.067C543.133 334.031 543.516 334.955 544.197 335.636C544.879 336.318 545.803 336.701 546.767 336.701H581.102L612.429 368.028C613.121 368.693 614.039 369.074 614.998 369.093H659.233C660.122 368.977 660.939 368.541 661.531 367.866C662.123 367.192 662.449 366.325 662.449 365.428C662.449 364.531 662.123 363.664 661.531 362.99C660.939 362.315 660.122 361.879 659.233 361.763V361.825Z" fill="black"/>
<path opacity="0.1" fill-rule="evenodd" clip-rule="evenodd" d="M334.488 376.549H299.026C298.308 376.54 297.604 376.743 297.002 377.133C296.4 377.524 295.927 378.083 295.642 378.742L275.53 426.987H243.764C242.8 426.987 241.876 427.369 241.194 428.051C240.513 428.732 240.13 429.657 240.13 430.621C240.13 431.584 240.513 432.509 241.194 433.19C241.876 433.872 242.8 434.255 243.764 434.255H277.974C278.689 434.255 279.389 434.04 279.981 433.638C280.573 433.235 281.03 432.664 281.294 431.999L301.407 384.068H334.488C335.452 384.068 336.377 383.685 337.058 383.004C337.74 382.322 338.122 381.398 338.122 380.434C338.122 379.47 337.74 378.546 337.058 377.864C336.377 377.183 335.452 376.8 334.488 376.8V376.549Z" fill="black"/>
<path opacity="0.1" d="M722.201 163.835C737.98 163.835 750.771 151.044 750.771 135.265C750.771 119.485 737.98 106.694 722.201 106.694C706.422 106.694 693.63 119.485 693.63 135.265C693.63 151.044 706.422 163.835 722.201 163.835Z" fill="black"/>
<path opacity="0.1" fill-rule="evenodd" clip-rule="evenodd" d="M790.556 135.202C790.571 125.658 788.564 116.22 784.666 107.508L785.919 106.945C769.895 79.1328 748.285 54.9412 722.45 35.8937V66.9079C714.204 66.8946 706.026 68.4027 698.327 71.3564L686.423 39.4024C664.941 47.4077 646.748 62.3587 634.732 81.8825C628.325 92.2725 623.846 103.734 621.512 115.716L645.509 120.353L654.907 122.232C654.078 126.506 653.658 130.849 653.654 135.202C653.696 141.73 654.624 148.221 656.411 154.5L649.582 156.442C654.143 171.956 663.538 185.61 676.398 195.413L680.721 189.649C685.705 193.432 691.187 196.51 697.012 198.797L694.443 205.501C705.126 209.716 716.633 211.427 728.08 210.504C739.528 209.581 750.611 206.048 760.481 200.175L756.784 193.91C764.198 189.63 770.744 183.998 776.082 177.306L784.227 183.572C794.528 170.488 800.31 154.418 800.706 137.771C800.768 136.937 800.768 136.099 800.706 135.265L790.556 135.202ZM745.632 174.8L742.875 170.163C737.549 173.254 731.597 175.106 725.458 175.584C719.319 176.061 713.152 175.151 707.412 172.92L705.345 177.995C701.435 176.428 697.765 174.319 694.443 171.73L697.763 167.469C690.882 162.219 685.856 154.91 683.415 146.605L678.09 148.109C676.817 143.904 676.184 139.532 676.21 135.139H659.794C659.794 118.522 666.396 102.586 678.146 90.8355C689.896 79.0854 705.832 72.4842 722.45 72.4842V88.8999C732.616 88.8256 742.521 92.1225 750.615 98.2751C758.71 104.428 764.537 113.089 767.186 122.905C769.835 132.721 769.156 143.138 765.257 152.527C761.357 161.917 754.456 169.749 745.632 174.8Z" fill="black"/>
<path opacity="0.1" fill-rule="evenodd" clip-rule="evenodd" d="M242.511 230.312C244.601 230.02 246.539 229.054 248.031 227.562C249.523 226.07 250.489 224.132 250.782 222.042V139.713C250.686 138.018 249.944 136.423 248.708 135.258C247.473 134.093 245.839 133.445 244.14 133.448H200.846C197.149 133.448 191.886 137.082 191.886 140.778C191.855 141.091 191.855 141.406 191.886 141.718V223.671C191.886 225.449 192.592 227.154 193.85 228.411C195.107 229.669 196.812 230.375 198.59 230.375H242.449L242.511 230.312Z" fill="black"/>
<path opacity="0.1" fill-rule="evenodd" clip-rule="evenodd" d="M762.488 400.671L755.784 397.977C755.999 395.894 755.999 393.795 755.784 391.712L762.425 388.955C763.994 388.277 765.238 387.015 765.893 385.436C766.548 383.858 766.562 382.086 765.934 380.497L762.613 372.727C762.265 371.867 761.731 371.095 761.048 370.466C760.365 369.838 759.552 369.369 758.666 369.093C757.384 368.668 756 368.668 754.718 369.093C754.718 369.093 754.718 369.093 754.342 369.093L747.701 371.787C746.319 370.164 744.788 368.675 743.127 367.339L745.947 360.635C746.218 359.913 746.366 359.15 746.385 358.379C746.438 357.066 746.095 355.768 745.403 354.651C744.711 353.535 743.7 352.651 742.501 352.114L734.606 348.981C733.465 348.501 732.208 348.37 730.992 348.604C729.777 348.838 728.658 349.427 727.777 350.297C727.303 350.651 726.935 351.128 726.712 351.675C726.493 351.901 726.341 352.183 726.273 352.49L724.644 356.186L723.516 359.069C721.433 358.862 719.334 358.862 717.251 359.069L714.557 352.803C714.041 351.45 713.072 350.317 711.816 349.598C710.559 348.878 709.092 348.616 707.664 348.856C707.395 348.814 707.12 348.814 706.85 348.856H706.223L698.454 352.114C697.666 352.416 696.946 352.875 696.34 353.462C695.733 354.05 695.251 354.754 694.923 355.532C694.596 356.311 694.429 357.147 694.433 357.992C694.436 358.836 694.611 359.672 694.946 360.447L697.702 366.712L696.762 367.652C695.53 368.801 694.359 370.014 693.254 371.286L686.55 368.655C685.353 368.15 684.029 368.029 682.76 368.31C681.492 368.59 680.342 369.258 679.47 370.221C678.97 370.753 678.567 371.368 678.279 372.038L675.084 379.807C674.749 380.583 674.575 381.418 674.571 382.262C674.567 383.107 674.734 383.943 675.062 384.722C675.39 385.5 675.871 386.204 676.478 386.792C677.085 387.379 677.804 387.838 678.593 388.14L685.171 390.96C685.049 393.047 685.049 395.139 685.171 397.225H684.545L678.655 399.732C677.859 400.033 677.132 400.494 676.52 401.086C675.908 401.678 675.423 402.389 675.094 403.175C674.766 403.96 674.601 404.805 674.61 405.656C674.619 406.508 674.802 407.349 675.146 408.127L678.405 415.897C678.819 416.932 679.502 417.837 680.383 418.52C681.264 419.203 682.311 419.638 683.417 419.781V419.781C684.455 420.121 685.574 420.121 686.612 419.781L692.878 417.087L693.943 418.215C695.073 419.366 696.265 420.453 697.514 421.473L694.695 428.114C694.35 428.893 694.168 429.734 694.159 430.585C694.15 431.437 694.314 432.281 694.643 433.067C694.971 433.853 695.456 434.564 696.069 435.155C696.681 435.747 697.407 436.208 698.204 436.51L705.973 439.706C707.044 440.141 708.215 440.271 709.356 440.082V440.082C710.421 439.913 711.425 439.473 712.27 438.804C713.115 438.134 713.773 437.258 714.181 436.26L717 429.555C719.081 429.801 721.184 429.801 723.266 429.555L723.767 430.683L726.022 436.072C726.344 436.835 726.815 437.528 727.406 438.109C727.998 438.689 728.699 439.147 729.468 439.455C730.25 439.791 731.092 439.964 731.943 439.964C732.794 439.964 733.636 439.791 734.418 439.455L742.25 436.197C743.022 435.876 743.722 435.404 744.309 434.809C744.896 434.214 745.357 433.507 745.667 432.73C745.976 431.954 746.127 431.123 746.111 430.287C746.094 429.452 745.911 428.628 745.571 427.864L742.814 421.222C744.47 419.856 745.982 418.324 747.325 416.648L751.836 418.528L754.029 419.468C755.325 420.03 756.773 420.138 758.138 419.774C759.502 419.41 760.704 418.596 761.548 417.463C761.548 416.962 762.174 416.586 762.425 416.022L766.31 409.13C766.658 408.328 766.835 407.462 766.828 406.588C766.822 405.714 766.632 404.851 766.272 404.054C765.912 403.257 765.39 402.545 764.738 401.962C764.086 401.38 763.32 400.94 762.488 400.671ZM727.902 409.944C727.595 410.161 727.257 410.33 726.9 410.446C723.391 411.931 719.484 412.188 715.811 411.176C712.138 410.164 708.915 407.942 706.662 404.869C705.914 403.791 705.284 402.636 704.782 401.423C703.909 399.368 703.451 397.159 703.435 394.925C703.419 392.692 703.846 390.477 704.69 388.409C705.535 386.341 706.781 384.461 708.356 382.877C709.931 381.293 711.804 380.037 713.867 379.181C716.111 378.257 718.522 377.809 720.947 377.865C722.87 377.915 724.765 378.34 726.524 379.118C728.674 379.903 730.636 381.128 732.287 382.714C733.937 384.299 735.239 386.212 736.11 388.328C737.756 392.299 737.823 396.748 736.297 400.766C734.771 404.784 731.768 408.067 727.902 409.944V409.944Z" fill="black"/>
<path opacity="0.1" fill-rule="evenodd" clip-rule="evenodd" d="M802.023 326.926L797.136 324.984C797.261 323.441 797.261 321.891 797.136 320.348L802.023 318.28C803.177 317.771 804.085 316.83 804.553 315.658C805.022 314.487 805.013 313.179 804.529 312.015L802.148 306.376C801.875 305.734 801.464 305.16 800.944 304.694C800.424 304.228 799.809 303.883 799.141 303.681C798.232 303.34 797.23 303.34 796.321 303.681H796.008L791.183 305.749C790.151 304.549 789.019 303.438 787.8 302.428L789.868 297.479C790.081 296.982 790.208 296.452 790.244 295.912C790.241 294.956 789.961 294.021 789.439 293.221C788.916 292.42 788.173 291.788 787.299 291.401L781.534 289.083C780.696 288.834 779.804 288.834 778.966 289.083C778.061 289.295 777.222 289.725 776.522 290.336C776.206 290.631 775.932 290.968 775.708 291.338C775.673 291.546 775.673 291.758 775.708 291.965L774.517 294.659L773.64 296.727C772.096 296.633 770.547 296.633 769.003 296.727L766.936 291.965C766.561 290.976 765.86 290.145 764.948 289.609C764.037 289.074 762.97 288.866 761.923 289.02C761.737 288.986 761.546 288.986 761.36 289.02H760.858L755.094 291.401C754.512 291.641 753.983 291.994 753.538 292.44C753.093 292.885 752.741 293.415 752.502 293.998C752.263 294.58 752.142 295.205 752.146 295.834C752.15 296.464 752.279 297.087 752.525 297.667L754.593 302.428C754.593 302.428 754.092 302.867 753.966 303.118C753.026 303.952 752.147 304.853 751.335 305.812L746.448 303.869C745.561 303.496 744.58 303.403 743.639 303.605C742.697 303.807 741.841 304.293 741.185 304.997C740.856 305.433 740.563 305.894 740.307 306.376L737.989 312.077C737.725 312.654 737.582 313.28 737.569 313.914C737.556 314.549 737.674 315.18 737.914 315.767C738.155 316.355 738.514 316.886 738.969 317.329C739.424 317.772 739.965 318.117 740.558 318.343L745.445 320.41C745.257 321.95 745.257 323.507 745.445 325.047H744.944L740.558 326.864C739.97 327.097 739.436 327.446 738.986 327.89C738.536 328.335 738.181 328.865 737.941 329.45C737.701 330.035 737.582 330.662 737.59 331.295C737.598 331.927 737.734 332.551 737.989 333.129L740.433 338.894C740.741 339.651 741.246 340.312 741.896 340.808C742.546 341.304 743.318 341.616 744.129 341.713V341.713C744.887 341.931 745.69 341.931 746.448 341.713L751.335 339.645L752.087 340.523C752.896 341.365 753.754 342.16 754.655 342.904L752.651 347.791C752.402 348.366 752.27 348.986 752.262 349.612C752.254 350.239 752.369 350.862 752.602 351.444C752.835 352.026 753.181 352.557 753.619 353.005C754.057 353.453 754.58 353.81 755.157 354.056L760.921 356.437C761.738 356.684 762.61 356.684 763.427 356.437V356.437C764.206 356.287 764.934 355.944 765.547 355.441C766.16 354.938 766.637 354.289 766.936 353.555L768.941 348.605C770.523 348.793 772.121 348.793 773.703 348.605V349.357L775.332 353.367C775.559 353.942 775.905 354.463 776.348 354.895C776.791 355.327 777.32 355.66 777.901 355.873C778.47 356.137 779.09 356.274 779.718 356.274C780.345 356.274 780.965 356.137 781.534 355.873L787.236 353.555C788.39 353.045 789.298 352.104 789.767 350.933C790.235 349.762 790.226 348.454 789.742 347.289L787.675 342.402C788.887 341.429 789.999 340.338 790.995 339.144L794.253 340.46L795.945 341.149C796.889 341.521 797.926 341.581 798.907 341.322C799.887 341.063 800.759 340.497 801.396 339.708C801.629 339.346 801.838 338.969 802.023 338.58L804.404 332.816C804.801 331.713 804.778 330.503 804.339 329.416C803.9 328.33 803.075 327.443 802.023 326.926ZM776.961 333.756L776.209 334.132C773.619 335.211 770.742 335.391 768.038 334.641C765.335 333.891 762.961 332.256 761.297 329.997C760.787 329.211 760.327 328.395 759.918 327.553C759.28 326.035 758.947 324.406 758.938 322.759C758.929 321.113 759.245 319.48 759.868 317.956C760.491 316.431 761.408 315.044 762.567 313.874C763.726 312.704 765.104 311.774 766.623 311.137C768.263 310.512 770.005 310.194 771.76 310.198C774.145 310.342 776.446 311.137 778.411 312.495C780.377 313.854 781.934 315.724 782.913 317.904C784.12 320.864 784.15 324.174 782.997 327.156C781.844 330.138 779.595 332.566 776.71 333.944L776.961 333.756Z" fill="black"/>
<path opacity="0.1" fill-rule="evenodd" clip-rule="evenodd" d="M824.454 400.045L820.758 398.604C820.946 397.442 820.946 396.257 820.758 395.095L824.392 393.591C824.82 393.42 825.209 393.165 825.537 392.84C825.864 392.516 826.124 392.129 826.299 391.702C826.474 391.276 826.562 390.818 826.557 390.357C826.552 389.896 826.455 389.441 826.272 389.018L824.58 384.694C824.369 384.225 824.058 383.808 823.668 383.472C823.278 383.137 822.82 382.891 822.324 382.752C821.631 382.535 820.888 382.535 820.194 382.752C820.194 382.752 820.194 382.752 820.194 382.752L816.56 384.256C815.842 383.35 815.022 382.53 814.116 381.812L815.62 378.116C815.708 377.703 815.708 377.276 815.62 376.863C815.657 376.156 815.471 375.455 815.089 374.86C814.707 374.264 814.148 373.803 813.49 373.542L809.229 371.788C808.574 371.6 807.879 371.6 807.224 371.788C806.542 371.884 805.907 372.191 805.407 372.665C805.171 372.875 804.98 373.131 804.843 373.417C804.843 373.417 804.843 373.417 804.843 373.855L803.966 375.923L803.34 377.426H799.831L798.327 373.855C798.037 373.125 797.507 372.515 796.823 372.128C796.139 371.74 795.344 371.598 794.568 371.725H794.129H793.754L789.493 373.479C788.649 373.852 787.979 374.533 787.618 375.382C787.257 376.232 787.233 377.187 787.551 378.053L789.054 381.687C788.918 381.865 788.748 382.014 788.553 382.126C787.926 382.815 787.237 383.441 786.611 384.193L782.977 382.752C782.33 382.441 781.599 382.352 780.896 382.5C780.194 382.647 779.56 383.022 779.092 383.567C778.825 383.884 778.613 384.244 778.466 384.632L776.711 388.83C776.527 389.253 776.43 389.708 776.425 390.169C776.421 390.63 776.509 391.088 776.684 391.514C776.859 391.941 777.118 392.328 777.446 392.652C777.774 392.977 778.163 393.232 778.591 393.404L782.225 394.97C782.131 396.117 782.131 397.269 782.225 398.416H781.849L778.591 399.794C778.17 399.966 777.788 400.219 777.466 400.539C777.144 400.859 776.888 401.24 776.713 401.659C776.538 402.078 776.448 402.528 776.448 402.982C776.448 403.436 776.537 403.886 776.711 404.306L778.528 408.566C778.739 409.146 779.11 409.654 779.598 410.031C780.086 410.408 780.671 410.639 781.285 410.696H781.786C782.199 410.788 782.627 410.788 783.04 410.696L786.673 409.255L787.237 409.819L789.242 411.699L787.676 415.333C787.502 415.761 787.415 416.218 787.419 416.68C787.423 417.142 787.518 417.598 787.698 418.023C787.878 418.448 788.141 418.833 788.47 419.156C788.8 419.479 789.19 419.734 789.618 419.907L793.879 421.661C794.471 421.844 795.104 421.844 795.696 421.661V421.661C796.288 421.581 796.846 421.34 797.31 420.964C797.774 420.589 798.126 420.093 798.327 419.531L799.831 415.897C800.993 416.085 802.178 416.085 803.34 415.897L803.653 416.586L804.906 419.531C805.054 419.96 805.301 420.349 805.628 420.665C805.955 420.98 806.351 421.214 806.786 421.348C807.21 421.536 807.669 421.633 808.133 421.633C808.597 421.633 809.056 421.536 809.48 421.348L813.74 419.593C814.592 419.197 815.257 418.486 815.595 417.61C815.934 416.734 815.921 415.76 815.557 414.894L814.116 411.386C814.967 410.718 815.744 409.962 816.435 409.13L818.941 410.195L820.194 410.634C820.893 410.942 821.676 411.005 822.416 410.812C823.156 410.618 823.808 410.18 824.267 409.569L824.768 408.754L826.522 404.493C826.781 403.627 826.713 402.697 826.333 401.877C825.952 401.057 825.283 400.405 824.454 400.045V400.045ZM805.658 405.183H805.031C803.112 405.99 800.978 406.132 798.969 405.587C796.96 405.042 795.19 403.841 793.941 402.175C793.526 401.563 793.169 400.913 792.876 400.233C792.353 399.085 792.069 397.843 792.039 396.582C792.01 395.321 792.236 394.067 792.704 392.896C793.173 391.725 793.874 390.661 794.765 389.768C795.656 388.875 796.719 388.173 797.889 387.702C799.103 387.221 800.406 387.007 801.711 387.075C802.787 387.07 803.852 387.283 804.843 387.702C806.029 388.134 807.107 388.817 808.004 389.703C808.902 390.59 809.598 391.66 810.044 392.84C810.58 393.939 810.89 395.135 810.956 396.356C811.022 397.578 810.842 398.8 810.428 399.951C810.013 401.102 809.372 402.158 808.542 403.057C807.712 403.955 806.71 404.678 805.595 405.183H805.658Z" fill="black"/>
<path opacity="0.1" fill-rule="evenodd" clip-rule="evenodd" d="M119.458 407.501C117.115 407.501 114.868 408.432 113.211 410.088C111.554 411.745 110.624 413.992 110.624 416.335V452.111C110.52 453.338 110.673 454.573 111.072 455.738C111.47 456.903 112.106 457.973 112.94 458.879C113.773 459.785 114.785 460.509 115.913 461.004C117.04 461.499 118.258 461.754 119.489 461.754C120.721 461.754 121.938 461.499 123.066 461.004C124.193 460.509 125.205 459.785 126.039 458.879C126.872 457.973 127.508 456.903 127.907 455.738C128.306 454.573 128.458 453.338 128.355 452.111V416.335C128.338 413.987 127.394 411.74 125.727 410.085C124.06 408.43 121.807 407.501 119.458 407.501V407.501Z" fill="black"/>
<path opacity="0.1" fill-rule="evenodd" clip-rule="evenodd" d="M151.663 374.732C149.314 374.749 147.068 375.693 145.413 377.36C143.758 379.027 142.829 381.28 142.829 383.629V443.903C142.726 445.13 142.878 446.365 143.277 447.53C143.676 448.695 144.312 449.765 145.145 450.671C145.978 451.577 146.991 452.301 148.118 452.796C149.246 453.291 150.463 453.547 151.695 453.547C152.926 453.547 154.144 453.291 155.271 452.796C156.398 452.301 157.411 451.577 158.244 450.671C159.077 449.765 159.714 448.695 160.112 447.53C160.511 446.365 160.664 445.13 160.56 443.903V383.629C160.56 381.27 159.623 379.007 157.954 377.338C156.286 375.67 154.023 374.732 151.663 374.732Z" fill="black"/>
<path opacity="0.1" fill-rule="evenodd" clip-rule="evenodd" d="M183.928 421.974C181.579 421.974 179.326 422.903 177.659 424.558C175.992 426.213 175.048 428.46 175.031 430.809V452.111C174.928 453.338 175.08 454.573 175.479 455.738C175.878 456.903 176.514 457.973 177.347 458.879C178.181 459.785 179.193 460.509 180.32 461.004C181.448 461.499 182.665 461.754 183.897 461.754C185.128 461.754 186.346 461.499 187.473 461.004C188.601 460.509 189.613 459.785 190.446 458.879C191.28 457.973 191.916 456.903 192.314 455.738C192.713 454.573 192.866 453.338 192.762 452.111V430.809C192.762 429.648 192.534 428.5 192.09 427.428C191.646 426.356 190.995 425.382 190.175 424.562C189.355 423.741 188.381 423.091 187.309 422.647C186.237 422.203 185.088 421.974 183.928 421.974V421.974Z" fill="black"/>
<path opacity="0.1" fill-rule="evenodd" clip-rule="evenodd" d="M216.137 385.822C213.794 385.822 211.547 386.753 209.89 388.41C208.233 390.066 207.302 392.314 207.302 394.657V443.903C207.199 445.13 207.352 446.365 207.75 447.53C208.149 448.695 208.785 449.765 209.618 450.671C210.452 451.577 211.464 452.301 212.592 452.796C213.719 453.291 214.937 453.546 216.168 453.546C217.399 453.546 218.617 453.291 219.745 452.796C220.872 452.301 221.884 451.577 222.718 450.671C223.551 449.765 224.187 448.695 224.586 447.53C224.984 446.365 225.137 445.13 225.034 443.903V394.657C225.017 392.308 224.072 390.061 222.406 388.406C220.739 386.751 218.486 385.822 216.137 385.822V385.822Z" fill="black"/>
<path opacity="0.1" fill-rule="evenodd" clip-rule="evenodd" d="M532.793 272.667V404.243C532.852 404.721 532.852 405.205 532.793 405.684C531.54 414.581 519.322 428.866 510.801 429.43H510.049C509.133 429.526 508.209 429.526 507.292 429.43H478.909L433.547 476.108V662.382C430.456 663.76 427.323 665.076 424.149 666.329C422.457 666.956 420.703 667.645 418.948 668.146V472.975C418.961 470.645 419.857 468.406 421.455 466.71L457.043 430.119H375.591C373.455 430.128 371.338 429.714 369.362 428.902C367.386 428.09 365.589 426.896 364.076 425.389C362.562 423.881 361.361 422.089 360.542 420.116C359.723 418.143 359.301 416.028 359.301 413.892V282.316C359.336 280.738 359.611 279.175 360.115 277.68V277.68C360.115 268.783 375.967 256.815 385.177 256.815H516.753C520.965 256.847 524.998 258.522 527.994 261.482C530.989 264.443 532.711 268.456 532.793 272.667Z" fill="black"/>
</g>
<path d="M465.565 208.634C465.088 208.634 464.615 208.54 464.175 208.357C463.734 208.174 463.333 207.907 462.996 207.569C462.658 207.232 462.391 206.831 462.208 206.39C462.025 205.949 461.931 205.477 461.931 205V170.226C461.928 169.635 462.069 169.053 462.342 168.528C462.615 168.004 463.012 167.555 463.498 167.219L546.328 110.328C546.934 109.907 547.657 109.687 548.395 109.701H582.292C583.255 109.701 584.18 110.084 584.861 110.766C585.543 111.447 585.926 112.371 585.926 113.335C585.926 114.299 585.543 115.223 584.861 115.905C584.18 116.586 583.255 116.969 582.292 116.969H549.523L469.199 172.168V205.25C469.136 206.17 468.725 207.031 468.05 207.659C467.375 208.288 466.487 208.636 465.565 208.634V208.634Z" fill="#2E1C67"/>
<path d="M349.591 212.894C349.112 212.903 348.635 212.814 348.19 212.635C347.746 212.455 347.342 212.188 347.003 211.849C346.663 211.51 346.396 211.106 346.216 210.661C346.037 210.216 345.949 209.74 345.957 209.26V190.902L320.331 165.276H241.448C240.485 165.276 239.56 164.893 238.879 164.212C238.197 163.53 237.814 162.606 237.814 161.642C237.814 160.679 238.197 159.754 238.879 159.073C239.56 158.391 240.485 158.008 241.448 158.008H321.835C322.313 158.005 322.786 158.098 323.227 158.281C323.669 158.464 324.069 158.733 324.404 159.073L352.16 186.83C352.842 187.511 353.225 188.435 353.225 189.399V209.26C353.234 209.74 353.145 210.216 352.966 210.661C352.786 211.106 352.519 211.51 352.18 211.849C351.841 212.188 351.437 212.455 350.992 212.635C350.547 212.814 350.071 212.903 349.591 212.894V212.894Z" fill="#2E1C67"/>
<path d="M627.967 342.653H583.732C582.768 342.652 581.844 342.269 581.163 341.588L549.836 310.26H515.689C514.725 310.26 513.801 309.877 513.119 309.196C512.438 308.514 512.055 307.59 512.055 306.626C512.055 305.662 512.438 304.738 513.119 304.057C513.801 303.375 514.725 302.992 515.689 302.992H551.527C552.491 302.993 553.415 303.376 554.096 304.057L585.424 335.385H628.155C629.118 335.385 630.043 335.768 630.724 336.449C631.406 337.131 631.789 338.055 631.789 339.019C631.789 339.983 631.406 340.907 630.724 341.589C630.043 342.27 629.118 342.653 628.155 342.653H627.967Z" fill="#2E1C67"/>
<path d="M246.709 407.752H212.562C211.598 407.752 210.674 407.369 209.992 406.687C209.311 406.006 208.928 405.081 208.928 404.118C208.928 403.154 209.311 402.229 209.992 401.548C210.674 400.866 211.598 400.484 212.562 400.484H244.265L264.378 352.302C264.659 351.636 265.13 351.068 265.731 350.667C266.332 350.266 267.038 350.05 267.761 350.046H303.286C304.25 350.046 305.174 350.429 305.856 351.111C306.537 351.792 306.92 352.716 306.92 353.68C306.92 354.644 306.537 355.568 305.856 356.25C305.174 356.931 304.25 357.314 303.286 357.314H270.204L250.092 405.559C249.801 406.212 249.326 406.768 248.726 407.157C248.125 407.546 247.425 407.753 246.709 407.752V407.752Z" fill="#2E1C67"/>
<path d="M449.023 402.05C450.477 400.439 451.333 398.376 451.447 396.209C451.561 394.041 450.927 391.901 449.65 390.145C449.087 389.331 448.348 388.654 447.487 388.166C446.626 387.677 445.666 387.388 444.678 387.322C443.691 387.256 442.701 387.413 441.782 387.783C440.864 388.152 440.041 388.724 439.374 389.456L390.378 440.457C388.803 442.163 387.93 444.401 387.935 446.723V662.883C378.035 664.261 370.767 668.146 370.767 672.782C370.767 678.547 381.732 683.183 395.265 683.183C408.799 683.183 419.701 678.547 419.701 672.782C419.701 668.146 412.433 664.261 402.533 662.883V450.294L449.023 402.05Z" fill="#2E1C67"/>
<path d="M719.566 108.887C719.562 114.358 717.99 119.714 715.037 124.32C712.084 128.926 707.873 132.59 702.903 134.877C697.933 137.164 692.411 137.98 686.992 137.227C681.573 136.474 676.482 134.184 672.324 130.628V130.628C669.592 128.444 667.317 125.742 665.629 122.678C663.941 119.615 662.874 116.248 662.487 112.771C662.217 111.58 662.112 110.357 662.174 109.137C661.993 105.269 662.598 101.403 663.954 97.7756C665.31 94.1477 667.387 90.8325 670.061 88.0306C672.735 85.2287 675.949 82.9984 679.51 81.4746C683.07 79.9507 686.903 79.165 690.776 79.165C694.649 79.165 698.481 79.9507 702.042 81.4746C705.603 82.9984 708.817 85.2287 711.491 88.0306C714.165 90.8325 716.242 94.1477 717.598 97.7756C718.953 101.403 719.559 105.269 719.378 109.137L719.566 108.887Z" fill="#2E1C67"/>
<path d="M755.282 108.887C755.298 115.115 754.346 121.308 752.463 127.245C750.274 134.902 746.567 142.04 741.561 148.234C736.779 154.689 730.696 160.068 723.704 164.023C713.858 169.918 702.599 173.036 691.123 173.046C683.118 173.119 675.183 171.541 667.816 168.409C667.265 168.349 666.733 168.178 666.249 167.908C661.316 165.903 656.696 163.202 652.528 159.888C641.404 151.829 633.236 140.337 629.283 127.182C627.605 121.29 626.72 115.201 626.651 109.075H645.072C645.215 116.121 646.912 123.048 650.042 129.363C653.172 135.677 657.658 141.222 663.179 145.603C666.363 148.132 669.94 150.122 673.768 151.492C679.076 153.823 684.826 154.977 690.622 154.876C698.899 154.969 707.044 152.803 714.18 148.61C720.681 144.845 726.128 139.5 730.016 133.072C733.903 126.643 736.107 119.338 736.423 111.832C736.546 110.98 736.546 110.115 736.423 109.263C736.712 99.8369 734.014 90.561 728.716 82.7597C724.561 76.6143 718.959 71.5835 712.405 68.1094C705.85 64.6353 698.542 62.8243 691.123 62.8354V44.4774C706.923 44.4141 722.163 50.3222 733.791 61.0184C740.792 66.8858 746.291 74.3394 749.831 82.7597C753.504 90.9762 755.363 99.8874 755.282 108.887V108.887Z" fill="#F8A82A"/>
<path d="M691.123 82.5091C684.176 82.5914 677.54 85.4048 672.651 90.3409C667.762 95.277 665.012 101.939 664.996 108.887C664.958 111.796 665.468 114.687 666.5 117.408C668.109 119.649 669.415 122.093 670.384 124.676C672.845 127.844 675.987 130.417 679.576 132.207C683.166 133.996 687.113 134.956 691.123 135.014C698.086 135.014 704.763 132.248 709.687 127.325C714.61 122.402 717.376 115.724 717.376 108.762C717.376 101.799 714.61 95.1215 709.687 90.1982C704.763 85.2749 698.086 82.5091 691.123 82.5091V82.5091ZM691.123 129.876C688.365 129.885 685.631 129.347 683.081 128.295C680.531 127.244 678.214 125.698 676.263 123.747C674.312 121.796 672.767 119.479 671.715 116.929C670.663 114.379 670.126 111.646 670.134 108.887C670.117 106.114 670.647 103.365 671.693 100.797C672.739 98.2289 674.28 95.892 676.229 93.9197C678.179 91.9473 680.497 90.3782 683.052 89.3019C685.608 88.2256 688.35 87.6632 691.123 87.6468C696.746 87.6797 702.13 89.928 706.106 93.9042C710.082 97.8804 712.33 103.264 712.363 108.887C712.347 111.66 711.785 114.402 710.708 116.958C709.632 119.513 708.063 121.832 706.09 123.781C704.118 125.73 701.781 127.271 699.213 128.317C696.645 129.363 693.896 129.893 691.123 129.876V129.876Z" fill="white"/>
<path d="M753.778 80.9427C749.757 71.953 743.76 63.9861 736.234 57.635C727.05 49.3443 715.753 43.7516 703.592 41.4741C691.43 39.1965 678.876 40.3226 667.313 44.7281C658.354 47.9859 650.19 53.112 643.363 59.7662C636.536 66.4204 631.202 74.4505 627.716 83.3236C625.859 87.3054 624.552 91.5209 623.831 95.8546C622.999 100.213 622.559 104.638 622.515 109.075C622.545 115.571 623.516 122.029 625.397 128.247C629.409 142.253 637.96 154.529 649.707 163.146C653.98 166.407 658.682 169.063 663.679 171.041C664.409 171.468 665.187 171.804 665.998 172.043C673.95 175.31 682.463 176.992 691.06 176.993C703.339 176.963 715.387 173.654 725.959 167.407C733.379 163.12 739.79 157.286 744.755 150.302C749.721 144.212 753.58 137.299 756.158 129.876C758.307 122.999 759.426 115.841 759.479 108.636C759.554 99.1062 757.611 89.6683 753.778 80.9427V80.9427ZM733.101 62.5848C739.478 68.3835 744.578 75.4462 748.076 83.3236C751.643 91.1964 753.48 99.7425 753.464 108.386C753.539 114.189 752.671 119.965 750.895 125.49C748.844 133.197 745.241 140.403 740.307 146.668C735.366 153.043 729.317 158.477 722.45 162.708C712.919 168.185 702.115 171.059 691.122 171.041C683.303 171.054 675.557 169.543 668.316 166.592C668.316 166.592 667.815 166.592 667.313 166.592C662.253 164.504 657.474 161.789 653.091 158.51C642.59 150.376 634.899 139.158 631.099 126.43C629.283 120.741 628.395 114.796 628.467 108.824C628.52 101.224 629.92 93.6931 632.603 86.5816C637.054 74.7247 645.018 64.5085 655.43 57.2983C665.842 50.0881 678.207 46.2273 690.872 46.2318C706.409 46.1892 721.385 52.032 732.788 62.5848H733.101Z" fill="#9FABF4"/>
<path d="M729.404 173.86C717.764 180.589 704.566 184.153 691.122 184.198C681.721 184.288 672.395 182.52 663.679 178.998L666.06 172.294L667.626 168.409L668.127 166.843L670.508 160.577C671.481 158.539 672.339 156.447 673.077 154.312L674.079 151.43L676.147 146.543C681.876 148.837 688.057 149.777 694.209 149.288C700.361 148.799 706.316 146.894 711.61 143.723L714.492 148.36L722.449 162.708L723.452 164.023L725.519 167.657L729.404 173.86Z" fill="#2E1C67"/>
<path d="M787.673 65.9055L753.777 80.9427L749.892 82.7597L748.388 83.5115L739.805 87.1455C737.419 81.6352 733.994 76.6361 729.717 72.4216C724.827 67.0607 718.863 62.7894 712.214 59.8855C705.564 56.9817 698.377 55.5104 691.122 55.5674V3.06242C705.752 3.01709 720.228 6.05711 733.604 11.9841C746.98 17.9111 758.956 26.5919 768.751 37.4601C776.682 45.7558 783.087 55.3851 787.673 65.9055V65.9055Z" fill="#F8A82A"/>
<path d="M645.321 168.91C632.487 159.108 623.097 145.484 618.504 130.002L652.15 120.227C654.602 128.509 659.628 135.795 666.498 141.029L645.321 168.91Z" fill="#644AFF"/>
<path d="M667.313 45.7305C658.598 49.1048 650.66 54.2163 643.982 60.7544C637.304 67.2924 632.025 75.1203 628.467 83.7621C626.872 87.8129 625.675 92.0098 624.896 96.2931H623.831L590.436 90.0276C591.974 81.2114 594.671 72.637 598.455 64.527C609.928 40.6892 630.113 22.1643 654.845 12.774L667 44.6027L667.313 45.7305Z" fill="#533DD3"/>
<path d="M769.504 108.887C769.57 118.73 767.741 128.494 764.116 137.646C761.315 144.586 757.562 151.102 752.963 157.006L744.693 150.74L741.56 148.422L740.307 147.357L739.242 146.605C744.176 140.215 747.796 132.911 749.893 125.115C751.421 119.905 752.201 114.504 752.211 109.075L769.504 108.887Z" fill="#4931AD"/>
<path d="M731.223 374.168L724.519 371.6C724.751 369.518 724.751 367.416 724.519 365.334L731.223 362.765C732.754 362.029 733.951 360.744 734.578 359.165C735.205 357.586 735.215 355.83 734.607 354.244L731.474 346.475C731.107 345.594 730.543 344.809 729.827 344.179C729.11 343.55 728.259 343.092 727.339 342.841C726.071 342.465 724.722 342.465 723.454 342.841C723.291 342.89 723.116 342.89 722.953 342.841L719.82 344.157L716.499 345.41C714.933 343.906 713.367 342.34 711.8 341.024L714.682 334.32C715.011 333.556 715.183 332.734 715.19 331.902C715.198 331.07 715.039 330.245 714.724 329.475C714.409 328.706 713.944 328.006 713.356 327.418C712.768 326.83 712.069 326.364 711.299 326.049L703.279 322.917C702.237 322.382 701.048 322.206 699.896 322.415C698.619 322.639 697.452 323.278 696.575 324.232C696.079 324.506 695.7 324.952 695.51 325.485C695.51 325.485 695.51 326.049 695.009 326.3L693.442 330.185L692.127 333.004C690.046 332.748 687.942 332.748 685.861 333.004L683.042 326.3C682.522 324.994 681.578 323.902 680.362 323.197C679.146 322.493 677.729 322.217 676.337 322.415C676.071 322.49 675.789 322.49 675.523 322.415C675.022 322.415 675.022 322.415 674.771 322.415L667.002 325.799C666.21 326.089 665.485 326.537 664.87 327.114C664.255 327.692 663.763 328.388 663.424 329.16C663.085 329.933 662.905 330.765 662.895 331.609C662.885 332.453 663.046 333.289 663.368 334.069L666.187 340.335C666.187 340.335 665.686 341.149 665.185 341.4C663.98 342.537 662.85 343.751 661.802 345.034L655.097 342.152C653.852 341.631 652.472 341.527 651.162 341.854C649.852 342.182 648.683 342.923 647.829 343.969C647.442 344.544 647.107 345.152 646.827 345.786L643.694 353.555C643.366 354.319 643.193 355.141 643.186 355.973C643.179 356.805 643.337 357.629 643.652 358.399C643.967 359.169 644.432 359.869 645.02 360.457C645.609 361.045 646.308 361.51 647.078 361.825L653.782 364.645C653.531 366.726 653.531 368.829 653.782 370.91H653.03L646.764 373.479C645.995 373.794 645.295 374.26 644.707 374.848C644.119 375.436 643.654 376.135 643.339 376.905C643.024 377.675 642.866 378.5 642.873 379.332C642.88 380.163 643.053 380.985 643.381 381.75L646.514 389.519C646.938 390.571 647.64 391.488 648.545 392.172C649.45 392.856 650.524 393.282 651.651 393.404H652.716C653.484 393.526 654.267 393.526 655.035 393.404L661.3 390.584C661.725 390.937 662.086 391.361 662.365 391.837C663.509 392.958 664.723 394.004 665.999 394.97L663.117 401.674C662.796 402.454 662.635 403.291 662.645 404.134C662.654 404.978 662.834 405.811 663.173 406.583C663.513 407.355 664.005 408.051 664.619 408.629C665.234 409.206 665.959 409.654 666.751 409.944L674.521 413.328C675.633 413.589 676.791 413.589 677.904 413.328C678.974 413.13 679.98 412.673 680.832 411.996C681.684 411.318 682.357 410.442 682.791 409.443L685.36 402.739C687.442 402.965 689.543 402.965 691.625 402.739L692.127 403.742L694.445 409.193C694.706 409.981 695.148 410.698 695.735 411.286C696.323 411.873 697.039 412.315 697.828 412.576C698.589 412.947 699.425 413.14 700.272 413.14C701.119 413.14 701.954 412.947 702.715 412.576L707.916 410.508L710.484 409.443C711.254 409.128 711.953 408.663 712.542 408.075C713.13 407.486 713.595 406.787 713.91 406.017C714.225 405.247 714.383 404.422 714.376 403.591C714.369 402.759 714.196 401.937 713.868 401.173L711.299 394.469C712.932 393.071 714.403 391.495 715.685 389.77L720.071 391.837L722.389 392.652C723.68 393.136 725.087 393.221 726.427 392.897C727.768 392.573 728.98 391.855 729.908 390.835L730.659 389.268L734.043 381.248C734.417 379.923 734.343 378.51 733.833 377.231C733.323 375.951 732.406 374.874 731.223 374.168V374.168ZM699.395 392.965C699.395 392.965 699.395 392.965 698.893 392.965C695.383 394.156 691.698 394.749 687.991 394.719C682.923 394.424 678.038 392.719 673.887 389.797C669.735 386.874 666.483 382.85 664.496 378.178C664.155 377.518 663.882 376.826 663.681 376.111C661.691 369.708 662.154 362.795 664.98 356.715C667.806 350.635 672.792 345.824 678.969 343.217C681.724 342.274 684.587 341.684 687.49 341.462C691.088 341.167 694.706 341.681 698.079 342.966C702.293 344.379 706.056 346.888 708.981 350.234C711.068 352.411 712.726 354.962 713.868 357.753C715.289 361.012 716.04 364.524 716.079 368.079C716.118 371.635 715.442 375.162 714.092 378.451C712.742 381.741 710.746 384.726 708.222 387.23C705.697 389.734 702.695 391.705 699.395 393.028V392.965Z" fill="#9FABF4"/>
<path d="M713.864 358.129C712.722 355.338 711.064 352.787 708.977 350.61C706.052 347.264 702.289 344.755 698.075 343.342C694.702 342.057 691.084 341.543 687.487 341.838C684.583 342.06 681.72 342.65 678.965 343.593C672.789 346.2 667.802 351.011 664.977 357.091C662.151 363.171 661.688 370.084 663.678 376.487C663.878 377.202 664.151 377.894 664.492 378.554C666.479 383.226 669.732 387.25 673.883 390.172C678.034 393.095 682.92 394.8 687.988 395.095C691.694 395.125 695.38 394.532 698.89 393.341C698.89 393.341 698.89 393.341 699.391 393.341C702.684 392.018 705.678 390.049 708.198 387.55C710.717 385.05 712.71 382.072 714.059 378.789C715.408 375.507 716.086 371.988 716.053 368.439C716.019 364.891 715.275 361.385 713.864 358.129V358.129ZM696.822 383.191C696.321 383.191 696.008 383.191 695.757 383.692C692.643 384.987 689.195 385.25 685.92 384.444C681.742 383.724 677.974 381.494 675.331 378.178C674.579 377.136 673.968 375.998 673.515 374.795C672.649 372.738 672.198 370.531 672.186 368.3C672.175 366.068 672.603 363.856 673.447 361.791C674.29 359.725 675.533 357.846 677.104 356.26C678.674 354.675 680.542 353.415 682.599 352.552C684.835 351.754 687.182 351.31 689.554 351.237C693.688 351.531 697.609 353.183 700.707 355.936C702.708 357.785 704.231 360.092 705.145 362.66C706.059 365.227 706.337 367.977 705.955 370.675C705.573 373.373 704.542 375.938 702.952 378.151C701.361 380.363 699.258 382.157 696.822 383.379V383.191Z" fill="#2E1C67"/>
<path d="M757.913 288.77C757.382 287.256 756.575 285.854 755.532 284.634C753.391 281.41 750.205 279.02 746.51 277.868C744.022 276.965 741.386 276.54 738.741 276.614C736.605 276.89 734.504 277.394 732.475 278.118C729.909 279.179 727.591 280.764 725.671 282.77C723.751 284.777 722.27 287.161 721.323 289.772C719.993 293.843 719.993 298.232 721.323 302.303L722.075 303.807C723.704 307.753 726.605 311.043 730.316 313.154C734.028 315.265 738.338 316.077 742.563 315.461C744.165 315.49 745.752 315.147 747.199 314.458H747.513C748.264 314.125 748.961 313.682 749.58 313.142C753.811 310.904 757.029 307.137 758.578 302.608C760.126 298.079 759.889 293.129 757.913 288.77V288.77ZM748.327 305.31C747.49 306.158 746.516 306.857 745.445 307.378C745.445 307.378 744.944 307.378 744.693 307.378C743.361 308.139 741.84 308.508 740.307 308.443C738.282 308.539 736.267 308.111 734.456 307.2C732.644 306.289 731.099 304.926 729.969 303.243C729.342 302.547 728.815 301.766 728.403 300.925C727.363 298.562 727.079 295.936 727.588 293.406C728.009 291.402 728.914 289.532 730.225 287.959C731.536 286.387 733.212 285.159 735.107 284.384C736.786 283.838 738.542 283.563 740.307 283.569C741.725 283.572 743.129 283.849 744.442 284.384C745.869 284.928 747.165 285.767 748.245 286.847C749.324 287.927 750.164 289.222 750.708 290.649C750.708 290.649 751.209 291.15 751.209 291.401C752.193 293.739 752.444 296.32 751.929 298.804C751.415 301.287 750.159 303.556 748.327 305.31V305.31Z" fill="#2E1C67"/>
<path d="M789.49 372.101C789.741 370.987 789.741 369.831 789.49 368.717L793.061 367.151C793.503 366.984 793.907 366.732 794.251 366.408C794.594 366.084 794.87 365.695 795.062 365.264C795.255 364.833 795.36 364.368 795.371 363.896C795.383 363.424 795.3 362.954 795.129 362.515L793.375 358.379C793.155 357.88 792.827 357.436 792.416 357.079C792.004 356.721 791.519 356.459 790.994 356.312C790.328 356.056 789.592 356.056 788.926 356.312V356.312L785.292 357.878C784.6 357.01 783.823 356.212 782.974 355.497L784.29 351.926C784.385 351.492 784.385 351.044 784.29 350.61C784.326 349.903 784.149 349.202 783.78 348.598C783.411 347.994 782.868 347.516 782.222 347.227L777.836 345.41C777.236 345.291 776.619 345.291 776.019 345.41C775.329 345.597 774.702 345.964 774.202 346.475C774.202 346.475 773.701 346.976 773.701 347.227C773.701 347.477 773.388 347.227 773.388 347.728L772.385 349.545L771.884 351.362C770.686 351.11 769.448 351.11 768.25 351.362L766.934 347.728C766.61 346.984 766.061 346.361 765.364 345.945C764.667 345.529 763.858 345.342 763.05 345.41C762.886 345.458 762.712 345.458 762.548 345.41V345.41L758.162 347.227C757.73 347.41 757.339 347.679 757.012 348.016C756.685 348.354 756.429 348.753 756.259 349.192C756.09 349.63 756.01 350.098 756.025 350.567C756.04 351.037 756.149 351.499 756.346 351.926L757.912 355.497C757.599 355.497 757.599 355.497 757.348 356.061C757.097 356.625 756.095 357.314 755.28 357.878L751.646 356.562C751.004 356.254 750.279 356.161 749.58 356.296C748.88 356.432 748.243 356.789 747.762 357.314C747.506 357.62 747.333 357.987 747.261 358.379L745.444 362.515C745.257 362.938 745.156 363.394 745.146 363.857C745.136 364.32 745.218 364.78 745.387 365.211C745.556 365.642 745.808 366.035 746.13 366.368C746.451 366.701 746.836 366.967 747.261 367.151L750.894 368.717V372.351L747.511 373.667C747.086 373.851 746.702 374.117 746.381 374.45C746.059 374.783 745.806 375.176 745.637 375.607C745.469 376.038 745.387 376.498 745.396 376.961C745.406 377.424 745.507 377.88 745.694 378.304L747.511 382.439C747.74 383.048 748.128 383.584 748.635 383.992C749.142 384.4 749.749 384.664 750.393 384.757C750.973 384.863 751.568 384.863 752.148 384.757L755.782 383.191C755.796 383.336 755.859 383.471 755.962 383.574C756.065 383.677 756.201 383.741 756.346 383.755C756.847 384.506 757.599 385.008 758.162 385.822L756.596 389.143C756.31 390.044 756.362 391.018 756.743 391.883C757.124 392.748 757.806 393.444 758.664 393.842L762.799 395.659C763.4 395.766 764.015 395.766 764.616 395.659V395.659C765.162 395.506 765.67 395.243 766.112 394.888C766.553 394.533 766.918 394.092 767.185 393.591L768.751 389.957H772.135V390.459L773.388 393.591C773.825 394.345 774.451 394.971 775.205 395.408C776.149 395.658 777.142 395.658 778.087 395.408L780.405 394.343L781.971 393.842C782.82 393.434 783.494 392.736 783.874 391.875C784.253 391.013 784.311 390.044 784.039 389.143L783.287 387.326L782.473 385.572L784.791 383.191L787.422 384.256L788.425 384.757C789.162 385.033 789.97 385.054 790.72 384.815C791.47 384.577 792.118 384.093 792.56 383.441C792.56 383.441 793.124 382.94 793.124 382.689L794.878 378.554C795.212 377.701 795.218 376.755 794.894 375.898C794.57 375.042 793.939 374.336 793.124 373.918L789.49 372.101ZM784.29 374.67C783.617 376.743 782.509 378.649 781.039 380.259C779.569 381.869 777.772 383.147 775.769 384.005V384.005C772.208 385.377 768.253 385.307 764.743 383.81C761.233 382.312 758.445 379.505 756.972 375.985C756.912 375.589 756.738 375.219 756.471 374.92C755.422 371.382 755.711 367.582 757.282 364.243C758.853 360.904 761.597 358.26 764.992 356.813C766.511 356.366 768.06 356.031 769.628 355.81C771.554 355.797 773.473 356.05 775.33 356.562C775.33 356.562 775.894 356.562 776.145 356.562C779.689 358.193 782.533 361.038 784.164 364.582C785.382 367.827 785.426 371.396 784.29 374.67V374.67Z" fill="#9FABF4"/>
<path d="M783.787 364.833C782.157 361.288 779.312 358.444 775.768 356.813C775.768 356.813 775.204 356.813 774.953 356.813C773.096 356.301 771.178 356.048 769.251 356.061C767.684 356.282 766.134 356.617 764.615 357.064C761.22 358.51 758.476 361.155 756.905 364.494C755.334 367.833 755.045 371.633 756.094 375.171C756.361 375.47 756.535 375.84 756.595 376.236C758.068 379.756 760.856 382.563 764.366 384.06C767.876 385.558 771.831 385.628 775.392 384.256V384.256C777.396 383.397 779.193 382.12 780.662 380.51C782.132 378.9 783.24 376.994 783.913 374.92C785.049 371.646 785.005 368.078 783.787 364.833ZM774.201 378.805C774.039 378.748 773.862 378.748 773.7 378.805C771.756 379.547 769.627 379.649 767.621 379.097C765.615 378.545 763.838 377.367 762.547 375.735C762.547 375.234 761.795 374.419 761.482 373.918C760.542 371.564 760.56 368.935 761.531 366.594C762.503 364.252 764.352 362.384 766.683 361.387C767.794 360.788 769.076 360.589 770.317 360.823C771.365 360.835 772.403 361.026 773.387 361.387C774.622 361.78 775.754 362.445 776.697 363.335C777.641 364.224 778.372 365.314 778.838 366.524C779.788 368.775 779.836 371.305 778.973 373.591C778.11 375.877 776.402 377.743 774.201 378.805V378.805Z" fill="#2E1C67"/>
<path d="M97.1516 389.957V425.671C96.9638 427.91 95.9419 429.996 94.2882 431.517C92.6346 433.038 90.4699 433.882 88.2232 433.882C85.9765 433.882 83.8119 433.038 82.1583 431.517C80.5046 429.996 79.4826 427.91 79.2949 425.671V389.957C79.4826 387.719 80.5046 385.632 82.1583 384.111C83.8119 382.59 85.9765 381.746 88.2232 381.746C90.4699 381.746 92.6346 382.59 94.2882 384.111C95.9419 385.632 96.9638 387.719 97.1516 389.957V389.957Z" fill="#FFAE2C"/>
<path d="M129.294 357.064V417.4C129.397 418.619 129.246 419.845 128.85 421.003C128.454 422.16 127.823 423.222 126.995 424.122C126.168 425.022 125.162 425.741 124.043 426.233C122.923 426.724 121.714 426.978 120.491 426.978C119.268 426.978 118.059 426.724 116.939 426.233C115.819 425.741 114.814 425.022 113.987 424.122C113.159 423.222 112.527 422.16 112.132 421.003C111.736 419.845 111.585 418.619 111.688 417.4V357.064C111.874 354.857 112.882 352.801 114.513 351.303C116.143 349.804 118.277 348.973 120.491 348.973C122.705 348.973 124.839 349.804 126.469 351.303C128.099 352.801 129.108 354.857 129.294 357.064V357.064Z" fill="#2E1C67"/>
<path d="M161.624 404.431V425.671C161.436 427.91 160.414 429.996 158.761 431.517C157.107 433.038 154.942 433.882 152.696 433.882C150.449 433.882 148.284 433.038 146.631 431.517C144.977 429.996 143.955 427.91 143.767 425.671V404.431C143.664 403.195 143.818 401.952 144.219 400.779C144.621 399.606 145.262 398.53 146.101 397.617C146.94 396.705 147.96 395.976 149.095 395.478C150.23 394.98 151.456 394.723 152.696 394.723C153.935 394.723 155.162 394.98 156.297 395.478C157.432 395.976 158.451 396.705 159.291 397.617C160.13 398.53 160.77 399.606 161.172 400.779C161.574 401.952 161.728 403.195 161.624 404.431V404.431Z" fill="#FFAE2C"/>
<path d="M193.704 368.216V417.4C193.807 418.619 193.656 419.845 193.26 421.002C192.865 422.159 192.233 423.222 191.406 424.122C190.578 425.022 189.573 425.741 188.453 426.233C187.334 426.724 186.124 426.978 184.901 426.978C183.678 426.978 182.469 426.724 181.349 426.233C180.23 425.741 179.224 425.022 178.397 424.122C177.569 423.222 176.938 422.159 176.542 421.002C176.147 419.845 175.995 418.619 176.098 417.4V368.216C175.995 366.998 176.147 365.771 176.542 364.614C176.938 363.457 177.569 362.395 178.397 361.495C179.224 360.594 180.23 359.876 181.349 359.384C182.469 358.892 183.678 358.638 184.901 358.638C186.124 358.638 187.334 358.892 188.453 359.384C189.573 359.876 190.578 360.594 191.406 361.495C192.233 362.395 192.865 363.457 193.26 364.614C193.656 365.771 193.807 366.998 193.704 368.216V368.216Z" fill="#2E1C67"/>
<path d="M219.58 113.273V195.601C219.379 196.912 218.878 198.159 218.118 199.245C217.357 200.332 216.357 201.229 215.194 201.867C214.718 202.285 214.192 202.643 213.628 202.932C212.945 203.403 212.139 203.664 211.31 203.684H210.558L189.318 202.932L169.644 202.368C168.179 202.323 166.771 201.795 165.637 200.865C164.504 199.936 163.71 198.658 163.379 197.23C163.263 196.715 163.263 196.18 163.379 195.664V184.511L162.627 154.75L161.875 129.688L160.559 114.651V113.899C160.873 113.085 161.123 112.333 161.374 111.581C161.797 110.897 162.326 110.283 162.94 109.764C162.94 109.2 162.94 109.2 162.94 109.2C164.612 107.523 166.842 106.52 169.206 106.381H212.438C213.373 106.309 214.312 106.436 215.194 106.754C216.076 107.071 216.881 107.572 217.556 108.223C218.231 108.874 218.76 109.661 219.109 110.531C219.458 111.401 219.619 112.336 219.58 113.273V113.273Z" fill="#463ABF"/>
<path d="M217.262 114.651V197.168C217.38 198.46 217.093 199.757 216.442 200.879C215.792 202.001 214.808 202.894 213.628 203.433C212.945 203.904 212.14 204.166 211.31 204.185H167.452C166.566 204.194 165.687 204.026 164.867 203.693C164.046 203.36 163.3 202.867 162.671 202.244C162.041 201.621 161.542 200.879 161.201 200.061C160.86 199.244 160.685 198.367 160.685 197.481V114.087C160.998 113.273 161.249 112.521 161.499 111.769C161.923 111.085 162.451 110.471 163.066 109.952C163.066 109.952 163.066 109.952 163.567 109.952C164.686 109.112 166.053 108.671 167.452 108.699H210.684C211.507 108.657 212.33 108.777 213.106 109.054C213.883 109.33 214.597 109.757 215.208 110.31C215.819 110.863 216.315 111.531 216.668 112.276C217.02 113.021 217.222 113.828 217.262 114.651Z" fill="#2E1C67"/>
<path d="M212.061 113.962H165.759C163.544 113.962 161.749 115.757 161.749 117.972V194.16C161.749 196.375 163.544 198.17 165.759 198.17H212.061C214.276 198.17 216.071 196.375 216.071 194.16V117.972C216.071 115.757 214.276 113.962 212.061 113.962Z" fill="#F2F2F2"/>
<path d="M195.834 112.145C196.353 112.145 196.774 111.724 196.774 111.205C196.774 110.686 196.353 110.265 195.834 110.265C195.315 110.265 194.895 110.686 194.895 111.205C194.895 111.724 195.315 112.145 195.834 112.145Z" fill="#F2F2F2"/>
<path d="M193.201 110.704H179.73C179.419 110.704 179.166 110.942 179.166 111.236C179.166 111.531 179.419 111.769 179.73 111.769H193.201C193.512 111.769 193.765 111.531 193.765 111.236C193.765 110.942 193.512 110.704 193.201 110.704Z" fill="#F2F2F2"/>
<path d="M501.654 246.227V377.802C501.654 384.82 492.82 396.599 484.737 400.797C483.188 401.808 481.469 402.53 479.662 402.927C479.544 402.979 479.416 403.006 479.286 403.006C479.157 403.006 479.029 402.979 478.91 402.927L457.921 401.361H453.535L430.227 399.544H426.092L353.663 394.093C349.502 394.131 345.486 392.563 342.452 389.716C339.417 386.868 337.598 382.96 337.372 378.805V377.802V374.168L332.485 299.609V295.474L331.984 287.704L329.353 250.738C329.427 250.11 329.596 249.498 329.854 248.921C331.42 240.087 345.643 229.748 354.227 229.748H485.802C490.084 229.847 494.154 231.635 497.123 234.722C500.093 237.808 501.721 241.944 501.654 246.227V246.227Z" fill="#2E1C67"/>
<path d="M492.129 255.625V387.201C492.172 390.872 490.95 394.445 488.668 397.321C486.386 400.196 483.183 402.198 479.598 402.99C479.48 403.041 479.352 403.068 479.222 403.068C479.093 403.068 478.965 403.041 478.846 402.99C477.891 403.128 476.92 403.128 475.964 402.99H344.389C342.247 402.998 340.125 402.582 338.145 401.767C336.165 400.951 334.365 399.751 332.851 398.237C331.337 396.723 330.137 394.923 329.321 392.943C328.506 390.963 328.09 388.841 328.098 386.699V255.124C328.103 253.548 328.357 251.984 328.85 250.487C328.925 249.86 329.094 249.247 329.351 248.67C330.63 245.746 332.734 243.259 335.405 241.512C338.075 239.765 341.197 238.834 344.389 238.833H475.964C478.138 238.841 480.289 239.284 482.288 240.139C484.287 240.993 486.094 242.24 487.602 243.807C489.11 245.373 490.288 247.226 491.065 249.256C491.843 251.286 492.205 253.452 492.129 255.625Z" fill="#9FABF4"/>
<path d="M443.76 365.271L407.044 362.765C405.283 362.765 403.594 362.066 402.348 360.82C401.103 359.574 400.403 357.885 400.403 356.124L395.265 316.588C395.265 312.892 403.348 308.819 407.044 308.819H447.645C448.522 308.819 449.391 308.993 450.201 309.331C451.011 309.668 451.746 310.163 452.363 310.787C452.981 311.41 453.469 312.149 453.799 312.962C454.129 313.775 454.294 314.646 454.286 315.523V356.124C454.286 359.82 447.457 365.271 443.76 365.271Z" fill="white"/>
<path d="M442.254 312.077H401.591C397.923 312.077 394.95 315.051 394.95 318.719V359.382C394.95 363.05 397.923 366.023 401.591 366.023H442.254C445.922 366.023 448.896 363.05 448.896 359.382V318.719C448.896 315.051 445.922 312.077 442.254 312.077Z" fill="#F8A82A"/>
<path d="M440.001 351.487H427.657C426.066 351.487 424.775 352.778 424.775 354.369C424.775 355.961 426.066 357.252 427.657 357.252H440.001C441.592 357.252 442.883 355.961 442.883 354.369C442.883 352.778 441.592 351.487 440.001 351.487Z" fill="white"/>
<path d="M424.024 308.882H419.763V273.983L388.937 257.442C388.597 257.276 388.31 257.018 388.111 256.696C387.911 256.375 387.806 256.003 387.809 255.625V239.335H392.07V254.309L422.896 270.85C423.237 271.032 423.522 271.303 423.72 271.634C423.919 271.965 424.024 272.344 424.024 272.73V308.882Z" fill="white"/>
<path d="M441.88 308.882H437.683V272.73C437.683 272.344 437.788 271.965 437.986 271.634C438.185 271.303 438.47 271.032 438.81 270.85L469.637 254.309V239.335H473.897V255.625C473.9 256.003 473.795 256.375 473.596 256.696C473.396 257.018 473.11 257.276 472.769 257.442L441.88 273.983V308.882Z" fill="white"/>
<path d="M492.194 353.618H481.543C481.109 353.612 480.688 353.469 480.339 353.211C479.99 352.952 479.732 352.59 479.601 352.176L472.771 332.691H453.975V328.43H473.962C474.409 328.412 474.849 328.544 475.212 328.805C475.576 329.067 475.841 329.442 475.967 329.871L482.796 349.357H491.881L492.194 353.618Z" fill="white"/>
<path d="M492.191 376.612H473.395C472.992 376.618 472.595 376.509 472.251 376.298C471.908 376.087 471.631 375.783 471.453 375.422L461.616 355.685H454.285V351.487H462.806C463.192 351.487 463.571 351.592 463.902 351.791C464.233 351.989 464.504 352.274 464.686 352.615L474.585 372.351H492.191V376.612Z" fill="white"/>
<path d="M395.329 335.072V339.207H363.5C363.066 339.251 362.629 339.153 362.256 338.927C361.883 338.701 361.594 338.359 361.432 337.954L347.961 299.859H328.037V295.724H349.528C349.959 295.736 350.38 295.864 350.744 296.096C351.108 296.327 351.402 296.654 351.595 297.04L352.848 300.925L365.379 335.072H395.329Z" fill="white"/>
<path d="M395.078 357.064V361.449H362.936L354.916 377.802C354.784 378.176 354.537 378.499 354.211 378.724C353.885 378.949 353.495 379.065 353.099 379.055H328.037V374.67H351.846L359.866 358.63C359.995 358.25 360.24 357.919 360.565 357.683C360.891 357.448 361.281 357.319 361.683 357.314L395.078 357.064Z" fill="white"/>
<path d="M430.226 387.639V403.679H426.091V388.892L407.295 380.121C406.682 379.598 406.3 378.855 406.229 378.053V365.898H410.365V376.737L429.537 385.572C429.976 385.822 430.226 386.574 430.226 387.639Z" fill="white"/>
<path d="M457.919 387.639V403.679H453.533V388.892L434.737 380.121C434.362 379.913 434.046 379.615 433.816 379.254C433.587 378.893 433.451 378.48 433.421 378.053V365.898H437.556V376.737L456.729 385.572C457.122 385.743 457.451 386.037 457.665 386.409C457.879 386.781 457.968 387.213 457.919 387.639V387.639Z" fill="white"/>
<path fill-rule="evenodd" clip-rule="evenodd" d="M412.747 306.125L394.827 277.554C394.577 277.146 394.249 276.791 393.861 276.51C393.473 276.23 393.034 276.028 392.568 275.917C392.103 275.807 391.62 275.789 391.147 275.866C390.674 275.943 390.222 276.112 389.815 276.364C389.001 276.879 388.425 277.697 388.213 278.637C388.002 279.577 388.172 280.562 388.687 281.376L404.852 307.19C404.178 307.813 403.642 308.569 403.275 309.411C402.908 310.252 402.72 311.16 402.722 312.077C402.631 313.025 402.739 313.981 403.039 314.884C403.339 315.788 403.825 316.618 404.465 317.323C405.105 318.028 405.885 318.591 406.756 318.976C407.626 319.361 408.568 319.56 409.52 319.56C410.472 319.56 411.413 319.361 412.284 318.976C413.154 318.591 413.934 318.028 414.575 317.323C415.215 316.618 415.7 315.788 416.001 314.884C416.301 313.981 416.409 313.025 416.318 312.077C416.296 310.859 415.955 309.668 415.328 308.624C414.701 307.579 413.811 306.717 412.747 306.125V306.125Z" fill="#2E1C67"/>
<path d="M550.084 647.219C549.065 653.642 546.511 659.724 542.639 664.949C538.767 670.174 533.691 674.387 527.842 677.231C520.695 680.431 512.798 681.581 505.035 680.552C498.124 679.538 491.615 676.673 486.199 672.261C480.783 667.849 476.662 662.054 474.272 655.49C471.656 649.195 470.832 642.299 471.891 635.565C472.158 634.248 472.514 632.95 472.956 631.681C475.026 622.52 480.488 614.484 488.244 609.187C496.455 603.244 506.656 600.727 516.689 602.17C524.789 603.426 532.301 607.161 538.191 612.86C544.082 618.56 548.061 625.945 549.583 633.999C550.53 638.341 550.7 642.817 550.084 647.219V647.219Z" fill="#2E1C67"/>
<path d="M544.384 650.54C543.062 659.116 538.956 667.018 532.698 673.03C526.441 679.041 518.379 682.826 509.757 683.802C501.135 684.779 492.432 682.891 484.989 678.431C477.546 673.971 471.776 667.187 468.571 659.124C465.951 652.829 465.148 645.927 466.253 639.199C467.849 628.882 473.43 619.604 481.795 613.359C490.161 607.114 500.643 604.401 510.988 605.804C519.079 606.946 526.615 610.574 532.553 616.186C538.491 621.799 542.537 629.118 544.133 637.132C544.867 641.565 544.951 646.082 544.384 650.54V650.54Z" fill="#9FABF4"/>
<path d="M494.449 666.893C493.816 666.772 493.22 666.505 492.709 666.114C492.198 665.722 491.785 665.217 491.504 664.637L483.672 648.096C483.224 647.133 483.176 646.03 483.541 645.032C483.905 644.033 484.651 643.22 485.614 642.771C486.086 642.538 486.6 642.402 487.125 642.371C487.65 642.34 488.177 642.414 488.673 642.589C489.169 642.764 489.625 643.037 490.014 643.391C490.404 643.745 490.718 644.173 490.94 644.65L496.328 656.054L522.267 629.989C522.621 629.552 523.062 629.193 523.563 628.937C524.064 628.681 524.613 628.534 525.175 628.504C525.736 628.474 526.298 628.563 526.823 628.764C527.348 628.965 527.825 629.275 528.223 629.673C528.62 630.07 528.93 630.547 529.131 631.072C529.333 631.598 529.421 632.159 529.392 632.721C529.362 633.283 529.214 633.832 528.958 634.333C528.702 634.833 528.344 635.275 527.906 635.628L497.895 666.016C497.422 666.409 496.867 666.692 496.271 666.844C495.674 666.995 495.052 667.012 494.449 666.893V666.893Z" fill="white"/>
<path opacity="0.1" fill-rule="evenodd" clip-rule="evenodd" d="M416.005 306.501C415.95 308.554 415.337 310.554 414.234 312.286C413.13 314.019 411.577 315.419 409.74 316.338C405.228 333.693 400.968 348.542 396.77 360.948C394.155 369.024 391.101 376.951 387.622 384.694C384.989 391.41 381.216 397.621 376.47 403.052C374.462 404.306 372.369 405.415 370.204 406.373C370.23 406.79 370.23 407.209 370.204 407.626C358.663 415.792 346.538 423.101 333.927 429.493C331.79 453.927 335.661 478.513 345.205 501.107C344.453 501.546 343.639 501.859 342.824 502.235C356.667 529.764 365.815 559.41 369.891 589.952C370.674 619.123 369.355 648.312 365.944 677.294C358.613 677.294 351.22 676.918 343.639 676.166C339.67 649.859 337.098 623.361 335.932 596.782C330.105 588.511 324.905 580.554 320.143 572.785C320.143 579.99 319.642 587.258 319.454 594.401C316.317 619.643 311.354 644.624 304.604 669.148C296.522 667.081 288.377 664.7 280.294 661.943C281.109 635.628 282.55 613.636 284.805 595.905C273.107 572.375 265.864 546.884 263.44 520.719C263.127 518.463 263.001 516.207 262.876 514.015C260.992 512.985 259.191 511.812 257.488 510.506C261.122 455.808 241.198 406.373 252.977 392.526C262.095 387.312 271.997 383.609 282.299 381.562C283.687 380.28 284.802 378.732 285.577 377.009C286.352 375.287 286.772 373.425 286.81 371.537C286.237 371.254 285.692 370.918 285.181 370.534C283.491 364.525 280.044 359.158 275.282 355.121C273.953 352.518 273.024 349.73 272.525 346.851C271.962 343.891 272.206 340.834 273.232 338.001C274.257 335.168 276.025 332.663 278.352 330.748C278.623 329.313 279.185 327.949 280.006 326.74C280.826 325.531 281.886 324.504 283.12 323.723C284.354 322.941 285.736 322.422 287.179 322.197C288.622 321.972 290.096 322.046 291.51 322.415C295.335 320.468 299.617 319.597 303.899 319.895C308.181 320.193 312.301 321.649 315.82 324.107C320.957 328.242 322.085 334.821 319.391 343.718C318.443 344.824 317.347 345.794 316.133 346.6C316.221 349.698 316.075 352.798 315.694 355.873C315.257 360.278 313.913 364.544 311.747 368.404C310.661 369.578 309.342 370.512 307.875 371.149C306.408 371.785 304.825 372.109 303.226 372.101C303.896 375.178 305.39 378.016 307.549 380.309H307.236C315.77 381.02 324.186 382.766 332.298 385.509C332.298 385.509 332.298 385.509 332.298 385.509C334.115 384.82 335.932 384.256 337.749 383.692C344.829 381.248 352.097 378.93 359.553 376.8C359.941 377.188 360.297 377.607 360.618 378.053C362.283 377.4 363.813 376.444 365.129 375.233L365.505 374.482C366.508 372.853 367.51 370.91 368.638 368.968C371.771 363.454 375.655 356.938 380.041 349.545C386.307 339.144 393.7 326.738 402.346 312.516C401.093 308.443 400.78 304.12 402.91 303.807C405.041 303.493 405.041 307.065 405.918 306.376C406.559 305.48 407.002 304.458 407.218 303.378C407.434 302.297 407.418 301.184 407.171 300.11C406.482 297.917 416.506 298.92 416.005 306.501Z" fill="black"/>
<path fill-rule="evenodd" clip-rule="evenodd" d="M235.619 445.219C228.622 484.859 232.409 525.65 246.584 563.324C238.434 604.354 232.826 645.848 229.792 687.569L240.255 690.639C263.772 628.652 277.431 586.882 281.232 565.329C285.43 529.428 292.76 492.586 283.174 457.186L235.619 445.219Z" fill="#2E1C67"/>
<path fill-rule="evenodd" clip-rule="evenodd" d="M230.233 679.674C227.982 681.111 226.289 683.272 225.435 685.802C224.58 688.331 224.615 691.077 225.534 693.584C228.792 696.591 261.498 703.045 267.262 700.852C273.528 694.586 250.471 693.333 242.701 682.933C238.403 682.49 234.198 681.391 230.233 679.674Z" fill="#F8A82A"/>
<path fill-rule="evenodd" clip-rule="evenodd" d="M397.207 296.351C380.499 343.05 366.694 370.91 355.792 379.933C353.724 381.311 350.842 381.624 348.586 382.94C335.657 390.923 322.075 397.798 307.986 403.491L310.492 359.632C320.517 357.064 331.293 356.312 341.82 354.307C343.685 353.798 345.431 352.925 346.957 351.738C355.729 339.207 370.014 319.533 389.939 292.717L397.207 296.351Z" fill="#FFD3A4"/>
<path fill-rule="evenodd" clip-rule="evenodd" d="M258.302 455.62C258.762 486.321 271.794 524.123 297.399 569.026C295.734 610.814 296.676 652.665 300.219 694.336L310.995 695.714C324.529 630.845 331.483 587.384 331.859 565.329C330.325 529.242 321.814 493.795 306.797 460.946L258.302 455.62Z" fill="#2E1C67"/>
<path fill-rule="evenodd" clip-rule="evenodd" d="M299.34 686.504C297.304 688.249 295.94 690.648 295.483 693.29C295.026 695.931 295.503 698.65 296.833 700.977C300.53 703.421 333.8 704.737 339.188 701.667C344.702 694.649 321.457 696.842 312.121 687.757C307.821 688.032 303.505 687.609 299.34 686.504V686.504Z" fill="#F8A82A"/>
<path fill-rule="evenodd" clip-rule="evenodd" d="M233.739 357.878C220.644 370.409 235.869 421.661 227.474 475.795C243.137 491.542 272.544 491.187 315.692 474.73C298.9 418.34 318.323 396.474 313.624 358.442C301.168 352.486 287.552 349.347 273.745 349.25C259.938 349.152 246.279 352.098 233.739 357.878V357.878Z" fill="#FFA015"/>
<path fill-rule="evenodd" clip-rule="evenodd" d="M286.684 332.002C281.087 330.19 275.142 329.718 269.329 330.623C270.958 339.645 269.329 345.974 264.066 349.42C267.915 351.405 272.147 352.533 276.474 352.728C280.8 352.923 285.116 352.179 289.128 350.547C287.305 347.86 286.135 344.783 285.711 341.564C285.287 338.344 285.62 335.07 286.684 332.002V332.002Z" fill="#FFD3A4"/>
<path fill-rule="evenodd" clip-rule="evenodd" d="M301.218 303.055L271.332 301.489L265.442 330.435C277.973 342.34 287.727 345.326 294.702 339.395C299.903 332.44 302.096 320.285 301.218 303.055Z" fill="#FFD3A4"/>
<path fill-rule="evenodd" clip-rule="evenodd" d="M302.661 295.599C299.385 292.843 295.424 291.027 291.199 290.343C286.973 289.659 282.641 290.133 278.664 291.714C277.293 291.199 275.831 290.974 274.369 291.053C272.907 291.132 271.477 291.513 270.17 292.173C268.863 292.832 267.707 293.756 266.775 294.885C265.843 296.013 265.155 297.323 264.754 298.732C257.236 304.371 255.419 312.328 259.429 322.666C263.8 327.155 266.724 332.851 267.825 339.019C269.813 341.049 272.39 342.402 275.19 342.885C277.99 343.369 280.872 342.959 283.426 341.713C285.12 340.629 286.438 339.048 287.2 337.186C287.963 335.325 288.133 333.274 287.686 331.312C286.471 329.929 285.725 328.196 285.556 326.363C286.621 324.295 287.686 323.731 288.751 324.546C289.641 325.291 290.276 326.295 290.568 327.418C290.86 328.541 290.794 329.727 290.38 330.811C291.083 330.573 291.698 330.129 292.145 329.537C292.592 328.945 292.85 328.231 292.887 327.49C293.543 325.219 293.543 322.807 292.887 320.536C297.256 320.497 301.446 318.794 304.603 315.774C308.237 307.002 307.59 300.277 302.661 295.599Z" fill="black"/>
<path fill-rule="evenodd" clip-rule="evenodd" d="M390.377 292.466C389.562 288.331 389.625 284.008 391.755 283.882C393.885 283.757 393.572 287.328 394.575 286.765C395.286 285.898 395.815 284.896 396.127 283.819C396.439 282.741 396.529 281.612 396.392 280.499C395.765 278.306 405.664 280.499 404.411 287.767C404.17 289.808 403.369 291.742 402.097 293.356C400.826 294.97 399.133 296.202 397.206 296.915L390.377 292.466Z" fill="#FFD3A4"/>
<path fill-rule="evenodd" clip-rule="evenodd" d="M349.276 384.068C336.064 391.69 322.255 398.228 307.986 403.616L310.492 359.758C320.517 357.189 330.855 354.933 341.82 352.866C347.396 359.57 348.9 374.106 349.276 384.068Z" fill="#FFA015"/>
<defs>
<linearGradient id="paint0_linear" x1="421.517" y1="105.316" x2="296.834" y2="473.289" gradientUnits="userSpaceOnUse">
<stop stop-color="white"/>
<stop offset="0.03" stop-color="#F6F6F6"/>
<stop offset="0.24" stop-color="#ACACAC"/>
<stop offset="0.44" stop-color="#6F6F6F"/>
<stop offset="0.62" stop-color="#3F3F3F"/>
<stop offset="0.78" stop-color="#1D1D1D"/>
<stop offset="0.91" stop-color="#080808"/>
<stop offset="1"/>
</linearGradient>
</defs>
</svg>
