<svg width="827" height="701" viewBox="0 0 827 701" fill="none" xmlns="http://www.w3.org/2000/svg">
<path d="M61.2509 438.523C64.2803 443.023 66.2733 448.139 67.0859 453.502C67.8985 458.866 67.5105 464.342 65.95 469.538C59.6845 496.793 101.601 470.853 115.51 501.241C129.42 531.629 123.279 545.977 140.071 556.064C156.863 566.152 186.06 552.618 237.5 642.09C246.334 647.415 231.234 672.916 222.086 667.528C155.609 668.718 107.678 661.889 107.616 629.934C108.098 622.461 106.223 615.025 102.255 608.675C98.2869 602.324 92.4261 597.378 85.4983 594.534C76.7266 589.773 65.6994 586.076 53.7949 581.126C23.9084 568.595 38.3191 539.837 40.0734 517.218C41.8278 494.6 -7.48171 495.978 0.97672 469.913C9.43515 443.849 11.9413 427.245 34.1838 426.807C39.3019 426.468 44.4272 427.354 49.1344 429.391C53.8416 431.429 57.9953 434.56 61.2509 438.523V438.523Z" fill="#CBD5F7"/>
<path d="M239.567 660.698C239.121 661.449 238.42 662.014 237.591 662.29C236.763 662.566 235.863 662.535 235.056 662.202C228.163 659.32 65.8868 590.9 35.3737 471.104C35.1442 470.166 35.291 469.175 35.7828 468.343C36.2746 467.512 37.0723 466.906 38.0052 466.655C38.9521 466.428 39.9505 466.583 40.7834 467.088C41.6163 467.592 42.2166 468.405 42.4538 469.35C71.9643 585.575 236.183 654.746 237.875 655.435C238.315 655.62 238.715 655.89 239.051 656.229C239.387 656.569 239.653 656.971 239.833 657.413C240.014 657.856 240.105 658.329 240.102 658.807C240.1 659.284 240.003 659.757 239.817 660.197C239.759 660.376 239.675 660.545 239.567 660.698V660.698Z" fill="white"/>
<path d="M242.574 356.884C246.377 368.188 248.96 379.867 250.281 391.72C256.045 434.889 225.595 418.16 244.391 428.311C263.188 438.461 211.372 465.904 219.329 481.129C220.405 482.842 221.904 484.249 223.682 485.215C225.46 486.181 227.456 486.672 229.479 486.642V486.642C240.005 487.958 255.794 484.7 268.827 489.713C269.997 490.115 271.113 490.662 272.147 491.342C277.544 494.088 281.932 498.476 284.678 503.873C291.32 516.404 284.365 528.559 272.837 542.781C266.571 550.112 259.428 558.195 252.16 567.092C251.409 567.969 250.657 568.846 250.03 569.723C247.461 572.793 244.83 575.989 242.512 579.56C238.478 584.69 234.834 590.114 231.61 595.788C230.356 598.168 229.103 600.549 227.85 603.118C227.434 603.774 227.077 604.466 226.785 605.186C224.868 609.08 223.214 613.099 221.835 617.216C220.833 619.972 220.018 622.98 219.204 625.925C218.484 628.574 217.431 631.121 216.071 633.506C215.463 634.964 214.568 636.285 213.44 637.391C212.298 638.637 210.78 639.473 209.116 639.771C207.795 640.001 206.437 639.894 205.169 639.458C203.06 638.848 201.084 637.85 199.342 636.513V636.2C195.458 632.566 167.2 604.873 159.431 568.157C158.992 566.026 158.303 563.959 157.802 561.891C151.536 545.1 138.191 535.827 124.469 527.243L114.946 520.977C108.89 517.075 103.335 512.446 98.4048 507.193C95.2879 503.621 92.7125 499.61 90.7609 495.289C89.5548 492.732 88.529 490.094 87.6909 487.394C87.4929 486.421 87.2419 485.459 86.939 484.512C85.1221 475.866 88.3175 472.42 94.0817 471.981C111.249 469.412 150.471 490.026 154.356 474.55C158.24 459.074 131.048 455.754 112.377 446.543C108.548 445.086 105.105 442.769 102.313 439.771C99.5214 436.773 97.4554 433.173 96.2746 429.25C90.6983 402.685 122.652 415.153 138.755 373.989C154.857 332.824 128.479 302.938 145.02 282.45C161.561 261.961 165.133 345.794 171.899 326.308C178.666 306.822 191.134 322.925 193.829 343.476C196.523 364.027 189.192 386.52 210.683 355.255C225.407 333.764 235.745 338.213 242.574 356.884Z" fill="#C4CCF2"/>
<path d="M124.219 504.123C125.723 502.745 128.417 501.68 133.179 504.123C139.053 507.012 144.511 510.679 149.406 515.025L153.667 518.972C156.611 522.087 159.913 524.842 163.504 527.18C170.678 531.208 178.976 532.771 187.125 531.629C188.641 527.529 189.917 523.345 190.947 519.098C194.064 501.906 191.605 484.168 183.929 468.473C181.059 462.024 177.817 455.748 174.218 449.676C169.819 450.615 165.271 450.615 160.872 449.676C155.003 447.433 149.835 443.67 145.898 438.774L142.89 435.704C138.534 431.447 133.573 427.858 128.166 425.052C126.036 423.987 123.154 423.173 121.901 424.426C121.446 424.862 120.84 425.106 120.209 425.106C119.579 425.106 118.973 424.862 118.518 424.426C118.085 423.981 117.843 423.386 117.843 422.766C117.843 422.145 118.085 421.55 118.518 421.105C121.024 418.16 125.347 418.035 130.422 420.667C136.24 423.664 141.582 427.506 146.274 432.07L149.406 435.265C152.755 439.55 157.19 442.86 162.251 444.852C165.331 445.479 168.506 445.479 171.586 444.852C168.871 440.466 166.177 436.142 163.504 431.882C161.374 428.624 159.285 425.366 157.238 422.108C153.932 417.335 151.454 412.04 149.908 406.444C147.213 394.539 152.163 382.886 157.928 370.981C158.062 370.696 158.251 370.44 158.485 370.229C158.719 370.017 158.992 369.854 159.29 369.749C159.587 369.645 159.902 369.6 160.217 369.618C160.531 369.635 160.839 369.716 161.123 369.853C161.677 370.148 162.096 370.644 162.294 371.238C162.492 371.833 162.454 372.481 162.188 373.049C156.8 384.139 152.163 394.978 154.544 405.379C155.982 410.456 158.247 415.261 161.248 419.602L167.514 429.376C172.213 436.769 176.975 444.35 181.361 452.245C183.377 450.944 185.113 449.255 186.469 447.276C187.824 445.296 188.772 443.066 189.255 440.716C189.834 436.944 190.002 433.121 189.756 429.313V426.556C189.39 421.305 190.204 416.039 192.137 411.143C194.437 406.534 197.945 402.636 202.287 399.865C203.827 398.905 205.44 398.067 207.112 397.359C209.454 396.587 211.594 395.302 213.377 393.6C213.557 393.342 213.788 393.124 214.055 392.959C214.322 392.794 214.62 392.684 214.93 392.637C215.241 392.59 215.558 392.607 215.861 392.686C216.165 392.766 216.45 392.906 216.698 393.098C216.953 393.279 217.17 393.509 217.337 393.774C217.503 394.039 217.616 394.334 217.668 394.642C217.72 394.95 217.711 395.266 217.642 395.571C217.572 395.876 217.443 396.164 217.262 396.419C215.025 398.807 212.256 400.632 209.179 401.745C207.766 402.318 206.404 403.01 205.107 403.812C201.459 406.077 198.509 409.309 196.586 413.148C194.934 417.392 194.27 421.955 194.643 426.494V429.188C194.93 433.373 194.741 437.577 194.08 441.719C193.462 444.762 192.241 447.649 190.486 450.211C188.732 452.773 186.481 454.956 183.867 456.631C185.496 459.763 187.062 462.896 188.441 466.217C196.565 482.826 199.135 501.606 195.771 519.787C194.612 524.534 193.147 529.201 191.385 533.759C191.421 534.029 191.421 534.303 191.385 534.574C188.663 541.106 186.952 548.014 186.31 555.062C186.215 557.366 186.341 559.674 186.686 561.954C190.236 559.604 194.067 557.709 198.089 556.315L200.596 555.312C214.288 550.337 226.032 541.117 234.116 528.997C235.244 527.118 236.246 525.175 237.249 523.17C239.584 517.863 242.949 513.071 247.148 509.073C247.385 508.855 247.663 508.687 247.965 508.58C248.268 508.472 248.59 508.427 248.911 508.447C249.231 508.467 249.545 508.551 249.832 508.696C250.119 508.84 250.374 509.041 250.582 509.286C250.789 509.532 250.945 509.817 251.039 510.124C251.133 510.431 251.164 510.755 251.13 511.074C251.096 511.394 250.998 511.703 250.841 511.984C250.685 512.264 250.473 512.51 250.218 512.707C246.529 516.279 243.571 520.535 241.509 525.238C240.444 527.306 239.379 529.373 238.189 531.503C231.719 541.656 222.656 549.897 211.936 555.375C208.823 557.029 205.623 558.514 202.35 559.824L199.844 560.826C195.476 562.187 191.382 564.308 187.751 567.092C187.751 567.092 187.751 567.092 187.751 567.092C188.253 569.723 188.816 572.355 189.443 574.923L195.709 601.113C196.978 607.123 198.76 613.013 201.034 618.719C204.04 625.531 208.495 631.605 214.09 636.518C219.685 641.431 226.284 645.064 233.427 647.165C234.033 647.339 234.545 647.748 234.851 648.3C235.156 648.852 235.23 649.503 235.056 650.109C234.977 650.414 234.837 650.7 234.644 650.949C234.451 651.198 234.209 651.405 233.934 651.557C233.658 651.71 233.354 651.804 233.041 651.836C232.728 651.867 232.411 651.834 232.111 651.739C224.27 649.425 217.032 645.421 210.905 640.008C204.778 634.596 199.912 627.907 196.648 620.411C194.231 614.433 192.364 608.246 191.072 601.928L184.807 575.801C182.826 568.851 181.814 561.661 181.799 554.435C182.284 548 183.698 541.669 185.997 535.639C177.557 536.318 169.108 534.44 161.749 530.25C157.868 527.679 154.276 524.696 151.036 521.353L146.023 518.847C141.448 514.781 136.348 511.346 130.861 508.634C128.73 507.569 127.602 507.569 127.227 507.945C126.761 508.377 126.143 508.607 125.509 508.583C124.874 508.56 124.275 508.285 123.843 507.82C123.411 507.355 123.182 506.737 123.205 506.102C123.229 505.468 123.503 504.868 123.968 504.436L124.219 504.123Z" fill="#FEFEFE"/>
<path d="M267.949 472.294C270.117 474.511 271.721 477.216 272.626 480.182C273.531 483.147 273.711 486.287 273.149 489.337C272.965 490.048 272.713 490.74 272.398 491.404C270.182 496.764 266.018 501.084 260.744 503.497C246.02 511.329 274.277 520.226 265.819 538.458C265.562 538.925 265.332 539.406 265.13 539.899C258.112 554.31 250.907 558.696 250.28 566.59C250.031 567.683 250.031 568.818 250.28 569.911C250.219 570.284 250.219 570.665 250.28 571.039C251.283 576.177 254.979 580.562 257.36 588.895C259.671 598.639 259.671 608.788 257.36 618.531C255.516 628.928 252.748 639.139 249.09 649.044C249.591 651.613 246.709 653.618 242.824 654.558C241.452 655.03 240.015 655.284 238.564 655.31C238.188 655.31 238 655.31 237.749 655.31H236.747C235.738 655.405 234.722 655.235 233.799 654.817C232.877 654.4 232.078 653.749 231.484 652.929C231.484 652.929 231.484 652.929 231.484 652.49C231.421 652.329 231.421 652.15 231.484 651.989C229.541 649.796 227.599 647.666 225.782 645.724C222.336 641.714 219.141 637.829 216.259 633.944C201.973 615.524 194.643 600.048 200.344 590.086C200.674 589.36 201.073 588.668 201.535 588.018C202.287 587.141 203.101 586.327 203.916 585.512C207.505 582.817 210.16 579.065 211.508 574.784C212.857 570.502 212.831 565.906 211.434 561.641C211.121 560.074 210.682 558.445 210.181 556.691L208.677 552.117C207.55 548.922 206.296 545.538 205.106 541.967C199.342 523.985 216.948 519.035 228.038 511.266L228.915 510.702C235.744 505.752 230.732 495.665 229.541 487.144C228.852 481.818 229.541 477.056 235.306 474.613C250.468 467.533 259.115 462.458 267.949 472.294Z" fill="#EFEFEF"/>
<path d="M241.698 657.252C241.177 657.351 240.638 657.252 240.186 656.973C239.734 656.695 239.402 656.259 239.255 655.749C237.814 651.488 205.546 550.864 248.215 490.214C248.372 489.976 248.576 489.772 248.813 489.614C249.051 489.456 249.318 489.348 249.599 489.295C249.879 489.242 250.168 489.247 250.446 489.308C250.725 489.369 250.989 489.485 251.222 489.65C251.462 489.813 251.667 490.023 251.826 490.266C251.985 490.509 252.093 490.782 252.146 491.067C252.198 491.353 252.193 491.646 252.132 491.93C252.07 492.213 251.952 492.482 251.786 492.72C210.371 551.616 243.077 653.368 243.39 654.37C243.569 654.919 243.525 655.516 243.267 656.032C243.009 656.548 242.558 656.941 242.012 657.127L241.698 657.252Z" fill="white"/>
<path d="M465.565 205.572C465.088 205.572 464.616 205.478 464.175 205.295C463.734 205.112 463.333 204.845 462.996 204.507C462.658 204.17 462.391 203.769 462.208 203.328C462.025 202.888 461.931 202.415 461.931 201.938V167.164C461.928 166.573 462.069 165.991 462.342 165.467C462.615 164.942 463.012 164.493 463.498 164.157L546.328 107.266C546.934 106.845 547.658 106.626 548.395 106.639H582.292C583.256 106.639 584.18 107.022 584.861 107.704C585.543 108.385 585.926 109.31 585.926 110.273C585.926 111.237 585.543 112.161 584.861 112.843C584.18 113.524 583.256 113.907 582.292 113.907H549.523L469.199 169.106V202.188C469.136 203.108 468.725 203.969 468.05 204.597C467.376 205.226 466.487 205.574 465.565 205.572V205.572Z" fill="#2E1C67"/>
<path d="M349.591 209.832C349.112 209.841 348.635 209.753 348.19 209.573C347.746 209.393 347.342 209.126 347.003 208.787C346.663 208.448 346.396 208.044 346.216 207.599C346.037 207.154 345.949 206.678 345.957 206.198V187.84L320.331 162.214H241.448C240.485 162.214 239.56 161.832 238.879 161.15C238.197 160.469 237.814 159.544 237.814 158.58C237.814 157.617 238.197 156.692 238.879 156.011C239.56 155.329 240.485 154.946 241.448 154.946H321.835C322.313 154.943 322.786 155.036 323.227 155.219C323.669 155.402 324.069 155.671 324.404 156.011L352.16 183.768C352.842 184.449 353.225 185.373 353.225 186.337V206.198C353.234 206.678 353.145 207.154 352.966 207.599C352.786 208.044 352.519 208.448 352.18 208.787C351.841 209.126 351.437 209.393 350.992 209.573C350.547 209.753 350.071 209.841 349.591 209.832V209.832Z" fill="#2E1C67"/>
<path d="M627.967 339.591H583.732C582.768 339.591 581.844 339.207 581.163 338.526L549.836 307.198H515.689C514.725 307.198 513.801 306.815 513.119 306.134C512.438 305.452 512.055 304.528 512.055 303.564C512.055 302.601 512.438 301.676 513.119 300.995C513.801 300.313 514.725 299.93 515.689 299.93H551.527C552.491 299.931 553.415 300.314 554.096 300.995L585.424 332.323H628.155C629.118 332.323 630.043 332.706 630.724 333.387C631.406 334.069 631.789 334.993 631.789 335.957C631.789 336.921 631.406 337.845 630.724 338.527C630.043 339.208 629.118 339.591 628.155 339.591H627.967Z" fill="#2E1C67"/>
<path d="M246.709 404.69H212.562C211.598 404.69 210.674 404.307 209.992 403.625C209.311 402.944 208.928 402.019 208.928 401.056C208.928 400.092 209.311 399.168 209.992 398.486C210.674 397.805 211.598 397.422 212.562 397.422H244.265L264.378 349.24C264.659 348.574 265.13 348.006 265.731 347.605C266.332 347.204 267.038 346.988 267.761 346.984H303.286C304.25 346.984 305.174 347.367 305.856 348.049C306.537 348.73 306.92 349.655 306.92 350.618C306.92 351.582 306.537 352.506 305.856 353.188C305.174 353.869 304.25 354.252 303.286 354.252H270.204L250.092 402.497C249.801 403.151 249.326 403.706 248.726 404.095C248.125 404.484 247.425 404.691 246.709 404.69V404.69Z" fill="#2E1C67"/>
<path d="M449.023 398.988C450.477 397.377 451.333 395.314 451.447 393.147C451.561 390.979 450.927 388.839 449.65 387.084C449.087 386.269 448.348 385.593 447.487 385.104C446.626 384.615 445.666 384.327 444.678 384.26C443.691 384.194 442.701 384.352 441.782 384.721C440.864 385.091 440.041 385.663 439.374 386.394L390.378 437.396C388.803 439.101 387.93 441.339 387.935 443.661V659.821C378.035 661.2 370.767 665.084 370.767 669.721C370.767 675.485 381.732 680.121 395.265 680.121C408.799 680.121 419.701 675.485 419.701 669.721C419.701 665.084 412.433 661.2 402.533 659.821V447.232L449.023 398.988Z" fill="#2E1C67"/>
<path d="M719.566 105.825C719.562 111.296 717.99 116.652 715.037 121.258C712.084 125.864 707.873 129.528 702.903 131.815C697.933 134.103 692.411 134.918 686.992 134.165C681.573 133.412 676.482 131.122 672.324 127.566V127.566C669.592 125.382 667.317 122.68 665.629 119.617C663.941 116.553 662.874 113.186 662.487 109.709C662.217 108.518 662.112 107.295 662.174 106.076C661.993 102.207 662.598 98.3416 663.954 94.7137C665.31 91.0857 667.387 87.7706 670.061 84.9687C672.735 82.1668 675.949 79.9365 679.51 78.4126C683.07 76.8888 686.903 76.1031 690.776 76.1031C694.649 76.1031 698.481 76.8888 702.042 78.4126C705.603 79.9365 708.817 82.1668 711.491 84.9687C714.165 87.7706 716.242 91.0857 717.598 94.7137C718.953 98.3416 719.559 102.207 719.378 106.076L719.566 105.825Z" fill="#2E1C67"/>
<path d="M755.282 105.825C755.297 112.053 754.346 118.246 752.462 124.183C750.274 131.84 746.566 138.978 741.561 145.172C736.779 151.627 730.695 157.006 723.704 160.961C713.858 166.856 702.599 169.974 691.123 169.984C683.118 170.058 675.183 168.479 667.815 165.347C667.265 165.287 666.732 165.116 666.249 164.846C661.316 162.841 656.696 160.14 652.528 156.826C641.404 148.767 633.236 137.276 629.283 124.12C627.605 118.228 626.72 112.139 626.651 106.013H645.072C645.215 113.059 646.912 119.987 650.042 126.301C653.172 132.615 657.658 138.161 663.179 142.541C666.362 145.07 669.94 147.06 673.768 148.43C679.076 150.761 684.825 151.916 690.622 151.814C698.898 151.907 707.044 149.741 714.18 145.548C720.681 141.783 726.128 136.438 730.015 130.01C733.903 123.581 736.107 116.276 736.423 108.77C736.546 107.918 736.546 107.053 736.423 106.201C736.712 96.775 734.014 87.499 728.716 79.6978C724.561 73.5523 718.959 68.5216 712.404 65.0475C705.849 61.5734 698.542 59.7624 691.123 59.7734V41.4155C706.923 41.3521 722.163 47.2602 733.791 57.9564C740.792 63.8239 746.291 71.2775 749.831 79.6978C753.503 87.9142 755.363 96.8254 755.282 105.825V105.825Z" fill="#ED576C"/>
<path d="M691.123 79.4471C684.176 79.5294 677.54 82.3428 672.651 87.2789C667.762 92.2151 665.012 98.8773 664.996 105.825C664.958 108.734 665.468 111.625 666.5 114.346C668.109 116.587 669.415 119.031 670.384 121.614C672.845 124.782 675.986 127.355 679.576 129.145C683.166 130.934 687.112 131.894 691.123 131.952C698.086 131.952 704.763 129.186 709.686 124.263C714.61 119.34 717.376 112.662 717.376 105.7C717.376 98.737 714.61 92.0596 709.686 87.1363C704.763 82.213 698.086 79.4471 691.123 79.4471V79.4471ZM691.123 126.814C688.364 126.823 685.631 126.285 683.081 125.234C680.531 124.182 678.214 122.636 676.263 120.685C674.312 118.734 672.766 116.417 671.714 113.867C670.663 111.317 670.125 108.584 670.134 105.825C670.117 103.052 670.647 100.303 671.693 97.7351C672.739 95.167 674.28 92.8301 676.229 90.8577C678.178 88.8854 680.497 87.3163 683.052 86.24C685.608 85.1637 688.35 84.6013 691.123 84.5849C696.746 84.6177 702.13 86.8661 706.106 90.8422C710.082 94.8184 712.33 100.202 712.363 105.825C712.347 108.598 711.784 111.34 710.708 113.896C709.632 116.451 708.063 118.77 706.09 120.719C704.118 122.668 701.781 124.209 699.213 125.255C696.645 126.301 693.896 126.831 691.123 126.814V126.814Z" fill="white"/>
<path d="M753.778 77.8808C749.757 68.8911 743.76 60.9241 736.234 54.5731C727.05 46.2823 715.753 40.6897 703.592 38.4121C691.43 36.1346 678.876 37.2607 667.313 41.6661C658.354 44.924 650.19 50.0501 643.363 56.7043C636.536 63.3585 631.202 71.3886 627.716 80.2616C625.859 84.2434 624.552 88.459 623.831 92.7927C622.999 97.1514 622.559 101.576 622.515 106.013C622.545 112.509 623.516 118.967 625.397 125.185C629.409 139.191 637.96 151.467 649.707 160.084C653.98 163.345 658.682 166.001 663.679 167.979C664.409 168.406 665.187 168.742 665.998 168.981C673.95 172.248 682.463 173.93 691.06 173.931C703.339 173.901 715.387 170.592 725.959 164.345C733.379 160.058 739.79 154.224 744.755 147.24C749.721 141.15 753.58 134.237 756.158 126.814C758.307 119.937 759.426 112.779 759.479 105.574C759.554 96.0442 757.611 86.6063 753.778 77.8808V77.8808ZM733.101 59.5228C739.478 65.3215 744.578 72.3843 748.076 80.2616C751.643 88.1345 753.48 96.6806 753.464 105.324C753.539 111.127 752.671 116.903 750.895 122.429C748.844 130.135 745.241 137.341 740.307 143.606C735.366 149.981 729.317 155.415 722.45 159.646C712.919 165.123 702.115 167.997 691.122 167.979C683.303 167.992 675.557 166.481 668.316 163.53C668.316 163.53 667.815 163.53 667.313 163.53C662.253 161.442 657.474 158.727 653.091 155.448C642.59 147.314 634.899 136.096 631.099 123.368C629.283 117.679 628.395 111.734 628.467 105.762C628.52 98.1619 629.92 90.6311 632.603 83.5197C637.054 71.6627 645.018 61.4466 655.43 54.2364C665.842 47.0262 678.207 43.1654 690.872 43.1699C706.409 43.1272 721.385 48.97 732.788 59.5228H733.101Z" fill="#9FABF4"/>
<path d="M729.404 170.798C717.764 177.527 704.566 181.091 691.121 181.136C681.721 181.226 672.395 179.459 663.678 175.936L666.059 169.232L667.626 165.347L668.127 163.781L670.508 157.515C671.481 155.477 672.339 153.385 673.077 151.25L674.079 148.368L676.147 143.481C681.875 145.776 688.057 146.715 694.209 146.226C700.36 145.737 706.316 143.832 711.61 140.661L714.492 145.298L722.449 159.646L723.451 160.961L725.519 164.595L729.404 170.798Z" fill="#2E1C67"/>
<path d="M787.673 62.8436L753.777 77.8808L749.892 79.6978L748.388 80.4496L739.805 84.0836C737.419 78.5733 733.994 73.5742 729.717 69.3597C724.827 63.9988 718.863 59.7274 712.214 56.8236C705.564 53.9198 698.377 52.4485 691.122 52.5055V0.000499589C705.752 -0.0448313 720.228 2.99519 733.604 8.9222C746.98 14.8492 758.956 23.53 768.751 34.3981C776.682 42.6939 783.087 52.3232 787.673 62.8436V62.8436Z" fill="#ED576C"/>
<path d="M645.321 165.849C632.487 156.046 623.097 142.422 618.504 126.94L652.15 117.166C654.602 125.447 659.628 132.733 666.498 137.967L645.321 165.849Z" fill="#644AFF"/>
<path d="M667.313 42.6686C658.598 46.0429 650.66 51.1544 643.982 57.6924C637.304 64.2305 632.025 72.0584 628.467 80.7002C626.871 84.751 625.675 88.9479 624.896 93.2312H623.83L590.435 86.9657C591.974 78.1495 594.671 69.5751 598.455 61.4651C609.928 37.6273 630.113 19.1024 654.845 9.71204L667 41.5408L667.313 42.6686Z" fill="#533DD3"/>
<path d="M769.504 105.825C769.57 115.668 767.741 125.432 764.116 134.584C761.315 141.524 757.562 148.04 752.963 153.944L744.693 147.679L741.56 145.36L740.307 144.295L739.242 143.543C744.176 137.153 747.796 129.849 749.893 122.053C751.421 116.843 752.201 111.442 752.211 106.013L769.504 105.825Z" fill="#4931AD"/>
<path d="M731.223 371.107L724.519 368.538C724.751 366.456 724.751 364.354 724.519 362.272L731.223 359.703C732.754 358.967 733.951 357.682 734.578 356.103C735.205 354.525 735.215 352.768 734.607 351.182L731.474 343.413C731.107 342.532 730.543 341.747 729.827 341.117C729.11 340.488 728.259 340.03 727.339 339.779C726.071 339.403 724.722 339.403 723.454 339.779C723.291 339.828 723.116 339.828 722.953 339.779L719.82 341.095L716.499 342.348C714.933 340.844 713.367 339.278 711.8 337.962L714.682 331.258C715.011 330.494 715.183 329.672 715.19 328.84C715.198 328.008 715.039 327.183 714.724 326.413C714.409 325.644 713.944 324.944 713.356 324.356C712.768 323.768 712.069 323.303 711.299 322.987L703.279 319.855C702.237 319.32 701.048 319.144 699.896 319.353C698.619 319.577 697.452 320.216 696.575 321.17C696.079 321.444 695.7 321.89 695.51 322.424C695.51 322.424 695.51 322.987 695.009 323.238L693.442 327.123L692.127 329.942C690.046 329.686 687.942 329.686 685.861 329.942L683.042 323.238C682.522 321.933 681.578 320.84 680.362 320.135C679.146 319.431 677.729 319.155 676.337 319.353C676.071 319.428 675.789 319.428 675.523 319.353C675.022 319.353 675.022 319.353 674.771 319.353L667.002 322.737C666.21 323.027 665.485 323.475 664.87 324.053C664.255 324.63 663.763 325.326 663.424 326.098C663.085 326.871 662.905 327.704 662.895 328.547C662.885 329.391 663.046 330.227 663.368 331.007L666.187 337.273C666.187 337.273 665.686 338.087 665.185 338.338C663.98 339.475 662.85 340.689 661.802 341.972L655.097 339.09C653.852 338.569 652.472 338.465 651.162 338.792C649.852 339.12 648.683 339.861 647.829 340.907C647.442 341.482 647.107 342.09 646.827 342.724L643.694 350.493C643.366 351.257 643.193 352.079 643.186 352.911C643.179 353.743 643.337 354.568 643.652 355.337C643.967 356.107 644.432 356.807 645.02 357.395C645.609 357.983 646.308 358.448 647.078 358.763L653.782 361.583C653.531 363.664 653.531 365.768 653.782 367.848H653.03L646.764 370.417C645.995 370.732 645.295 371.198 644.707 371.786C644.119 372.374 643.654 373.074 643.339 373.843C643.024 374.613 642.866 375.438 642.873 376.27C642.88 377.102 643.053 377.923 643.381 378.688L646.514 386.457C646.938 387.509 647.64 388.426 648.545 389.11C649.45 389.794 650.524 390.22 651.651 390.342H652.716C653.484 390.465 654.267 390.465 655.035 390.342L661.3 387.522C661.725 387.875 662.086 388.299 662.365 388.775C663.509 389.896 664.723 390.942 665.999 391.908L663.117 398.612C662.796 399.392 662.635 400.229 662.645 401.072C662.654 401.916 662.834 402.749 663.173 403.521C663.513 404.293 664.005 404.989 664.619 405.567C665.234 406.144 665.959 406.592 666.751 406.883L674.521 410.266C675.633 410.527 676.791 410.527 677.904 410.266C678.974 410.069 679.98 409.611 680.832 408.934C681.684 408.256 682.357 407.38 682.791 406.381L685.36 399.677C687.442 399.903 689.543 399.903 691.625 399.677L692.127 400.68L694.445 406.131C694.706 406.92 695.148 407.636 695.735 408.224C696.323 408.811 697.039 409.253 697.828 409.514C698.589 409.885 699.425 410.078 700.272 410.078C701.119 410.078 701.954 409.885 702.715 409.514L707.916 407.446L710.484 406.381C711.254 406.066 711.953 405.601 712.542 405.013C713.13 404.425 713.595 403.725 713.91 402.955C714.225 402.185 714.383 401.361 714.376 400.529C714.369 399.697 714.196 398.875 713.868 398.111L711.299 391.407C712.932 390.009 714.403 388.433 715.685 386.708L720.071 388.775L722.389 389.59C723.68 390.074 725.087 390.159 726.427 389.835C727.768 389.512 728.98 388.793 729.908 387.773L730.659 386.206L734.043 378.187C734.417 376.861 734.343 375.448 733.833 374.169C733.323 372.889 732.406 371.813 731.223 371.107V371.107ZM699.395 389.903C699.395 389.903 699.395 389.903 698.893 389.903C695.383 391.094 691.698 391.687 687.991 391.657C682.923 391.362 678.038 389.657 673.887 386.735C669.735 383.812 666.483 379.788 664.496 375.116C664.155 374.457 663.882 373.764 663.681 373.049C661.691 366.646 662.154 359.733 664.98 353.653C667.806 347.573 672.792 342.762 678.969 340.155C681.724 339.212 684.587 338.622 687.49 338.401C691.088 338.105 694.706 338.619 698.079 339.904C702.293 341.317 706.056 343.826 708.981 347.172C711.068 349.349 712.726 351.9 713.868 354.691C715.289 357.95 716.04 361.462 716.079 365.017C716.118 368.573 715.442 372.1 714.092 375.39C712.742 378.679 710.746 381.664 708.222 384.168C705.697 386.672 702.695 388.643 699.395 389.966V389.903Z" fill="#9FABF4"/>
<path d="M713.865 355.067C712.723 352.276 711.065 349.725 708.978 347.548C706.052 344.202 702.29 341.693 698.076 340.28C694.702 338.995 691.084 338.481 687.487 338.776C684.584 338.998 681.72 339.588 678.966 340.531C672.789 343.138 667.803 347.949 664.977 354.029C662.151 360.109 661.688 367.022 663.678 373.425C663.879 374.14 664.152 374.833 664.492 375.492C666.48 380.164 669.732 384.188 673.883 387.111C678.035 390.033 682.92 391.738 687.988 392.033C691.695 392.063 695.38 391.47 698.89 390.279C698.89 390.279 698.89 390.279 699.391 390.279C702.684 388.956 705.679 386.987 708.198 384.488C710.717 381.988 712.71 379.01 714.059 375.727C715.409 372.445 716.086 368.926 716.053 365.377C716.019 361.829 715.275 358.323 713.865 355.067V355.067ZM696.822 380.129C696.321 380.129 696.008 380.129 695.757 380.63C692.643 381.925 689.196 382.188 685.92 381.382C681.742 380.662 677.974 378.432 675.332 375.116C674.579 374.074 673.968 372.936 673.515 371.733C672.65 369.676 672.198 367.469 672.187 365.238C672.175 363.006 672.603 360.794 673.447 358.729C674.291 356.663 675.533 354.784 677.104 353.199C678.674 351.613 680.542 350.353 682.6 349.49C684.835 348.692 687.182 348.248 689.554 348.175C693.688 348.469 697.609 350.121 700.707 352.874C702.708 354.723 704.231 357.031 705.145 359.598C706.059 362.165 706.337 364.915 705.955 367.613C705.573 370.311 704.543 372.876 702.952 375.089C701.362 377.301 699.258 379.095 696.822 380.317V380.129Z" fill="#2E1C67"/>
<path d="M757.913 285.708C757.382 284.194 756.575 282.792 755.532 281.572C753.391 278.348 750.205 275.958 746.51 274.806C744.022 273.903 741.386 273.478 738.741 273.553C736.605 273.828 734.504 274.332 732.475 275.056C729.909 276.117 727.591 277.702 725.671 279.708C723.751 281.715 722.27 284.099 721.323 286.71C719.993 290.781 719.993 295.17 721.323 299.241L722.075 300.745C723.704 304.691 726.605 307.981 730.316 310.092C734.028 312.203 738.338 313.015 742.563 312.399C744.165 312.428 745.752 312.085 747.199 311.396H747.513C748.264 311.064 748.961 310.62 749.58 310.08C753.811 307.843 757.029 304.075 758.578 299.546C760.126 295.017 759.889 290.067 757.913 285.708V285.708ZM748.327 302.249C747.49 303.096 746.516 303.795 745.445 304.316C745.445 304.316 744.944 304.316 744.693 304.316C743.361 305.077 741.84 305.446 740.307 305.381C738.282 305.477 736.267 305.049 734.456 304.138C732.644 303.227 731.099 301.864 729.969 300.181C729.342 299.485 728.815 298.704 728.403 297.863C727.363 295.5 727.079 292.874 727.588 290.344C728.009 288.34 728.914 286.47 730.225 284.898C731.536 283.325 733.212 282.097 735.107 281.322C736.786 280.776 738.542 280.502 740.307 280.507C741.725 280.51 743.129 280.787 744.442 281.322C745.869 281.866 747.165 282.705 748.245 283.785C749.324 284.865 750.164 286.16 750.708 287.587C750.708 287.587 751.209 288.088 751.209 288.339C752.193 290.677 752.444 293.258 751.929 295.742C751.415 298.225 750.159 300.494 748.327 302.249V302.249Z" fill="#2E1C67"/>
<path d="M789.49 369.039C789.741 367.925 789.741 366.769 789.49 365.656L793.061 364.089C793.503 363.922 793.907 363.67 794.251 363.346C794.594 363.022 794.87 362.633 795.062 362.202C795.255 361.771 795.36 361.306 795.371 360.834C795.383 360.362 795.3 359.893 795.129 359.453L793.375 355.317C793.155 354.819 792.827 354.374 792.416 354.017C792.004 353.66 791.519 353.398 790.994 353.25C790.328 352.994 789.592 352.994 788.926 353.25V353.25L785.292 354.816C784.6 353.948 783.823 353.15 782.974 352.435L784.29 348.864C784.385 348.431 784.385 347.982 784.29 347.548C784.326 346.842 784.149 346.14 783.78 345.536C783.411 344.933 782.868 344.454 782.222 344.165L777.836 342.348C777.236 342.23 776.619 342.23 776.019 342.348C775.329 342.535 774.702 342.902 774.202 343.413C774.202 343.413 773.701 343.914 773.701 344.165C773.701 344.415 773.388 344.165 773.388 344.666L772.385 346.483L771.884 348.3C770.686 348.048 769.448 348.048 768.25 348.3L766.934 344.666C766.61 343.922 766.061 343.299 765.364 342.883C764.667 342.467 763.858 342.28 763.05 342.348C762.886 342.397 762.712 342.397 762.548 342.348V342.348L758.162 344.165C757.73 344.348 757.339 344.617 757.012 344.954C756.685 345.292 756.429 345.692 756.259 346.13C756.09 346.568 756.01 347.036 756.025 347.506C756.04 347.975 756.149 348.437 756.346 348.864L757.912 352.435C757.599 352.435 757.599 352.435 757.348 352.999C757.097 353.563 756.095 354.252 755.28 354.816L751.646 353.5C751.004 353.192 750.279 353.099 749.58 353.235C748.88 353.37 748.243 353.727 747.762 354.252C747.506 354.558 747.333 354.925 747.261 355.317L745.444 359.453C745.257 359.876 745.156 360.332 745.146 360.795C745.136 361.258 745.218 361.718 745.387 362.149C745.556 362.58 745.808 362.973 746.13 363.306C746.451 363.639 746.836 363.905 747.261 364.089L750.894 365.656V369.289L747.511 370.605C747.086 370.789 746.702 371.055 746.381 371.388C746.059 371.721 745.806 372.114 745.637 372.545C745.469 372.976 745.387 373.436 745.396 373.899C745.406 374.362 745.507 374.818 745.694 375.242L747.511 379.377C747.74 379.986 748.128 380.522 748.635 380.93C749.142 381.338 749.749 381.602 750.393 381.695C750.973 381.801 751.568 381.801 752.148 381.695L755.782 380.129C755.796 380.274 755.859 380.409 755.962 380.512C756.065 380.615 756.201 380.679 756.346 380.693C756.847 381.445 757.599 381.946 758.162 382.76L756.596 386.081C756.31 386.982 756.362 387.956 756.743 388.821C757.124 389.686 757.806 390.382 758.664 390.78L762.799 392.597C763.4 392.704 764.015 392.704 764.616 392.597V392.597C765.162 392.444 765.67 392.182 766.112 391.826C766.553 391.471 766.918 391.03 767.185 390.53L768.751 386.896H772.135V387.397L773.388 390.53C773.825 391.283 774.451 391.909 775.205 392.347C776.149 392.596 777.142 392.596 778.087 392.347L780.405 391.281L781.971 390.78C782.82 390.372 783.494 389.674 783.874 388.813C784.253 387.951 784.311 386.982 784.039 386.081L783.287 384.264L782.473 382.51L784.791 380.129L787.422 381.194L788.425 381.695C789.162 381.971 789.97 381.992 790.72 381.753C791.47 381.515 792.118 381.031 792.56 380.379C792.56 380.379 793.124 379.878 793.124 379.628L794.878 375.492C795.212 374.64 795.218 373.693 794.894 372.836C794.57 371.98 793.939 371.274 793.124 370.856L789.49 369.039ZM784.29 371.608C783.617 373.681 782.509 375.587 781.039 377.197C779.569 378.808 777.772 380.085 775.769 380.943V380.943C772.208 382.315 768.253 382.245 764.743 380.748C761.233 379.25 758.445 376.443 756.972 372.923C756.912 372.527 756.738 372.157 756.471 371.858C755.422 368.32 755.711 364.52 757.282 361.181C758.853 357.842 761.597 355.198 764.992 353.751C766.511 353.304 768.06 352.969 769.628 352.749C771.554 352.736 773.473 352.989 775.33 353.5C775.33 353.5 775.894 353.5 776.145 353.5C779.689 355.131 782.533 357.976 784.164 361.52C785.382 364.765 785.426 368.334 784.29 371.608V371.608Z" fill="#9FABF4"/>
<path d="M783.787 361.771C782.157 358.227 779.312 355.382 775.768 353.751C775.768 353.751 775.204 353.751 774.953 353.751C773.096 353.239 771.178 352.986 769.251 352.999C767.684 353.22 766.134 353.555 764.615 354.002C761.22 355.449 758.476 358.093 756.905 361.432C755.334 364.771 755.045 368.571 756.094 372.109C756.361 372.408 756.535 372.778 756.595 373.174C758.068 376.694 760.856 379.501 764.366 380.999C767.876 382.496 771.831 382.566 775.392 381.194V381.194C777.396 380.335 779.193 379.058 780.662 377.448C782.132 375.838 783.24 373.932 783.913 371.858C785.049 368.584 785.005 365.016 783.787 361.771ZM774.201 375.743C774.039 375.686 773.862 375.686 773.7 375.743C771.756 376.485 769.627 376.587 767.621 376.035C765.615 375.483 763.838 374.305 762.547 372.673C762.547 372.172 761.795 371.357 761.482 370.856C760.542 368.502 760.56 365.873 761.531 363.532C762.503 361.19 764.352 359.322 766.683 358.325C767.794 357.727 769.076 357.528 770.317 357.761C771.365 357.773 772.403 357.964 773.387 358.325C774.622 358.718 775.754 359.383 776.697 360.273C777.641 361.162 778.372 362.252 778.838 363.463C779.788 365.714 779.836 368.243 778.973 370.529C778.11 372.815 776.402 374.681 774.201 375.743V375.743Z" fill="#2E1C67"/>
<path d="M97.1516 386.896V422.609C96.9638 424.848 95.9419 426.934 94.2882 428.455C92.6346 429.976 90.4699 430.82 88.2232 430.82C85.9765 430.82 83.8119 429.976 82.1583 428.455C80.5046 426.934 79.4826 424.848 79.2949 422.609V386.896C79.4826 384.657 80.5046 382.57 82.1583 381.049C83.8119 379.528 85.9765 378.684 88.2232 378.684C90.4699 378.684 92.6346 379.528 94.2882 381.049C95.9419 382.57 96.9638 384.657 97.1516 386.896V386.896Z" fill="#ED576C"/>
<path d="M129.294 354.002V414.339C129.397 415.557 129.246 416.784 128.85 417.941C128.454 419.098 127.823 420.16 126.995 421.06C126.168 421.96 125.162 422.679 124.043 423.171C122.923 423.662 121.714 423.916 120.491 423.916C119.268 423.916 118.059 423.662 116.939 423.171C115.819 422.679 114.814 421.96 113.987 421.06C113.159 420.16 112.527 419.098 112.132 417.941C111.736 416.784 111.585 415.557 111.688 414.339V354.002C111.874 351.795 112.882 349.739 114.513 348.241C116.143 346.742 118.277 345.911 120.491 345.911C122.705 345.911 124.839 346.742 126.469 348.241C128.099 349.739 129.108 351.795 129.294 354.002V354.002Z" fill="#2E1C67"/>
<path d="M161.624 401.369V422.609C161.436 424.848 160.414 426.934 158.761 428.455C157.107 429.976 154.942 430.82 152.696 430.82C150.449 430.82 148.284 429.976 146.631 428.455C144.977 426.934 143.955 424.848 143.767 422.609V401.369C143.664 400.134 143.818 398.89 144.219 397.717C144.621 396.544 145.262 395.468 146.101 394.555C146.94 393.643 147.96 392.914 149.095 392.416C150.23 391.918 151.456 391.661 152.696 391.661C153.935 391.661 155.162 391.918 156.297 392.416C157.432 392.914 158.451 393.643 159.291 394.555C160.13 395.468 160.77 396.544 161.172 397.717C161.574 398.89 161.728 400.134 161.624 401.369V401.369Z" fill="#ED576C"/>
<path d="M193.704 365.154V414.338C193.807 415.557 193.656 416.783 193.26 417.941C192.865 419.098 192.233 420.16 191.406 421.06C190.578 421.96 189.573 422.679 188.453 423.171C187.334 423.662 186.124 423.916 184.901 423.916C183.678 423.916 182.469 423.662 181.349 423.171C180.23 422.679 179.224 421.96 178.397 421.06C177.569 420.16 176.938 419.098 176.542 417.941C176.147 416.783 175.995 415.557 176.098 414.338V365.154C175.995 363.936 176.147 362.709 176.542 361.552C176.938 360.395 177.569 359.333 178.397 358.433C179.224 357.532 180.23 356.814 181.349 356.322C182.469 355.83 183.678 355.577 184.901 355.577C186.124 355.577 187.334 355.83 188.453 356.322C189.573 356.814 190.578 357.532 191.406 358.433C192.233 359.333 192.865 360.395 193.26 361.552C193.656 362.709 193.807 363.936 193.704 365.154V365.154Z" fill="#2E1C67"/>
<path d="M219.58 110.211V192.539C219.379 193.85 218.878 195.097 218.118 196.184C217.357 197.27 216.357 198.167 215.194 198.805C214.718 199.223 214.192 199.581 213.628 199.87C212.945 200.341 212.139 200.602 211.31 200.622H210.558L189.318 199.87L169.644 199.306C168.179 199.261 166.771 198.733 165.637 197.804C164.504 196.874 163.71 195.596 163.379 194.169C163.263 193.653 163.263 193.118 163.379 192.602V181.45L162.627 151.688L161.875 126.626L160.559 111.589V110.837C160.873 110.023 161.123 109.271 161.374 108.519C161.797 107.835 162.326 107.222 162.94 106.702C162.94 106.138 162.94 106.138 162.94 106.138C164.612 104.461 166.842 103.458 169.206 103.319H212.438C213.373 103.247 214.312 103.374 215.194 103.692C216.076 104.01 216.881 104.51 217.556 105.161C218.231 105.812 218.76 106.599 219.109 107.469C219.458 108.34 219.619 109.274 219.58 110.211V110.211Z" fill="#463ABF"/>
<path d="M217.262 111.589V194.106C217.38 195.398 217.093 196.695 216.442 197.817C215.792 198.939 214.808 199.832 213.628 200.371C212.945 200.842 212.14 201.104 211.31 201.123H167.452C166.566 201.132 165.687 200.964 164.867 200.631C164.046 200.298 163.3 199.805 162.671 199.182C162.041 198.559 161.542 197.817 161.201 196.999C160.86 196.182 160.685 195.305 160.685 194.419V111.025C160.998 110.211 161.249 109.459 161.499 108.707C161.923 108.023 162.451 107.41 163.066 106.89C163.066 106.89 163.066 106.89 163.567 106.89C164.686 106.05 166.053 105.609 167.452 105.637H210.684C211.507 105.595 212.33 105.715 213.106 105.992C213.883 106.268 214.597 106.695 215.208 107.248C215.819 107.801 216.315 108.469 216.668 109.214C217.02 109.959 217.222 110.766 217.262 111.589Z" fill="#2E1C67"/>
<path d="M212.061 110.9H165.759C163.544 110.9 161.749 112.695 161.749 114.91V191.099C161.749 193.313 163.544 195.108 165.759 195.108H212.061C214.276 195.108 216.071 193.313 216.071 191.099V114.91C216.071 112.695 214.276 110.9 212.061 110.9Z" fill="#F2F2F2"/>
<path d="M195.834 109.083C196.353 109.083 196.774 108.662 196.774 108.143C196.774 107.624 196.353 107.203 195.834 107.203C195.315 107.203 194.895 107.624 194.895 108.143C194.895 108.662 195.315 109.083 195.834 109.083Z" fill="#F2F2F2"/>
<path d="M193.201 107.642H179.73C179.419 107.642 179.166 107.88 179.166 108.174C179.166 108.469 179.419 108.707 179.73 108.707H193.201C193.512 108.707 193.765 108.469 193.765 108.174C193.765 107.88 193.512 107.642 193.201 107.642Z" fill="#F2F2F2"/>
<path d="M501.654 243.165V374.74C501.654 381.758 492.82 393.537 484.737 397.735C483.188 398.746 481.469 399.468 479.662 399.865C479.544 399.917 479.416 399.944 479.286 399.944C479.157 399.944 479.029 399.917 478.91 399.865L457.921 398.299H453.535L430.227 396.482H426.092L353.663 391.031C349.502 391.069 345.486 389.501 342.452 386.654C339.417 383.806 337.598 379.898 337.372 375.743V374.74V371.106L332.485 296.547V292.412L331.984 284.642L329.353 247.676C329.427 247.048 329.596 246.436 329.854 245.859C331.42 237.025 345.643 226.687 354.227 226.687H485.802C490.084 226.785 494.154 228.573 497.123 231.66C500.093 234.746 501.721 238.882 501.654 243.165V243.165Z" fill="#2E1C67"/>
<path d="M492.129 252.563V384.139C492.172 387.81 490.95 391.383 488.668 394.259C486.386 397.134 483.183 399.136 479.598 399.928C479.48 399.98 479.352 400.006 479.222 400.006C479.093 400.006 478.965 399.98 478.846 399.928C477.891 400.066 476.92 400.066 475.964 399.928H344.389C342.247 399.936 340.125 399.52 338.145 398.705C336.165 397.889 334.365 396.689 332.851 395.175C331.337 393.661 330.137 391.861 329.321 389.881C328.506 387.901 328.09 385.779 328.098 383.637V252.062C328.103 250.486 328.357 248.922 328.85 247.425C328.925 246.798 329.094 246.185 329.351 245.608C330.63 242.684 332.734 240.197 335.405 238.45C338.075 236.703 341.197 235.772 344.389 235.771H475.964C478.138 235.779 480.289 236.222 482.288 237.077C484.287 237.931 486.094 239.178 487.602 240.745C489.11 242.311 490.288 244.164 491.065 246.194C491.843 248.225 492.205 250.39 492.129 252.563Z" fill="#9FABF4"/>
<path d="M443.76 362.209L407.044 359.703C405.283 359.703 403.594 359.004 402.348 357.758C401.103 356.513 400.403 354.823 400.403 353.062L395.265 313.527C395.265 309.83 403.348 305.757 407.044 305.757H447.645C448.522 305.757 449.391 305.931 450.201 306.269C451.011 306.606 451.746 307.101 452.363 307.725C452.981 308.348 453.469 309.088 453.799 309.901C454.129 310.714 454.294 311.584 454.286 312.461V353.062C454.286 356.759 447.457 362.209 443.76 362.209Z" fill="white"/>
<path d="M442.254 309.015H401.591C397.923 309.015 394.95 311.989 394.95 315.657V356.32C394.95 359.988 397.923 362.961 401.591 362.961H442.254C445.922 362.961 448.896 359.988 448.896 356.32V315.657C448.896 311.989 445.922 309.015 442.254 309.015Z" fill="#ED576C"/>
<path d="M440.001 348.425H427.657C426.066 348.425 424.775 349.716 424.775 351.308C424.775 352.899 426.066 354.19 427.657 354.19H440.001C441.592 354.19 442.883 352.899 442.883 351.308C442.883 349.716 441.592 348.425 440.001 348.425Z" fill="white"/>
<path d="M424.024 305.82H419.763V270.921L388.937 254.38C388.597 254.215 388.31 253.956 388.111 253.635C387.911 253.313 387.806 252.942 387.809 252.563V236.273H392.07V251.247L422.896 267.788C423.237 267.97 423.522 268.241 423.72 268.572C423.919 268.903 424.024 269.282 424.024 269.668V305.82Z" fill="white"/>
<path d="M441.881 305.82H437.683V269.668C437.683 269.282 437.788 268.903 437.986 268.572C438.185 268.241 438.47 267.97 438.811 267.788L469.637 251.247V236.273H473.897V252.563C473.9 252.942 473.796 253.313 473.596 253.635C473.396 253.956 473.11 254.215 472.77 254.38L441.881 270.921V305.82Z" fill="white"/>
<path d="M492.194 350.556H481.543C481.109 350.55 480.688 350.407 480.339 350.149C479.99 349.89 479.732 349.528 479.601 349.115L472.771 329.629H453.975V325.368H473.962C474.409 325.35 474.849 325.482 475.212 325.744C475.576 326.005 475.841 326.38 475.967 326.809L482.796 346.295H491.881L492.194 350.556Z" fill="white"/>
<path d="M492.192 373.55H473.395C472.992 373.556 472.595 373.447 472.252 373.236C471.908 373.026 471.631 372.722 471.453 372.36L461.616 352.623H454.285V348.425H462.806C463.193 348.425 463.571 348.53 463.902 348.729C464.234 348.928 464.504 349.213 464.686 349.553L474.586 369.29H492.192V373.55Z" fill="white"/>
<path d="M395.329 332.01V336.145H363.5C363.066 336.189 362.629 336.091 362.256 335.865C361.883 335.639 361.594 335.297 361.432 334.892L347.961 296.798H328.037V292.662H349.528C349.959 292.674 350.38 292.802 350.744 293.034C351.108 293.266 351.402 293.592 351.595 293.978L352.848 297.863L365.379 332.01H395.329Z" fill="white"/>
<path d="M395.078 354.002V358.387H362.936L354.916 374.74C354.784 375.114 354.537 375.437 354.211 375.662C353.885 375.887 353.495 376.003 353.099 375.993H328.037V371.608H351.846L359.866 355.568C359.995 355.188 360.24 354.857 360.565 354.621C360.891 354.386 361.281 354.257 361.683 354.252L395.078 354.002Z" fill="white"/>
<path d="M430.226 384.577V400.617H426.091V385.83L407.295 377.059C406.682 376.536 406.3 375.793 406.229 374.991V362.836H410.365V373.675L429.537 382.51C429.976 382.76 430.226 383.512 430.226 384.577Z" fill="white"/>
<path d="M457.919 384.577V400.617H453.533V385.83L434.737 377.059C434.363 376.851 434.046 376.553 433.817 376.192C433.587 375.831 433.451 375.418 433.421 374.991V362.836H437.556V373.675L456.729 382.51C457.123 382.681 457.451 382.975 457.665 383.347C457.879 383.719 457.969 384.151 457.919 384.577V384.577Z" fill="white"/>
<path fill-rule="evenodd" clip-rule="evenodd" d="M412.747 303.063L394.827 274.492C394.577 274.084 394.249 273.729 393.861 273.448C393.473 273.168 393.034 272.966 392.568 272.855C392.103 272.745 391.62 272.727 391.147 272.804C390.674 272.881 390.222 273.05 389.815 273.302C389.001 273.817 388.425 274.635 388.213 275.575C388.002 276.515 388.172 277.5 388.687 278.314L404.852 304.128C404.178 304.751 403.642 305.507 403.275 306.349C402.908 307.19 402.72 308.098 402.722 309.015C402.631 309.963 402.739 310.919 403.039 311.822C403.339 312.726 403.825 313.556 404.465 314.261C405.105 314.966 405.885 315.529 406.756 315.914C407.626 316.299 408.568 316.498 409.52 316.498C410.472 316.498 411.413 316.299 412.284 315.914C413.154 315.529 413.934 314.966 414.575 314.261C415.215 313.556 415.7 312.726 416.001 311.822C416.301 310.919 416.409 309.963 416.318 309.015C416.296 307.797 415.955 306.606 415.328 305.562C414.701 304.517 413.811 303.655 412.747 303.063V303.063Z" fill="#2E1C67"/>
<path d="M550.084 644.157C549.065 650.58 546.511 656.662 542.639 661.887C538.767 667.112 533.691 671.325 527.842 674.169C520.695 677.369 512.798 678.519 505.035 677.49C498.124 676.476 491.615 673.611 486.199 669.199C480.783 664.787 476.662 658.992 474.272 652.428C471.656 646.133 470.832 639.237 471.891 632.503C472.158 631.186 472.514 629.888 472.956 628.619C475.026 619.458 480.488 611.422 488.244 606.125C496.455 600.182 506.656 597.665 516.689 599.108C524.789 600.364 532.301 604.099 538.191 609.798C544.082 615.498 548.061 622.883 549.583 630.937C550.53 635.279 550.7 639.755 550.084 644.157V644.157Z" fill="#2E1C67"/>
<path d="M544.383 647.478C543.062 656.054 538.955 663.956 532.698 669.968C526.44 675.979 518.379 679.764 509.757 680.74C501.135 681.717 492.432 679.829 484.988 675.369C477.545 670.91 471.776 664.125 468.571 656.062C465.951 649.767 465.147 642.865 466.252 636.137C467.848 625.82 473.429 616.542 481.795 610.297C490.161 604.052 500.643 601.339 510.988 602.742C519.079 603.884 526.614 607.512 532.552 613.124C538.49 618.737 542.537 626.056 544.133 634.07C544.866 638.503 544.951 643.02 544.383 647.478V647.478Z" fill="#9FABF4"/>
<path d="M494.449 663.831C493.816 663.71 493.22 663.444 492.709 663.052C492.198 662.66 491.785 662.155 491.504 661.575L483.672 645.035C483.224 644.071 483.176 642.968 483.541 641.97C483.905 640.971 484.651 640.158 485.614 639.709C486.086 639.476 486.6 639.34 487.125 639.309C487.65 639.278 488.177 639.352 488.673 639.527C489.169 639.702 489.625 639.975 490.014 640.329C490.404 640.683 490.718 641.111 490.94 641.588L496.328 652.992L522.267 626.927C522.621 626.49 523.062 626.131 523.563 625.875C524.064 625.619 524.613 625.472 525.175 625.442C525.736 625.412 526.298 625.501 526.823 625.702C527.348 625.904 527.825 626.213 528.223 626.611C528.62 627.008 528.93 627.485 529.131 628.011C529.333 628.536 529.421 629.097 529.392 629.659C529.362 630.221 529.214 630.77 528.958 631.271C528.702 631.771 528.344 632.213 527.906 632.566L497.895 662.954C497.422 663.347 496.867 663.63 496.271 663.782C495.674 663.934 495.052 663.95 494.449 663.831V663.831Z" fill="white"/>
<path fill-rule="evenodd" clip-rule="evenodd" d="M235.619 442.157C228.622 481.797 232.409 522.588 246.584 560.262C238.434 601.292 232.826 642.786 229.792 684.507L240.255 687.577C263.772 625.59 277.431 583.82 281.232 562.267C285.43 526.366 292.76 489.525 283.174 454.124L235.619 442.157Z" fill="#2E1C67"/>
<path fill-rule="evenodd" clip-rule="evenodd" d="M230.233 676.613C227.982 678.049 226.289 680.21 225.434 682.74C224.58 685.27 224.615 688.015 225.534 690.522C228.792 693.529 261.498 699.983 267.262 697.79C273.528 691.524 250.47 690.271 242.701 679.871C238.403 679.428 234.198 678.329 230.233 676.613Z" fill="#ED576C"/>
<path fill-rule="evenodd" clip-rule="evenodd" d="M397.207 293.289C380.499 339.988 366.694 367.848 355.792 376.871C353.724 378.249 350.842 378.562 348.586 379.878C335.657 387.861 322.075 394.736 307.986 400.429L310.492 356.571C320.517 354.002 331.293 353.25 341.82 351.245C343.685 350.736 345.431 349.863 346.957 348.676C355.729 336.145 370.014 316.471 389.939 289.655L397.207 293.289Z" fill="#FFD3A4"/>
<path fill-rule="evenodd" clip-rule="evenodd" d="M258.302 452.558C258.761 483.259 271.794 521.061 297.399 565.964C295.734 607.752 296.675 649.603 300.218 691.274L310.995 692.652C324.528 627.784 331.483 584.322 331.859 562.267C330.325 526.181 321.814 490.733 306.797 457.884L258.302 452.558Z" fill="#2E1C67"/>
<path fill-rule="evenodd" clip-rule="evenodd" d="M299.34 683.442C297.304 685.187 295.941 687.586 295.483 690.228C295.026 692.869 295.503 695.588 296.834 697.915C300.53 700.359 333.8 701.675 339.188 698.605C344.702 691.587 321.457 693.78 312.121 684.695C307.821 684.97 303.505 684.547 299.34 683.442V683.442Z" fill="#ED576C"/>
<path fill-rule="evenodd" clip-rule="evenodd" d="M233.739 354.816C220.644 367.347 235.869 418.599 227.473 472.733C243.137 488.48 272.543 488.125 315.692 471.668C298.9 415.278 318.323 393.412 313.624 355.38C301.168 349.424 287.552 346.285 273.744 346.188C259.937 346.09 246.278 349.036 233.739 354.816V354.816Z" fill="#ED576C"/>
<path fill-rule="evenodd" clip-rule="evenodd" d="M286.684 328.94C281.087 327.128 275.142 326.656 269.329 327.561C270.958 336.584 269.329 342.912 264.066 346.358C267.915 348.343 272.147 349.471 276.474 349.666C280.8 349.861 285.116 349.117 289.128 347.486C287.305 344.798 286.135 341.721 285.711 338.502C285.287 335.282 285.62 332.008 286.684 328.94V328.94Z" fill="#FFD3A4"/>
<path fill-rule="evenodd" clip-rule="evenodd" d="M301.219 299.993L271.332 298.427L265.443 327.373C277.974 339.278 287.727 342.264 294.703 336.333C299.903 329.378 302.096 317.223 301.219 299.993Z" fill="#FFD3A4"/>
<path fill-rule="evenodd" clip-rule="evenodd" d="M302.661 292.537C299.385 289.781 295.424 287.965 291.199 287.281C286.973 286.597 282.642 287.071 278.664 288.652C277.294 288.138 275.831 287.912 274.369 287.991C272.907 288.07 271.478 288.451 270.171 289.111C268.863 289.77 267.707 290.694 266.775 291.823C265.843 292.952 265.155 294.261 264.755 295.67C257.236 301.309 255.419 309.266 259.429 319.604C263.8 324.093 266.724 329.789 267.825 335.957C269.813 337.987 272.39 339.34 275.19 339.823C277.99 340.307 280.872 339.897 283.426 338.651C285.12 337.567 286.438 335.986 287.201 334.124C287.963 332.263 288.133 330.212 287.686 328.25C286.471 326.867 285.725 325.134 285.556 323.301C286.621 321.233 287.686 320.669 288.752 321.484C289.641 322.229 290.276 323.233 290.568 324.356C290.86 325.479 290.795 326.665 290.381 327.749C291.083 327.511 291.698 327.067 292.145 326.475C292.592 325.883 292.851 325.17 292.887 324.428C293.543 322.157 293.543 319.746 292.887 317.474C297.256 317.435 301.446 315.732 304.603 312.712C308.237 303.94 307.59 297.215 302.661 292.537Z" fill="black"/>
<path fill-rule="evenodd" clip-rule="evenodd" d="M390.377 289.404C389.562 285.269 389.625 280.946 391.755 280.821C393.886 280.695 393.572 284.267 394.575 283.703C395.287 282.836 395.815 281.834 396.127 280.757C396.44 279.679 396.53 278.55 396.392 277.437C395.765 275.244 405.665 277.437 404.412 284.705C404.17 286.746 403.369 288.68 402.098 290.294C400.826 291.908 399.133 293.14 397.206 293.853L390.377 289.404Z" fill="#FFD3A4"/>
<path fill-rule="evenodd" clip-rule="evenodd" d="M349.276 381.006C336.064 388.628 322.255 395.166 307.986 400.554L310.492 356.696C320.517 354.127 330.855 351.871 341.82 349.804C347.396 356.508 348.9 371.044 349.276 381.006Z" fill="#ED576C"/>
</svg>
